<?xml version="1.0" encoding="UTF-8"?>
<svg id="Layer_1" xmlns="http://www.w3.org/2000/svg" version="1.1" viewBox="64 64 232 232">
  <!-- Generator: Adobe Illustrator 30.0.0, SVG Export Plug-In . SVG Version: 2.1.1 Build 123)  -->
  <defs>
    <style>
      .st0 {
        fill: #9a9694;
      }

      .st1 {
        fill: #fff;
      }
    </style>
  </defs>
  <path class="st1" d="M176.64,232.29c.03.11.25.89-.57,1.33-.85.44-1.96.33-2.1.33-1.85.06-1.81-.18-3.61-.62-.17-.04-.18-.01-2.18-.42-.95-.2-.92-.28-1.88-.45-.99-.17-3.5-.57-3.58-2.32,0-.16-.03-.62.69-1.82,1.3-2.16,3.45-1.01,3.72-.87,4.31,2.31,4.39,2.12,6.8,3.14.68.29,2.41.64,2.71,1.7Z"/>
  <path class="st1" d="M161.73,220.64c.24.94-.04,2.67-.12,2.95-.28.93-.38,1.57-1.27,3.18-.13.23-1.81,2.3-2.09,2.58-.56.58-2.14,1.85-2.56,2.12-1.97,1.29-2.93,1.44-3.21,1.49-.99.16-2.49.7-3.62.66-1.27-.04-1.27.05-2.55.02-2.01-.03-3.11-1.89-1.71-3.39.12-.12,1.36-1.35,1.46-1.41,1.96-1.39,2.63-2.04,3.31-2.95,1.57-2.1,1.59-2.08,1.72-2.27,1.39-2.06,1.69-1.84,2.91-4.01.99-1.76,1.3-1.61,2.5-1.65.69-.03.68-.03.74-.03.69-.05,1.15-.39,1.83-.31,1.52.16,2.55,2.59,2.66,3.02Z"/>
  <path class="st1" d="M153.75,208.3c-.09,1.09-.17,1.08-.33,2.16-.34,2.28-.92,2.11-1.45,4.36-.26,1.1-1.18,2.48-1.5,3.04-.82,1.44-.74,1.51-2.36,3.16q-.16.16-1.87,2.14c-.06.07-1.24,1.73-2.24,2.44-1.29.91-1.19,1.02-2.35,2.07-.96.88-3.3,1.98-3.66,2.2-.11.07-.28.18-1.49.67-1.6.65-3.03-.04-3.62-.19-1.78-.43-2.02-.28-4.5-3.41-.6-.75-1.08-1.92-.86-2.58.39-1.19,1.97-1.6,3.08-2.32.67-.43,3.69-1.71,5.06-3.26.86-.97.84-.98,1.75-1.9.59-.61,1.29-1.78,1.39-1.94.83-1.39,2.21-2.51,2.56-4.43.22-1.2.33-1.15.85-2.25.73-1.53.27-3.15,2.61-4.06.17-.06.19,0,2.22-.63.59-.19,3.07-.59,4.95,1.58.39.46,1.04,1.3,1.13,1.42.57.75.5.8.63,1.73Z"/>
  <path class="st1" d="M138.22,200.02c1.65,1.75.99,4.2.97,4.65-.04.95-.13.93-.39,1.85-.31,1.12-.53,1.03-.88,2.14-.47,1.45-.94,2.09-1.3,2.97-.6,1.44-.75,1.35-2.56,3-.57.52-.59.49-1.17,1.01-2.48,2.21-3.35,2.31-4.46,3.15-2.07,1.54-2.27,1.1-3.96,1.51-.81.2-.81.16-1.46.18-.53-.02-.75.07-1.88-.39-.68-.28-2.55-1.41-2.84-1.61-.52-.35-1.54-1.76-1.87-2.51-.77-1.75-.82-6.41.68-7.77,1.68-1.52,3.6,1.83,6.45-1.19,2.31-2.45,2.81-4.6,3.97-5.44,1.94-1.41,1.93-1.43,2.11-1.54.32-.2,3.7-1.33,5.05-1.46,1.41-.14,3.12,1,3.54,1.45Z"/>
  <path class="st1" d="M106.62,202.89c3.02,1.24,6.3,1.47,6.19,3.23-.02.33.02.82-1.95,2.77-.25.25-1,.99-3.89,2.25-2.29,1-3.76-.25-5.14-.84-.23-.1-1.76-.74-2.53-1.96-1.56-2.49-1.26-4.44-1.21-5.5.01-.29-.08-2.33,1.28-2.87,1.98-.77,3.12.64,3.21.74,1.28,1.26,1.77,1.24,4.04,2.18Z"/>
  <path class="st1" d="M249.97,150.43c.07,1.05-.14,1.23-.15,2.91-.01,2.05-.77,1.97-.62,4.02.27,4.04-.4,4.03-.19,5.8.34,2.92-.21,2.94-.23,4.37-.01,1.47-.1,1.48.22,2.91.14.66.16,2.02-.01,2.57-.88,3.02-.47,3.08-.65,7.27-.05,1.1-.28,1.07-.28,2.18,0,.55-.02.54-.03,1.09,0,2.31.06,2.31-.16,3.64-.38,2.32.11,2.85-.06,4.36-.14,1.28-.12,1.27-.12,2.56-.01.32-.08,2.68-2.74,2.87-1.4.11-1.37.24-2.51.54-.61.16-1.42.23-2.25.51-1.56.55-1.87,0-2.95.7-1.1.71-2.24.95-2.45.99-.95.2-1.48.47-2.95,1.3-1.36.77-1.56,1.62-3.27,2.19-1.87.63-1.68,1.1-2.93,1.37-1.36.29-4.6-1.86-5.83-2.43-.52-.24-.98-.58-2.5-1.18-2.11-.82-2.54-1.3-5.2-2.71-3.02-1.6-2.87-1.85-4.35-2.57q-1.62-.78-1.76-.84c-.65-.27-.62-.35-1.47-.69-1.18-.48-1.08-.81-4.44-2.82-3.17-1.9-3.35-2.49-4.02-2.9-1.32-.81-3.98-1.71-4.3-2.32-.37-.71-.16-1.86,1.88-2.48.84-.24,1.05-.2,1.8-.43,1.21-.37,1.4-.04,2.93-.7,1.19-.52,3.51-1.28,4.01-2.58.46-1.17-1.04-3.16-2.88-2.42-.84.34-1.47.76-2.97,1.3-3.71,1.34-3.83,1.21-5.11,1.35-1.36.15-2.15,1.33-4.65.31-2.27-.93-2.58-.59-4.38-2.09-1.94-1.61-2.5-.96-4.52-3.49-.36-.44-.29-.5-2.2-2.52-1.35-1.44-1.34-1.44-1.86-2.18-1.02-1.47-1.64-1.98-1.82-2.12-1.85-1.52-1.83-1.54-2.01-1.65-.37-.22-2.04-1.05-2.19-1.11-3.09-1.14-4.14-.99-6.17-.54-1.9.42-3.12,1.68-5.03,2.92-.65.42-1.57,1.4-1.7,1.54-.67.72-1.47,1.18-2.3,2.04-.17.18-1.02,1.07-2.25,2.14-.31.27-.44.28-1.06.76-.27.21-.43.27-1.11.73-.22.15-1.17.63-1.82,1.08-1.96,1.37-2.59,1.16-4.42,1.16s-2.34-.27-4.69-1.33c-.84-.38-2.9-2.06-2.86-4.27.03-1.31.69-3.35,1.1-3.94.85-1.22,3.43-4.22,3.74-4.57,2.15-2.5,2.17-2.53,3.45-3.12,2.04-.94,2.18-1.92,3.25-2.59,1.83-1.15,1.91-1.33,4.08-3.18.27-.24.28-.22,1.46-1.06,1-.71,1.05-.63,2.79-2,.99-.78,1.53-.71,3.6-1.92,2.49-1.45,2.38-1.67,4.14-2.26,1.33-.43,1.49-.82,3.59-1.01,1.1-.1,2.86-.87,3.62-1.03,1.23-.26,2.21-.85,4.04-.67,1.58.16,1.55.61,3.62.33,1.46-.19,1.46-.02,2.9.24,1.1.19,1.08.25,2.19.39.99.13.96.39,3.66.45,1.36.04,1.49.53,3.29.73.9.1.89.16,1.79.26.91.1,1.08.29,2.2.3,1.28.02,1.29-.05,2.53.31,2.3.65,4.75.29,6.19.72,2.38.7,2.45.25,4.03.63.12.03.23.08.34.11.61.16,1.15.09,1.86.2,1.31.21,1.31.28,3.25.19.34-.01,4.38.12,4.75.19.12.02.67.23,1.06.26,3.7.24,3.69.26,4.01.27,3.08.09,3.09.25,4.38-.02,1.69-.36,1.76-.39,3.28-.08,1.21.24,2.23-.07,4.35-.13.92-.02.92,0,1.82-.24.87-.24.96.04,2.58-.2,2.3-.33,2.74.21,5.79-.21,1.62-.22,2.45.08,3.66-.24.19-.05.89-.43,2.2.27.91.48.98,1.37.99,1.51Z"/>
  <path class="st1" d="M228.22,213.02c.49,1.04.64,1.13-.11,2.89-.7,1.62-1.94,1.89-2.87,2.5-.52.34-2.42.94-2.85.96-.92.05-.91.04-1.84.13-2.56.26-2.79-.48-4.72-.62-.76-.05-1.34.03-2.14-.47-.74-.46-2.83-.92-3.38-1.28-2.12-1.41-2.27-1.09-3.88-1.72-.65-.26-1.56-.9-1.97-1.13-4.08-2.31-4.21-2.04-5.67-2.83-1.23-.67-2.17-1.28-3-1.64-1.07-.47-1.4-.91-2.96-1.73-2.36-1.24-2.61-1.17-3.86-2.4-1.73-1.71-2.19-1.25-4.34-2.97-.73-.58-.67-.64-1.86-1.42-.64-.42-.66-.38-1.27-.83-.83-.61-2.73-2.38-4.13-.45-.29.39-.7,1.82.67,3.13.48.45,1.56,1.16,1.7,1.25.94.62,2,.48,3.33,2.09.7.84,3.81,2.51,5.03,3.38,3.67,2.59,3.84,2.31,4.86,3.09,1.39,1.06,2.39.97,3.88,2,.22.16.31.22,3.04,1.59.19.09.22,0,2.4,1.03.09.04.04.13,1.13.66.9.43.88.44,1.83.75,2.87.93,4.51,2.03,3.7,3.53-.25.45-.95.6-2.94,1.45-1.98.84-2.17.41-3.28.68-1.43.34-1.44.21-2.9.24-1.65.03-1.64-.02-3.25-.36-1.37-.29-1.55-.89-3.34-1.56-1.55-.58-1.59-.5-2.97-1.41-1.33-.87-1.79-.73-3.99-2.2-.81-.54-.89-.4-1.7-.93-.68-.45-.74-.32-1.44-.76-.69-.43-.78-.25-1.46-.71-.72-.48-2.49-1.18-2.91-1.46-2.07-1.36-2.15-1.23-4.12-2.74-.16-.12-.17-.1-2.07-1.27-.89-.55-1.63-.46-2.87-1.48-2.62-2.15-3.96.31-3.87,1.23.16,1.8,3.43,3.04,5.54,4.43.87.58,1.03.33,3.6,2.23,2.61,1.94,3.22,1.6,4.89,2.68,1.71,1.11,1.74,1.05,3.61,1.84,1.51.63,1.38.87,2.88,1.54,2.35,1.04,4.11,2.28,4.43,2.41.91.38,2.51.05,3.14.92.55.78-.25,1.72-.72,2.04-1.98,1.37-2.44.68-4.3,1.21-.98.29-4.16.12-4.39.06-.56-.14-.55-.18-1.11-.31-1.8-.42-2.17-.19-3.68-1.09-1.43-.84-2.6-1.15-2.84-1.22-1.52-.39-2.39-1.04-3.29-1.42-1.51-.63-1.39-.87-2.9-1.48-2.04-.83-4.08-2.5-4.36-2.94-1.14-1.81-.68-3.28-1.56-4.66-.42-.65-1.96-2.36-2.42-2.65-1.66-1.01-3.71-.85-4.33-1.18-1.71-.91-.71-2.64-.62-3.5.03-.2.11-2.97-.1-3.68-.08-.28-1.41-3.39-2.34-4.25-.45-.42-3.68-2.14-4.27-2.32-1.87-.54-5.02.06-5.45.14-1.12.22-2.48-.03-2.97-.8-.67-1.08-.82-2.19-2.5-2.97-.89-.42-.87-.45-1.8-.8-.91-.34-1.21-.73-4.04-.82-.49,0-.97.08-2.16.28-1.23.21-2.34.95-2.52,1.08-.74.49-1.3.54-2.88,1.85-.98.82-1.05.75-1.84,1.76-.76.98-3.31,3.42-4.13,3.81-.83.39-1.49.53-3.62-.48-.98-.47-1.02-.37-2.53-1.14-2.12-1.07-2.05-1.23-4.34-1.88-.62-.18-1.59-.29-3.36-1.29-.93-.52-.91-.55-1.81-1.13-1.04-.68-2.74-.92-3.9-1.62-1.35-.81-1.33-.82-2.19-1.11-1.92-.66-4.69-2.67-6.56-3.6-2.03-1-2.61-1.43-2.82-1.58-1.25-.91-2.18-.94-2.16-2.4.01-1.41.77-1.44.84-3.28.08-1.78.46-1.83,1.13-3.67.46-1.27.04-1.37.73-3.27.58-1.6.55-1.61.62-2.14.34-2.25.52-2.21,1.34-4.72.26-.77.44-2.68.65-3.31.42-1.27.53-2.23.63-2.57.21-.72.23-.71.35-1.45.3-1.94.7-1.85.82-3.25.04-.45-.04-1.29.29-2.23.76-2.18.75-2.17,1.56-4.33.08-.19.11-.29.46-2.53.19-1.2-.35-1.79,1.18-4.27,1.48-2.39,3.12-.58,4.57-.75.48-.06,1.08-.37,2.18-.13,2.34.51,6.34.23,8,.33,2.3.14,2.33-.26,3.99.13.74.17.74.08,2.56.14,1.87-.06,1.85.15,2.54.25.67.11,2.69-.03,2.92-.04.38-.03.38.18,4.74.07,1.44-.03,2.21-.9,3.95-.33,1.61.52,1.63.44,3.32.46,1.75.03,1.75.43,2.93.18.28-.06,1.37-.28,3.63-.16,1.1.05,1.09.3,2.17.09.73-.14,1.49-.07,2.17-.15,3.28-.35,3.35-.95,4.45-.33.11.06.84.29.81,1.23-.04.98-1.32,2.28-2.3,2.62-1.77.63-1.84.55-2.86,1.46-1.21,1.07-1.22,1.06-2.21,1.49-2.5,1.08-2.26,2.21-3.67,2.84-2.55,1.13-2.43,2.34-4.83,4.22-1.17.92-1.74,1.26-2.45,2.3q-.83,1.21-1.44,2.55c-.75,1.64-1.57,2.1-2,3.21-.73,1.89-.27,2.36-.4,3.68-.06.63-.44,1.25.36,3.59.67,1.99,2.8,3.44,3.12,3.66.7.48,1.73,1.27,4.37,2.15.19.07,1.03.35,2.52.27.7-.04,1.42-.29,1.81-.32.58-.03,1.47.08,4.34-.76,1.68-.48,1.53-.89,4.06-2.37.15-.09,2.31-1.61,2.79-1.98,1.05-.8,1.63-1.72,2.39-2.27.86-.62.86-.61,1.66-1.3,1.37-1.16,1.44-1.07,2.91-2.53.65-.64.7-.72,1.88-1.05.39-.12.43-.31,2.52.15,1.22.27,3.27,1.49,4.28,2.52,1.46,1.49,1.64,1.33,2.81,3.06.89,1.3,1.58,2.07,1.73,2.24.82.92,1.05,1.62,2.18,2.52,1.53,1.23,2.6,1.68,4.58,3.46,1.08.96,2.16,1.27,3.31,2.16.38.3.57.3,1.39,1.13,1.09,1.11,1.12,1.07,2.36,1.99.86.64.83.67,1.71,1.27.4.28.45.2,1.48,1.04,2.26,1.83,2.43,1.56,5.03,3.37,1.22.84,1.26.75,2.54,1.49.09.05.08.08,1.12.68.24.14.19.2.83.57.63.36,1.65,1.27,2.15,1.51,1.57.79,1.67.61,3.03,1.66.41.32,4.6,2.53,4.92,2.77.65.5,1.13,1.1,3.31,1.84,1.52.51,1.62.83,3.32,1.69,1.74.89,2.62.94,3.58,1.56.36.23,1.07.53,1.46.75.88.48,2.37.41,3.92,2.19.25.28,1.7,2.21,1.97,2.78Z"/>
  <path class="st0" d="M273.19,107.82c-.26,2.1.29,2.67.16,4.03-.58,6.23,0,6.36-.29,7.66-.03.12-.24.55-.25,1.43-.02.94-.05.94.04,1.48.1.56.34.77-.25,3.25-.42,1.76-.03,2.06-.2,4.38-.1,1.43.29,2.6.06,4.34-.2,1.48.14,1.52-.24,2.93-.07.24-.11.24-.17,2.92.05,2.01-.07,2-.17,2.54-.04.23-.11.63-.06,2.92.02.82.17,1.32.12,1.82-.17,1.89-.28,1.88-.28,4.36,0,2.07.03,2.07-.22,3.26-.3,1.44.16,2.38.05,3.29-.37,3.04-.43,3.04-.28,4,.29,1.86-.26,1.86-.27,6.56,0,.92.07.93-.18,1.81-.38,1.39.1,2.29-.12,5.82-.09,1.49-.39,1.73-.39,3.65-.01,2.56-.02,2.55-.04,5.1-.01.69.07,1.69-.05,2.21-.06.23-.14.45-.2.68-.04.17,0,.18-.23,2.21-.21,1.7.42,2.33.16,4.35-.04.25-.09.5-.13.75-.17.99.05,1.59-.41,2.91-.58,1.7.19,2.63.17,4,0,.64-.15.66-.11,2.18.03,1.16-.76,2.64-.53,4.75.39,3.6-.39,4.51-.27,5.44.2,1.62.25,1.61.27,2.55,0,.31-.12,2.69-.14,2.92-.06,1.14-.27,1.32-.3,2.17-.06,2.01-.21,2-.18,4.01.04,2.56-.1,2.55-.17,3.63-.06,1.02.07,1.29-.08,2.58-.19,1.67-.46,7.03-.46,9.81-.01,1.28-.19,1.26-.2,2.54,0,.78.03,1.31-.08,1.85-.17.89-.21.89-.03,1.77.3,1.57-.39,1.58-.41,3.66,0,2.74.32,2.76-.14,5.44-.13.74-.09.75-.3,1.47-.36,1.22-.19,3.64-1.92,4.93-2.18,1.64-2.28,1.47-3.46,2.08-.53.27-1.92,1.25-2.83.5-.35-.29-.69-1.24-.24-2.09.05-.11.95-2.04,1.12-2.53.19-.53.28-1.21.34-1.45.24-.88.21-.88.28-1.78.08-1.18.26-2.34.29-2.54.21-1.37-.15-1.91.27-3.3.39-1.29-.13-1.94.32-7.64.03-.41.17-.64.21-1.45.07-1.55.45-1.55.13-2.9-.52-2.21.05-2.74.07-5.11,0-.21.23-2.26.1-3.29-.16-1.26-.1-1.26.05-2.52.42-3.45-.2-3.48.3-6.92.19-1.29-.07-1.31.17-2.58.28-1.44.24-1.44.11-2.89-.14-1.54.4-2.31.52-5.09.06-1.36.4-1.46.26-2.2-.24-1.26-.38-1.25-.31-2.53.14-2.49-.09-2.51.21-3.66.57-2.22-.53-3.2.01-5.1.71-2.52.22-2.57.3-5.45.02-.96.24-3.34.26-3.63.08-.84.29-1.06.31-1.82.02-.98-.04-3.22.06-3.98,0-.05.41-4.75.38-5.12-.05-.6-.28-1.01-.3-1.82-.04-2.76.19-2.74.52-4.37.14-.68-.04-3.91.13-5.44.17-1.47-.03-1.53.17-2.94.25-1.81.16-1.81.37-3.64.1-.96-.13-1.79-.15-2.54-.04-1.66.1-1.64.22-2.54.14-1.03-.14-5.38.2-8.03.11-.9.12-.9.01-1.8-.12-.98.12-2.29.1-2.56-.12-1.23-.19-1.23-.11-1.83.05-.42.55-1.81.55-3.26-.02-2.15-.01-2.14.13-4.02.13-1.7-.23-3.34.21-5.8.37-2.12-.26-2.26.3-5.11.26-1.36-.08-1.38.19-4.71.26-3.23-.29-3.75.25-5.82.37-1.44-.08-3.37.23-5.13.11-.65.58-4.93-.03-6.87-.39-1.27-.51-1.25-.57-2.58-.11-2.24-2.16-3.15-1.5-4.73.43-1.03,1.82-1.42,3.59.04,3.1,2.57,3.28,3.09,3.67,4.33.72,2.26,1.06,2.25.98,5.09-.04,1.46.59,2.56.33,4.71Z"/>
  <path class="st0" d="M247.54,202.1c.22.72-.15,1.2-.2,1.82-.15,1.83-.17,1.82-.22,3.65-.03,1.28-.14,1.27-.16,2.55-.02,1.22-.54,1.49-.34,3.66.18,1.97-.11,1.96-.21,4.71-.02.53-.17.98-.16,2.19.04,4.23-.12,4.21-.17,4.38-.43,1.48-.12,2.3-.41,4.72-.11.89-.19.89-.03,2.19.12,1-.12,1.13-.13,2.54,0,1.46-.07,1.45-.28,2.9-.24,1.6-.05,4.73-.09,5.09,0,.07-.02.06-.1.76-.26,2.48.74,3.24-2.6,5.87-.79.62-.94.58-2.22,1.03-1.01.35-2.29.07-4.37.37-.9.13-.9.11-1.81.17-.96.06-1.9.66-3.29.21-1.45-.47-3.21-.11-5.45-.16-1.46-.03-1.47.38-2.9.07-.98-.21-1.87,0-3.31-.15-2.19-.23-2.58.24-3.61.14-.84-.08-1.54-.26-2.57.07-.44.14-.79.25-5.81.2-1.28-.01-1.27-.15-2.54-.05-.9.06-.9-.03-1.85.09-.52.07-1.46.18-6.53.12-.83-.01-1.3-.17-2.2-.09-1.08.09-1.07.11-2.16-.01-2.09-.23-2.09.48-4.39.16-2.28-.31-3.82.37-5.83.04-2.08-.34-2.31.3-4.36-1.17-2.06-1.47-.83-4.5-.96-5.49-.03-.2-.3-.85-.28-2.17.02-1.01.25-1.16.31-1.79.22-2.08.16-3.38,3.45-4.2,1.35-.34,1.91-.99,2.58-1.3,1.42-.66,2.51-.52,3.28-.52,2.79-.06,2.82.26,4.36-.2.71-.21,2.54-.34,3.94-1.2,1.96-1.22,2.52-1.32,4.41-3.19.69-.68.74-.61,1.87-1.01,1.3-.47,2.57.02,5.06-.48.86-.18,2.29-1.2,2.3-1.21,1.94-.96,3.48-1.47,4.96-3.48.12-.16.33-.73,2.2-1.15,1.16-.26,2.8.7,4.01.63.85-.06.84-.28,2.19-.11,1.15.15,1.32-.07,2.17-.19,1.28-.17,1.97-.5,2.92-.69,1.46-.29,1.37-.51,3.66-2.09.93-.65,2.23-2.51,2.71-4.34.13-.51.39-.97.19-1.86-.1-.48-.03-1.32-1.32-3.71-.05-.08-.02-.09-.51-1.02-.12-.23-.81-1.15-.65-2.18.19-1.33,1.49-1.31,2.8-2.26.93-.66,1.35-.98,4.09-1.62.78-.18,1.14-.49,1.74-.64,1.12-.28,1.1-.32,2.21-.65.07-.02,2.06-.37,3.59-1.16,2.31-1.2,2.89.77,3.02,1.21Z"/>
  <path class="st0" d="M250.42,107.8c2.04.74,1.05,3.72,1,4.4-.18,2.33,0,2.92-.08,3.63-.2,2.15.1,2.18-.2,3.3-.02.05-.15.03-.2,2.18.06,1.82-.12,1.8-.28,2.89-.27,1.96,0,2.48-.07,4.01-.17,3.36.13,3.71-.1,4.76-.15.72-.19.7-.25,1.44-.11,1.27-.34,1.27-.11,2.53.22,1.28.01,1.29.13,3.67.11,2.34-.49,3.36-2.76,4.02-.19.05-.4.11-2.56.24-1.25.07-3.75-.09-4.72.12-.91.2-.91.15-1.81.38-1.23.3-5.32-.19-7.31.28-1.77.41-1.79.2-3.62.22-1.29.01-1.3.13-2.55-.16-1.64-.38-1.69.71-4.03.08-1.63-.44-3.14.04-5.81-.4-1.25-.21-1.27.11-2.52-.12-.91-.17-.92-.07-1.85-.23-2.07-.36-3.18-.21-4-.41-1.25-.31-1.27-.16-2.54-.38-.86-.16-1.09.02-3.26-.18-2.55-.24-4.47-1.11-5.47-1.11-1.46,0-1.48.2-3.63-.23-1.74-.35-2.32-.91-4.39-.76-.37.02-3.36.23-4.59-.79-.69-.58-.49-1.87-.47-2.03.21-1.27.3-1.26.33-2.55.02-.89.15-.88.16-2.91.02-1.78.36-1.74.38-3.28.03-2.67-.02-3.04-.06-3.3-.1-.75-.37-1.16.27-3.25.36-1.18-.04-3.41,0-3.64.12-1.15.29-1.12.3-2.91.01-2.06.44-2.07.11-4.02-.17-1.05-.18-4.22.78-4.95.08-.06,1.28-.68,2.09-.54.23.04.46.12.7.16.17.03.17.01,2.21.22,1.41.15,2.39-.3,4.01-.11,1.64.19,1.64.06,3.28-.08.37-.04,5.67.02,6.17.02.61.01,1.32.15,2.18.11,3.22-.18,3.21-.07,4.38.06.27.02,7.1.08,7.99-.03,2.61-.33,3.4.15,4.75-.29.62-.21.63-.18,9.82-.18,6.08,0,6.08.01,6.93-.1,1.9-.25,2.08.17,4.35.08,2.64-.1,2.64.1,5.46.02.75-.03.77-.13,1.47.12Z"/>
  <path d="M277.17,116.21c0,.53-.19,1.33-.16,2.19q.03.91-.12,1.8c-.1.6-.06,3.07-.02,3.31.13.92.15.92.13,1.08-.02.15-.04.14-.27,1.83-.04.26.06.26-.21,3.25-.06.66.05,1.45,0,2.55-.1,1.7,0,1.71-.23,2.93-.31,1.61.25,1.65-.07,3.26-.47,2.4-.04,4.36-.33,8.38-.08,1.04.24,1.06-.06,2.9-.24,1.44.02,3.3-.19,4.04-.44,1.6-.39,1.61-.24,3.26.12,1.47-.26,1.99-.11,6.9.08,2.23-.3,2.54-.31,3.64,0,.73.12.72.08,1.46-.1,2.2-.35,2.36-.3,3.28.04.66-.18,5.4-.25,5.83-.05.32-.22.69-.24,1.44-.02,1.29-.03,1.28-.11,2.56-.11,2.01.36,2.03-.1,4.36-.18.93,0,2.28-.15,3.99-.12,1.29.05,1.3-.25,2.55-.44,1.77.19,3.44-.32,5.84-.19.92.03,5.01-.16,6.52-.14,1.15-.03,1.3-.14,1.86-.07.38-.42,1.37-.1,2.55.52,1.89-.11,2.39-.12,3.62-.02,1.65.07,1.65-.21,3.28-.04.23.04.23-.2,2.93-.08.84.12,7.38-.12,8.37-.34,1.43-.09,1.46-.29,2.92-.25,1.8-.13,1.8-.07,3.62.04.94-.11,1.78-.09,2.55.08,3.62-.38,3.58-.47,4.71-.08,1,.08,1.01-.06,3.3-.07,1.33.21,1.56-.11,3.28-.28,1.43-.2,3.01-.19,3.27.02.36-.03,1.71-.15,2.2-.37,1.42-.23,1.43-.23,2.89,0,2.01.04,2.01-.34,3.97-.03.16-.11.13-.46,1.88-.44,2.18-1.65,2.76-2.91,4.43-1.03,1.35-1.84,1.65-2.6,2.19-1.62,1.15-2.21.9-3.69,1.41-2.12.73-3.2.38-4.39.68-1.73.43-3.66.42-5.83.58-.96.07-2.07-.06-2.56.06-1.08.26-1.09.44-3.24.31-.23-.01-.23,0-2.92-.05-.71-.02-1.68.28-2.17.34-1.09.12-1.09.26-2.18.11-4.3-.59-4.31-.09-6.58-.09q-3.98.01-5.09-.16c-1.28-.2-1.28-.21-2.56-.05-1.17.15-2.66-.03-2.89-.05-1.3-.15-1.3.12-2.92.03-.86-.05-2.17.15-2.92.12-4.18-.16-4.17-.12-5.45-.02-.38.03-2.49.2-4.75.11-.43-.02-1.8-.23-2.9-.18-4.59.18-4.59-.21-6.56-.01-.44.05-4.29.21-5.8-.03q-1.47-.23-2.94-.08c-1.62.17-1.62-.15-3.28.04-1.98.24-1.99.04-3.97.22-1.1.11-1.1-.09-3.29-.1-2.36,0-2.79-.52-4.37-.69-.19-.02-1.4.06-4.08-1.34-1.15-.61-1.03-.77-2.56-2.25-1.65-1.59-1.4-2.1-2.21-3.68-.59-1.16-.35-1.98-.6-2.97-.2-.82-.15-.82-.21-2.91-.04-1.4.32-1.85.35-3.64.04-2.55.21-2.53.58-3.63.2-.59.21-1.51.01-2.2-.34-1.1-.25-1.71-.21-5.09.01-1.05.25-1.28.31-1.8.02-.15,0-.15.17-1.84.06-.66.23-.99.25-1.81.05-2.4.53-3.34-1.58-4.45-2.55-1.34-4.25,1.05-5.1,1.59-1.71,1.08-1.98.55-3.26,1.16-.78.36-2.04.73-2.22.75-.21.03-.21,0-2.57.04-.76.02-1.24-.25-1.8-.32-1.72-.22-1.68-.37-3.29-.98-2.04-.77-2.56-2.64-5.48-1.87-.31.08-.55.31-2.89.27-.92-.02-.92-.06-1.82-.25-1.02-.21-1.31.17-3.02-.87-1.95-1.17-2.59-1.4-3.53-2.73-.41-.58-1.23-1.29-1.74-2.93-.94-3.02-1.19-3.14-3.69-3.79-.3-.08-2.25-.58-3.63-1.37-1.35-.76-1.2-.94-2.29-2.04-1.22-1.23-1.47-1.5-1.92-3.66-.03-.11-.46-1.76-.51-1.88-.13-.35-1.04-2.02-3.04-.81-1.66,1-2.9.89-4.68,1.1-2.29.27-2.23-.56-5.03-1.52-1.66-.57-2.03-1.29-3.75-3.05-1.28-1.31-1.79-2.42-1.88-5.15,0-.08.1-3.41.13-3.64.24-1.96,2.46-3.8-1.4-5.95-1.4-.77-1.94-.54-3.42-1.59-3.11-2.2-4.78-3-6.26-5.86-1.03-2.02.4-3.33.65-4.78.16-.92.31-.89.38-1.83.15-1.77.45-1.7.84-3.67.55-2.72,1.05-3.18,1.45-5.1.48-2.37.9-2.49,1.37-5.41.14-.93.24-.91.36-1.83.02-.18.16-1.28.67-2.14.49-.83.33-.89.73-2.21.57-1.87.4-1.9.49-2.96.03-.4.59-2.46.77-2.94.39-1.04.43-1.02.62-2.12.03-.15.04-.22.52-1.86.42-1.45.72-1.37.9-2.51.18-1.12.28-1.1.44-2.23.15-.96.26-1.18.31-1.78.07-.92.16-.9.38-1.8.25-1,.51-1.32,1.58-2.3.27-.24.62-.98,3.68-.48.87.14,1.84.72,4.76.64,1.22-.03,1.21.05,3.64-.1.6-.04,1.48-.23,2.93.34,1.77.7,2.72-.36,4.01-.05.07.02.57.23,1.05.25,2.36.1,2.33-.2,2.9-.29,1.16-.19,1.13.16,2.56.31,2.91.3,2.91.06,5.84.17.58.02,1.45.27,2.92.11,2.73-.3,2.73-.02,3.98.06,1.76.12,1.76-.08,3.67.06.51.04.66,0,2.17-.02,1.63-.02,1.63-.34,3.25-.09.15.02.33.05,1.84.09.65.02,1.57-.2,2.19-.15,1.27.09,1.27.1,2.55.03,1.66-.1,2.68.48,3.63.27,2.6-.57,3.46.32,4.75.08,2.34-.44,2.37-.02,4.73-.32.94-.12,3.73-.14,4.94-2.01.8-1.25.11-1.42.5-4.65.11-.87.15-2,.15-2.17.02-.6-.14-1.53-.08-2.55.13-2.55-.12-2.54.06-5.09.14-1.95-.21-2.21.3-4.73.3-1.51-.04-1.54.28-3.66.5-3.37-.44-5.65.39-7.64.78-1.87.02-2,.43-3.99.44-2.16-.18-3.04.29-4.38.58-1.68.26-1.78.84-2.86.43-.81.75-2.31,2.12-4.76,1.3-2.32,1.59-2.57,3.55-3.76,1.05-.64,1.1-.53,2.24-.97,1.4-.53,1.47-.29,2.87-.84,1.44-.56,1.94-.06,2.96-.19,2.36-.28,2.35-.32,4.73-.23,1.64.06,1.63.35,3.27.15,1.07-.13,1.62.07,3.25-.13,1.65-.19,1.64.08,3.3.09,3.08.01,3.07-.02,3.99-.07.53-.03,4.34.24,6.91,0,1.28-.12,1.83.08,2.93.06,1.64-.03,1.63,0,2.9.12.56.05,1.04-.1,1.83-.11,2.9-.04,2.92.1,4.71-.1,2.58-.3,2.58.46,5.13.22,4.12-.39,5.4-.1,6.89.03,1.17.09,2.05-.46,4.01-.1,2.19.4,2.18-.07,4.39-.25,1.92-.15,3.97.23,4.71.18.24-.01.48-.04.72-.06,1.31-.1,1.91.15,2.92.05,2.86-.28,3.55-.57,5.11-.4.91.11.91.09,1.81.06,1.37-.05,2.34.77,4.75.54,1.09-.1,1.35-.01,3.27.54.41.12,1.3.37,4.72,2.23.72.39,2.42,2.1,2.93,2.91,2.03,3.25,2.15,3.63,2.26,3.98.52,1.64.6,1.62.85,3.32.14.94.3.97.32,1.8.05,3.06-.12,3.05-.18,3.28-.41,1.47.16,3.07.18,4,.04,2.11-.06,2.43.02,6.19ZM273.35,111.85c.13-1.36-.42-1.93-.16-4.03.26-2.15-.37-3.25-.33-4.71.08-2.84-.26-2.83-.98-5.09-.39-1.24-.57-1.76-3.67-4.33-1.77-1.46-3.16-1.07-3.59-.04-.66,1.58,1.39,2.49,1.5,4.73.06,1.33.18,1.31.57,2.58.61,1.94.14,6.22.03,6.87-.31,1.76.14,3.69-.23,5.13-.54,2.07.01,2.59-.25,5.82-.27,3.33.07,3.35-.19,4.71-.56,2.85.07,2.99-.3,5.11-.44,2.46-.08,4.1-.21,5.8-.14,1.88-.15,1.87-.13,4.02,0,1.45-.5,2.84-.55,3.26-.08.6,0,.6.11,1.83.02.27-.22,1.58-.1,2.56.11.9.1.9-.01,1.8-.34,2.65-.06,7-.2,8.03-.12.9-.26.88-.22,2.54.02.75.25,1.58.15,2.54-.21,1.83-.12,1.83-.37,3.64-.2,1.41,0,1.47-.17,2.94-.17,1.53,0,4.76-.13,5.44-.33,1.63-.56,1.61-.52,4.37.02.81.25,1.22.3,1.82.03.37-.38,5.07-.38,5.12-.1.76-.04,3-.06,3.98-.02.76-.23.98-.31,1.82-.02.29-.24,2.67-.26,3.63-.08,2.88.41,2.93-.3,5.45-.54,1.9.56,2.88-.01,5.1-.3,1.15-.07,1.17-.21,3.66-.07,1.28.07,1.27.31,2.53.14.74-.2.84-.26,2.2-.12,2.78-.66,3.55-.52,5.09.13,1.45.17,1.45-.11,2.89-.24,1.27.02,1.29-.17,2.58-.5,3.44.12,3.47-.3,6.92-.15,1.26-.21,1.26-.05,2.52.13,1.03-.1,3.08-.1,3.29-.02,2.37-.59,2.9-.07,5.11.32,1.35-.06,1.35-.13,2.9-.04.81-.18,1.04-.21,1.45-.45,5.7.07,6.35-.32,7.64-.42,1.39-.06,1.93-.27,3.3-.03.2-.21,1.36-.29,2.54-.07.9-.04.9-.28,1.78-.06.24-.15.92-.34,1.45-.17.49-1.07,2.42-1.12,2.53-.45.85-.11,1.8.24,2.09.91.75,2.3-.23,2.83-.5,1.18-.61,1.28-.44,3.46-2.08,1.73-1.29,1.56-3.71,1.92-4.93.21-.72.17-.73.3-1.47.46-2.68.13-2.7.14-5.44.02-2.08.71-2.09.41-3.66-.18-.88-.14-.88.03-1.77.11-.54.07-1.07.08-1.85,0-1.28.19-1.26.2-2.54,0-2.78.27-8.14.46-9.81.15-1.29.02-1.56.08-2.58.07-1.08.21-1.07.17-3.63-.03-2.01.12-2,.18-4.01.03-.85.24-1.03.3-2.17.02-.23.14-2.61.14-2.92-.02-.94-.07-.93-.27-2.55-.12-.93.66-1.84.27-5.44-.23-2.11.56-3.59.53-4.75-.04-1.52.11-1.54.11-2.18.02-1.37-.75-2.3-.17-4,.46-1.32.24-1.92.41-2.91.04-.25.09-.5.13-.75.26-2.02-.37-2.65-.16-4.35.24-2.03.19-2.04.23-2.21.06-.23.14-.45.2-.68.12-.52.04-1.52.05-2.21.02-2.55.03-2.54.04-5.1,0-1.92.3-2.16.39-3.65.22-3.53-.26-4.43.12-5.82.25-.88.18-.89.18-1.81,0-4.7.56-4.7.27-6.56-.15-.96-.09-.96.28-4,.11-.91-.35-1.85-.05-3.29.25-1.19.22-1.19.22-3.26,0-2.48.11-2.47.28-4.36.05-.5-.1-1-.12-1.82-.05-2.29.02-2.69.06-2.92.1-.54.22-.53.17-2.54.06-2.68.1-2.68.17-2.92.38-1.41.04-1.45.24-2.93.23-1.74-.16-2.91-.06-4.34.17-2.32-.22-2.62.2-4.38.59-2.48.35-2.69.25-3.25-.09-.54-.06-.54-.04-1.48.01-.88.22-1.31.25-1.43.29-1.3-.29-1.43.29-7.66ZM262.59,110.37c-.22-1.68.55-2.46.26-4-.5-2.63.21-2.71-.5-5.79-.12-.51-.13-1.15-.21-1.5-.42-1.95-.24-2.5-1.1-3.67-.5-.67-.49-.75-.77-1.06-.63-.73-1.21-1.22-1.51-1.4-2.07-1.25-2.18-1.02-4.35-1.07-.4-.01-1.41-.22-1.82-.24-.03-.01-5.4-.03-6.2.05-1.1.1-1.09.07-2.18-.05-1.67-.17-1.66-.26-1.8-.27-1.14-.09-1.13-.01-2.23.31-2.09.59-4.17.28-4.69.3-2.38.09-2.38.17-4.73-.23-.29-.05-1.36,0-1.81-.06-1.81-.17-1.81-.31-2.91-.13-1.77.28-2.97-.15-3.29-.18-2.03-.22-2.11.37-5.26.52-.14,0-.28,0-.43.02h-.14c-2.2.06-2.22-.63-4.37-.09-1.68.42-4.38-.02-6.9.13q-1.1.06-2.21,0c-1.85-.11-1.88.18-3.61-.21-1.29-.29-1.64.12-3.31.28-.39.04-.77-.13-6.17-.1-.92.01-.91.07-1.83.13-3.09.18-3.14-.49-6.15.24-.62.15-3,.12-3.93.77-1.36.96-2.34,3.57-2.47,3.92-.9,2.4-1.4,2.51-1.5,3.95-.07,1.11-.22,1.08-.32,2.18-.26,2.87-.72,3.18-.62,4.37q.08.89-.05,1.79c-.08.5-.05.49-.07,2.93,0,.91-.16,1.07-.24,1.81-.14,1.25-.16,1.24-.4,2.17-.35,1.34.75,1.94.05,4.74-.14.58-.15,1.26-.2,1.5-.27,1.39-.46,1.41-.06,4.7.2,1.65-.44,1.65-.21,4.39.12,1.36-.23,3.66-.28,3.97-.1.68-.13,1.72-.15,1.86-.04.23-.09.47-.13.7-.14,1.04.47,2.82,2.91,2.75,2-.07,3.11.14,3.7-.89.7-1.23.09-1.92.11-2.95.03-1.45.08-1.69.11-1.84.04-.2.51-2.5.51-2.52.07-.75-.21-.73-.21-2.19-.01-3.24,0-3.24.19-3.99.27-1.19.03-1.84.28-2.94.5-2.14.07-2.17.23-4.37.25-3.39-.41-3.65.13-5.46.52-1.69.06-1.79.32-3.64.25-1.73.03-1.94.18-3.25.02-.22.19-1.7,1.43-2.46.83-.5,3.38-.04,5.78-.3,1.9-.21,3.96.2,5.43.06,2.18-.21,2.19-.03,4.38-.23,1.27-.12,2.1.17,3.28.05,1.49-.17,1.49-.39,4.72-.01.89.1,1.66.02,2.54.12,1.14.12,2.21-.18,3.63-.01.04.01.09.01.14.01,1.64.15,8.57.12,9.72,0,1.2-.1,5.92-.1,6.89-.03,2.6.16,2.63.25,5.13-.42,2.03-.55,2.09.17,3.62.12,3.19-.1,3.33.07,4,.2.47.09,2.63.16,4.01-.02,1.04-.13,1.04.08,2.55.08,1.39,0,1.62-.5,3.28-.14,2.15.46,3.74-.44,4.45,1.1.76,1.67.43,4.41.39,4.79-.19,1.54.1,2.81-.18,4.34-.24,1.24-.04,1.3-.27,2.2-.42,1.65.19,1.65.16,2.91-.06,2.73,0,2.74-.15,3.28-.6,2.2-.21,5.42-.4,6.91-.25,1.86-.19,4.64-.2,5.46,0,1.5-.44,1.66-.45,3.64-.02,3.69-.13,3.68-.11,4,.07,1.65.38,1.69-.28,4.02-.4,1.41.18,1.45-.05,2.9-.17,1.1-.06,1.1-.21,2.21-.24,1.9.16,6.43-.21,7.96-.35,1.45.16,3.33-.26,5.13-.06.22-.33,1.39-.12,2.91.12.9.09.9-.02,1.8-.04.29-.02.29-.03,4.37,0,1.91-.39,2.07-.44,2.92-.07,1.46,0,1.46-.11,2.91-.05.73.12.72.15,2.19.05,2.01-.57,2.01-.17,3.99.18.91-.24,2.09-.51,3.26-.3,1.35.64,2.1,0,3.99-.35,1.08-.39,1.09-.36,3.31.02,1.83-.07,1.82-.18,3.65-.11,1.94-.32,1.92-.29,2.9.04,1.11-.02,1.11.22,2.18.22.98-.24,1.44-.17,2.57.06,1.08.23,1.08.05,2.15-.28,1.64.04,3.26-.16,4.41-.26,1.45-.13,1.46-.29,2.91-.29,2.53.16,3.55-.16,4.71-.45,1.6-.22,1.63-.39,3.28-.14,1.51-.02,2.42-.08,3.27-.13,1.83-.18,1.82-.01,3.65.11,1.2-.18,3.74-.25,4-.23.89-.21.89-.21,1.81,0,2.02-.37,2.01-.12,4,.03.23.1.74-.2,2.9-.18,1.31-.39,1.25-.66,2.55-.26,1.32-.48,1.23-1.89,3.57-1.04,1.74-1.31,1.49-2.44,2.2-.2.12-1.39.75-2.9,1-1.63.27-1.86.63-2.88.66-1.1.02-1.09.09-2.19.14-.35.01-4.68.01-5.09,0-2.55-.09-2.55-.03-5.1.01-1.06,0-1.23.34-2.2.16-1.62-.31-1.82-.18-3.26-.06-.34.03-2.09-.18-2.92-.15-4.39.15-4.41-.19-5.82.1-1,.21-1.31.38-1.88.38-.26,0-.56-.03-1-.11-1.04-.18-3.68.08-4.78-.16-.78-.18-.79-.15-3.25-.18-1.93-.02-2.16.57-3.64.59-4.49.04-4.5-.16-4.72-.2-1.56-.24-1.69-.03-2.55.15-.39.08-2.68.04-3.65.04-2.31,0-2.4.24-3.62.11-1.47-.16-1.47,0-2.94-.09-.91-.06-2.97-.83-3.21-.97-2.99-1.78-2.96-2.44-3.45-3.48-.67-1.39-1.61-2.17-.96-4.41.23-.8.08-4.39.36-6.19.3-1.89-.02-2.77-1.48-3.24-.97-.32-2.65-1.18-3.89-.26-1.76,1.29-.69,2.98-.84,4.22-.35,3.01.06,5.41-.19,8.03-.13,1.41-.07,2.76-.06,3.62.02,1.39-.33,1.58-.4,3.28-.05,1.09-.17,1.08-.19,2.18-.04,2.91.1,2.9.33,4.03.14.64.49,1.53.62,1.74,1.18,1.98,1.62,2.18,1.7,2.26,2.57,2.29,4.95,1.84,5.82,1.94,1.35.16,1.35.08,3.3.08,2.75,0,2.75.49,4.38.22,1.21-.2,1.21-.09,2.15.04.84.13,1.91-.14,2.56-.19,3.61-.25,5.29.39,6.92.08,1.28-.25,1.29-.07,2.57-.22,2.84-.33,4.82.48,6.54.37.91-.06.9-.14,1.8-.26.87-.11,1.48-.15,1.93-.14.95.01,1.2.2,1.7.33,1.77.44,2.55-.97,6.19-.03,1.28.32,2.7-.03,2.93-.09,1.38-.34,6.73-.09,6.93-.08,1.99.15,2.19-.22,3.25-.13.29.03,2.11.19,3.65.09,3.3-.24,3.31.22,5.49-.04,1.71-.2,2.74.03,3.26.05,2.21.1,4.65-.13,5.09-.13,1.45,0,1.44-.08,2.89-.23.94-.1,2.38.1,3.57-.71,2.41-1.66,2.44-2.02,2.83-2.87.5-1.12.62-1.05,1.15-2.16.42-.86.29-2.38.79-3.97.31-1.01.22-1.03.22-3.26.07-2.08.06-2.08.08-2.2.25-1.8,0-1.81.2-3.61.14-1.27.09-1.27.09-2.56,0-4.57-.16-4.58.6-9.09.38-2.22,0-3.95.15-6.57.06-1.19.62-1.26.39-3.61-.14-1.47.16-1.8.06-2.92-.03-.27-.19-2.14-.02-3.31.29-1.97.02-1.98.24-3.97.14-1.31-.33-1.86,0-5.82.18-2.2-.11-2.32.2-3.3.66-2.07.21-3.75.24-4.73.04-1.07.18-2,.2-2.17.26-1.82.09-1.82.14-5.47.02-.96.22-1.21.29-1.8.03-.29.2-3.18.2-3.29.04-2.51.48-2.49.28-3.62-.26-1.46-.44-1.46-.16-2.92.29-1.44-.07-1.49.31-2.92.32-1.18-.04-1.84-.11-2.17-.09-.37-.16-.66-.08-4.76,0-.71.28-1.15.63-2.88.33-1.7-.37-2.02,0-4.01.27-1.56.02-2.07.11-3.67.06-.96.66-1.36.4-3.24-.22-1.6.24-4.63.14-5.85-.12-1.48-.02-1.47.24-2.93.26-1.43.12-1.44.16-2.89.04-1.07-.43-2.04-.12-3.3.31-1.24.17-1.26.28-2.54.15-1.83.54-1.83.17-3.63-.14-.71-.15-3.62-.05-4.37.17-1.09.19-1.08.24-2.19.02-.5.17-1.01.18-1.08.17-1.15-.45-1.18,0-2.91.15-.6.11-1.01.11-2.55,0-2.9.62-2.9.3-4.38-.54-2.54.51-2.61.24-4.34-.04-.24-.31-1.97-.04-2.96.34-1.27.6-1.36.27-3.99ZM251.42,112.2c.05-.68,1.04-3.66-1-4.4-.7-.25-.72-.15-1.47-.12-2.82.08-2.82-.12-5.46-.02-2.27.09-2.45-.33-4.35-.08-.85.11-.85.1-6.93.1-9.19,0-9.2-.03-9.82.18-1.35.44-2.14-.04-4.75.29-.89.11-7.72.05-7.99.03-1.17-.13-1.16-.24-4.38-.06-.86.04-1.57-.1-2.18-.11-.5,0-5.8-.06-6.17-.02-1.64.14-1.64.27-3.28.08-1.62-.19-2.6.26-4.01.11-2.04-.21-2.04-.19-2.21-.22-.24-.04-.47-.12-.7-.16-.81-.14-2.01.48-2.09.54-.96.73-.95,3.9-.78,4.95.33,1.95-.1,1.96-.11,4.02,0,1.79-.18,1.76-.3,2.91-.03.23.37,2.46,0,3.64-.64,2.09-.37,2.5-.27,3.25.04.26.09.63.06,3.3-.02,1.54-.36,1.5-.38,3.28,0,2.03-.14,2.02-.16,2.91-.03,1.29-.12,1.28-.33,2.55-.02.16-.22,1.45.47,2.03,1.23,1.02,4.22.81,4.59.79,2.07-.15,2.65.41,4.39.76,2.15.43,2.17.23,3.63.23,1,0,2.92.87,5.47,1.11,2.17.2,2.4.02,3.26.18,1.27.22,1.29.07,2.54.38.82.2,1.93.05,4,.41.93.16.94.06,1.85.23,1.25.23,1.27-.09,2.52.12,2.67.44,4.18-.04,5.81.4,2.34.63,2.39-.46,4.03-.08,1.25.29,1.26.17,2.55.16,1.83-.02,1.85.19,3.62-.22,1.99-.47,6.08.02,7.31-.28.9-.23.9-.18,1.81-.38.97-.21,3.47-.05,4.72-.12,2.16-.13,2.37-.19,2.56-.24,2.27-.66,2.87-1.68,2.76-4.02-.12-2.38.09-2.39-.13-3.67-.23-1.26,0-1.26.11-2.53.06-.74.1-.72.25-1.44.23-1.05-.07-1.4.1-4.76.08-1.53-.2-2.05.07-4.01.16-1.09.34-1.07.28-2.89.05-2.15.18-2.13.2-2.18.3-1.12,0-1.15.2-3.3.07-.71-.1-1.3.08-3.63ZM249.82,153.34c0-1.68.22-1.86.15-2.91,0-.14-.08-1.03-.99-1.51-1.31-.7-2.01-.32-2.2-.27-1.21.32-2.04.02-3.66.24-3.05.42-3.49-.12-5.79.21-1.62.24-1.71-.04-2.58.2-.9.24-.9.22-1.82.24-2.12.06-3.14.37-4.35.13-1.52-.31-1.59-.28-3.28.08-1.29.27-1.3.11-4.38.02-.32-.01-.31-.03-4.01-.27-.39-.03-.94-.24-1.06-.26-.37-.07-4.41-.2-4.75-.19-1.94.09-1.94.02-3.25-.19-.71-.11-1.25-.04-1.86-.2-.11-.03-.22-.08-.34-.11-1.58-.38-1.65.07-4.03-.63-1.44-.43-3.89-.07-6.19-.72-1.24-.36-1.25-.29-2.53-.31-1.12-.01-1.29-.2-2.2-.3-.9-.1-.89-.16-1.79-.26-1.8-.2-1.93-.69-3.29-.73-2.7-.06-2.67-.32-3.66-.45-1.11-.14-1.09-.2-2.19-.39-1.44-.26-1.44-.43-2.9-.24-2.07.28-2.04-.17-3.62-.33-1.83-.18-2.81.41-4.04.67-.76.16-2.52.93-3.62,1.03-2.1.19-2.26.58-3.59,1.01-1.76.59-1.65.81-4.14,2.26-2.07,1.21-2.61,1.14-3.6,1.92-1.74,1.37-1.79,1.29-2.79,2-1.18.84-1.19.82-1.46,1.06-2.17,1.85-2.25,2.03-4.08,3.18-1.07.67-1.21,1.65-3.25,2.59-1.28.59-1.3.62-3.45,3.12-.31.35-2.89,3.35-3.74,4.57-.41.59-1.07,2.63-1.1,3.94-.04,2.21,2.02,3.89,2.86,4.27,2.35,1.06,2.94,1.33,4.69,1.33s2.46.21,4.42-1.16c.65-.45,1.6-.93,1.82-1.08.68-.46.84-.52,1.11-.73.62-.48.75-.49,1.06-.76,1.23-1.07,2.08-1.96,2.25-2.14.83-.86,1.63-1.32,2.3-2.04.13-.14,1.05-1.12,1.7-1.54,1.91-1.24,3.13-2.5,5.03-2.92,2.03-.45,3.08-.6,6.17.54.15.06,1.82.89,2.19,1.11.18.11.16.13,2.01,1.65.18.14.8.65,1.82,2.12.52.74.51.74,1.86,2.18,1.91,2.02,1.84,2.08,2.2,2.52,2.02,2.53,2.58,1.88,4.52,3.49,1.8,1.5,2.11,1.16,4.38,2.09,2.5,1.02,3.29-.16,4.65-.31,1.28-.14,1.4,0,5.11-1.35,1.5-.54,2.13-.96,2.97-1.3,1.84-.74,3.34,1.25,2.88,2.42-.5,1.3-2.82,2.06-4.01,2.58-1.53.66-1.72.33-2.93.7-.75.23-.96.19-1.8.43-2.04.62-2.25,1.77-1.88,2.48.32.61,2.98,1.51,4.3,2.32.67.41.85,1,4.02,2.9,3.36,2.01,3.26,2.34,4.44,2.82.85.34.82.42,1.47.69q.14.06,1.76.84c1.48.72,1.33.97,4.35,2.57,2.66,1.41,3.09,1.89,5.2,2.71,1.52.6,1.98.94,2.5,1.18,1.23.57,4.47,2.72,5.83,2.43,1.25-.27,1.06-.74,2.93-1.37,1.71-.57,1.91-1.42,3.27-2.19,1.47-.83,2-1.1,2.95-1.3.21-.04,1.35-.28,2.45-.99,1.08-.71,1.39-.15,2.95-.7.83-.28,1.64-.35,2.25-.51,1.14-.3,1.11-.43,2.51-.54,2.66-.19,2.73-2.55,2.74-2.87,0-1.29-.02-1.28.12-2.56.17-1.51-.32-2.04.06-4.36.22-1.33.16-1.33.16-3.64,0-.55.02-.54.03-1.09,0-1.11.23-1.08.28-2.18.18-4.19-.23-4.25.65-7.27.17-.55.15-1.91.01-2.57-.32-1.43-.23-1.44-.22-2.91.02-1.43.57-1.45.23-4.37-.21-1.77.46-1.76.19-5.8-.15-2.05.61-1.97.62-4.02ZM247.34,203.92c.05-.62.42-1.1.2-1.82-.13-.44-.71-2.41-3.02-1.21-1.53.79-3.52,1.14-3.59,1.16-1.11.33-1.09.37-2.21.65-.6.15-.96.46-1.74.64-2.74.64-3.16.96-4.09,1.62-1.31.95-2.61.93-2.8,2.26-.16,1.03.53,1.95.65,2.18.49.93.46.94.51,1.02,1.29,2.39,1.22,3.23,1.32,3.71.2.89-.06,1.35-.19,1.86-.48,1.83-1.78,3.69-2.71,4.34-2.29,1.58-2.2,1.8-3.66,2.09-.95.19-1.64.52-2.92.69-.85.12-1.02.34-2.17.19-1.35-.17-1.34.05-2.19.11-1.21.07-2.85-.89-4.01-.63-1.87.42-2.08.99-2.2,1.15-1.48,2.01-3.02,2.52-4.96,3.48,0,.01-1.44,1.03-2.3,1.21-2.49.5-3.76.01-5.06.48-1.13.4-1.18.33-1.87,1.01-1.89,1.87-2.45,1.97-4.41,3.19-1.4.86-3.23.99-3.94,1.2-1.54.46-1.57.14-4.36.2-.77,0-1.86-.14-3.28.52-.67.31-1.23.96-2.58,1.3-3.29.82-3.23,2.12-3.45,4.2-.06.63-.29.78-.31,1.79-.02,1.32.25,1.97.28,2.17.13.99-1.1,4.02.96,5.49,2.05,1.47,2.28.83,4.36,1.17,2.01.33,3.55-.35,5.83-.04,2.3.32,2.3-.39,4.39-.16,1.09.12,1.08.1,2.16.01.9-.08,1.37.08,2.2.09,5.07.06,6.01-.05,6.53-.12.95-.12.95-.03,1.85-.09,1.27-.1,1.26.04,2.54.05,5.02.05,5.37-.06,5.81-.2,1.03-.33,1.73-.15,2.57-.07,1.03.1,1.42-.37,3.61-.14,1.44.15,2.33-.06,3.31.15,1.43.31,1.44-.1,2.9-.07,2.24.05,4-.31,5.45.16,1.39.45,2.33-.15,3.29-.21.91-.06.91-.04,1.81-.17,2.08-.3,3.36-.02,4.37-.37,1.28-.45,1.43-.41,2.22-1.03,3.34-2.63,2.34-3.39,2.6-5.87.08-.7.1-.69.1-.76.04-.36-.15-3.49.09-5.09.21-1.45.27-1.44.28-2.9,0-1.41.25-1.54.13-2.54-.16-1.3-.08-1.3.03-2.19.29-2.42-.02-3.24.41-4.72.05-.17.21-.15.17-4.38-.01-1.21.14-1.66.16-2.19.1-2.75.39-2.74.21-4.71-.2-2.17.32-2.44.34-3.66.02-1.28.13-1.27.16-2.55.05-1.83.07-1.82.22-3.65ZM228.11,215.91c.75-1.76.6-1.85.11-2.89-.27-.57-1.72-2.5-1.97-2.78-1.55-1.78-3.04-1.71-3.92-2.19-.39-.22-1.1-.52-1.46-.75-.96-.62-1.84-.67-3.58-1.56-1.7-.86-1.8-1.18-3.32-1.69-2.18-.74-2.66-1.34-3.31-1.84-.32-.24-4.51-2.45-4.92-2.77-1.36-1.05-1.46-.87-3.03-1.66-.5-.24-1.52-1.15-2.15-1.51-.64-.37-.59-.43-.83-.57-1.04-.6-1.03-.63-1.12-.68-1.28-.74-1.32-.65-2.54-1.49-2.6-1.81-2.77-1.54-5.03-3.37-1.03-.84-1.08-.76-1.48-1.04-.88-.6-.85-.63-1.71-1.27-1.24-.92-1.27-.88-2.36-1.99-.82-.83-1.01-.83-1.39-1.13-1.15-.89-2.23-1.2-3.31-2.16-1.98-1.78-3.05-2.23-4.58-3.46-1.13-.9-1.36-1.6-2.18-2.52-.15-.17-.84-.94-1.73-2.24-1.17-1.73-1.35-1.57-2.81-3.06-1.01-1.03-3.06-2.25-4.28-2.52-2.09-.46-2.13-.27-2.52-.15-1.18.33-1.23.41-1.88,1.05-1.47,1.46-1.54,1.37-2.91,2.53-.8.69-.8.68-1.66,1.3-.76.55-1.34,1.47-2.39,2.27-.48.37-2.64,1.89-2.79,1.98-2.53,1.48-2.38,1.89-4.06,2.37-2.87.84-3.76.73-4.34.76-.39.03-1.11.28-1.81.32-1.49.08-2.33-.2-2.52-.27-2.64-.88-3.67-1.67-4.37-2.15-.32-.22-2.45-1.67-3.12-3.66-.8-2.34-.42-2.96-.36-3.59.13-1.32-.33-1.79.4-3.68.43-1.11,1.25-1.57,2-3.21q.61-1.34,1.44-2.55c.71-1.04,1.28-1.38,2.45-2.3,2.4-1.88,2.28-3.09,4.83-4.22,1.41-.63,1.17-1.76,3.67-2.84.99-.43,1-.42,2.21-1.49,1.02-.91,1.09-.83,2.86-1.46.98-.34,2.26-1.64,2.3-2.62.03-.94-.7-1.17-.81-1.23-1.1-.62-1.17-.02-4.45.33-.68.08-1.44.01-2.17.15-1.08.21-1.07-.04-2.17-.09-2.26-.12-3.35.1-3.63.16-1.18.25-1.18-.15-2.93-.18-1.69-.02-1.71.06-3.32-.46-1.74-.57-2.51.3-3.95.33-4.36.11-4.36-.1-4.74-.07-.23.01-2.25.15-2.92.04-.69-.1-.67-.31-2.54-.25-1.82-.06-1.82.03-2.56-.14-1.66-.39-1.69.01-3.99-.13-1.66-.1-5.66.18-8-.33-1.1-.24-1.7.07-2.18.13-1.45.17-3.09-1.64-4.57.75-1.53,2.48-.99,3.07-1.18,4.27-.35,2.24-.38,2.34-.46,2.53-.81,2.16-.8,2.15-1.56,4.33-.33.94-.25,1.78-.29,2.23-.12,1.4-.52,1.31-.82,3.25-.12.74-.14.73-.35,1.45-.1.34-.21,1.3-.63,2.57-.21.63-.39,2.54-.65,3.31-.82,2.51-1,2.47-1.34,4.72-.07.53-.04.54-.62,2.14-.69,1.9-.27,2-.73,3.27-.67,1.84-1.05,1.89-1.13,3.67-.07,1.84-.83,1.87-.84,3.28-.02,1.46.91,1.49,2.16,2.4.21.15.79.58,2.82,1.58,1.87.93,4.64,2.94,6.56,3.6.86.29.84.3,2.19,1.11,1.16.7,2.86.94,3.9,1.62.9.58.88.61,1.81,1.13,1.77,1,2.74,1.11,3.36,1.29,2.29.65,2.22.81,4.34,1.88,1.51.77,1.55.67,2.53,1.14,2.13,1.01,2.79.87,3.62.48.82-.39,3.37-2.83,4.13-3.81.79-1.01.86-.94,1.84-1.76,1.58-1.31,2.14-1.36,2.88-1.85.18-.13,1.29-.87,2.52-1.08,1.19-.2,1.67-.29,2.16-.28,2.83.09,3.13.48,4.04.82.93.35.91.38,1.8.8,1.68.78,1.83,1.89,2.5,2.97.49.77,1.85,1.02,2.97.8.43-.08,3.58-.68,5.45-.14.59.18,3.82,1.9,4.27,2.32.93.86,2.26,3.97,2.34,4.25.21.71.13,3.48.1,3.68-.09.86-1.09,2.59.62,3.5.62.33,2.67.17,4.33,1.18.46.29,2,2,2.42,2.65.88,1.38.42,2.85,1.56,4.66.28.44,2.32,2.11,4.36,2.94,1.51.61,1.39.85,2.9,1.48.9.38,1.77,1.03,3.29,1.42.24.07,1.41.38,2.84,1.22,1.51.9,1.88.67,3.68,1.09.56.13.55.17,1.11.31.23.06,3.41.23,4.39-.06,1.86-.53,2.32.16,4.3-1.21.47-.32,1.27-1.26.72-2.04-.63-.87-2.23-.54-3.14-.92-.32-.13-2.08-1.37-4.43-2.41-1.5-.67-1.37-.91-2.88-1.54-1.87-.79-1.9-.73-3.61-1.84-1.67-1.08-2.28-.74-4.89-2.68-2.57-1.9-2.73-1.65-3.6-2.23-2.11-1.39-5.38-2.63-5.54-4.43-.09-.92,1.25-3.38,3.87-1.23,1.24,1.02,1.98.93,2.87,1.48,1.9,1.17,1.91,1.15,2.07,1.27,1.97,1.51,2.05,1.38,4.12,2.74.42.28,2.19.98,2.91,1.46.68.46.77.28,1.46.71.7.44.76.31,1.44.76.81.53.89.39,1.7.93,2.2,1.47,2.66,1.33,3.99,2.2,1.38.91,1.42.83,2.97,1.41,1.79.67,1.97,1.27,3.34,1.56,1.61.34,1.6.39,3.25.36,1.46-.03,1.47.1,2.9-.24,1.11-.27,1.3.16,3.28-.68,1.99-.85,2.69-1,2.94-1.45.81-1.5-.83-2.6-3.7-3.53-.95-.31-.93-.32-1.83-.75-1.09-.53-1.04-.62-1.13-.66-2.18-1.03-2.21-.94-2.4-1.03-2.73-1.37-2.82-1.43-3.04-1.59-1.49-1.03-2.49-.94-3.88-2-1.02-.78-1.19-.5-4.86-3.09-1.22-.87-4.33-2.54-5.03-3.38-1.33-1.61-2.39-1.47-3.33-2.09-.14-.09-1.22-.8-1.7-1.25-1.37-1.31-.96-2.74-.67-3.13,1.4-1.93,3.3-.16,4.13.45.61.45.63.41,1.27.83,1.19.78,1.13.84,1.86,1.42,2.15,1.72,2.61,1.26,4.34,2.97,1.25,1.23,1.5,1.16,3.86,2.4,1.56.82,1.89,1.26,2.96,1.73.83.36,1.77.97,3,1.64,1.46.79,1.59.52,5.67,2.83.41.23,1.32.87,1.97,1.13,1.61.63,1.76.31,3.88,1.72.55.36,2.64.82,3.38,1.28.8.5,1.38.42,2.14.47,1.93.14,2.16.88,4.72.62.93-.09.92-.08,1.84-.13.43-.02,2.33-.62,2.85-.96.93-.61,2.17-.88,2.87-2.5ZM176.07,233.62c.82-.44.6-1.22.57-1.33-.3-1.06-2.03-1.41-2.71-1.7-2.41-1.02-2.49-.83-6.8-3.14-.27-.14-2.42-1.29-3.72.87-.72,1.2-.7,1.66-.69,1.82.08,1.75,2.59,2.15,3.58,2.32.96.17.93.25,1.88.45,2,.41,2.01.38,2.18.42,1.8.44,1.76.68,3.61.62.14,0,1.25.11,2.1-.33ZM161.61,223.59c.08-.28.36-2.01.12-2.95-.11-.43-1.14-2.86-2.66-3.02-.68-.08-1.14.26-1.83.31-.06,0-.05,0-.74.03-1.2.04-1.51-.11-2.5,1.65-1.22,2.17-1.52,1.95-2.91,4.01-.13.19-.15.17-1.72,2.27-.68.91-1.35,1.56-3.31,2.95-.1.06-1.34,1.29-1.46,1.41-1.4,1.5-.3,3.36,1.71,3.39,1.28.03,1.28-.06,2.55-.02,1.13.04,2.63-.5,3.62-.66.28-.05,1.24-.2,3.21-1.49.42-.27,2-1.54,2.56-2.12.28-.28,1.96-2.35,2.09-2.58.89-1.61.99-2.25,1.27-3.18ZM153.42,210.46c.16-1.08.24-1.07.33-2.16-.13-.93-.06-.98-.63-1.73-.09-.12-.74-.96-1.13-1.42-1.88-2.17-4.36-1.77-4.95-1.58-2.03.64-2.05.57-2.22.63-2.34.91-1.88,2.53-2.61,4.06-.52,1.1-.63,1.05-.85,2.25-.35,1.92-1.73,3.04-2.56,4.43-.1.16-.8,1.33-1.39,1.94-.91.92-.89.93-1.75,1.9-1.37,1.55-4.39,2.83-5.06,3.26-1.11.72-2.69,1.13-3.08,2.32-.22.66.26,1.83.86,2.58,2.48,3.13,2.72,2.98,4.5,3.41.59.15,2.02.84,3.62.19,1.21-.49,1.38-.6,1.49-.67.36-.22,2.7-1.32,3.66-2.2,1.16-1.05,1.06-1.16,2.35-2.07,1-.71,2.18-2.37,2.24-2.44q1.71-1.98,1.87-2.14c1.62-1.65,1.54-1.72,2.36-3.16.32-.56,1.24-1.94,1.5-3.04.53-2.25,1.11-2.08,1.45-4.36ZM139.19,204.67c.02-.45.68-2.9-.97-4.65-.42-.45-2.13-1.59-3.54-1.45-1.35.13-4.73,1.26-5.05,1.46-.18.11-.17.13-2.11,1.54-1.16.84-1.66,2.99-3.97,5.44-2.85,3.02-4.77-.33-6.45,1.19-1.5,1.36-1.45,6.02-.68,7.77.33.75,1.35,2.16,1.87,2.51.29.2,2.16,1.33,2.84,1.61,1.13.46,1.35.37,1.88.39.65-.02.65.02,1.46-.18,1.69-.41,1.89.03,3.96-1.51,1.11-.84,1.98-.94,4.46-3.15.58-.52.6-.49,1.17-1.01,1.81-1.65,1.96-1.56,2.56-3,.36-.88.83-1.52,1.3-2.97.35-1.11.57-1.02.88-2.14.26-.92.35-.9.39-1.85ZM112.81,206.12c.11-1.76-3.17-1.99-6.19-3.23-2.27-.94-2.76-.92-4.04-2.18-.09-.1-1.23-1.51-3.21-.74-1.36.54-1.27,2.58-1.28,2.87-.05,1.06-.35,3.01,1.21,5.5.77,1.22,2.3,1.86,2.53,1.96,1.38.59,2.85,1.84,5.14.84,2.89-1.26,3.64-2,3.89-2.25,1.97-1.95,1.93-2.44,1.95-2.77Z"/>
  <path d="M226.3,96.99c.74.9.08,3.12-2.46,3.04-1.47-.05-1.46.03-2.92-.04-2.18-.1-2.17.04-4.36.04-.56,0-1.67-.03-2.21.09-.77.16-.76.23-2.52.22h-.02c-1.89-.03-2.77-1.37-2.63-2.34.21-1.54,2.03-1.95,5.56-1.77,1.29.07,1.91,0,2.47-.03.13-.01.25-.02.38-.02.39,0,.82.02,1.5.13,2.6.41,5.69-1.2,7.21.68Z"/>
  <path d="M215.1,259.69c1.26.12,2.65,1.25,2.07,2.43-.45.91-1.07,1.54-2.78,1.37-.58-.06-.57-.03-2.56-.03h-.37c-2.6,0-2.57.67-4.71.43-.19-.02-.36-.04-.52-.05-1.34-.12-1.5-.05-3.14.08-3.34.24-3.97-2.31-2.42-3.41.07-.05.71-.5.92-.61,1.5-.76,2.61-.31,2.95-.25,2.91.51,3.9-.1,4.76-.22.18-.02.42-.03.7-.03,1.03,0,2.51.12,2.57.13,1.26.16,1.26.05,2.53.16Z"/>
</svg>