<?xml version="1.0" encoding="UTF-8"?>
<svg id="Layer_1" xmlns="http://www.w3.org/2000/svg" version="1.1" viewBox="64 64 232 232">
  <!-- Generator: Adobe Illustrator 30.0.0, SVG Export Plug-In . SVG Version: 2.1.1 Build 123)  -->
  <defs>
    <style>
      .st0 {
        fill: #9a9694;
      }

      .st1 {
        fill: #fff;
      }
    </style>
  </defs>
  <path class="st1" d="M219.21,86.95c.56,1.37.36,2.18-.08,3.05-.56,1.12-1.89,1.7-2.48,1.79-.54.08-.53.1-1.06.21-.29.06-.29.03-.59.09-.11.02-.09.09-1.35.33-.15.02-.7.13-1.91-.23-.97-.28-2.47-.15-3.02-.13-.7.03-.67.21-1.36.24-1.7.08-2.46-.24-3.29-.14-2.99.37-3.02-.09-4.66.25-1.7.36-2.69-.06-4.39.24-1.22.21-1.23.16-1.33.17-.69.13-.68.15-1.39.19-.41.02-2.09.41-2.2.42-.77.12-.82-.15-2.2.33-1.72.6-2.03.43-2.46.53-2.44.56-4.03,1.01-4.38,1.11-1.87.53-2.97,2.19-.88,3.74,1.72,1.26,2.44,1.06,3.09,1.09.42.02.76.19,1.37.23.69.05.68.13,1.37.2.96.1.95.14,1.88.39.55.15.56.08,1.11.23.48.13.82.13.85.13,1.09.15,2.77,1.35,4.1,1.42,1.11.05,1.18-.06,4.59,1.78,1.87,1.01,2.28.16,3.86,1.58.14.12.76.67,1.93,1.36.12.07.45.26,1.41,1.04,1.62,1.34,3.03,1.74,3.71,2.82.68,1.09.74,1.04,1.63,1.97,1.48,1.54,1.08,1.86,2.5,4.31.52.88,2.15,4.41,2.41,5.73.22,1.12.34,1.08.72,2.15.67,1.85.04,3.84-.63,4.03-.92.27-1.49-1.07-2-1.72-.67-.85-.64-.86-1.28-1.72-.17-.22-1.37-1.8-2.22-2.7-.58-.61-1.36-2.08-3.57-3.5-1.25-.81-1.05-1.12-2.41-1.71-.83-.36-.82-.39-1.45-1.05-1.25-1.29-1.95-.8-3.52-1.93-.91-.66-1.61-1.01-2.73-1.93-1.42-1.15-3.07-.97-4.8-2.09-2.38-1.54-2.96-.83-4.5-1.73-1.46-.85-2.07-.66-3.5-1.19-1.18-.44-1.3-.41-1.66-.5-1.67-.45-4.43-2.25-6.27-1.36-1.83.9-1.48,2.52-.22,3.41.26.19,1.89.93,2.93,1.24,1.03.3,1.13-.19,3,.55.92.36,1.68.54,2.47.82,1.06.37,1.13.18,2.21.77.82.44.68.76,2.46,1.12,1.25.26,1.1.64,3.26,1.42,1.64.59,1.58.72,3,1.38,1.16.53,1.7.58,2.27.95,1.08.71.96.89,2.09,1.53,1.19.68,1.13.75,2.26,1.52.28.19,1.01.63,1.04.64,1.87,1.31,2.01,1.15,2.84,2.07.66.73,1.1,1.13,1.21,1.24.48.51,1.42,1.99,2.84,2.92.99.64,1.6,2.57,2.57,3.75.92,1.11,1.19,1.8,1.74,2.59.86,1.26,1.17,2.57,1.64,4.63.31,1.35,1.28,2.4,1.44,2.71.39.78.45,3.13-.07,3.79-.79.99-2.24.14-2.72-.13-1.73-.97-1.28-1.45-1.8-3.4-.12-.46-.62-1.18-.81-1.41-.06-.08-.48-.61-.67-1.01-.55-1.2-.59-2.04-1.69-3.22-1.44-1.53-1.32-1.64-1.94-2.14-1.43-1.17-1.3-1.3-2.56-2.66-.59-.65-.55-.68-1.12-1.34-2.11-2.4-2.81-1.75-4.26-3.13-.79-.76-.82-.72-1.73-1.33-.82-.56-.78-.61-1.66-1.09-1.89-1.02-3.61-1.84-3.93-1.99-3.17-1.51-3.2-1.41-3.48-1.55-.91-.45-.93-.38-1.93-.57-.05,0-.04-.03-.57-.15-1.85-.4-1.96-.69-2.83-1.25-1.78-1.14-2.57-1.29-3.2-1.47-2.48-.74-3.36-1.31-4.89-1.76-1.6-.47-3.83,1.44-2.28,3.15,1.06,1.17,2.29,1.29,2.52,1.34.36.08,1.75.4,4.39,1.33.66.23,2.23,1.29,3.54,1.49,1.68.26,1.63.45,3.55,1.31,1.63.74,1.6.78,3.09,1.78.68.46,2.84,1.41,4.1,1.87,1.5.56,1.43.7,3.11,2.19.36.31.37.3.74.6,1.22,1.02,2.31,1.41,2.97,1.97.96.81,1.32,1.21,1.42,1.33,1.38,1.54,1.43,1.48,2.25,2.41,1.51,1.73,1.54,1.69,1.66,1.85.04.07.55.81.55.81,1.52,2.43.9,2.86.88,2.89-.61.91-2.39.18-3.22,0-.16-.04-.44-.02-.85-.11-1.48-.3-1.97-.43-2.14-.47-.56-.14-.56-.1-1.12-.21-1.62-.32-1.66.03-3.27-.31-1.19-.25-1.61.27-3.31.12-.9-.08-.91-.13-2.2.16-1.31.3-1.83-.62-2.82-1.47-.38-.33-.56-.29-2.15-1.69-1.65-1.45-2.31-1.41-3.46-2.06-1.65-.94-2.41-1.05-3.01-1.37-1.76-.93-2.38-.86-3.37-1.16-.15-.04-1.43-.43-1.85-.52-1.3-.25-1.29-.29-1.41-.31-.81-.12-.79-.24-1.62-.24-1.5,0-1.5,0-2.46-.21-.15-.03-.48-.02-.86-.1-.43-.09-.42-.19-2.43-.17-.8,0-.81.18-1.38.22-.36.03-.72.09-1.07.18-.55.14-.57.03-1.11.18-.94.27-.97.11-1.92.3-.68.14-1.12.08-1.65.23-.55.14-.55.11-1.1.25-.47.12-.47.07-.8.13-2.43.42-3.85,1.31-4.15,1.5-1.59.99-1.83.55-4.64,2.5-3.04,2.11-3.1,2.05-3.89,2.97-1.97,2.3-1.21,3.72-1.1,5.01.12,1.56,1,1.91,2.08,2.91.13.12.78.72,1.82,1.23,2.28,1.12,3.02,1.31,3.29,1.38,2.87.73,2.71,1.19,4.65,1.66,1.38.33,2.46.86,3.31.93,1.61.13,1.55.37,2.74.89,1.04.45,1.45.36,1.9.37,1.08.02,1.25.66,3.27,1.12,1.45.33,1.43.61,3.9,1.42,2.92.96,4.83,2.81,4.88,2.87.79,1.04.53,1.17,1.37,3.28.05.12.33.83.18,1.63-.21,1.09-1.74,2.63-2,2.86-2.19,1.97-2.54,1.91-4.21,1.95-.62,0-.73.19-1.65.27-.15,0-1.71-.05-1.91-.1-.68-.14-.67-.16-1.37-.2-.46-.03-.54-.16-1.07-.23-.56-.08-.55-.09-1.1-.22-.18-.05-1.04-.07-1.4-.14-1.27-.24-1.27-.22-1.38-.24-2.1-.53-2.16-.32-3.29-.85-.27-.12-1.21-.58-1.86-.71-.68-.15-.69-.09-1.91-.53-1.51-.54-1.54-.4-2.49-.43-.81-.03-2.46-.87-3.27-.98-.55-.07-1.1-.16-1.65-.25-1.5-.27-1.73-1.18-4.38-1.4-1.5-.12-1.72-.43-3.01-.75-2.32-.56-2.54-1.31-4.37-1.7-1.43-.3-1.78-.61-3.31-.94-.79-.16-1.06-.32-2.74-.84-2.34-.71-2.2-1.14-3.56-1.3-.83-.09-2.11-.67-2.72-.93-1.44-.61-1.56-.45-2.18-.6-.98-.25-1.33-.22-2.51-.98-1.28-.83-2.05-.77-3.31-1.3-.51-.22-.5-.23-1.02-.45-1.26-.53-1.74-.26-3.36-1.23-1.39-.83-4.07-1.63-4.34-1.68-1.71-.33-1.67-.45-3.21-1.27-3.21-1.71-5.31-1.19-6.39-2.86-.99-1.51-.91-1.99-.9-2.77.02-1.09.51-1.96.39-2.73-.06-.41-.17-.39-.13-1.92.02-.51.16-.72.23-1.07.26-1.39.39-1.75.18-2.49-.54-1.85-.8-1.86-.53-3,.21-.88.06-.98.24-2.2.31-2.08.1-3.11.15-5.47,0-2.52.04-2.52.04-2.74,0-1.1-.05-1.09-.06-2.19,0-.02-.12-3.16.11-4.12.26-1.08.16-1.09-.03-1.88-.11-.42-.05-.54-.15-1.13-.14-.87-.04-.87.03-1.34.11-.83,0-.84.2-1.66.16-.62.04-.69.17-1.66.15-1.09.03-1.09-.08-2.18-.07-.69-.23-.66-.25-1.36-.02-1.13-.03-1.31.42-1.92.04-.07.27-.37.82-.56.89-.31,1.53-.08,1.66-.06.6.09,2.28.09,2.71,0,1.25-.27,1.25-.26,1.36-.29.68-.17.7-.05,1.39-.21,1.09-.26,1.59-.11,5.48-.15,1.12-.01,1.2-.14,2.2-.25.69-.07.67-.21,1.36-.27.68-.05.68-.04,1.36-.16.61-.1,1.03-.04,1.66-.2.68-.17.69-.09,1.38-.2,1.27-.19,2.2-.13,2.99-.15.5-.01,2.79-.63,3.29-.68,1.04-.1,3.51-.9,3.55-.92,1.75-.72,2-.53,3.01-.48,1.07.06,2.52-.48,3.02-.52.84-.06.81-.19,1.65-.25,1.1-.09,2.2-.9,3.27-.99,2.29-.19,2.75-.92,4.11-.93,1.08-.01,1.16.15,3.25-.74,1.76-.76,2.15-.67,3.3-1.06,1.96-.68,2.19-.59,2.76-.76,1.63-.48,1.61-.54,3.28-.82,1-.17,1.88-1,2.45-1.16.09-.03.66-.19,1.1-.27,1.41-.24,1.39-.31,2.76-.72,1.84-.54,2.76-1.25,3.82-1.44,1.39-.25,2.23-.67,2.73-.84.02,0,1.34-.34,1.93-.39,1.38-.14,2.99-1.29,5.76-1.66.48-.07,1.11-.4,2.7-.75,1.3-.28,2.41-.67,3-.83.55-.14.57-.06,1.12-.2.66-.17.9-.12,1.12-.17,1.23-.3,1.21-.36,2.43-.67,1.29-.32,1.33-.13,3.34-.64.43-.11,1.25-.07,2.7-.08,1.16,0,1.99-.62,3.27-.93.46-.11,2.83-.06,3.04-.03.24.04.35.27,2.73.2.6-.01,1.3-.43,2.46-.13.89.23.91.07,1.65.23,2.17.47,2.24-.09,3.82.33.57.16,1.65.09,2.2.18,1.22.21,1.23.15,2.44.43,1.75.42,2.37,1,3.59,1.55.87.39,1.9,1.32,2.25,2.18h0Z"/>
  <path class="st0" d="M163.34,236.99c.02.06,0,.06.09.83-.11,1.67-.48,1.62-.49,3.29,0,1.17-.08,1.16-.07,1.63.03.79.12,1.52.14,1.66.09.73-.08.73-.08,2.18,0,2.01.07,2.02-.12,2.76-.32,1.22.37,1.73.37,2.99,0,1.18-.05,1.17-.2,1.91-.18.93.18,1.78-.19,3.58-.28,1.36.24,2.03.05,3.29-.29,1.82.07,2.03.09,2.73.12,2.78.39,2.79.09,4.37-.04.17-.13.67-.08,2.19.04.89.24.86.24,1.92,0,2.91.07,3.39-.46,4.37-.97,1.79-3.32,1.24-4.09,1.29-1.58.1-1.57.18-1.93.25-.04,0-2.21.16-4.1-.06-1.26-.15-1.26.11-3.27.09-4.43-.04-6.11.11-7.68-.08-1.62-.19-1.65.34-3.56-.07-.11-.02-.11,0-1.37-.23-.65-.12-2.75,0-2.98.03-.42.07-1.44.3-2.04-.29-1.01-1,.14-3.04-.27-5.28-.11-.6-.14-.6-.14-3.86,0-1.37.22-1.36.23-2.73,0-1.79-.11-1.78-.08-3.56.02-1.24.04-1.23.07-2.47v-4.37c-.05-1.26-.51-1.28,0-3.29.31-1.2.49-1.78.34-2.47-.19-.86-.05-.87-.18-1.61-.21-1.23-.1-1.24-.26-2.48-.13-1.07.1-1.07.11-2.47,0-2.49-.05-2.49-.11-2.71-.29-1.16,0-2.52-.07-3.6-.07-1.23-.09-6.6.03-7.08.29-1.2.61-1.35.04-3.55-.41-1.62.25-2.53.08-3.86-.05-.38-.29-1.06.05-1.92.65-1.64,4.6-.8,6.29-1.09.82-.14.81-.19,1.64-.19,1.37-.02,1.36-.16,2.73-.03.71.07.72-.04,1.66.13.28.05,1.29.23,3.55.13.62-.03.78-.22,1.37-.23,2.31-.05,2.29.16,2.73.21.12.02,3.64.09,4.38-.05,1.49-.27,1.5-.16,3.02-.16,1.1,0,1.1-.05,2.19.17.55.11.58.03,1.05.34,1.17.79,1.04,1.92,1.03,4.6,0,1.51.13,1.52-.18,3.01-.08.39-.1,2.4,0,3.01.25,1.48.14,1.48-.02,2.46-.03.2-.1,2.45.03,3.02.07.28.18.73.33,1.35h0ZM159.34,235.9c.07-1.26.32-1.26.13-2.19-.1-.54-.08-.53-.13-1.08-.04-.48-.43-1.62-.15-2.74.04-.17.28-1.14.2-2.19-.14-1.74.06-1.83-.28-3.27-.18-.75-.99-1.55-2.39-1.56-2.08-.02-2.54.08-2.75.12-1.7.35-2.73-.12-5.74-.12-1.38,0-1.39-.09-2.74.18-.6.12-4.24.04-4.65.02-.88-.03-3.98-.75-5.15.83-.56.76-.59,1.95-.55,3.79,0,.71.2.81.22,1.65.04,1.69-.14,2.13-.16,2.2-.07.49.32,1.99.1,2.99-.2.97-.22.98,0,1.95.13.61.09,2.27,0,2.7-.17.83-.15.83-.15,3.02,0,2.52-.14,3.58.76,4.13,1.29.79,2.8.4,4.94.5,1.65.07,2.13-.11,4.1.1.67.07.67,0,1.65-.1.72-.06.7-.2,1.37-.21,1.9-.04,1.92.1,1.95.11,1.38.34,2.64-.18,5.7.2,1.78.22,2.88-.71,3.31-1.43.5-.84.42-.92.42-2.2,0-1.72,0-1.72-.04-2.2-.41-4.22,0-4.42.04-5.2h0ZM159.43,261.91c.25-1.08-.04-1.08-.09-2.18,0-.23-.21-1.37-.12-2.19.05-.5.16-.49.12-4.11,0-1.85-1.27-2.62-2.08-2.75-1.62-.25-1.62-.23-4.65-.22-1.65,0-1.64.15-3.29.15-.42,0-.83.09-1.9-.02-.83-.08-.82-.13-1.65-.13-4.59-.02-4.6.08-5.74-.12-.38-.07-1.74-.36-3.32.3-.62.26-1.56,1.01-1.57,2.52-.02,1.36.08,1.37-.15,2.71-.3,1.8.19,3.47.09,5.5-.07,1.37.06,1.36.06,2.73,0,2.78,0,2.78-.12,3.55-.18,1.38.21,1.38.09,2.75-.07.9-.13,1.58.28,2.73.57,1.59,2.28,1.28,3.53,1.29,4.08.04,6.42-.05,6.85.04.95.19,1.16.39,3.01.04.93-.17.92-.01,1.9.14.49.08.75.19.82.21.06.01.16.04.84.08.82-.01.81-.12,1.62-.26.34-.06,1.22-.4,2.48-.18.58.1,2.41.39,2.85-2.15.17-.97-.13-1.16.02-2.75.13-1.44-.1-6.75.12-7.68h0Z"/>
  <path class="st0" d="M265.05,201.7c.09,1.49-.64,2.54-.5,3.28.26,1.5.42,1.48.42,3.01,0,1.1,0,1.09.02,2.19.03.87-.26.84-.27,1.91,0,1.65.11,1.66-.19,3.28-.19,1.02.05,2.01.09,2.19.13.55.07.56.23,1.1.36,1.17-.09,1.42-.22,3.02,0,.24.06.23.07,3,.01,1.52.3,1.51.18,2.2-.16.95-.22.94-.22,1.91,0,.81.13,1.67.01,2.75-.04.39.02.39.03,4.92.01,1.12.46,2.08.22,3.03-.46,1.8-.6,1.85-.31,3.25.11.52.09,1.01.09,2.75,0,1.51-.02,1.5.02,3.01,0,.31-.1.31,0,3.83.02.56-.19,1.44-.14,1.92.03.24.26,2.15.06,3.03-.21.94-.23.94-.16,1.91.07,1.17.43,2.47-1.58,3.49-.05.02-.99.45-1.58.91-.44.35-.76.48-1.91,1.38-.39.3-1.35.88-1.46.95-2.4,1.44-2.08,1.92-4.57,3.18-1.9.97-2.2,1.67-3.65,2.57-.46.28-1.13.63-2.1,1.5-.22.2-.81.59-1.3,1.15-.2.22-1.81,2.39-3.2.52-.71-.96-.07-2.78-.02-4.44.03-1.37-.05-1.37.18-2.73.24-1.45-.18-3.85-.18-4.38-.03-2.64.12-2.63.18-3.28.07-.62-.11-.93-.17-1.37-.07-.56-.09-.55-.19-1.1-.15-.83.18-.82.17-2.74,0-1.63.03-1.62.09-2.2.06-.57-.06-.71-.08-1.36-.05-1.92.04-1.92-.16-3.83-.19-1.8.26-1.8.16-4.65-.02-.79.05-1.08-.09-1.67-.38-1.69-.08-1.75.06-2.98.12-.96.17-.96.06-1.92-.17-1.62.2-3.25-.21-4.93-.2-.84-.17-2.31.02-3.02.34-1.24.04-2.11.2-3.29.09-.63.09-1.27,0-1.9-.02-.13-.05-.95-.08-2.47,0-.11.04-.1.04-1.37q0-.69-.17-1.37c-.02-.08,0-.09-.17-1.11-.12-.79.21-2.24.25-2.43.09-.42.11-.88.09-3.85,0-1.1-.2-1.08-.25-2.19-.03-.53-.33-.85.02-2.48.17-.78.84-1.65,1.17-1.89.64-.48.62-.5,1.27-.96.48-.32.42-.42,1.74-.96,1.55-.63,1.53-.68,2.94-1.99,1.79-1.67,2.91-1.47,4.69-2.98.05-.04.85-.63.93-.68.87-.64,2.95-1.4,5.08-3.17.07-.06.08-.05.94-.67,1.05-.76,2.67-1.25,3.22.44.19.58.07.6-.19,1.95-.05.24-.25.46-.2,2.99,0,.69.16.67.22,1.35.05.56.04.56.2,1.1.03.11.09.33.16,1.39h0Z"/>
  <path class="st0" d="M226.36,178.41c.03.59.28,1.12-.31,2.51-.72,1.72-.32,2.18-.56,3.27-.18.8-.12.8-.15,1.62,0,.18-.36,2.36-1.21,4.41-.83,1.99-.22,2.71-1.61,3.93-.11.1-.76.66-1.73.8-.11,0-.56.07-1.42-.3-.91-.39-1.19-1.55-.72-2.51.38-.77.87-1.17,1.36-3.03.62-2.35.78-3.27.83-3.56,0-.09.05-.08.24-1.1.1-.55.14-.54.19-1.11.05-.66.21-.8.23-1.36.02-.83,0-.82.13-1.64.22-1.46-.3-1.85-.04-3.01.18-.82.09-.83.3-1.64.27-1.08,0-2.27-.04-2.47-.23-1.07.04-1.83-.23-3.02-.21-.94-.09-.96-.21-1.92-.2-1.65-.04-1.81-.59-3.56-.6-1.92-.36-2.16-.68-2.96-.38-.97-.66-1.14-1.06-2.21-.85-2.29-1.01-2.22-1.46-3.1-.55-1.08-.86-2.61-2.35-3.72-1-.73-2.31-1.56-2.55-2.75-.25-1.23,1.44-2.05,3.05-.5.35.34,1.03,1.13,1.81,1.72,1.28.95,1.56,1.11,2.85,3.17.95,1.5.98,1.47,1.65,2.21.56.62.93,1.66.98,1.82.66,1.9,1.19,2.61,1.34,3.59.05.31-.1.43,1.25,4.4.3.9.24,1.14.18,2.72,0,.18,0,.36,0,.54.04.41.49,1.25.51,1.92,0,.07.02,4.32,0,4.67-.08,1.08-.03,1.08.03,2.17h-.01Z"/>
  <path d="M268.56,227.7c.02.48.29.82.27,1.64-.08,2.29.07,2.87-.12,3.84-.23,1.18-.17,1.19-.18,2.73,0,1.2-.33,1.46-.15,2.47.25,1.35.08,1.37.22,2.74.14,1.36,0,1.36-.07,2.73-.03.69-.19.67-.22,1.36-.1,2.1.27,2.39.22,3.29-.03.69-.09.68-.16,1.37-.05.53.33,2.27.28,3.01-.06.74-.11.73-.12,1.64v4.38c0,3.07.12,3.94-.66,5.21-.38.61-1.69,1.19-2.37,1.76-1.12.93-2.43,1.45-3.6,2.17-1.82,1.11-1.7,1.26-2.55,2.06-.78.74-2.98,1.66-4.38,2.73-2.61,1.98-3.43,2.11-4.94,3.27-1.53,1.17-2.41,1.69-2.63,1.82-1.51.88-2.58,1.92-2.8,2.08-.4.3-.4.28-.79.58-2.05,1.54-2.82,1.3-4.69,1.3-1.37,0-1.37-.26-2.73-.14-3.79.35-4.24,0-5.22.06-1.23.1-1.49.14-1.62.16-1.03.19-1.04.13-2.48.09-.58-.01-.57.07-4.65.06-1.27-.01-2.34-.61-3.55-.4-1.17.2-1.17.16-4.12.17-1.35,0-1.73.42-3.04.15-1.94-.39-3.17,0-4.08-.08-1.25-.12-1.25-.1-1.35-.12-.84-.11-.84-.14-1.67,0-.4.07-1.55.11-2.15-.03-1.58-.36-1.9.04-3.04.08-.84.03-.84.01-1.67.17-.94.18-1.54-.15-2.43-.16-.65,0-1.3-.06-1.94-.15-1.07-.16-1.08.22-4.36.15-.67-.02-.81-.2-1.64-.22-1.93-.06-2.55.07-2.77.12-1.16.25-1.72-.1-2.99.01-.65.06-1.84.09-3.55.09-2.5,0-2.49-.4-3.82-.17-1.09.19-1.09.18-2.2.1-.35-.03-3.18.13-4.66.06-3.72-.19-3.87.19-4.65.23-.65.03-1.3-.02-1.93-.16-.53-.11-.54-.02-1.07-.11-.84-.16-.84-.18-3.57-.17-.97,0-.95.11-1.92.22-.69.07-.67.21-1.37.22-1.83.04-2.29-.07-2.48-.12-.65-.15-1.18-.09-2.44-.1-1.42-.01-1.42-.16-2.21-.08-.81.08-.81.05-1.63.09-1.48.07-3.87-.21-5.18.09-1.86.43-2.43-.36-4.11-.01-1.29.27-1.29-.06-2.48-.09-2.06-.06-2.05-.08-4.1.01-.63.02-.65.2-1.65.21-1.63.03-1.74-.1-1.93-.14-.48-.11-.55-.06-1.07-.12-1.7-.2-4.06.17-6.31.12-.8-.02-2.41.63-3.3-.59-1.39-1.9-.81-2.98-.88-4.39-.09-1.69-.1-1.78-.12-1.94-.18-1.28.29-1.85-.06-4.64-.24-1.99.41-2.19-.04-4.1-.38-1.62.41-1.81.2-4.37-.12-1.4.04-1.41-.11-2.22-.25-1.35.08-1.35.08-2.72,0-2.69.27-2.68.19-4.39-.02-.3-.28-2.08-.31-2.19-.31-1.2-.01-1.2.12-2.2.07-.54.08-.53.19-1.07.08-.33.04-1.68.06-1.92.12-2.12-.19-2.13.08-3.85.19-1.22-.05-1.22-.1-2.46,0-.28-.04-.5-.05-.55-.22-1.35-.18-1.36.01-2.72.08-.55.08-2.8-.02-3.3-.25-1.26-.21-1.27-.24-1.38-.04-.17-.11-.34-.15-.51-.21-.84.16-1.42.32-3.03.04-.45-.11-1.05-.12-1.64,0-1.54-.24-1.54-.07-2.73.14-.96.07-.96.07-1.92,0-2.15-.06-2.15-.18-3.56-.09-1.04.29-1.44.17-3.03-.06-.91-.36-.91-.08-2.17.17-.77.1-1.02.11-2.2,0-.8.18-.88.23-1.35.12-1.24-.09-2.02-.14-2.19-.15-.59-.07-.79-.18-1.39-.09-.53-.13-.53.1-1.66.3-1.42,1.57-1.75,2.27-2.23.84-.58.74-.92,2.3-1.71,1.64-.84,1.55-.98,3.17-1.87.21-.12,3.12-1.78,4.21-2.87,1.79-1.79,2.52-1.32,3.85-2.42,1.76-1.45,3.44-2.28,3.68-2.41,1.1-.65,1.09-1.09,3.38-2.02.69-.29,2.69-1.53,3.08-1.86.08-.07.66-.57,1.06-.84.51-.35,1.72-.64,2.13-.67,1.79-.14,1.78-.26,3.57-.23.58,0,.71.12,1.11.18,1.43.24,1.42.33,1.88.25.76-.13.75-.22,2.21-.21,1.65,0,1.63.26,3.28.23,1.81-.03,2.55-1.69,2.14-3.18-.12-.42-.08-.42-.18-.84-.37-1.63-.48-1.62-.44-3.29.02-.58.43-1.65.49-2.17.15-1.3.36-1.78.15-2.47-.73-2.47-2.88-1.04-4.6-1.96-.93-.49-.9-.6-1.95-.71-.74-.08-2.7-.67-2.99-.71-.37-.05-.39.02-1.66-.42-1.07-.37-1.1-.25-2.2-.53-.91-.23-1.91-1.12-3.26-1.23-.56-.05-.55-.08-1.1-.2-4.05-.92-3.87-1.52-6.58-2.14-2.04-.47-1.85-1.12-3.55-1.26-1.8-.14-3.28-.94-4.39-1.17-.29-.06-.71-.2-.83-.22-.74-.13-.78,0-2.42-.73-2.61-1.18-2.67-1.02-3.89-1.53-2.16-.9-2.5-.67-3.75-1.26-1.63-.75-1.64-.71-3.35-1.22-1.05-.31-2.49-1.27-2.97-1.48-1.57-.7-2.33-.32-4.35-1.41-.82-.44-.79-.66-3.09-1.48-1.22-.44-1.45-.79-2.69-1.23-.86-.31-4.44-.75-5.27-3.46-.08-.25-.25-2.2-.29-3.3-.03-.73.42-2.22.28-3-.01-.11-.09-.59-.19-1.39-.06-.46.14-1.61.23-1.91.11-.35.17-.36.14-1.65-.01-.48-.31-1.23-.46-1.89-.17-.75.22-1.77.2-2.48-.04-1.92.09-1.92-.12-3.84-.04-.41.08-.89.12-1.37.1-.95.17-.95.05-1.9-.15-1.27.04-1.32-.18-2.2-.07-.31-.13-.31-.12-2.46.01-1.09.5-1.76.53-2.47.02-.69-.02-.68-.2-1.35-.11-.38-.09-.39-.09-5.49.06-2.64-.01-3.71.02-5.21,0-.68.45-1.75.16-3.01-.19-.82-.16-.82-.23-1.65-.18-1.86,1.04-2.91,2.11-3,.47-.04,1.39.43,3.03.07.95-.21,1.18-.06,1.88-.17,1.76-.27,1.77-.21,1.92-.24,1.35-.29,1.39.05,2.73-.29.68-.16.69-.07,1.38-.23,1.29-.32,1.34.41,3-.02.56-.15.58-.04,1.12-.19,1.1-.3,1.14-.01,2.19-.27.7-.17.71-.14,4.38-.14,1.97,0,1.88-.51,3.28-.69,1.28-.17,1.27-.21,1.38-.22.75-.08.73-.14,1.11-.22.09-.02.81-.04,1.08-.09,1.23-.26,1.23-.25,2.43-.64,2.41-.79,3.07-.13,5.47-.85,1.63-.48,1.65-.36,3.04-.37,1.24-.02,1.87-.63,3.03-.79.54-.07.53-.11,1.06-.19,1.45-.23,2.03-1.04,3.58-1.19.56-.06.66-.17,1.11-.25.54-.1.52-.15,1.06-.24,2.91-.5,2.82-1,4.13-1.19.56-.09.54-.15,1.1-.23,1.33-.19,1.74-.64,3.26-1,2.11-.5,2.15-.41,4.09-1.36,1.67-.81,2.39-.62,4.43-1.24,1.52-.46,1.42-.78,3.52-1.25,1.06-.23,2.55-.81,3.05-.91.55-.12.54-.15,1.09-.26.73-.14,3.37-1.25,4.93-1.66.97-.26.96-.29,1.91-.61,1.36-.47,1.38-.36,1.9-.41.62-.05,2.73-.8,3.29-.98,2.18-.71,2.28-.23,3.28-.56.22-.07,1.42-.47,2.74-.59,1.27-.11,1.56-.4,2.19-.45,1.38-.1,1.37-.2,2.74-.25.68-.02,2.43-.71,3.28-.64,1.23.09,1.23.13,2.45-.07.22-.03.45-.07,2.76-.04.98.02,1.16.32,1.92.23.47-.05,1.51-.34,1.64-.37.92-.26,1.42.07,1.92.13.54.07.54.04,1.08.15,1.45.32,1.97-.31,3.29-.03,1.26.27,1.27.22,1.38.25,1.2.3,1.26-.02,2.43.38,1.76.59,2.49.62,3.02.79,2.87.91,3.63,1.59,3.89,1.82.7.64,1.35,1.04,1.75,1.52.17.21,1.82,3.05,1.91,3.25.81,1.9.5,2.54,0,3.83-.63,1.58-.88,2.48-1.55,3.18-.28.3-1.9,1.51-2.48,1.86-1.09.67-3.78,1.27-4.04,1.28-1.79.07-1.89-.27-3.02-.09-1.32.21-2.29.03-3.27.12-1.43.13-1.79-.09-2.45-.22-.36-.07-3.97-.11-4.69.05-.94.22-.94.14-1.9.17-1.56.05-1.75-.26-2.47-.27-3.53-.07-3.49.25-3.61.31-.11.05-.82.36-.89,1.21-.09,1.35,1.31,1.47,3.11,1.99,1.35.39,1.36.33,1.94.48.53.14,1.04.03,2.48.51,1.34.44,3.16,1.8,3.3,1.91.46.37,1.28.86,1.32.89.4.21,1.33.86,1.46.96,2.21,1.62,3.18,1.74,4.12,2.77.07.08.66.72.87,1.01,1.07,1.39,1.24,1.23,2.51,2.45,1.41,1.35,1.28,1.45,2.07,2.6.97,1.43,1.08,1.89,1.23,2.26.74,1.79,1.2,1.61,1.52,3.52.16.92.3.88.74,2.47.46,1.66.54,1.81.81,2.75.26.93.08.96.29,1.9.15.64.1,5.14.02,5.49-.27,1.21-.21,1.21-.31,2.45-.08,1.12-.44,1.6-.74,2.76-.46,1.8.82,2.45,1.31,4.36.92,3.6.2,4.87.35,6.01.17,1.3.24,1.5.28,1.63.64,1.96,1.28,2.32,2.31,3.37.96.97.84,1.61,1.88,3.02.81,1.09.84,1.08,1.27,2.37.33,1.02.4,1.04.94,1.99.51.91,1,3.8,1.2,4.6.25,1.01.22,1.02.24,1.1.09.37.15.74.2,1.11.02.15.14.51.19.79.09.56.1.55.25,1.09.15.57,0,.58.19,1.39.16.69.05.7.21,1.39.19.81.07.83.22,1.65.04.19.26,1.37.05,2.42-.19.96-.12.96-.14,1.93-.02.59-.21.99-.23,1.65-.05,1.35-.43,1.7-.53,2.74-.12,1.26-.35,1.29.11,2.48,0,.03.26.55.86.81.73.31,1.72.19,1.91.18,1.66-.07,2.02.18,2.74.09.83-.1.83-.05,1.66-.16.76-.1,2.01-.09,2.76-.28.91-.23,2.55-.09,2.69-.05.68.15.68.12,1.37.26,1.12.23,1.13-.06,2.46.06,1.4.13,1.4.02,2.78-.25,1.01-.2,1.01.07,1.89.09,1.11.02,1.1.06,2.2.18.88.11,2.59-.38,3.81-.11.2.05,1.44.33,2.47.24,1.43-.13,1.43-.05,2.74-.08.43,0,.82-.17,1.09-.21,1.94-.24,2.51-.16,2.73-.13,1.31.19,1.51.22,1.95.69,1.01,1.08.53,2.33.76,3.58.26,1.35.18,1.36.17,2.73,0,.85-.21.81-.28,1.66-.01.05-.01.04-.18.79-.05.24-.08.38-.05,3.03,0,.15,0,.23.35,1.92.15.74-.31,2.03-.27,2.73,0,.03.23,1.55.25,1.65.28,1.13.1,1.14-.03,1.89-.07.45-.04.45-.06,5.22-.02,2.69-.31,2.69-.14,3.83.24,1.58.14,1.59.15,4.93,0,1.46.3,1.44.28,2.46-.06,2.22.07,2.23-.18,3.28-.05.22-.19.84-.09,2.75h-.01ZM264.55,204.98c-.14-.74.59-1.79.5-3.28-.07-1.06-.13-1.28-.16-1.39-.16-.54-.15-.54-.2-1.1-.06-.68-.21-.66-.22-1.35-.05-2.53.15-2.75.2-2.99.26-1.35.38-1.37.19-1.95-.55-1.69-2.17-1.2-3.22-.44-.86.62-.87.61-.94.67-2.13,1.77-4.21,2.53-5.08,3.17-.08.05-.88.64-.93.68-1.78,1.51-2.9,1.31-4.69,2.98-1.41,1.31-1.39,1.36-2.94,1.99-1.32.54-1.26.64-1.74.96-.65.46-.63.48-1.27.96-.33.24-1,1.11-1.17,1.89-.35,1.63-.05,1.95-.02,2.48.05,1.11.24,1.09.25,2.19.02,2.97,0,3.43-.09,3.85-.04.19-.37,1.64-.25,2.43.16,1.02.15,1.03.17,1.11.17.68.16.68.17,1.37,0,1.27-.04,1.26-.04,1.37.03,1.52.06,2.34.08,2.47.09.63.09,1.27,0,1.9-.16,1.18.14,2.05-.2,3.29-.19.71-.22,2.18-.02,3.02.41,1.68.04,3.31.21,4.93.11.96.06.96-.06,1.92-.14,1.23-.44,1.29-.06,2.98.14.59.07.88.09,1.67.1,2.85-.35,2.85-.16,4.65.2,1.91.11,1.91.16,3.83.02.65.14.79.08,1.36-.06.58-.09.57-.09,2.2,0,1.92-.32,1.91-.17,2.74.1.55.12.54.19,1.1.06.44.24.75.17,1.37-.06.65-.21.64-.18,3.28,0,.53.42,2.93.18,4.38-.23,1.36-.15,1.36-.18,2.73-.05,1.66-.69,3.48.02,4.44,1.39,1.87,3-.3,3.2-.52.49-.56,1.08-.95,1.3-1.15.97-.87,1.64-1.22,2.1-1.5,1.45-.9,1.75-1.6,3.65-2.57,2.49-1.26,2.17-1.74,4.57-3.18.11-.07,1.07-.65,1.46-.95,1.15-.9,1.47-1.03,1.91-1.38.59-.46,1.53-.89,1.58-.91,2.01-1.02,1.65-2.32,1.58-3.49-.07-.97-.05-.97.16-1.91.2-.88-.03-2.79-.06-3.03-.05-.48.16-1.36.14-1.92-.1-3.52,0-3.52,0-3.83-.04-1.51-.02-1.5-.02-3.01,0-1.74.02-2.23-.09-2.75-.29-1.4-.15-1.45.31-3.25.24-.95-.21-1.91-.22-3.03,0-4.53-.07-4.53-.03-4.92.12-1.08-.01-1.94-.01-2.75,0-.97.06-.96.22-1.91.12-.69-.17-.68-.18-2.2,0-2.77-.08-2.76-.07-3,.13-1.6.58-1.85.22-3.02-.16-.54-.1-.55-.23-1.1-.04-.18-.28-1.17-.09-2.19.3-1.62.18-1.63.19-3.28,0-1.07.3-1.04.27-1.91-.03-1.1-.02-1.09-.02-2.19,0-1.53-.16-1.51-.42-3.01h0ZM256.58,191.45c.39-.19,2.3-1.05,1.67-2.06-.39-.63-1.48-.64-1.61-.65-2.94-.02-3.04,0-3.3.04-.61.12-.6.22-1.9.21-.69,0-.99-.19-1.37-.23-3.95-.4-4.17.07-5.75-.03-.7-.04-.67-.19-1.37-.21-1.26-.04-5.06.06-6.56-.07-1.51-.14-2.13.24-3.27-.02-.22-.06-.22-.17-2.76-.14-.19,0-1.42,0-2.09,1.14-.5.85-.18,2.14,1.26,2.43.84.17.83-.19,2.47-.2,3.76,0,3.76-.03,4.08.04,1.52.33,2.24,2.08.51,3.34-.76.55-1.57.63-2.89,1.54-.34.24-1.77,1.22-4.97,1.64-1.02.14-1.35-.14-2.48-.06-1.64.12-1.64-.06-3.29-.08-.35,0-.34.02-4.38.04-.87,0-1.09.2-1.64.22-.69.03-.68.04-1.36.12-.96.12-.96-.09-2.74-.12-1.93-.02-1.93.02-2.73.14-.96.13-.96-.18-3.02,0-.85.08-1.82.17-10.68.1-.96,0-.94-.1-1.64-.2-.87-.13-1.76.05-1.91.08-.45.09-2.01.13-4.66.12h-3.28c-1.42-.19-1.43-.33-3-.08-1.78.28-1.78-.13-3.58-.14-4.06-.04-4.43.1-4.93.06-3.36-.27-3.99.06-4.91.12-3.47.21-3.9-.14-4.39-.17-.18,0-.36,0-.55-.02-.2,0-1.71-.38-3-.15-1.1.19-1.1.11-2.21,0-.92-.1-.92.23-2.47.03-1.77-.22-1.76.13-3.54.14-1.51,0-1.51-.02-3.02.04-1.22.04-1.63-.43-1.94-.78-1-1.14-.45-2.82,1.38-3.62,1.86-.81,1.76-.98,2.48-1.34,1.18-.61,1.51-.45,2.18-.6,1.07-.24,2.05-.33,2.2-.32.63,0,1.4.36,2.45-.19.62-.32,1.29-2.31-.8-3-1.63-.54-1.69-.13-4.93-.29-1.65-.08-3.3.66-4.64.44-.57-.09-1.12-.4-3.03.13-.6.17-1.55.26-2.47.42-.83.13-.82.15-1.57.53-.21.1-.17.17-2.54,1.5-.82.47-.69.71-2.14,1.21-1.41.49-1.49.52-2.44,1.34-.59.51-.64.45-1.35,1.11-2.23,2.08-3.69,2.31-5.59,3.41-1.66.97-3.21,1.18-3,2.8.02.17.15,1.11,1.66,1.19.69.04,4.21-.99,5.21-.93.64.04,1.85.33,2.18.34.05,0,2.48,0,2.75,0,.04,0,1.47-.34,2.16-.19.13.02.52.24,1.94.2.72-.02.88-.23,1.64-.23,1.38,0,1.36.16,2.19.22.76.06,9.33-.04,9.84.06.83.16.82.18,1.93.18,1.97,0,1.97,0,2.71-.13.83-.15.84-.07,1.67-.18,1.03-.13,2.5.31,3.29.27.59-.04.58-.2,4.93-.19,1.16,0,1.14.21,2.19.22,2.75.03,3.75-.1,5.19.07,1.02.12,2.24-.26,3.3-.15,2.52.25,7.67-.09,9.56.18,1.29.18,1.31-.19,2.73.04,1.95.31,2.17-.23,3.84,0,2.04.28,2.09-.05,3.03-.11,1.16-.08,4.51.13,5.99-.14.24-.04.78-.13,3.04-.1.96.02,1.22.21,2.46.22,6.2.05,6.54,0,7.09-.12.84-.16,3.7-.19,4.71.03,1.39.3,1.89-.29,3.8-.1.98.1.98.19,2.47.16.08,0,1.54.05,3-.09,1.57-.15,1.58,0,2.46-.21,1.61-.39,2.48.21,3.58.09.84-.1.82-.2,1.91-.21,2.42-.02,3.26-1.09,4.92-1.75.73-.29,1.03-.31,2.26-1.27.47-.36.84-.79,2.14-1.44,2.18-1.09,1.99-2.06,4.9-3.08,1.64-.57,1.35-1.1,4.34-2.52v-.02ZM239.27,219.76c.03-.96-.24-.94-.25-2.47-.03-6.05-.04-6.06.07-6.57.28-1.21.14-1.22.18-2.46.03-1.18-.9-2.62-2.35-2.67-1.89-.07-2.54.08-2.75.13-.53.13-.63.05-1.32.2-.21.05-.87.21-2.77.11-.69-.04-.67-.18-1.37-.22-.84-.04-1.13-.13-2.46,0-.25.03-.41.28-3.56.21-.74-.02-.9-.17-1.37-.21-1.79-.15-1.8-.37-3.57-.08-1.04.18-2.75-.03-5.19.1-.45.02-1.72-.06-2.46-.03-1.12.05-1.13.08-2.22-.19-1.69-.42-2.6.59-3.78.35-1.71-.35-1.73-.08-2.77,0-.78.06-2.39-.7-3.56-.48-.82.15-.83.06-1.65.26-.75.18-2.6-.04-3.52.15-1.5.32-1.5-.07-3.03-.08-4-.03-4.08.15-5.46-.1-1.5-.27-1.5.03-2.48.09-.7.04-.7.03-1.39.16-1.27.26-1.66-.38-3.54-.38-1.05,0-1.03.11-1.65.2-.65.1-1.64-.05-3,0-.25,0-5.62.11-7.39-.03-1.24-.1-1.23.06-2.47.06-6.51,0-6.52.05-8.77-.18-.97-.1-1.56.26-3.55.18-.97-.04-.97-.29-1.93-.09-1.28.28-2.32-.02-4.36.08-.27,0-2.25.02-2.47,0-.5-.04-.7-.2-1.37-.21-1.91-.04-1.91,0-3.83.04-.97.02-2.66-.19-3.85.07-1.52.34-1.53-.11-3.81-.12-1.78,0-1.78,0-2.73-.12-.92-.13-.92.12-2.75.12-1.69,0-1.68.36-3,.17-.09,0-.88-.21-1.64.07-1.17.43-.8,2.32-1.14,3.8-.21.95.13,1.35.15,2.2.02,2.13-.09,2.2.12,3.29.22,1.17.07,1.18-.12,4.1-.03.42-.03.41-.14.81-.14.5-.1.89-.11,1.38-.03,1.1.08,1.09.26,2.17.03.22.3.9.22,1.94-.05.76-.23.74-.23,2.19-.01,4.02.02,4.57-.06,4.93-.04.18-.09.35-.13.52-.18.87.05,3.29.08,3.58.12,1.18-.06,2.51-.09,2.72-.15,1.07,0,2.04.03,2.22.14.94-.07.94-.07,1.9,0,1.11-.05,1.12.11,1.65.27.93.02.96.21,2.2.18,1.08.2,1.08.16,2.18-.02.62-.2.94-.24,1.64v4.38c0,.96-.06.97.15,1.92.23,1.03,0,3.05.06,4.92.03.91-.16,1.26-.21,1.92-.11,1.6.17,1.63-.16,3.55-.19,1.14.15,1.41.16,2.74,0,3.93-.79,4.65.41,6.32.33.46,1.11.74,1.39.8,1.35.29,1.36.21,2.73.33.98.08,1.28-.21,2.45.04.81.18,2.22.31,3.16-1.11.59-.91.57-2.71.56-2.8-.02-.13-.17-1.26-.27-1.62-.34-1.36.05-2.37.09-2.78.05-.68.08-.67.15-1.35.09-.82-.27-1.81-.17-3.03.06-.81,0-.81.16-1.62.42-2.22-.44-4.01-.33-5.49.05-.66.19-.76.2-1.65,0-1.11.04-1.1.2-2.2.04-.31.04-1.68,0-1.89-.15-.75-.2-.75-.2-1.93,0-2.87.02-2.87-.17-3.85-.05-.29-.12-2.97.04-3.79.28-1.4.1-4.68.05-4.93-.16-.84-.11-.84.04-1.68.03-.17.01-.17.25-2.18.06-.51.07-1.51.07-1.64.01-1.02-.27-1.45-.28-2.19-.02-1.64.13-1.64.07-3.28-.03-1.01-.07-2.01-.12-3.01-.01-.15.02-.15.06-1.92.03-1.23.12-1.23.02-2.46,0-.2-.15-1.87.08-2.43.49-1.2,2.29-2.23,4.27-1.83,2.16.43,4.34-.24,6.59-.06.97.07.96.08,1.93,0,1.24-.09,1.24.2,2.47.03.81-.11.81-.03,1.62-.18,1.34-.24,1.34.08,2.75.12.91.02,1.7.39,2.99.12,1.8-.36,2.62.07,3.31.1,2.34.08,2.33-.14,3.82-.34.96-.13,1.91.46,4.08-.05.09-.02,1.23-.21,1.4-.22.11,0,.11.03,1.36.17.77.09,2.22.66,2.59,2.62.04.17.07.34.05,2.21,0,.85-.46,2.07-.32,2.99.24,1.6-.03,3.34.15,4.4.17,1.07.26,1.14.02,2.47-.28,1.58.2,1.59.08,4.93-.02.82-.1.81-.17,1.63-.04.57-.26.92-.11,1.63.11.55.07.55.18,1.11.19.96.14.96,0,1.92-.17,1.07.06,1.08-.04,2.73,0,.07-.04,4.24.02,4.66.11.8.17.8.03,1.64-.17,1,.03,2.57-.09,5.2-.07,1.68.08,3.03.03,5.48-.02,1-.12,1.07-.05,1.92.11,1.37-.04,1.38.17,2.72.3,1.94-.04,2.26-.1,2.75-.23,1.96-.03,2.01-.02,2.74.04,2.48-.02,2.75-.07,2.98-.06.31-.64,2.97.66,3.89.63.44,1.7.81,2.51.61.15-.03.14-.06,1.86-.49.25-.06.74-.18,3.32-.12.7,0,.81.2,1.64.21,1.63.02,1.62-.07,2.2-.18.41-.08,1.25-.12,1.35-.13.68-.03,2.65.3,3.02.28.25-.01,2.5-.39,3.3-.29.67.09.67.04,1.35.14.14.02,1.15.34,2.16.09,1.39-.34,1.41-.13,3.87-.13,1.29,0,1.29.01,2.18.05,1.11.06,1.15-.27,2.77.11.32.08,1.39.11,1.86-.01,1.35-.36,1.37-.2,2.77-.14,1.17.04,1.4.47,3.03.06.16-.04,1.3-.4,2.43-.27.37.04.54.18,1.11.2,2.78.09,2.78.11,3.02.09,2.39-.18,2.39-.27,3.82-.12,1.31.13,2.07-.31,3.83-.17.7.05.67.18,1.37.2,2.39.06,2.8-.2,3.57-.1.85.09,1.76.11,2.73.04.78-.05.78.13,3.56.06,1.79-.05,1.79-.03,2.75.17.31.06,1.9.11,2.41-.04,3.06-.92,1.89-4.35,1.87-5.35-.02-.82-.05-.82-.11-1.65-.04-.59.18-.58.1-7.38,0-.83-.09-.83,0-1.65.03-.34.03-7.61,0-7.92-.18-1.37-.09-1.37-.06-2.75.03-.83.07-.82.08-1.65.02-.96.07-.95.02-1.91,0-.24-.04-2.3,0-2.74.07-.76.41-1.38.12-3.02s.28-1.95,0-3.28c-.12-.54-.1-.54-.14-1.08-.04-.63-.32-.93-.15-1.92.32-1.9-.02-1.93.3-3.83.15-.86-.1-1.15-.13-1.64-.02-.35-.02-.39,0-4.39,0-.91.09-.91.12-1.64,0-.07-.22-2.38-.08-3.02.14-.68.19-.67.21-1.36h-.03ZM226.05,180.92c.59-1.39.34-1.92.31-2.51-.06-1.09-.11-1.09-.03-2.17.03-.35,0-4.6,0-4.67-.02-.67-.47-1.51-.51-1.92,0-.18,0-.36,0-.54.06-1.58.12-1.82-.18-2.72-1.35-3.97-1.2-4.09-1.25-4.4-.15-.98-.68-1.69-1.34-3.59-.05-.16-.42-1.2-.98-1.82-.67-.74-.7-.71-1.65-2.21-1.29-2.06-1.57-2.22-2.85-3.17-.78-.59-1.46-1.38-1.81-1.72-1.61-1.55-3.3-.73-3.05.5.24,1.19,1.55,2.02,2.55,2.75,1.49,1.11,1.8,2.64,2.35,3.72.45.88.61.81,1.46,3.1.4,1.07.68,1.24,1.06,2.21.32.8.08,1.04.68,2.96.55,1.75.39,1.91.59,3.56.12.96,0,.98.21,1.92.27,1.19,0,1.95.23,3.02.05.2.31,1.39.04,2.47-.21.81-.12.82-.3,1.64-.26,1.16.26,1.55.04,3.01-.13.82-.11.81-.13,1.64-.02.56-.18.7-.23,1.36-.05.57-.09.56-.19,1.11-.19,1.02-.23,1.01-.24,1.1-.05.29-.21,1.21-.83,3.56-.49,1.86-.98,2.26-1.36,3.03-.47.96-.19,2.12.72,2.51.86.37,1.31.31,1.42.3.97-.14,1.62-.7,1.73-.8,1.39-1.22.78-1.94,1.61-3.93.85-2.05,1.2-4.23,1.21-4.41.03-.82-.03-.82.15-1.62.24-1.09-.16-1.55.56-3.27h.01ZM219.13,90c.44-.87.64-1.68.08-3.05-.35-.86-1.38-1.79-2.25-2.18-1.22-.55-1.84-1.13-3.59-1.55-1.21-.28-1.22-.22-2.44-.43-.55-.09-1.63-.02-2.2-.18-1.58-.42-1.65.14-3.82-.33-.74-.16-.76,0-1.65-.23-1.16-.3-1.86.12-2.46.13-2.38.07-2.49-.16-2.73-.2-.21-.03-2.58-.08-3.04.03-1.28.31-2.11.93-3.27.93-1.45.01-2.27-.03-2.7.08-2.01.51-2.05.32-3.34.64-1.22.31-1.2.37-2.43.67-.22.05-.46,0-1.12.17-.55.14-.57.06-1.12.2-.59.16-1.7.55-3,.83-1.59.35-2.22.68-2.7.75-2.77.37-4.38,1.52-5.76,1.66-.59.05-1.91.38-1.93.39-.5.17-1.34.59-2.73.84-1.06.19-1.98.9-3.82,1.44-1.37.41-1.35.48-2.76.72-.44.08-1.01.24-1.1.27-.57.16-1.45.99-2.45,1.16-1.67.28-1.65.34-3.28.82-.57.17-.8.08-2.76.76-1.15.39-1.54.3-3.3,1.06-2.09.89-2.17.73-3.25.74-1.36,0-1.82.74-4.11.93-1.07.09-2.17.9-3.27.99-.84.06-.81.19-1.65.25-.5.04-1.95.58-3.02.52-1.01-.05-1.26-.24-3.01.48-.04.02-2.51.82-3.55.92-.5.05-2.79.67-3.29.68-.79.02-1.72-.04-2.99.15-.69.11-.7.03-1.38.2-.63.16-1.05.1-1.66.2-.68.12-.68.11-1.36.16-.69.06-.67.2-1.36.27-1,.11-1.08.24-2.2.25-3.89.04-4.39-.11-5.48.15-.69.16-.71.04-1.39.21-.11.03-.11.02-1.36.29-.43.09-2.11.09-2.71,0-.13-.02-.77-.25-1.66.06-.55.19-.78.49-.82.56-.45.61-.44.79-.42,1.92.02.7.18.67.25,1.36.11,1.09.23,1.09.08,2.18-.13.97-.01,1.04-.17,1.66-.21.82-.09.83-.2,1.66-.07.47-.17.47-.03,1.34.1.59.04.71.15,1.13.19.79.29.8.03,1.88-.23.96-.11,4.1-.11,4.12.01,1.1.06,1.09.06,2.19,0,.22-.04.22-.04,2.74-.05,2.36.16,3.39-.15,5.47-.18,1.22-.03,1.32-.24,2.2-.27,1.14,0,1.15.53,3,.21.74.08,1.1-.18,2.49-.07.35-.21.56-.23,1.07-.04,1.53.07,1.51.13,1.92.12.77-.37,1.64-.39,2.73-.01.78-.09,1.26.9,2.77,1.08,1.67,3.18,1.15,6.39,2.86,1.54.82,1.5.94,3.21,1.27.27.05,2.95.85,4.34,1.68,1.62.97,2.1.7,3.36,1.23.52.22.51.23,1.02.45,1.26.53,2.03.47,3.31,1.3,1.18.76,1.53.73,2.51.98.62.15.74,0,2.18.6.61.26,1.89.84,2.72.93,1.36.16,1.22.59,3.56,1.3,1.68.52,1.95.68,2.74.84,1.53.33,1.88.64,3.31.94,1.83.39,2.05,1.14,4.37,1.7,1.29.32,1.51.63,3.01.75,2.65.22,2.88,1.13,4.38,1.4.55.09,1.1.18,1.65.25.81.11,2.46.95,3.27.98.95.03.98-.11,2.49.43,1.22.44,1.23.38,1.91.53.65.13,1.59.59,1.86.71,1.13.53,1.19.32,3.29.85.11.02.11,0,1.38.24.36.07,1.22.09,1.4.14.55.13.54.14,1.1.22.53.07.61.2,1.07.23.7.04.69.06,1.37.2.2.05,1.76.11,1.91.1.92-.08,1.03-.26,1.65-.27,1.67-.04,2.02.02,4.21-1.95.26-.23,1.79-1.77,2-2.86.15-.8-.13-1.51-.18-1.63-.84-2.11-.58-2.24-1.37-3.28-.05-.06-1.96-1.91-4.88-2.87-2.47-.81-2.45-1.09-3.9-1.42-2.02-.46-2.19-1.1-3.27-1.12-.45,0-.86.08-1.9-.37-1.19-.52-1.13-.76-2.74-.89-.85-.07-1.93-.6-3.31-.93-1.94-.47-1.78-.93-4.65-1.66-.27-.07-1.01-.26-3.29-1.38-1.04-.51-1.69-1.11-1.82-1.23-1.08-1-1.96-1.35-2.08-2.91-.11-1.29-.87-2.71,1.1-5.01.79-.92.85-.86,3.89-2.97,2.81-1.95,3.05-1.51,4.64-2.5.3-.19,1.72-1.08,4.15-1.5.33-.06.33,0,.8-.13.55-.14.55-.11,1.1-.25.53-.15.97-.09,1.65-.23.95-.19.98-.03,1.92-.3.54-.15.56-.04,1.11-.18.35-.09.71-.15,1.07-.18.57-.04.58-.21,1.38-.22,2.01-.02,2,.08,2.43.17.38.08.71.07.86.1.96.2.96.21,2.46.21.83,0,.81.12,1.62.24.12.02.11.06,1.41.31.42.09,1.7.48,1.85.52.99.3,1.61.23,3.37,1.16.6.32,1.36.43,3.01,1.37,1.15.65,1.81.61,3.46,2.06,1.59,1.4,1.77,1.36,2.15,1.69.99.85,1.51,1.77,2.82,1.47,1.29-.29,1.3-.24,2.2-.16,1.7.15,2.12-.37,3.31-.12,1.61.34,1.65,0,3.27.31.56.11.56.07,1.12.21.17.04.66.17,2.14.47.41.09.69.07.85.11.83.19,2.61.92,3.22,0,.02-.03.64-.46-.88-2.89,0,0-.51-.74-.55-.81-.12-.16-.15-.12-1.66-1.85-.82-.93-.87-.87-2.25-2.41-.1-.12-.46-.52-1.42-1.33-.66-.56-1.75-.95-2.97-1.97-.37-.3-.38-.29-.74-.6-1.68-1.49-1.61-1.63-3.11-2.19-1.26-.46-3.42-1.41-4.1-1.87-1.49-1-1.46-1.04-3.09-1.78-1.92-.86-1.87-1.05-3.55-1.31-1.31-.2-2.88-1.26-3.54-1.49-2.64-.93-4.03-1.25-4.39-1.33-.23-.05-1.46-.17-2.52-1.34-1.55-1.71.68-3.62,2.28-3.15,1.53.45,2.41,1.02,4.89,1.76.63.18,1.42.33,3.2,1.47.87.56.98.85,2.83,1.25.53.12.52.15.57.15,1,.19,1.02.12,1.93.57.28.14.31.04,3.48,1.55.32.15,2.04.97,3.93,1.99.88.48.84.53,1.66,1.09.91.61.94.57,1.73,1.33,1.45,1.38,2.15.73,4.26,3.13.57.66.53.69,1.12,1.34,1.26,1.36,1.13,1.49,2.56,2.66.62.5.5.61,1.94,2.14,1.1,1.18,1.14,2.02,1.69,3.22.19.4.61.93.67,1.01.19.23.69.95.81,1.41.52,1.95.07,2.43,1.8,3.4.48.27,1.93,1.12,2.72.13.52-.66.46-3.01.07-3.79-.16-.31-1.13-1.36-1.44-2.71-.47-2.06-.78-3.37-1.64-4.63-.55-.79-.82-1.48-1.74-2.59-.97-1.18-1.58-3.11-2.57-3.75-1.42-.93-2.36-2.41-2.84-2.92-.11-.11-.55-.51-1.21-1.24-.83-.92-.97-.76-2.84-2.07-.03-.01-.76-.45-1.04-.64-1.13-.77-1.07-.84-2.26-1.52-1.13-.64-1.01-.82-2.09-1.53-.57-.37-1.11-.42-2.27-.95-1.42-.66-1.36-.79-3-1.38-2.16-.78-2.01-1.16-3.26-1.42-1.78-.36-1.64-.68-2.46-1.12-1.08-.59-1.15-.4-2.21-.77-.79-.28-1.55-.46-2.47-.82-1.87-.74-1.97-.25-3-.55-1.04-.31-2.67-1.05-2.93-1.24-1.26-.89-1.61-2.51.22-3.41,1.84-.89,4.6.91,6.27,1.36.36.09.48.06,1.66.5,1.43.53,2.04.34,3.5,1.19,1.54.9,2.12.19,4.5,1.73,1.73,1.12,3.38.94,4.8,2.09,1.12.92,1.82,1.27,2.73,1.93,1.57,1.13,2.27.64,3.52,1.93.63.66.62.69,1.45,1.05,1.36.59,1.16.9,2.41,1.71,2.21,1.42,2.99,2.89,3.57,3.5.85.9,2.05,2.48,2.22,2.7.64.86.61.87,1.28,1.72.51.65,1.08,1.99,2,1.72.67-.19,1.3-2.18.63-4.03-.38-1.07-.5-1.03-.72-2.15-.26-1.32-1.89-4.85-2.41-5.73-1.42-2.45-1.02-2.77-2.5-4.31-.89-.93-.95-.88-1.63-1.97-.68-1.08-2.09-1.48-3.71-2.82-.96-.78-1.29-.97-1.41-1.04-1.17-.69-1.79-1.24-1.93-1.36-1.58-1.42-1.99-.57-3.86-1.58-3.41-1.84-3.48-1.73-4.59-1.78-1.33-.07-3.01-1.27-4.1-1.42-.03,0-.37,0-.85-.13-.55-.15-.56-.08-1.11-.23-.93-.25-.92-.29-1.88-.39-.69-.07-.68-.15-1.37-.2-.61-.04-.95-.21-1.37-.23-.65-.03-1.37.17-3.09-1.09-2.09-1.55-.99-3.21.88-3.74.35-.1,1.94-.55,4.38-1.11.43-.1.74.07,2.46-.53,1.38-.48,1.43-.21,2.2-.33.11-.01,1.79-.4,2.2-.42.71-.04.7-.06,1.39-.19.1-.01.11.04,1.33-.17,1.7-.3,2.69.12,4.39-.24,1.64-.34,1.67.12,4.66-.25.83-.1,1.59.22,3.29.14.69-.03.66-.21,1.36-.24.55-.02,2.05-.15,3.02.13,1.21.36,1.76.25,1.91.23,1.26-.24,1.24-.31,1.35-.33.3-.06.3-.03.59-.09.53-.11.52-.13,1.06-.21.59-.09,1.92-.67,2.48-1.79h0ZM218.19,173.49c.04-1.12.6-1.3-.14-3.29-.48-1.28-.34-1.31-.51-2.46-.17-1.13-.13-1.14-.49-2.22-.59-1.78-.4-2.29-.94-3.52-.73-1.64-.6-1.68-1.06-3.02-.37-1.09-1.84-3.07-1.84-3.08-.85-1.09-1.02-1.27-1.11-1.37-.6-.65-.51-.72-1.11-1.36-1.89-2.03-2.3-2.15-2.57-2.36-1.52-1.23-2.09-1.28-3.29-2.17-1.65-1.23-1.94-.69-3.49-1.48-1.44-.75-1.47-.65-3.02-1.11-1.89-.56-1.91-.48-2.19-.55-1.09-.25-1.1-.15-2.21-.16-1.01-.02-1.47-.19-1.92-.22-1.26-.1-1.25-.15-1.36-.16-.36-.02-2.02.18-2.23.23-1.71.44-1.71.42-1.86.46-.74.19-.76.06-1.39.21-.55.13-.55.11-1.11.19-.1.02-.68.18-.82.21-.13.02-.93.17-1.59.49-3.6,1.74-5.61,2.3-7.12,3.26-.2.12-1.93,1.2-2.37,1.7-.51.57-.53,1.64-.05,2.29,1.23,1.63,2.32.71,4.34,2.19,1.45,1.07,1.43,1.11,1.62,1.41.52.8,1.74,1.7,2.32,4.15.35,1.49.34,1.49.38,1.62.53,1.77-.3,2.69-1.45,5.15-.09.2-.77,1.66-1.37,2.42-.52.66-1.73,1.42-2.14,1.63-2.61,1.34-3.44,1.07-3.51,1.07-.77,0-.85.16-1.39.27-.69.13-.67.18-1.36.29-1.01.15-1.01-.17-3.26-.07-1.82.09-2.49-.57-3.28-.71-1.51-.27-4.37,1.06-3.59,3.91.25.92.14.99.16,3.01,0,.8.15.92.21,1.35.24,1.6.75,2.1.94,3.58.13.97,1.35,5.02,2.78,6.6,1.27,1.41,1.55,2.18,3.34,2.92,1.76.73,2.21-.79,5.16-.13.4.09.54.09,1.66.09,1.32,0,1.31-.36,2.47-.21.94.11.93.21,2.19.21,5.19,0,5.2.04,6.03-.13.94-.19.94.14,2.73.14,1.65,0,1.65.06,3.28-.21.44-.07,2.13-.06,2.47,0,.68.14.67.16,1.37.2.41.03.98.19,1.64.11,2.53-.31,2.53-.4,3.01-.29.37.08.73.15,1.1.21.09,0,.18.03.27.05.19.05,1.16.28,2.47.09,2.55-.38,2.58,0,4.39-.23,1.9-.24,1.9.03,3.81.06,1.69.02,2.29.29,3.65-3.16.44-1.12.49-1.09.76-1.66.67-1.42.66-1.96.79-2.48.16-.6.1-1.04.11-1.36.04-.91.88-3.23.92-4.11.03-.84.07-.83.23-1.66.02-.15.34-1.84.35-1.91.3-1.19.19-1.47.16-4.1.02-.51.03-.78.03-.82h0ZM183.67,141.2c.03-1.52-2.47-1.54-3.1-1.75-.96-.31-1.66-.8-4.14-1.55-1.55-.46-2.04-.39-3.33-.99-1.72-.79-1.81-.37-2.96-.5-.65-.08-.64-.22-1.65-.23-1.87,0-1.86.04-3.28.15-.61.05-2.25.06-2.75.19-.41.12-.41.1-.83.17-.27.03-.53.08-.8.15-.54.15-1.61.02-3.3.77-1.52.68-1.53.63-3.03,1.33-1.08.52-2.55.54-4.32,2.02-1.71,1.44-3.04,1.67-2.86,3.25.17,1.49,2.29,1.93,3.33,2.54,1.29.75,1.31.72,2.76,1.09.86.21,1.76.14,3.08.93,1.6.94,1.75.54,4.07,1.42.27.11,1.37.39,1.62.42,2.14.23,1.96,1.29,3.84,1.17,1-.07,1.54-.93,2.8-2.03,1.33-1.16,1.43-1.68,2.66-2.29,1.57-.79,2.09-1.7,4.38-2.48,1.41-.47,1.89-.83,3.06-1.25,2.88-1.05,2.97-.78,3.77-1.24.41-.24.96-.55.98-1.29h0ZM163.43,237.82c-.08-.77-.07-.77-.09-.83-.15-.62-.26-1.07-.33-1.35-.13-.57-.06-2.82-.03-3.02.16-.98.27-.98.02-2.46-.1-.61-.08-2.62,0-3.01.31-1.49.18-1.5.18-3.01,0-2.68.14-3.81-1.03-4.6-.47-.31-.5-.23-1.05-.34-1.09-.22-1.09-.17-2.19-.17-1.52,0-1.53-.11-3.02.16-.74.14-4.26.07-4.38.05-.44-.05-.42-.26-2.73-.21-.59,0-.75.2-1.37.23-2.26.1-3.27-.08-3.55-.13-.94-.17-.95-.06-1.66-.13-1.37-.13-1.36,0-2.73.03-.83,0-.82.05-1.64.19-1.69.29-5.64-.55-6.29,1.09-.34.86-.1,1.54-.05,1.92.17,1.33-.49,2.24-.08,3.86.57,2.2.25,2.35-.04,3.55-.12.48-.1,5.85-.03,7.08.06,1.08-.22,2.44.07,3.6.06.22.12.22.11,2.71,0,1.4-.24,1.4-.11,2.47.16,1.24.05,1.25.26,2.48.13.74,0,.75.18,1.61.15.69-.03,1.27-.34,2.47-.51,2.01-.05,2.03,0,3.29v4.37c-.03,1.24-.05,1.23-.07,2.47-.03,1.78.08,1.77.08,3.56,0,1.37-.22,1.36-.23,2.73,0,3.26.03,3.26.14,3.86.41,2.24-.74,4.28.27,5.28.6.59,1.62.36,2.04.29.23-.03,2.33-.15,2.98-.03,1.26.23,1.26.21,1.37.23,1.91.41,1.94-.12,3.56.07,1.57.19,3.25.04,7.68.08,2.01.02,2.01-.24,3.27-.09,1.89.22,4.06.07,4.1.06.36-.07.35-.15,1.93-.25.77-.05,3.12.5,4.09-1.29.53-.98.47-1.46.46-4.37,0-1.06-.2-1.03-.24-1.92-.05-1.52.04-2.02.08-2.19.3-1.58.03-1.59-.09-4.37-.02-.7-.38-.91-.09-2.73.19-1.26-.33-1.93-.05-3.29.37-1.8,0-2.65.19-3.58.15-.74.21-.73.2-1.91,0-1.26-.69-1.77-.37-2.99.19-.74.13-.75.12-2.76,0-1.45.17-1.45.08-2.18-.02-.14-.11-.87-.14-1.66,0-.47.07-.46.07-1.63,0-1.67.38-1.62.49-3.29h0Z"/>
  <path d="M229.42,255.08c.04.97,0,1.65-.12,2.19-.33,1.45.09,3.5-.24,4.4-.27.74-.77,1.77-2.28,2.02-.83.14-1.69.33-2.72.13-1.98-.38-2.03.03-3.29-.25-1.18-.26-1.52-.08-2.18.04-1.32.24-4.11-.37-5.22-.13-1.24.27-1.93.42-2.98.25-1.1-.16-1.12.03-2.21-.18-1.16-.21-1.21.11-2.46.11-1.11,0-1.1.03-2.19.15-.47.06-.82-.11-1.38-.14-.78-.05-.77-.11-1.07-.17-.87-.18-3.94-.02-5.23-.12-1.09-.09-1.09,0-2.18.05-.69.04-.67.17-1.36.23-1.43.13-1.43.28-3.28.06-1.77-.2-1.77.2-3.01.02-.82-.12-.84-.02-1.64-.22-1.93-.49-2.55,1.01-6.06-.46-.96-.4-1.68-1.72-1.4-3.07s.15-1.36.21-2.74c.06-1.23,0-1.23-.03-2.46,0-.82-.02-.82-.15-1.63-.12-.73.13-.93.12-2.74,0-1.99.11-5.39,0-7.13-.08-1.37.04-1.36.04-2.73,0-2.51.03-2.51.02-2.73-.11-2,0-2.63-.04-4.39,0-.53.02-1.24-.05-1.65,0-.02-.12-.52-.12-.81,0-.7.23-.68.16-2.47-.04-.96.02-.95.03-1.91,0-.83-.02-.82-.02-1.64,0-1.85-.4-1.84-.2-3.03.05-.31.17-.29.28-2.18.07-1.12-.3-1.17.24-2.76.73-2.16,2.12-1.72,2.31-1.68.81.16.82.08,1.64.24.24.04.81.15,2.99.09.95-.03.93-.32,3.83-.21.77.03.76.26,3.02.21.53,0,2.19-.43,2.47-.44.92-.06,1.53.06,1.66.09.74.15.74.13,2.99.13,2.44,0,2.44-.3,3.84-.11.66.09.66.12,4.1.11,1.59,0,1.57-.29,3-.2,1.2.08,1.6-.14,2.49.05.22.04,1.36.28,2.72.11s1.36.03,2.74.04c3.3.03,3.52,0,3.83-.05,1.31-.21,1.32-.3,3.02-.06,1.3.19,2.16-.58,3.84.31.18.09,1.22.63,1.27,2.22.03,1.24.15,1.23.05,2.46-.13,1.74.13,2,.02,3.29-.03.38-.08.37-.07,7.66,0,1.41.08,1.41.09,2.19.02,1.01-.61,2.6-.26,4.1.31,1.35.16,1.37.17,2.75,0,.96.16.96.04,1.91-.25,2.09.17,2.9-.14,4.41-.15.74,0,1.07.06,1.36.07.43.05,4.19,0,4.63-.11,1.34.25,1.84.27,2.48h0ZM225.26,249.89c.26-1.25-.09-2.85-.09-3.31,0-.49.13-1.07.06-1.65-.13-1.09-.12-1.09-.12-4.37q0-.91.15-1.61c.09-.43.18-2.33-.03-3.33-.3-1.43.08-1.49-.25-3.29-.17-.98,0-.99-.04-2.45,0-.84.35-1.77.21-3-.06-.49-.08-2.79,0-3.29.39-1.98,1.07-3.21-.77-4.22-.73-.4-.85-.34-3.89-.34-1.06,0-1.05.08-1.64.2-.56.1-.56.05-1.12.18-.34.08-2.44.16-2.72.14-2.1-.12-2.1-.15-2.16-.16-1.42-.3-1.46.27-3-.04-.97-.2-3.38-.04-3.88.05-.02,0-1.86.23-2.73.19-1.78-.1-1.78-.17-3.55-.1-.71.03-.68.19-1.38.22-1.71.05-1.69-.14-2.19-.21-1.49-.22-1.49-.02-3,0-2.05,0-2.04-.04-3.02-.05-.2,0-.58.06-2.73.04-.13,0-.97,0-1.62-.12-.69-.13-.7-.06-1.37-.22-.2-.05-1.23-.29-2.51.3-.81.38-.97,1.09-1.02,1.69,0,.1.08,2.01.15,2.47.12.79.15.79,0,1.62-.25,1.5.17,1.91.18,3.29.02,1.1,0,1.1.03,2.2,0,5.21-.03,8.13-.08,8.76-.06.71.1,1.31-.04,2.19-.39,2.38.02,2.99-.22,4.67-.14.94-.12.94-.04,1.89.06.67-.14,1.42-.06,1.93.24,1.49.34,1.72.17,2.99-.09.66-.23.68-.26,1.38-.06,1.39,0,1.39.28,2.76.02.09.27,1.01.3,1.1.45,1.65,2.23,1.47,3.09,1.44.83-.03,1.1-.41,2.47-.16.6.11.81.32,3.54.02,1.32-.14,1.68-.05,2.21-.17.02,0,.28-.16,1.63-.21.76-.02.99.22,1.63.27.96.07.96.11,1.92.04.88-.06,2.28.02,2.48.04,1.23.07,1.23-.08,2.45.11.71.12,3.26.08,3.57.02,1.8-.33,1.82-.14,4.1-.19,1.38-.03,1.38.1,2.75-.04.92-.09.91.02,2.18.03,5.19,0,5.21-.05,6.02.16.25.06,1.64.24,2.43-.09.63-.27,1.31-.66,1.49-2.1.09-.7-.11-1.46-.13-1.93-.03-.7,0-.7-.16-1.39,0,0-.19-1.05.05-2.14.23-1.08.03-1.11.26-2.2h.02Z"/>
  <path d="M219.68,232.22s1.91-.22,1.58,2.31c-.18,1.35-1.54,1.64-2.35,2.52-.81.89-.72,1.41-2.22,2.71-.34.29-.82.53-1.74,1.56-.51.56-.4.65-1.11,1.34-3.23,3.16-5.6,6-7.03,6.09s-2.16-1.43-1.93-2.44c.31-1.31.55-1.38,3.62-4.06.99-.86,1.24-.59,2.23-1.9.07-.1.08-.09.95-1.2.11-.15.34-.45,1.61-1.7.89-.89,1.07-.69,1.91-1.63.52-.57.92-1.44,3.01-3.05.64-.49.66-.5,1.47-.55h0Z"/>
  <path d="M213.58,226.88c.08,1.48-1.01,2.2-1.85,2.99-1.48,1.4-1.54,1.33-2.99,2.77-1.31,1.3-1.27,1.32-2.51,2.69-.64.73-.55.8-1.23,1.5-1.02,1.05-1.05,1.01-2.17,1.95-.23.19-2.17,2.16-2.7,2.79-1.39,1.65-2.22,1.58-3.09,2.62-1.05,1.26-1,1.31-2.43,2.53-1.91,1.61-2.47,3.61-4.53,4.13-1.3.33-3.51-1.12-1.57-3.69.47-.63,2.45-2.28,2.89-2.61.77-.57.72-.62,1.4-1.31,1.5-1.51,1.33-1.77,2.83-2.89,1.55-1.17,1.62-1.33,2.21-2.22.85-1.31,1.77-1.8,2.64-2.54,1.05-1.06,1.11-1.7,2.17-2.5,1.63-1.23,1.55-1.31,2.9-2.83.79-.89,1.22-1.37,1.29-1.44,1.24-1.37,1.42-1.28,2.14-1.97.65-.61.56-.72,1.34-1.16,1.43-.81,3.18-.15,3.26,1.19h0Z"/>
  <path d="M200.66,228.54c.03.84.15,1.16-1.26,2.42-1.27,1.14-1.44,1.18-2.89,2.59-1.34,1.3-1.4,2.06-3.33,3.27-1.56.99-3.67.2-2.59-2.58.49-1.25,1.63-1.51,3.08-3.54.45-.64,1.17-1.13,1.29-1.21.49-.33,1.51-1.26,1.6-1.36.04-.04,1.33-1.72,2.9-1.05.31.13.59.46.64.5.54.63.51.83.56.96Z"/>
  <path d="M159.47,233.71c.19.93-.06.93-.13,2.19-.04.78-.45.98-.04,5.2.05.48.04.48.04,2.2,0,1.28.08,1.36-.42,2.2-.43.72-1.53,1.65-3.31,1.43-3.06-.38-4.32.14-5.7-.2-.03,0-.05-.15-1.95-.11-.67,0-.65.15-1.37.21-.98.09-.98.17-1.65.1-1.97-.21-2.45-.03-4.1-.1-2.14-.1-3.65.29-4.94-.5-.9-.55-.76-1.61-.76-4.13,0-2.19-.02-2.19.15-3.02.09-.43.13-2.09,0-2.7-.21-.97-.19-.98,0-1.95.22-1-.17-2.5-.1-2.99.02-.07.2-.51.16-2.2-.02-.84-.21-.94-.22-1.65-.04-1.84,0-3.03.55-3.79,1.17-1.58,4.27-.86,5.15-.83.41.02,4.05.1,4.65-.02,1.35-.27,1.36-.18,2.74-.18,3.01,0,4.04.47,5.74.12.21-.04.67-.14,2.75-.12,1.4,0,2.21.81,2.39,1.56.34,1.44.14,1.53.28,3.27.08,1.05-.16,2.02-.2,2.19-.28,1.12.11,2.26.15,2.74.05.55.03.54.13,1.08h0ZM154.25,242.98c1.01-.17,2.01-1.3,1.65-2.69-.14-.57-.15-.57-.13-2.19,0-1.02.28-1.34.13-2.19-.26-1.52-.22-1.52-.25-1.65-.29-1.1-.08-1.42.05-2.17.13-.83,0-.84.13-1.67.13-.96.04-.95-.08-1.92-.16-1.14-1.09-1.92-1.77-2.19-.84-.33-3.38.04-4.39-.21-.38-.09-.37-.17-2.18-.15-.66,0-.79.13-1.35.22-1.13.16-1.42.4-2.22.21-.94-.23-.94-.2-1.91-.18-1.16,0-1.16.02-1.95.27-1.77.57-1.29,1.68-1.41,5.88-.02.95.23,1.58.17,4.66,0,.71-.26.99-.24,1.64.06,2.77,0,2.77.02,3.01,0,.16.03,1.23,1.25,1.53.57.14,5.41-.1,6.54.13,1.08.22,1.09.19,2.19.15.31-.02,1.68-.3,1.94-.37,1.08-.28,2.49.09,3.81-.12h0Z"/>
  <path d="M159.34,259.73c.05,1.1.34,1.1.09,2.18-.22.93,0,6.24-.12,7.68-.15,1.59.15,1.78-.02,2.75-.44,2.54-2.27,2.25-2.85,2.15-1.26-.22-2.14.12-2.48.18-.81.14-.8.25-1.62.26-.68-.04-.78-.07-.84-.08-.07-.02-.33-.13-.82-.21-.98-.15-.97-.31-1.9-.14-1.85.35-2.06.15-3.01-.04-.43-.09-2.77,0-6.85-.04-1.25,0-2.96.3-3.53-1.29-.41-1.15-.35-1.83-.28-2.73.12-1.37-.27-1.37-.09-2.75.11-.77.12-.77.12-3.55,0-1.37-.13-1.36-.06-2.73.1-2.03-.39-3.7-.09-5.5.23-1.34.13-1.35.15-2.71,0-1.51.95-2.26,1.57-2.52,1.58-.66,2.94-.37,3.32-.3,1.14.2,1.15.1,5.74.12.83,0,.82.05,1.65.13,1.07.11,1.48.02,1.9.02,1.65,0,1.64-.15,3.29-.15,3.03,0,3.03-.03,4.65.22.81.13,2.07.9,2.08,2.75.04,3.62-.07,3.61-.12,4.11-.09.82.11,1.96.12,2.19h0ZM155.09,271c1.44-.52.83-2.81.77-3.05-.23-.84-.02-2.66-.06-4.11-.03-1.01-.05-2.01-.05-3.02,0-1.51-.1-1.5-.04-3.01.03-.71.19-1.46-.31-2.76-.07-.16-.42-.63-.86-.83-1.26-.6-1.73-.28-3.05-.1-.96.12-.96-.02-1.62-.05-1.26-.05-1.26-.06-1.36-.05-1.47.07-1.83.2-1.92.22-.47.06-.93-.12-1.38-.16-1.37-.12-1.37-.44-4.36-.02-2.19.31-2.15,2.19-2.19,2.38-.4,2.11.04,3.24.07,3.55.05.56.04.56.13,1.11.14.85-.11,1.14-.12,2.46,0,.7.11.7,0,2.47-.03.48-.27.8-.25,1.63.06,1.62,0,1.63.31,2.51.05.13.34.9,1.2,1.13.6.16,1.61,0,1.68-.01.11-.03.09-.11,1.62-.34.25-.03,1.8-.01,4.65.06,2.42.06,2.42-.3,3.84-.1.85.12.84.16,2.2.22.09,0,.68.03,1.1-.13h0Z"/>
</svg>