<?xml version="1.0" encoding="UTF-8"?>
<svg id="Layer_1" xmlns="http://www.w3.org/2000/svg" version="1.1" viewBox="64 64 232 232">
  <!-- Generator: Adobe Illustrator 30.0.0, SVG Export Plug-In . SVG Version: 2.1.1 Build 123)  -->
  <defs>
    <style>
      .st0 {
        fill: #9a9694;
      }

      .st1 {
        fill: #fff;
      }
    </style>
  </defs>
  <path class="st0" d="M244.02,225.32c-.25-.19-.45-.34-3.5-1.68-2.31-1.01-2.78-.73-3.91-1.73-1.34-1.19-2.94-1.46-4.71-3.1-1.31-1.22-1.55-.94-2.8-2.22-1.17-1.2-1.7-1.43-2.43-2.04-1.08-.88-2.84-2.93-3.11-3.29-.56-.77-.55-.78-2.39-2.62-1.59-1.58-1.45-2.04-2.01-2.73-.05-.06-.81-.96-1.23-1.58-.1-.15-.94-1.4-1.19-1.81-1.01-1.65-1.02-1.64-1.1-1.78-1.09-1.84-1.12-3.58-1.99-4.89-1.62-2.43-1.27-3.37-1.49-4.12-.08-.29-.31-1.26-.65-1.91-.63-1.2-.61-1.9-.8-2.53-.64-2.07-.58-2.24-.8-3.07-.37-1.37-.3-1.38-.32-2.79-.01-.89-.35-1.52-.44-2.52-.06-.54-.47-1.99-.49-2.23,0-.18.01-.37,0-.55.05-1.14.16-1.18.22-1.38.54-2,.08-2.23.04-3.08-.07-1.53.03-1.53-.1-3.06-.02-.27.07-1.65.2-2.25.16-.72.1-.72.14-1.09.03-.27.2-.65.21-1.4.02-2.29.11-2.29.86-4.45.11-.29.68-3.76,1.45-5.26.85-1.67.85-1.66,1.46-3.43.96-2.77,1.59-2.53,1.97-4.71.03-.15.06-.3.11-.44.3-1,.94-1.79,1.28-2.65.63-1.59.46-1.74,2.21-3.43,1.08-1.04,1.11-2.17,2.33-3.52,4.02-4.43,3.87-4.59,5.24-5.66.92-.73.89-.76,1.77-1.54,2.79-2.46,2.6-2.77,4.73-3.62.73-.29,3.3-1.87,3.81-2.35.66-.61.67-.6,1.41-1.11.13-.09,1.35-.93.56-1.81-.96-1.07-2.37.42-4.4.73-.44.06-.42.12-.85.2-.18.03-.37.02-.55.05-.43.06-1.51.63-1.63.7-1.88,1-2.02.69-3.91,1.66-1.78.92-2.32.59-3.84,1.74-1.58,1.19-1.91,1.04-3.91,2.49-.41.29-.42.27-.84.56-1.18.83-2.1,1.26-2.81,1.9-.59.54-.62.48-1.22.99-2.23,1.9-3.82,1.9-3.55,5.65.06.84.86,2.46,1.17,3.61.11.43.08,1.81-.03,2.25q-.16.69-.2,1.4c0,.11-.01.14-.29,1.41-.01.07-.04.16-.08.29-.12.39-.41,1.17-1.28,2.96-.11.23-.13.22-1.6,2.81-.34.61-.39.57-.75,1.17-.3.49-.6.69-.86,1.1-.28.42-.3.4-.61.8-.19.24-.16.26-.34.51-1.02,1.44-1.12,1.35-2.47,2.5-.27.22-.5.23-1.8,1.55-.97.99-2.07,2.76-2.17,3.84-.06.7-.06.69-.19,1.38-.04.21-.02.46-.1.87-.3,1.54-.27,1.54-.3,1.67-.19.9-.03,1.42-.19,2.19-.29,1.39.04,1.43-.24,2.51-.14.56-.09.57-.22,1.13-.05.19-.3,1.23-.04,2.51.3,1.45.03,2.99.13,4.45.01.1.42,2.16.45,2.79.07,1.76.28,1.71,1.1,4.47.2.69.07.71.21,1.41.64,3.12.96,3.58,1.26,4.41.58,1.6.28,2.88,1.55,4.81.63.96.89,2.04,1.06,2.51.57,1.53,1.9,2.24,2.95,2.96.19.14.62.43,1.07.63,1.38.61,1.42.64,2.62,1.83,1.48,1.47,1.63,1.6,2.1,2.9.41,1.14.76,1.52,1.08,2.52.78,2.38.36,3.33,1.93,4.8,1.51,1.41,1.5,1.42,1.73,1.61,1.11.99,1.08,1.02,2.19,2,.24.22.91.82,3.67,1.92,1.62.65,1.42,1.05,3.06,1.67,2.18.83,2.28,1.18,3.37,1.34.7.1.69.12,1.39.25,1.62.28,1.88.89,3.89,1.25,1.48.25,3.36,1.07,4.48,1.18,1.11.11,1.59.74,3.33.72,1.62-.02,2.41-.98.94-2.13Z"/>
  <path class="st1" d="M102.94,274.33c-1.56.37-2.24-.08-3.1-.09-.1,0-6.36-.01-6.68,0-1.21.03-3,.45-3.53-1.43-.43-1.54-.09-2.06,0-3.32.03-.34.35-1.3.2-2.23-.06-.35-.22-.81-.11-1.41.35-1.94.01-2.25.22-3.87.04-.31.32-2.56.07-3.9-.36-1.96.02-1.96.25-3.93.15-1.25-.02-1.26.13-3.05.05-.63-.05-.64.11-1.94.1-.84.03-.85.21-1.67.1-.5.03-1.08.19-1.7.25-.96.02-.99.27-1.95.15-.62.08-.62.17-1.09.1-.55.15-.53.22-1.12.07-.56.2-.53.21-1.4,0-1.12.06-1.12-.15-2.2-.48-2.54,1.5-4.94,1.6-7,.04-.69.03-.69.39-2.53.04-.2-.02-.94.61-2.78.05-.14.37-1.33.45-1.92.09-.67.22-.71.24-1.41.02-.85.03-.84.17-1.67.04-.27.05-1.6,1.06-3.39.63-1.11.68-2,.69-2.18.01-.14.02-.42.24-1.67.17-.97,1.07-2.18,1.19-3.06.29-2.1.36-2.34.42-2.53.28-.88.32-.86,1.75-4.16.77-1.79.98-1.71,1.49-3.6.79-2.95,1.97-3.35,2.32-5.61.22-1.4.7-2.12.81-2.28.8-1.2.79-1.89,1.68-3.34.92-1.5,1.18-2.22,2.7-4.61.25-.39.71-1.07.78-1.16.37-.55.3-.6.88-1.35,1.03-1.35,1.01-1.36,1.49-2.08.71-1.05,1.12-1.39,1.46-1.9.54-.8,2.67-2.71,2.92-2.93,1.2-1.08,1.05-1.23,1.9-2.01.82-.76,1.32-.69,2.27-1.94.95-1.24,1.69-1.28,3.41-2.72.97-.81,2.26-1.88,3.73-1.95,0,0,.49-.07.86.07.54.2,1.06,1.08-.12,2.19-.07.07-.75.6-1.19,1.28-.5.78-1.84,2.39-2.87,4.41-.66,1.29-1.27,1.57-1.75,3.03-.52,1.58-.78,1.46-1.58,3.38-.7,1.67-1.58,2.83-.63,4.46.74,1.28,3.03.82,3.63-.31.49-.92.93-2.79.99-3.32.2-1.91,1.17-1.49,2.14-3.9.98-2.42,1.58-2.47,2.71-4.49.62-1.09.64-1.07,1.24-2.17.71-1.3.74-1.29,1.74-2.39.09-.09.05-.11,1.05-1.2.51-.57.77-1.21,1.58-2.03.98-.97.91-1.04,2.05-1.81,1.85-1.25,1.9-1.17,2.66-1.58,1.48-.77,1.35-1.12,2.79-1.68,1.8-.68,1.74-.83,2.51-1.11,1.05-.39,1.08-.29,2.25-.78,2.01-.83,2.85.58,1.82,1.84-.37.45-1.08,1.2-1.17,1.3-.78.83-1.09.89-1.66,1.42-.97.89-1.18.68-2.25,2.18q-.91,1.27-1.55,2.7c-.45,1-.58.95-1.54,2.3-.69.96-1.03.87-1.54,2.15-.66,1.62-.67,1.61-1.5,3.15-.61,1.14-.82,2.52-.85,2.75-.17,1.14-.73,1.75-.74,2.78,0,.54-.02.71.39,1.39.18.28,1.12,1.39,2.21.8,1.81-.97,1.57-2.59,2.17-4.17.57-1.48,1.18-2.39,1.76-4.15.47-1.42,1.02-1.78,1.65-3.35.41-1.01.84-1.44,2.48-3.38.78-.91.85-.85,1.56-1.81.08-.12.15-.06,1.13-1.38.23-.31,1.33-1.46,1.45-1.59.33-.35.67-.63,1.17-1.06.32-.28.69-.48,1.09-.86,1.09-1.05,3.88-2.68,3.96-2.72.23-.1,1.97-.69,3.59-1.74,1.7-1.11,2.32-1.33,3.36-1.24,1.29.12,1.52,1.6.24,2.92-.69.71-1.76,1.39-3.21,3.44-.16.23-.42.65-.7,1.02-.3.41-.27.42-.58.81-.44.55-.41.57-.84,1.12-.69.89-1.26,2.1-1.96,3.07-1.01,1.4-.67,1.64-1.77,3.19-.48.68-1.25,2.38-1.82,3.24-.57.87-1,2.26-1.42,3.06-.44.87-1.38,3.16-1.17,3.91.6,2.08,3.7,2.12,4.39-.22.67-2.23.52-2.31,1.78-4.27.99-1.55.73-2.81,1.85-4.05,1.28-1.41,1.41-2.4,2.49-3.92,1.36-1.9,1.32-3.12,3.91-5.55,1.6-1.5,1.6-2.01,3.15-4.07,1.49-1.99,1.82-1.72,3.17-3.82,1.27-1.99,2.5-2.62,3.02-3.12,1.71-1.68,1.79-1.78,1.91-1.96.09-.12.87-1.5,4.05-3.77.16-.11.98-.56,1.82-1.52.41-.47,2-2.12,2.35-2.4.98-.78,2.32-1,3.65-2.2,1.24-1.13,1.84-1.13,2.71-1.77.15-.11,1.12-.82,1.98-1.35.09-.06.09-.05,1.12-.82,1.17-.86,1.47-1.16,4.47-1.87.06-.01.44-.23,1.93-.17.33.01,1.03.21,1.67.23.81.03,1.25-.19,2.24.67.19.17,1.33,1.76,1.45,1.91.83,1.16.95,3.04,1.04,3.39.58,2.08-.29,2.63-.33,3.62-.02.53.14,1.45-.53,2.77-.44.87-1.66,1.56-2.87,3.58-.52.88-1.22,1.54-1.35,1.66-1.24,1.17-1.28,1.47-2.45,2.29-.62.44-1.53,1.63-1.77,1.83-.53.43-1.18.89-1.28.97-.57.4-2.65,2.83-2.83,3.03-.05.05-1.03,1.39-2.41,2.62-.57.51-1.14.76-1.71,1.61-.35.52-1.25,1.38-1.56,1.77-1.45,1.86-2.53,2.6-3.34,3.88-.7,1.11-.69,1.12-1.66,2.01-.87.81-.77.89-1.56,1.79-.43.49-.8,1.24-1.41,1.93-.85.96-.87.94-1.58,2.02-.27.42-.25.44-.71,1-2.23,2.75-1.65,3.6-3.08,4.98-1.15,1.11-.9,1.27-1.41,2.57-.42,1.08-1.45,1.24-3.28,3.91-.81,1.19-.81,1.2-1.44,2.5-.87,1.81-1.06,1.7-2.51,4.74-.68,1.43-1.83,2.52-2.71,4.49-.8,1.78-.54,1.88-1.28,3.13-2.18,3.69-2.05,6.46-3.17,9.7-.42,1.22-.23,1.26-.51,2.52-.15.7-.05.71-.19,1.41-.22,1.09.05,1.11-.07,2.77-.16,2.16.28,2.76.42,3.9.04.29.25,2.01,1.5,3.33.08.09.79.72,1.29,1.22,1.78,1.79,2.89.95,5.39,1.28.84.12,3.01-.31,4.72-1.4,1.21-.78,1.23-.74,2.52-1.37.8-.39,3.37-2.49,3.51-2.63,1.57-1.5,1.45-1.6,2.12-2.33,1.27-1.4,1.95-1.75,2.85-3.04.26-.37,1.26-1.32,1.45-1.57.79-1.04.86-.97,1.64-2.03.03-.05.66-.71,1.25-1.5.61-.81,1.5-1.15,2.66-2.61.5-.64.56-.57,1.21-1.06.8-.61.87-.5,1.93-1.41.52-.45,1.3-1.02,1.41-1.1,1.04-.76,3.32-1.86,3.61-2,.23-.11,2.21-1.03,2.81-1.15,1.13-.21,1.12-.26,2.26-.27.93-.03,1.12.01,2.52.66,2.41,1.11,2.34,1.32,3.52,3.69.43.85.47,1.22.49,1.34.19,1.54-.14,2.28.14,3.36.55,2.11-.51,3.7-1.6,6.98-.47,1.4-.37,1.74-1.56,3.53-.89,1.34-.69,1.44-1.1,2.55-.59,1.59-1.11,1.37-2.35,3.14-.65.92-.42,1.08-1.82,2.66-1.59,1.79-1.69,2.59-3.06,3.59-.75.55-.74.57-2.17,2.05-.09.09-.23.24-.99,1.22-.15.2-.29.46-.6.8-.61.69-.87.68-1.64,1.43-.5.49-.49.49-.98.98-.52.51-1.01.72-2.07,1.82-1.07,1.12-1.53,1.26-2.82,2.75-1.7,1.98-1.88,1.79-2.48,2.29-1.91,1.6-1.71,1.83-3.43,2.97-1.24.81-2.46,2.13-3.37,2.74-.11.07-.09.09-1.28.98-.28.21-.33.46-1.5,1.26-.6.4-1.87,1.62-3.05,2.26-.9.49-1.49,1.44-2.04,1.8-.09.06-1.9.91-3.23,2.12-1.22,1.09-3.06,1.87-4.12,2.85-1.29,1.19-2,.8-3.35,2.21-1.07,1.12-1.19.96-3.91,2.55-3.02,1.78-2.99,2.11-5.1,2.02-1.39-.06-1.79.1-2.8-.13-1.64-.38-2.43.22-4.16.11-.57-.04-.55-.16-1.12-.21-1.39-.14-1.39-.16-2.79-.12-.98.04-.98-.04-1.96.06-1.02.11-3.69-.03-6.4.04-1.67.04-1.67-.01-3.34.04-1.27.03-1.29-.22-3.04.13-1.35.26-1.41-.16-3.65-.17-1.48,0-1.48.03-2.21.15-1.01.17-1.28-.13-2.25-.14-1.26-.03-1.25-.11-2.51-.03-.97.06-.97,0-1.92.18-1.27.26-2.41-.15-3.09-.15-1.89-.03-1.9.12-3.36-.17-.25-.05-2.54-.14-3.3.04Z"/>
  <path d="M238.42,93.93c.05-.7-.01-.7-.17-1.38-.08-.33-.07-.33-.07-3.64,0-.28.02-1.18-.03-1.41-.02-.12-.16-.48-.23-.84-.16-.76-.24-.75-.25-1.37-.02-1.57.05-1.66.05-1.69.26-1.12.94-1.87,2.28-2.26.85-.25,1.97.42,2.21,2,.06.39.04,2.53.02,2.78-.06.52-.28.5-.19,3.62.04,1.14.2,1.13.21,2.23.03,2.63-.11,2.63-.1,3.07.07,1.75,1,2.83-.58,4.34-1.51,1.44-2.62.03-2.94-.72-.56-1.33-.46-2.18-.46-2.24-.06-1.74.2-1.72.25-2.49Z"/>
  <path d="M215.28,100.86c-.42-.78-1.1-2.41-1.67-3.35-.75-1.26-.6-1.59-1.63-3.11-1.42-2.11-1.41-2.65-1.86-3.5-.69-1.31-.57-1.91-.23-2.57.36-.71,2.24-2.14,3.6.33.57,1.02.47,1.08,1.36,2.53.66,1.06.96,2.26,1.79,3.26,1.13,1.36,1.29,2.64,2.13,3.97.56.89.46.94,1.38,2.51.32.54.5,1.26.52,1.37.08.78.2,1.64-.79,2.4s-1.98-.13-2.1-.25c-1.17-1.05-1.85-2.38-2.5-3.59Z"/>
  <path d="M195.62,114.36c-.84-.73-.84-.75-1.88-1.17-1.7-.68-3.05-2.27-3.9-2.81-3.6-2.26-3.46-3.05-3.49-3.91.09-.47.02-.5.23-.8.83-1.2,2.68-1.41,4.46.15,1.37,1.21,1.48,1.06,2.93,2.12.3.22,3.05,2.25,3.64,2.76.44.39.45.37.93.71.19.14,1.44.97,1.66,1.15.6.52,1.12,1.04,1.27,1.22.88,1.07.7,2.81-.72,3.33-1.37.5-2.61-.88-2.87-1.11-.66-.6-.89-.44-2.26-1.64Z"/>
  <path d="M267.52,179.52c.34.63.26.68.66,1.05.51.46.98.25,1.06.21,1.26-.59,1.07-2.75,1.06-3.53,0-.24,0-2.31-.72-2.82-1.18-.82-2.34.24-2.8.6-.64.49-.72,1.49-.25,2.47.08.17.18.37.99,2.02ZM236.8,158.35c-.61,1.34-.67,2.13-.98,3.29q-.02.09-.25,1.12c-.15.65.03,1.52.05,1.65.18.83.11,1.08.18,1.42.04.22.11.23.19,1.39.07,1.37.49,1.85,1.27,3.32.4.74,1.28,1.38,1.79,2.07.22.3.15.36.92,1.06.93.84,2.17.84,3.35,1.44,1.43.73,2.23,1.18,4.22,1.18,2.65,0,2.66.05,3.88-.25,1.3-.32,1.29-.33,2.53-.45.84-.08,3.83-1.23,4.4-1.75.63-.56.86-1.72,0-2.67-.24-.26-.8-.73-1.06-1.17-.31-.52-.36-.48-.74-1.17-.84-1.52-.95-1.46-1.69-3.04-.63-1.34-1.28-1.58-1.97-2.79-.05-.09-.42-.92-.94-1.6-.89-1.15-1.07-1.82-2.01-3.02-1.12-1.44-.85-1.84-1.63-2.82-2.68-3.43-1.92-3.98-3.23-5.12-.63-.55-2.34-.64-3.32.66-.09.11-.08.12-1.05,1.45-.42.57-.39.58-.89,1.09-.55.58-.45.66-.99,1.25-.21.24-.93,1.02-2.03,3.46ZM212.87,173.35c.08,1.13.09,1.13.09,2.5,0,3.03-.13,3.05.31,4.74.19.71.13.71.18,1.13.09.86,1.07,3.1,1.17,3.89.17,1.3.22,1.29.23,1.4.02.18.02.37.04.55.01.13.18.76.2.85.49,2.65,1.32,3.12,1.87,4.98.22.73.06.79.82,2.22.73,1.39.44,1.53,1.31,2.83,1.35,2.05.85,2.38,2.53,4.17,1.8,1.91,2.21,2.97,2.73,3.66,1.26,1.65,1.5,1.74,1.98,2.22,1.11,1.07,1.53,1.86,1.99,2.19.89.65.82.75,1.39,1.11.45.28.4.32,1.07.89.76.64.78.61,1.48,1.3.96.93,1.47.98,2.49,1.98,1.42,1.38,2.44,1.42,4.46,3.05.09.08,1.07.79,1.67,1.08,1.27.62,1.46.3,3.28,1.79,1.63,1.32,1.9.79,4.26,1.82,1.79.78,1.87.53,3.56,1.24,1.82.76,3,.65,4.48,1.06.69.19.68.18,1.37.35.44.11.46,0,1.98.47,1.86.56,2.32.34,3.05.43,1.39.15,1.39.14,2.79.2.43.02,2.13.63,3.39-.26.53-.37,1.04-.8,1.06-2.01.04-1.53-.4-2.06-.16-3.32.41-2.17-.16-2.34.04-3.94.24-2.01-.05-2.19.02-3.34.09-1.25-.01-1.25.15-2.49.17-1.31-.27-2.22-.85-2.55-1.54-.88-2.27.16-3.93.11-.83-.02-.83.02-1.66.04-2,.04-2.33-.03-2.53-.07-.68-.16-.67-.19-1.38-.18-.9-.04-1-.03-3.05-.52-2.87-.68-3.2-4-.57-4.03,3.03-.04,3.03-.01,4.5.37,1.35.34,1.35.31,2.74.31,1.26-.01,1.26-.34,2.5-.1.15.03,1.14.23,1.99.02.57-.14,1.28-.33,1.62-.68.52-.53.75-1.91.77-2.21.04-.86-.03-.85-.14-1.95-.11-1.01.12-1,.14-1.95.07-2.94-.01-3.36-.07-3.65-.17-.83-.07-.84-.26-1.68-.03-.12-.2-.88-.07-1.62.09-.48.75-1.76-1.27-3.83-1.25-1.27-.8-1.57-2.24-3.64-.53-.75-.51-.76-.56-.83-1.61-2.24-2.7-4.8-3.09-5.26-1.21-1.46-3.49-.2-3.77-.09-.97.39-1.57.38-2.84,1-1.42.69-2.65.86-2.75.89-.74.22-.75.22-1.94.18-2.24-.06-2.26.18-3.89-.19-.96-.22-2.57.11-3.64-.19-1.5-.4-2.2-.25-3.93-1.38-.56-.37-1.46-.75-1.98-1.05-.24-.14-1.53-.9-2.59-2.44-1.34-1.95-1.56-1.8-2.13-2.94-1.23-2.45-1.11-2.5-1.12-2.53-.69-3-.99-3.35-.82-4.19.21-1.05.19-1.05.21-1.14.23-.99.08-1,.18-1.63.02-.11.17-.97.27-1.39.21-.83.13-.84.15-1.69.02-.94.35-.96.98-2.76.75-2.12.93-2.03,2.1-3.95.68-1.12.71-1.09,1.61-2.04,1.14-1.18,1.07-1.28,2.03-2.15,1.75-1.58,2.83-2.37,2.66-3.88-.15-1.29-1.7-1.81-2.35-3.61-.49-1.37-.59-1.33-.86-2.22-.26-.87.33-2.17,1.4-2.34,1.87-.31,2.15,1.6,3.01,2.93.75,1.18.74,1.6,1.18,2.47.07.14.49.99,1.68,1.02,1.7.04,4.06-2.05,6.43-2.92.76-.29,1.92-.87,3.86-1.27,1.53-.32,1.48-.53,3.92-1,2.19-.41,2.49-.78,3.36-.69,2.17.23,2.34,1.57,2.37,1.8.04.3.02.57-.04.81-.28,1.08-1.39,1.49-1.57,1.55-.91.34-.92.3-1.89.34-.47,0-2.1.28-2.24.33-1.08.33-1.05.4-2.2.68-.44.1-3.1.96-3.92,1.29-3.1,1.26-3.1,1.23-3.37,1.35-2.43,1.13-3.07,2.03-1.14,4.54,1.28,1.66,1.39,1.58,2.49,3.35.5.81.66,2.06,1.84,3.21,1.71,1.7,1.22,2.78,2.37,4.03,2.29,2.47,1.57,3.05,2.77,4.47.81.94.77,1.62,1.63,2.55,1.33,1.42.81,1.76,1.98,3.31,1.63,2.16,2.39,1.67,3.92.69.97-.62,1.88-.31,2.89-1.25,1.81-1.68.57-3.1.85-4.49.5-2.49.07-2.51.18-5.04.09-1.92-.14-1.9-.41-3.08-.22-.91.63-1.81.33-3.58-.24-1.39.07-1.39.07-2.81.02-7.66-.06-7.66-.12-8.1-.17-1.28-.09-2.64-.05-3.13.01-.09.01-.15.02-.17.3-1.39.11-1.4.16-2.81.05-1.54-.02-1.53-.01-3.07.01-.71.34-1.4-.11-3.38-.26-1.15.04-1.67.1-2.2.17-1.4.32-1.39.17-2.79-.31-2.94-.09-4.19-.16-6.12-.02-.32-.24-1.39-.78-1.96-1.36-1.46-3.22-.4-4.48-.31-.98.07-.96.19-1.95.24-.92.05-2.97.74-3.89.76-1.42.03-2.27.65-3.63.69-1.12.04-1.41.12-3.03.92-2.01.99-2.65.41-5.01,1.69-1.26.68-2.2.82-3.43,1.5-.56.3-2.97,1.4-3.26,1.56-.5.26-1.64,1.11-1.64,1.12-2.37,1.98-2.73,1.51-3.94,2.74-.13.12-.42.42-1.72,1.33-.65.46-.57.55-1.08.89-.61.39-.95.78-1.47,1.31-1.18,1.19-1.33,1.17-2.35,2.12-1.59,1.48-1.46,1.61-3.15,2.98-.91.74-1.86,2.81-3.03,4.47-.36.51-1.03,1.72-1.4,2.22-1.97,2.67-1.98,3.35-2.25,4.17-.44,1.33-1.58,1.78-2.02,4.16-.35,1.9-1.24,2.39-1.45,4.18-.13,1.08-.88,3.33-.91,4.19-.05,1.02-.13,1.07-.52,2-.54,1.28-.25,1.68-.25,3.29,0,1.24-.19,1.22-.24,1.95-.01.18,0,.37-.02.55-.04.43-.08.42-.11.85-.08,1.24-.1,2.3-.1,2.5-.02.78-.14,1.15-.09,1.96ZM200.35,188.14c.64,3.12.96,3.58,1.26,4.41.58,1.6.28,2.88,1.55,4.81.63.96.89,2.04,1.06,2.51.57,1.53,1.9,2.24,2.95,2.96.19.14.62.43,1.07.63,1.38.61,1.42.64,2.62,1.83,1.48,1.47,1.63,1.6,2.1,2.9.41,1.14.76,1.52,1.08,2.52.78,2.38.36,3.33,1.93,4.8,1.51,1.41,1.5,1.42,1.73,1.61,1.11.99,1.08,1.02,2.19,2,.24.22.91.82,3.67,1.92,1.62.65,1.42,1.05,3.06,1.67,2.18.83,2.28,1.18,3.37,1.34.7.1.69.12,1.39.25,1.62.28,1.88.89,3.89,1.25,1.48.25,3.36,1.07,4.48,1.18,1.11.11,1.59.74,3.33.72,1.62-.02,2.41-.98.94-2.13-.25-.19-.45-.34-3.5-1.68-2.31-1.01-2.78-.73-3.91-1.73-1.34-1.19-2.94-1.46-4.71-3.1-1.31-1.22-1.55-.94-2.8-2.22-1.17-1.2-1.7-1.43-2.43-2.04-1.08-.88-2.84-2.93-3.11-3.29-.56-.77-.55-.78-2.39-2.62-1.59-1.58-1.45-2.04-2.01-2.73-.05-.06-.81-.96-1.23-1.58-.1-.15-.94-1.4-1.19-1.81-1.01-1.65-1.02-1.64-1.1-1.78-1.09-1.84-1.12-3.58-1.99-4.89-1.62-2.43-1.27-3.37-1.49-4.12-.08-.29-.31-1.26-.65-1.91-.63-1.2-.61-1.9-.8-2.53-.64-2.07-.58-2.24-.8-3.07-.37-1.37-.3-1.38-.32-2.79-.01-.89-.35-1.52-.44-2.52-.06-.54-.47-1.99-.49-2.23-.01-.18.01-.37,0-.55.05-1.14.16-1.18.22-1.38.54-2,.08-2.23.04-3.08-.07-1.53.03-1.53-.1-3.06-.02-.27.07-1.65.2-2.25.16-.72.1-.72.14-1.09.03-.27.2-.65.21-1.4.02-2.29.11-2.29.86-4.45.11-.29.68-3.76,1.45-5.26.85-1.67.85-1.66,1.46-3.43.96-2.77,1.59-2.53,1.97-4.71.03-.15.06-.3.11-.44.3-1,.94-1.79,1.28-2.65.63-1.59.46-1.74,2.21-3.43,1.08-1.04,1.11-2.17,2.33-3.52,4.02-4.43,3.87-4.59,5.24-5.66.92-.73.89-.76,1.77-1.54,2.79-2.46,2.6-2.77,4.73-3.62.73-.29,3.3-1.87,3.81-2.35.66-.61.67-.6,1.41-1.11.13-.09,1.35-.93.56-1.81-.96-1.07-2.37.42-4.4.73-.44.06-.42.12-.85.2-.18.03-.37.02-.55.05-.43.06-1.51.63-1.63.7-1.88,1-2.02.69-3.91,1.66-1.78.92-2.32.59-3.84,1.74-1.58,1.19-1.91,1.04-3.91,2.49-.41.29-.42.27-.84.56-1.18.83-2.1,1.26-2.81,1.9-.59.54-.62.48-1.22.99-2.23,1.9-3.82,1.9-3.55,5.65.06.84.86,2.46,1.17,3.61.11.43.08,1.81-.03,2.25q-.16.69-.2,1.4c0,.11-.01.14-.29,1.41,0,.07-.04.16-.08.29-.12.39-.41,1.17-1.28,2.96-.11.23-.13.22-1.6,2.81-.34.61-.39.57-.75,1.17-.3.49-.6.69-.86,1.1-.28.42-.3.4-.61.8-.19.24-.16.26-.34.51-1.02,1.44-1.12,1.35-2.47,2.5-.27.22-.5.23-1.8,1.55-.97.99-2.07,2.76-2.17,3.84-.06.7-.06.69-.19,1.38-.04.21-.02.46-.1.87-.3,1.54-.27,1.54-.3,1.67-.19.9-.03,1.42-.19,2.19-.29,1.39.04,1.43-.24,2.51-.14.56-.09.57-.22,1.13-.05.19-.3,1.23-.04,2.51.3,1.45.03,2.99.13,4.45.01.1.42,2.16.45,2.79.07,1.76.28,1.71,1.1,4.47.2.69.07.71.21,1.41ZM194.72,177.8q-.04-3.44-.04-3.62c0-1.25.29-1.95.33-2.25.17-1.11.23-1.1.23-3.32.01-2.05-1.78-1.39-2.36-.89-1.33,1.15-1.09,1.59-2.7,3.43-.06.06-1.23,1.6-1.31,1.73-.89,1.34-.82,1.4-2.32,3.01-1.5,1.6-1.14,1.86-1.96,2.77-1.04,1.16-1.13,1.57-1.92,2.28-1,.91-1,1.19-1.72,2.45-.3.52-.84.81-1.65,2.51-.28.6-1.77,2.66-1.92,2.83-1.48,1.75-2.06,3.37-3.05,4.48s-1.07,2.11-1.68,3.03c-.9,1.35-1.02,1.28-1.68,2.77-.62,1.42-1.11,1.42-1.68,3.06-.15.43-.5,1.45-2.42,5.2-1.02,1.98-.89,2.76-1.56,4.52-.5,1.31-.93,2.96-1.18,3.89-.62,2.27-.21,2.53-.41,3.93-.15,1.12-.19,1.11-.21,2.23-.03,1.02-.59,1.49.31,3.39.59,1.25,1.1,3.41,3.73,2.42,2.88-1.08,2.95-.93,4.5-1.87,2.09-1.26,2.23-1.29,2.98-2.05,2.11-2.13,2.34-1.91,3.26-3.12.85-1.11.96-1.01,1.88-2.06.59-.67.58-.67,1.22-1.28.5-.49.95-1.27,1.96-2.22.9-.86,1.68-2.04,2.06-2.4.65-.63.75-.52,1.5-1.29,1.02-1.07,1.09-.99,2.09-2.09.94-1.03.92-1.4,2.54-2.18.91-.44,1.9-1.43,2.57-1.85,3.31-2.09,4.33-1.92,5.52-2.28.12-.04.96-.3,1.09-1.19.18-1.23-.69-1.89-1.48-3.29-.94-1.67-.92-2.8-.93-2.86-.02-.22-.17-.68-.24-1.11-.13-.8-.27-1.01-.66-1.95-1.36-3.27-1.15-3.34-1.31-4.47-.11-.74-.32-.68-.75-2.46-.26-1.11.03-1.14-.24-2.24-.3-1.23.02-2.95-.2-3.92-.18-.83-.14-.83-.19-1.67ZM89.63,272.81c.53,1.88,2.32,1.46,3.53,1.43.32-.01,6.58,0,6.68,0,.86.01,1.54.46,3.1.09.76-.18,3.05-.09,3.3-.04,1.46.29,1.47.14,3.36.17.68,0,1.82.41,3.09.15.95-.19.95-.12,1.92-.18,1.26-.08,1.25,0,2.51.03.97.01,1.24.31,2.25.14.73-.12.73-.15,2.21-.15,2.24.01,2.3.43,3.65.17,1.75-.35,1.77-.1,3.04-.13,1.67-.05,1.67,0,3.34-.04,2.71-.07,5.38.07,6.4-.04.98-.1.98-.02,1.96-.06,1.4-.04,1.4-.02,2.79.12.57.05.55.17,1.12.21,1.73.11,2.52-.49,4.16-.11,1.01.23,1.41.07,2.8.13,2.11.09,2.08-.24,5.1-2.02,2.72-1.59,2.84-1.43,3.91-2.55,1.35-1.41,2.06-1.02,3.35-2.21,1.06-.98,2.9-1.76,4.12-2.85,1.33-1.21,3.14-2.06,3.23-2.12.55-.36,1.14-1.31,2.04-1.8,1.18-.64,2.45-1.86,3.05-2.26,1.17-.8,1.22-1.05,1.5-1.26,1.19-.89,1.17-.91,1.28-.98.91-.61,2.13-1.93,3.37-2.74,1.72-1.14,1.52-1.37,3.43-2.97.6-.5.78-.31,2.48-2.29,1.29-1.49,1.75-1.63,2.82-2.75,1.06-1.1,1.55-1.31,2.07-1.82.49-.49.48-.49.98-.98.77-.75,1.03-.74,1.64-1.43.31-.34.45-.6.6-.8.76-.98.9-1.13.99-1.22,1.43-1.48,1.42-1.5,2.17-2.05,1.37-1,1.47-1.8,3.06-3.59,1.4-1.58,1.17-1.74,1.82-2.66,1.24-1.77,1.76-1.55,2.35-3.14.41-1.11.21-1.21,1.1-2.55,1.19-1.79,1.09-2.13,1.56-3.53,1.09-3.28,2.15-4.87,1.6-6.98-.28-1.08.05-1.82-.14-3.36-.02-.12-.06-.49-.49-1.34-1.18-2.37-1.11-2.58-3.52-3.69-1.4-.65-1.59-.69-2.52-.66-1.14.01-1.13.06-2.26.27-.6.12-2.58,1.04-2.81,1.15-.29.14-2.57,1.24-3.61,2-.11.08-.89.65-1.41,1.1-1.06.91-1.13.8-1.93,1.41-.65.49-.71.42-1.21,1.06-1.16,1.46-2.05,1.8-2.66,2.61-.59.79-1.22,1.45-1.25,1.5-.78,1.06-.85.99-1.64,2.03-.19.25-1.19,1.2-1.45,1.57-.9,1.29-1.58,1.64-2.85,3.04-.67.73-.55.83-2.12,2.33-.14.14-2.71,2.24-3.51,2.63-1.29.63-1.31.59-2.52,1.37-1.71,1.09-3.88,1.52-4.72,1.4-2.5-.33-3.61.51-5.39-1.28-.5-.5-1.21-1.13-1.29-1.22-1.25-1.32-1.46-3.04-1.5-3.33-.14-1.14-.58-1.74-.42-3.9.12-1.66-.15-1.68.07-2.77.14-.7.04-.71.19-1.41.28-1.26.09-1.3.51-2.52,1.12-3.24.99-6.01,3.17-9.7.74-1.25.48-1.35,1.28-3.13.88-1.97,2.03-3.06,2.71-4.49,1.45-3.04,1.64-2.93,2.51-4.74.63-1.3.63-1.31,1.44-2.5,1.83-2.67,2.86-2.83,3.28-3.91.51-1.3.26-1.46,1.41-2.57,1.43-1.38.85-2.23,3.08-4.98.46-.56.44-.58.71-1,.71-1.08.73-1.06,1.58-2.02.61-.69.98-1.44,1.41-1.93.79-.9.69-.98,1.56-1.79.97-.89.96-.9,1.66-2.01.81-1.28,1.89-2.02,3.34-3.88.31-.39,1.21-1.25,1.56-1.77.57-.85,1.14-1.1,1.71-1.61,1.38-1.23,2.36-2.57,2.41-2.62.18-.2,2.26-2.63,2.83-3.03.1-.08.75-.54,1.28-.97.24-.2,1.15-1.39,1.77-1.83,1.17-.82,1.21-1.12,2.45-2.29.13-.12.83-.78,1.35-1.66,1.21-2.02,2.43-2.71,2.87-3.58.67-1.32.51-2.24.53-2.77.04-.99.91-1.54.33-3.62-.09-.35-.21-2.23-1.04-3.39-.12-.15-1.26-1.74-1.45-1.91-.99-.86-1.43-.64-2.24-.67-.64-.02-1.34-.22-1.67-.23-1.49-.06-1.87.16-1.93.17-3,.71-3.3,1.01-4.47,1.87-1.03.77-1.03.76-1.12.82-.86.53-1.83,1.24-1.98,1.35-.87.64-1.47.64-2.71,1.77-1.33,1.2-2.67,1.42-3.65,2.2-.35.28-1.94,1.93-2.35,2.4-.84.96-1.66,1.41-1.82,1.52-3.18,2.27-3.96,3.65-4.05,3.77-.12.18-.2.28-1.91,1.96-.52.5-1.75,1.13-3.02,3.12-1.35,2.1-1.68,1.83-3.17,3.82-1.55,2.06-1.55,2.57-3.15,4.07-2.59,2.43-2.55,3.65-3.91,5.55-1.08,1.52-1.21,2.51-2.49,3.92-1.12,1.24-.86,2.5-1.85,4.05-1.26,1.96-1.11,2.04-1.78,4.27-.69,2.34-3.79,2.3-4.39.22-.21-.75.73-3.04,1.17-3.91.42-.8.85-2.19,1.42-3.06.57-.86,1.34-2.56,1.82-3.24,1.1-1.55.76-1.79,1.77-3.19.7-.97,1.27-2.18,1.96-3.07.43-.55.4-.57.84-1.12.31-.39.28-.4.58-.81.28-.37.54-.79.7-1.02,1.45-2.05,2.52-2.73,3.21-3.44,1.28-1.32,1.05-2.8-.24-2.92-1.04-.09-1.66.13-3.36,1.24-1.62,1.05-3.36,1.64-3.59,1.74-.08.04-2.87,1.67-3.96,2.72-.4.38-.77.58-1.09.86-.5.43-.84.71-1.17,1.06-.12.13-1.22,1.28-1.45,1.59-.98,1.32-1.05,1.26-1.13,1.38-.71.96-.78.9-1.56,1.81-1.64,1.94-2.07,2.37-2.48,3.38-.63,1.57-1.18,1.93-1.65,3.35-.58,1.76-1.19,2.67-1.76,4.15-.6,1.58-.36,3.2-2.17,4.17-1.09.59-2.03-.52-2.21-.8-.41-.68-.39-.85-.39-1.39.01-1.03.57-1.64.74-2.78.03-.23.24-1.61.85-2.75.83-1.54.84-1.53,1.5-3.15.51-1.28.85-1.19,1.54-2.15.96-1.35,1.09-1.3,1.54-2.3q.64-1.43,1.55-2.7c1.07-1.5,1.28-1.29,2.25-2.18.57-.53.88-.59,1.66-1.42.09-.1.8-.85,1.17-1.3,1.03-1.26.19-2.67-1.82-1.84-1.17.49-1.2.39-2.25.78-.77.28-.71.43-2.51,1.11-1.44.56-1.31.91-2.79,1.68-.76.41-.81.33-2.66,1.58-1.14.77-1.07.84-2.05,1.81-.81.82-1.07,1.46-1.58,2.03-1,1.09-.96,1.11-1.05,1.2-1,1.1-1.03,1.09-1.74,2.39-.6,1.1-.62,1.08-1.24,2.17-1.13,2.02-1.73,2.07-2.71,4.49-.97,2.41-1.94,1.99-2.14,3.9-.06.53-.5,2.4-.99,3.32-.6,1.13-2.89,1.59-3.63.31-.95-1.63-.07-2.79.63-4.46.8-1.92,1.06-1.8,1.58-3.38.48-1.46,1.09-1.74,1.75-3.03,1.03-2.02,2.37-3.63,2.87-4.41.44-.68,1.12-1.21,1.19-1.28,1.18-1.11.66-1.99.12-2.19-.37-.14-.85-.07-.86-.07-1.47.07-2.76,1.14-3.73,1.95-1.72,1.44-2.46,1.48-3.41,2.72-.95,1.25-1.45,1.18-2.27,1.94-.85.78-.7.93-1.9,2.01-.25.22-2.38,2.13-2.92,2.93-.34.51-.75.85-1.46,1.9-.48.72-.46.73-1.49,2.08-.58.75-.51.8-.88,1.35-.07.09-.53.77-.78,1.16-1.52,2.39-1.78,3.11-2.7,4.61-.89,1.45-.88,2.14-1.68,3.34-.11.16-.59.88-.81,2.28-.35,2.26-1.53,2.66-2.32,5.61-.51,1.89-.72,1.81-1.49,3.6-1.43,3.3-1.47,3.28-1.75,4.16-.06.19-.13.43-.42,2.53-.12.88-1.02,2.09-1.19,3.06-.22,1.25-.23,1.53-.24,1.67-.01.18-.06,1.07-.69,2.18-1.01,1.79-1.02,3.12-1.06,3.39-.14.83-.15.82-.17,1.67-.02.7-.15.74-.24,1.41-.08.59-.4,1.78-.45,1.92-.63,1.84-.57,2.58-.61,2.78-.36,1.84-.35,1.84-.39,2.53-.1,2.06-2.08,4.46-1.6,7,.21,1.08.16,1.08.15,2.2-.01.87-.14.84-.21,1.4-.07.59-.12.57-.22,1.12-.09.47-.02.47-.17,1.09-.25.96-.02.99-.27,1.95-.16.62-.09,1.2-.19,1.7-.18.82-.11.83-.21,1.67-.16,1.3-.06,1.31-.11,1.94-.15,1.79.02,1.8-.13,3.05-.23,1.97-.61,1.97-.25,3.93.25,1.34-.03,3.59-.07,3.9-.21,1.62.13,1.93-.22,3.87-.11.6.05,1.06.11,1.41.15.93-.17,1.89-.2,2.23-.09,1.26-.43,1.78,0,3.32ZM85.92,260.57c.29-1.23.02-2.31-.03-2.5-.34-1.33.12-2.34.13-3.07.02-.71,0-.71.17-1.4.33-1.36.06-2.68.47-5.03.06-.37.01-.75.17-1.35.54-2.02-.08-2.51.21-3.65.65-2.63.65-2.64.59-3.9-.01-.23.03-1.93.19-2.52.2-.79.19-1.24.64-3.04.24-.96.34-1.24.42-1.98.04-.35.2-.84.22-1.37.03-.97-.06-.98.13-1.69.19-.67.18-1.2.5-2.25.09-.28.52-1.68.77-3.57.07-.49-.03-1.14.53-2.2.51-.95.45-.97.67-2.02.08-.34,0-1.25.34-2.49.23-.81.28-.79.41-1.66.05-.29,1.27-4.95,1.64-5.82.47-1.11.51-1.09.83-2.25.63-2.28,1.48-3.28,1.67-4.75.21-1.6,1.35-3.4,1.65-3.87.7-1.12.43-1.81,1.25-3.15.63-1.01,1.75-4.47,2.82-6.39.69-1.26,1.03-1.06,1.69-2.77.38-.99.3-1.04,1.31-2.57.14-.21.43-.81.99-1.57.78-1.07.82-1.04,1.47-2.19.33-.6.69-1.07.76-1.16.29-.38.92-1.37,1.42-1.92.37-.41,1.2-1.51,2.22-2.5,1.77-1.7,2.13-2.56,3.07-3.33.92-.76.95-.72,1.84-1.52.13-.11,1.12-.79,1.96-1.65,1.91-1.96,2.23-1.51,4.54-2.95.01-.01,1.74-.93,2.4-1.31,2.01-1.14,2.26-.54,4-1.49.87-.47,1.49-.49,1.63-.49,1.76-.06,4.67-1.24,5.54-1.87.05-.03,1.05-.7,1.46-1.02.26-.2,1.32-.89,1.68-1.07.96-.48,1.03-.31,2.52-1.09,1.6-.85,1.89-1.09,3.86-1.43.08-.01.92-.03,1.11-.06,1.53-.28,1.77-.34,1.93-.37.35-.08,4.39-.2,6.72.26,1.54.3,2.03-.45,3.87-1.06,1.54-.52,1.51-.64,3.1-.97.86-.18,2.77-.92,3.6-.96.3-.02,1.96-.1,3.65-.77,1.97-.78,3.21-2.2,3.43-2.46,1.46-1.67,1.61-1.5,2.06-1.85,1.16-.91.83-1.26,2.04-2.1.3-.21,1.39-.8,2.07-1.55.04-.04.25-.27.4-.45.31-.36,1.44-1.15,1.58-1.25,1.12-.78,1.01-.91,2.12-1.72,1.11-.8,2.27-2.08,3.58-2.84,1.26-.72,1.41-.55,2.42-1.5,1.17-1.09,1.21-1.03,1.93-1.46,1.28-.75,1.26-.77,2.07-1.18.73-.36.71-.4,1.42-.79.67-.37,2.01-.59,2.7-.77,2.65-.71,2.85-.38,3.93-.22.18.02.19-.06,2.23.24,1.68.24,2.2,1.59,3.88.05,2.13-1.96,2.33-2.65,3.67-3.55.1-.06.51-.34,1.13-.84,1.08-.87,1.07-.88,2.24-1.64,1.06-.69,1.13-.57,2.25-1.37.23-.17.94-.67,3.06-1.92,2.1-1.24,2.31-.91,3.24-1.33.67-.3,1.94-1.24,4.76-2.17,1.85-.61,1.88-.62,2.51-.66.66-.04,2.36-.62,2.8-.67,1.12-.12,1.12-.1,2.18-.45.57-.18.55-.22,1.15-.28.13,0,.58-.06,1.66-.28.37-.07,1.32-.45,1.97-.47.47-.02,1.23.03,3.34-.52,1.64-.42,2.03.07,3.34-.3.56-.16.57-.11,1.12-.26,1.09-.29,1.49.23,2.52.04.18-.03.35-.08.53-.11.16-.03.16.01,1.97-.2,1.12-.14,1.13.06,2.5-.06.85-.08.85-.02,1.69-.12.98-.13,1,.17,1.95-.05,1.27-.3,1.56-.66,2.18-2.3.61-1.6-.69-2.5-.26-3.89.73-2.33-.16-2.42-.17-3.89,0-.99.31-1.46.32-2.23.02-1.55,0-1.56-.1-1.96-.33-1.44.27-1.52-.02-3.06-.2-1.11-.05-1.12-.3-2.23-.25-1.13.16-1.63-.02-3.06-.02-.18-.16-2.06.05-2.79.57-2.01,1.83-2.41,3.33-2.29.29.03.94.25,2.5.21,1.71-.05,1.8.33,2.52.18.14-.02,1.92-.72,3.24.87.37.44.94,1.69.73,3.27-.17,1.24-.15,1.24-.19,2.49-.02.9-.38.97.05,2.53.22.81.23.81.21,1.66-.01.52-.34.89-.25,3.07.04,1.04.48,1.06.09,2.5-.14.56-.05.57-.18,1.14-.26,1.11-.12,1.12-.16,4.15-.03,1.93.14,1.91.18,2.51.05.87-.21.87-.03,1.94.46,2.71-.35,2.97-.07,4.19.29,1.26.4,1.23.4,1.95.02,2.93,0,3.1-.04,3.37-.12.78-.33.78-.04,1.92.05.2.19,1.37.15,1.95-.07,1.13-.12,1.13.12,2.23.23,1.04-.06,1.07-.17,2.51-.07.98-.1.97-.04,1.95.08,1.11,0,1.82-.03,1.97-.16,1.24-.06,1.24-.16,2.49-.11,1.25.2,1.6.21,2.51.02,1.4.08,1.39.04,2.79s.02,1.4-.11,2.79c-.16,1.58.07,1.57.07,3.34.01,3.9,0,3.9.02,4.46,0,2.8.01,2.8-.05,4.47-.03.94.19,2.68-.07,3.62-.04.15-.21.8-.13,1.95.01.1.02.19.04.29.1.44.14.43.23,1.11.14,1.13.1,1.13,0,2.2-.05.66.06,1.15-.13,1.98-.26,1.09-.07,1.12-.29,2.22-.2,1.03-.06,3.06-.05,3.07.26,1.94.18,1.94.2,3.89,0,.88.21.85.23,1.67.05,2.15-.04,2.58-.09,2.8-.36,1.7.02,3.87-.21,5.03-.22,1.1-.07,1.1.05,2.22.09.74-.12,2.58.13,3.89.19,1.01-.14,1.93.29,3.34.19.63.12,1.7.05,1.97-.02.05-.18.22-.23,1.38-.07,1.54.19,1.55-.15,3.05-.22.94.14,1.21.16,2.24.02.98.05.98-.16,1.94-.14.6-.1,3.23-.02,3.65.33,1.68.15,1.69.18,4.16.02.94.34,1.08.16,1.96-.39,1.86-.35,2.05-.32,2.23.03.13.12.36.16.82.06.84.16.84.06,1.67-.05.38,0,.57-.16,1.14-.24.88-.06.9-.33,3.89-.15,1.7.2,2.22.11,3.63-.07,1.1-.14,1.1.01,2.2.1.71.09.71.24,1.4.24,1.04-.69,2.14-.32,3.91.16.79.16.78.16,2.79-.01,1.08-.22,1.11-.24,1.67-.06,1.62.2,1.83.23,2.52.1,2.04-.18,5,.17,6.67.28,1.36.16,1.79.12,1.94-.37,1.31-2.37,2.26-3.54,2.07,0,0-1.96.05-3.05.04-1.66-.02-1.73-.39-3.31-.03-1.15.27-3.27-.52-3.3-2.89-.01-.98.03-.98-.04-1.96,0-.24.03-.24.04-3.06,0-.99.13-.97.25-1.94.1-.83.08-.95-.12-2.79-.02-.13,0-.13-.11-1.69-.03-.53-.02-1.74.01-1.93.15-.89.27-.89.14-2.51-.14-1.67.84-4.72-1.35-5.32-.73-.2-1.5.03-3.07.31-.65.12-.9-.08-1.38-.13-1.26-.12-1.26-.2-2.52-.08-.73.07-2.49.06-2.51.06-.42-.04-.79-.22-1.39-.24-.85-.02-.85.01-1.68-.15-1.12-.22-1.14.04-2.25-.21-1.05-.24-3-.19-4.13-.46-.02,0-1.72-.3-1.97-.31-1.04-.08-1.06-.03-3.03-.84-2.16-.88-2.26-.47-3.12-.68-1.62-.39-1.78-1-3.33-1.2-2.02-.26-2.03-.27-2.2-.32-3.07-1-3.07-1.6-4.46-2.21-1.29-.57-1.33-.5-2.47-1.17-1.84-1.1-2.06-.84-3.22-2.32-1.01-1.27-1-1.28-1.1-1.38-1.05-.94-2.66-.69-3.04,1.87-.31,2.06-1.09,2.77-1.67,4.45-.34,1-1.55,3.39-2.66,4.81-.68.88-.45,1.03-1.84,2.95-.71.98-.64,1.47-2.47,3.35-1.21,1.24-1.2,1.24-1.71,1.94-.44.6-.37.66-1.22,1.54-.67.7-1.79,1.57-2.47,2.51-.89,1.21-1.1,1-2.16,2.05-1.19,1.19-1.15,1.23-2.45,2.29-1.55,1.25-1.62,1.77-2.29,2.45-.94.96-2.13,1.55-2.91,2.38-.95,1.03-.8,1.19-1.93,2.01-.35.26-1.52,1.28-1.66,1.39-.17.15-.35.4-.88.8-.17.12-.17.1-2.07,1.5-.95.69-.81.94-1.91,1.73-.82.59-.82.58-1.62,1.19-.47.35-.48.33-.93.72-.1.09-.12.05-1.27.99-1.25,1.03-2.09,1.09-3.89,2.79-.54.51-1.04,1.11-2.31,1.86-.32.19-1.65,1.34-2.02,1.56-1.46.87-2.54,1.5-3.78,2.42-.41.3-1.23.69-2.16,1.45-1.27,1.04-2.27,1.32-3.43,2.14-1.61,1.14-2.54,1.61-2.77,1.73-.99.52-1.02.46-1.95,1.09-1.1.73-1.48.61-3.95.61-2.76,0-2.78.08-3.61-.16-1-.29-2.79.13-3.92-.23-1.62-.51-1.79-.01-4.45-.11-1.71-.06-1.7.18-2.5.22-.71.03-.7.06-1.39.22-.07.02-1.29.16-1.98-.02-.19-.05-1.53-.43-2.21-.44-1.34-.01-1.32.11-1.94.2-1.17.19-2.51-.27-5.87.14-.12.02-3.29-.02-4.46-.19-.15-.02-.56-.08-1.93.1-.55.07-1.01.43-1.97.15-1.3-.38-1.53-.39-1.66-.39-1.62-.05-1.6.14-2.22.22q-1.12.16-2.24.03c-.31-.04-2.2-.56-3.07-.45-.85.11-.84.16-1.68.2-.69.03-1.15.3-1.95.13-2.33-.48-2.35-.39-2.78-.29-.78.18-.79.15-3.62.15-.89,0-.89-.03-1.67-.19-.15-.03-1.51-.13-2.23.03-1.58.37-2.32.04-2.79-.04-1.39-.24-1.99-.26-2.51-1.64-.31-.83.04-3.2-.24-4.19-.01-.04-.21-.12-.16-2.22.02-.79.24-.76.25-1.67.01-.75.04-.81-.05-1.13-.49-1.87-.5-1.89-.27-3.03.03-.17.06-.72.18-1.14.33-1.22.01-1.27.3-2.5Z"/>
</svg>