<?xml version="1.0" encoding="UTF-8"?>
<svg id="Layer_1" xmlns="http://www.w3.org/2000/svg" version="1.1" viewBox="58 74 244 212">
  <!-- Generator: Adobe Illustrator 30.0.0, SVG Export Plug-In . SVG Version: 2.1.1 Build 123)  -->
  <defs>
    <style>
      .st0 {
        fill: #9a9694;
      }

      .st1 {
        fill: #fff;
      }
    </style>
  </defs>
  <path class="st1" d="M90.8,210.77c.61,2.51.74,2.48.82,3.1.07.57.06.57.19,1.14.18.78-.05,1.2.18,2.54.18,1.12.1,1.13.37,2.23.3,1.24.21,1.25.19,2.52-.02,1.94-.11,1.95.17,3.35.02.09.05.23.09,1.14,0,.71.04.71-.13,1.41-.38,1.53.24,1.8-.51,4.78-.33,1.27-.2,1.81-.16,1.96.04.18.27,1.1,1.3,1.81.24.16,2.01,1.05,3.01.76,1.69-.49,2.79-1.78,3.2-2.18,1.33-1.31.49-1.78,1.66-4.85.58-1.52.47-1.59.35-2.55-.22-1.68.3-1.7.03-3.37-.02-.08-.16-1.27-.03-2,.17-.96.16-.97.02-1.93-.11-.71-.06-.71-.25-1.4-.07-.25-.18-1.46-.17-1.7.03-1.09.33-1.95.34-2.24.06-1.7-.13-1.71-.49-2.78-.78-2.34-.12-2.77-.31-3.65-.28-1.32-.46-1.25-1.51-3.7-.1-.24-.67-1.56-1.71-2.8-.62-.75-.72-.64-2.8-2.27-.86-.68-.92-.58-1.99-.82-.27-.06-.65-.14-3.38-.09-.57,0-.56.07-1.37.24-1.7.36-1.82,1.35-1.84,1.54-.19,1.56,1.16,1.79,2.56,4.28,1.26,2.23,1.37,2.2,2.17,5.53ZM102.39,202.97c.05.13.4,1.03.73,1.61,1.06,1.83,1.03,2.78,1.32,3.69.06.2.59,1.89.64,2.52.04.58.04.57.16,1.14.14.64.01,1.92.12,2.5q.16.75.17,1.7c0,1.56.16,1.55.15,2.8,0,1.78.28,5.33-.11,8.42-.11.83.04.85-.16,1.72-.12.58-.11,2.08-.45,3.32-.04.13-.32,1.15-.25,1.69.08.63.22,1.74,3.09,2.54,1.34.38,1.58.23,2.01.12,1.1-.27,1.58-.17,2.77-.96.13-.09.66-.44,1.32-1.47,2.02-3.18,1.7-4.01,1.72-4.16.07-.75.73-2.13.78-2.28.52-1.4-.04-3.54-.04-3.62-.06-.7-.05-.69-.22-1.37-.19-.74.05-.77-.21-1.98-.25-1.17.12-3.23-.17-4.52-.19-.83-.1-.84-.24-1.68-.23-1.38-.06-1.4-.23-2.2-.16-.71-.05-.72-.22-1.42-.32-1.33-.39-1.3-.74-2.27-.59-1.66-.22-1.8-1.45-3.92-.83-1.43-.56-1.6-1.68-2.82-1.04-1.13-1.22-2.33-3.43-3.27-3.05-1.3-3.89-1.05-4.46-1.04h-.84c-1.23.04-2.27,1.22-1.9,2.36.41,1.24,1.2,1.25,1.82,2.85ZM161.69,207.43c-.13-.96-1.36-1.89-2.83-1.72-1.43.17-1.72-.11-3.1-.45-.09-.02-.09,0-1.09-.16-1.53-.24-1.56.04-3.08-.3-.56-.13-.57-.08-1.13-.22-.69-.18-.72-.06-1.41-.27-.52-.15-1.41-.11-1.71-.03-1.51.42-1.94,2.27-2.15,2.89-1.58,4.87-2.21,4.59-2.67,5.85-.37,1.01-.22,1.54-1.1,2.5-1.22,1.33-1.05,2.16-1.97,3.37-.84,1.1-.96,1.97-2.21,3.39-1.78,2.02-1.61,2.33-3.32,2.9-2.3.76-2.34,1.46-3.98.85-.78-.29-2.17-1.04-2.76-1.51-.15-.13-.97-.92-1.3-1.46-.15-.26-1.17-2.46-1.34-2.98-.35-1.09-.93-3.28-.95-3.4-.02-.11.03-.12-.17-1.38-.13-.84-.03-.85-.24-1.68-.06-.22.01-.23-.57-2.81-.02-.09-.03-.19-.04-.28-.05-.58-.04-.57-.16-1.14-.15-.71-.04-.72-.21-1.42-.06-.22-.06-.24-.5-2.76-.2-1.19.14-2.82-.19-4.79-.2-1.17-.05-1.69-.04-3.37.01-.84.16-.99.17-1.68.04-2.28-.13-2.29.16-3.66.15-.67,0-.69.15-1.37.32-1.6.24-2.19.99-3.96.48-1.14.43-1.58,1.35-3.12.26-.44,1.16-2.46,3.69-3.37,2.68-.98,2.61-1.31,4.23-1.33,1.84-.01,1.85-.43,3.66-.06,1.31.26,3.29-.2,5.61.23,1.02.19,2.27-.14,2.8-.16.85-.03.85-.07,1.69-.21.87-.14,1.63.28,3.6-.47,1.12-.41,4.93-1.62,5.39-3,.53-1.6.15-2.58.04-3.66-.02-.15-.05-1.49-1.7-3.4-.78-.9-1.31-.97-2.24-1.71-1.1-.87-1.94-.67-3.71-1.31-.11-.03-.27-.09-1.38-.35-.8-.19-.92.09-2.26-.23-.67-.17-1.34-.07-1.66-.13-.23-.04-.54-.24-2.27-.2-.8.02-.97.22-1.68.23-2.13.03-2.12-.18-2.8-.19-.68-.02-.67.1-1.69.2-.38.04-.86.2-1.39.22-1.13.02-1.13.01-2.26.12-1.61.16-1.63.05-2.78.39-2.36.72-2.72.36-3.92.61-.86.18-.87.15-1.71.42-1.34.42-2.13.42-3.58,1.5-2,1.48-2.69,1.49-4.22,2.52-1,.68-1.13.57-2.27,1.91-.64.75-.66.74-1.31,1.49-.82.93-.74,1.23-1.86,2.35-1.57,1.56-1.03,1.89-2.98,5.97-1,2.09-.57,2.6-.88,3.63-.68,2.22-.24,2.38-.39,4.2-.04.48-.2.62-.21,1.41-.03,2.24.11,2.7,3.39,3.67.48.14,1.18.02,2.22.58.28.15,2.17,1.17,3.27,2.32.11.12.76.8,1.29,1.53.59.79.73,1.5,1.51,2.39,1.2,1.39.9,2.23,2.01,4.42.41.82.48,1.5.49,1.63.06.65.5,2.3.83,3.7.15.64.28,1.23.34,1.65.11.74.22.79.23,1.39.01.19,0,.37.01.56,0,.85.1.84.27,1.67.11.52.22.76.25,1.13.09,1.81.16,3.46.39,4.52,0,.01.19,1.72.17,2.23-.01.11-.03.11-.11,1.39-.06.96-.4,1.22-.44,3.38-.02,1.25-.35,1.35-.5,2.22-.22,1.18-.87,3.35-1.35,4.19-.32.54-2.04,3.17-4.14,3.98-2.16.84-2.58,1.11-4.21,1.01-.49-.03-.79-.21-1.4-.13-1.12.15-2.04.36-3.16-.2-1.57-.78-1.69-1.24-3.03-1.08-1.27.15-3.01,1.75-4.45,2.17-.12.04-.44.32-2.83.25-2.51-.07-2.93-.99-5.03-1.33-1.84-.29-3.49,1.38-5.07,1.55-1.32.14-2-.09-3.07.09-1.9.32-2.37-.54-3.68-1.19-2.69-1.34-3.12-2.84-3.72-3.62-.81-1.06-.85-1.05-1.16-1.99-.05-.14-.08-.13-.62-1.75-.22-.64-.59-3.26-.71-3.88-.18-.87-.01-1.16-.36-2.23-.31-.97-.31-.98-.32-2.56-.02-1.51-.38-1.63-.02-3.91.09-.57.09-.56.24-1.12.06-.22.04-2.43,1.63-2.55.82-.07,2.04.58,2.49,1.98.19.62.29.71.26,2.8-.02.99-.21.97-.22,1.96-.03,2.79.09,2.79.18,3.38.18,1.22-.34,2.05.88,5.34.52,1.41.99,3.1,3.46,4.69.77.5,2.76,1.04,3.34.95,1.04-.16,3.01-1.3,3.63-2.3.74-1.17.99-1.76,1.42-3.64.19-.84-.11-2.18.2-3.66.04-.2.13-.61.09-2.51,0-.86-.2-.99-.22-1.69-.04-1.68.08-1.68-.18-3.34-.03-.2-.04-.4-.07-.59-.06-.51-.19-.73-.23-1.1-.1-1.14-.24-1.12-.28-2.26-.01-.31-.36-1.87-.39-1.98-.02-.08-.28-1.43-.45-2.2-.18-.84-.03-.86-.22-1.7-.34-1.47-.57-1.39-1-2.84-.53-1.79-.83-1.62-2.06-3.03-1.14-1.31-1.28-2.27-5-2.94-1.23-.22-2.92-1.07-4.84,0-.38.21-.38.19-.74.45-.8.58-1.86.8-3.09,1.94-.88.81-.97.71-1.32,1.18-.37.49-.38.47-.77.96-.78.97-.79,1.02-2.3,5.06-.21.57-.31.72-.6,2.59-.08.55-.14.54-.23,1.09-.06.31-.23.77-.26,1.13-.08.85-.2.83-.26,1.69-.01.11-.04.1-.25,1.39-.13.76-.41,1.32-.42,2.26,0,3.8.08,3.81-.14,5.04-.24,1.41.1,1.93-.25,3.93-.17.99.08,1.64.14,2.24.07.86.24.83.25,1.69.02,2.03-.11,2.04.16,3.38.14.65-.01,1.01.17,2.21.39,2.7-.21,2.77.53,5.61.32,1.25.3,1.26.33,2.55-.05,1.42.11,1.4.21,1.95.18,1.04-.2,1.23.21,3.1.02.09.04.18.05.27.15,1.29.27,1.27.48,2.54.08.44.13.42.19.85.05.35-.03.36.16,1.1.22.87.25,2.33.26,2.53.03,1.61.59,1.51.87,3.64.08.57.13.56.19,1.14.05.52.21.86.22,1.4.02,1.14.07,1.13.27,2.26.03.2.63,2.33,1.01,3.03.61,1.11,1.69,1.28,2.73,1.48,1.02.2,1.64-.1,1.97-.13,1.41-.14,1.39-.26,2.81-.26,1.7,0,1.7-.23,3.38-.03,1.15.14,2.39-.15,3.9.16,1.22.25,2.24-.45,3.94-.29.36.04,1.52.28,3.64.1.71-.06.71.04,1.42.06,1.12.02,1.12-.03,2.22.14,1.63.26,1.62-.12,2.82-.14,3.12-.04,3.11.24,4.5.12,1.39-.12,1.39-.11,2.8-.12,1.03-.01,1.32-.26,2.51-.1,2.2.3,2.47-.11,3.93.22,1.58.36,2.84-.13,3.38-.1.64.03.62.23,1.96.22,3.04-.02,3.05.1,3.94-.13,2.81-.7,2.94-.1,4.76-.06.62.02,1.71-.16,3.08.02,1.01.14,1.01-.2,3.09-.02.16.01.59.04,1.95-.08.16-.02,1.04-.1,1.98.07,1.12.21,1.11.19,2.24.2.96.01,1.52.33,3.06-.02.11-.02.85-.19,1.18-.69.2-.32.27-.3,1.06-3.12.52-1.84.48-1.85,1.16-3.63.8-2.08.6-2.14,1.36-4.22.17-.47.35-1.46.8-2.55.78-1.92.45-2,.72-3.03.5-1.89,1.11-3.17,1.23-3.43.48-1.01.55-1.77.57-1.93.07-.71.14-.7.24-1.41.15-1.03.39-.96,1.3-3.89.63-2.03.61-2.03.73-2.57.49-2.1.73-2.02,1.1-3.09.42-1.26.03-1.68.96-3.6.55-1.12.66-1.36.71-2.27.05-1.16.83-2.79,1-3.63.12-.57.15-.56.24-1.13.07-.47.13-.46.2-1.13.17-1.64,1.04-2.8,1.52-5.32.54-2.83,1.38-3.1,1.63-5.34.18-1.6.78-2.57.91-2.76,1.18-1.88.9-3.42,1.05-3.97.55-2.12,1.34-2.24,1.14-3.65Z"/>
  <path class="st0" d="M235.73,268.28c.97-.09,1.15-.19,1.98-.07,1.24.18,1.25,0,2.49.22.33.06.96.18,4.23.1.87-.02,1.08-.18,1.68-.21q.86-.03,1.7-.21c1.19-.24,1.55-.18,1.68-.16.8.14,1.3.26,1.41.29.52.12,1.35.06,1.94.09,2.37.11,3.63-.19,4.78-.1,1.27.1,1.27.08,2.53-.09.36-.05.83-.01,1.39-.13,1.73-.4,1.8.08,4.48-.32.99-.14,1,0,1.97-.24.93-.24,1.98.01,3.1-.2.83-.16.83-.13,1.67-.17.38-.02.6-.16,1.12-.22,1.27-.13,1.26-.2,2.53-.19,1.7,0,2.31-.29,3.91-.67.46-.11.81-.01,1.43-.19.54-.16,2.48-.61,2.51-.61.72-.1.72-.04,1.42-.18.45-.08.93-.03,1.38-.13,2-.43,1.96-.56,3.9-1.2.87-.28,3.07-1.31,3.67-1.4,1.4-.19,1.83.48,1.7,2.65-.02.45-.17.63.05,2.24.07.56.2.54.18,2.25-.06,4.27-.44,4.77-3.01,5.43-1.23.32-2.77.97-3.94,1.16-.35.05-1.57.35-1.71.39-.44.11-.45.07-1.39.31-1.42.37-1.73.68-2.52.7-.36,0-.92-.13-2.26.41-1.52.61-1.59.61-2.81.4-1.1-.19-2.15.36-3.07.38-1.12.01-1.13-.09-2.22.19-1.92.48-1.91.55-2.54.57-3.74.12-4.78-.14-5.64.08-1.59.4-1.58.44-2.24.52-.43.06-.92-.1-1.39-.12-2.68-.08-3.07,0-3.33.08-.08.02-.88.26-1.71.48-1.14.3-1.72-.37-3.65-.49-.52-.03-2.09.31-2.27.35-1.71.38-1.92.03-2.78.02-1.84-.02-1.84.42-3.66.11-1.12-.19-1.14.02-2.25-.22-.42-.1-.52-.12-5.32-.12-2.1,0-2.1-.03-4.2.05-1.73.06-1.78-.48-3.65-.49-2.27-.01-3.72.72-7.03-.31-.81-.24-.82-.16-2.23-.21-1.62.04-1.61-.1-2.23-.21-.4-.07-.78.03-1.71-.12-.18-.03-.36-.08-.54-.11-.88-.15-.9.06-1.99-.19-.81-.18-.83,0-1.64-.17-.22-.05-2.03-.33-3.39-.36-.99-.01-.98-.03-1.94-.22-.6-.13-1.35-.51-1.98-.54-.63-.04-2.23-.11-3.62-.55-.72-.22-.7-.27-1.43-.5-.36-.12-1.76-.23-2.77-.64-1.79-.7-1.8-.64-3.66-1.12-2.85-.74-2.44-2.81-2.36-3.82.06-.71.21-.69.22-1.39.04-2.1-.08-2.08-.16-2.53-.14-.72.03-.74-.17-1.71-.03-.15-.2-.99.19-1.94.33-.82,1.42-1.35,2.59-.68,1.25.71,1.4.94,3.04,1.45.56.17.56.16,1.11.35.61.21.87.07,1.69.22,2.17.41,2.08.79,4.21,1.11.32.05.6.19,1.1.21.12,0,1.29-.07,3.39.67,1.66.6,2.45.2,3.89.44.85.14.85.09,1.68.27.58.12.59.02,1.16.15,1.59.35,1.61,0,2.79.09,1.78.12,1.77.37,2.54.25.33-.06.93-.27,1.68-.06,1.14.31,1.65.08,3.07.34.14.02,1.68.3,1.69.3,1.56.07,2.37-.17,3.09-.09,1.41.16,1.42,0,2.82.21.44.06,3.12.12,3.63.07Z"/>
  <path class="st0" d="M296.56,246.17c.25.49.24.54.23,4.46,0,.86,0,.85-.15,1.69-.21,1.26.26,1.33.02,2.53-.11.51-.17,1.21-.85,2.27-.66,1.03-1.69.99-3.36,2.02-1.16.71-1.34.39-2.59.7-2.51.62-2.46.8-3.33.98-.04,0-.05-.01-.6.09-.09,0-.08.02-1.08.24-1.02.22-.97.42-3.11.69-.29.03-.53.15-1.13.21-.52.06-.71.16-1.39.18-1.8.06-1.79.12-3.64.51-.41.08-.68-.03-2,.46-1.75.66-2.5.11-3.34.09-1.91-.07-2.3.17-2.53.19-1.13.12-1.12.18-2.25.26-.8.06-.8.4-2.24.12-2.08-.4-2.08.16-4.2.11-.53,0-1.48-.35-2.82.1-1.62.55-1.64.42-3.35.42-1.27,0-1.27-.03-2.53,0-1.83.04-1.81-.13-2.22-.2-.14-.03-.14,0-1.71-.06-1.17,0-1.2-.12-3.37.41-.91.22-1.29-.1-1.96-.14-.78-.04-2.36.03-3.08-.12-.89-.2-.91-.07-1.43-.2-.95-.25-.97-.24-1.92,0-1.58.39-1.65.47-3.41,0-.95-.25-.96-.18-1.94-.1-.8.06-1.25-.23-3.36-.13-.18.01-3.87.02-3.92.01-.18-.02-2.27-.79-4.22-.72-.55.02-1.46.12-2.22-.07-.84-.2-.85-.08-1.7-.25-.55-.11-1.27-.11-1.43-.14-.83-.19-.82-.22-1.67-.23-1.45-.03-1.49.21-2.84-.33-.44-.18-2.58-.84-3.61-.84-1.63,0-1.65.08-2.81-.35-1.28-.49-1.77-.38-2.26-.52-1.61-.46-1.57-.57-2.53-.79-1.23-.28-1.28-.16-3.85-1.35-2.5-1.16-2.43-1.53-2.38-3.25,0-.28.08-.88.07-1.12-.13-1.8-.41-1.98-.25-2.8.29-1.53.17-1.54.17-3.09.01-1.9,1.22-2.49,2.07-2.29,1.25.31,2.35.73,2.55.8,1.13.44,1.1.54,1.9.76.56.16.55.2,1.13.31.25.04.79.2.85.21,1.58.26,1.56.32,3.11.7.97.24.95.3,1.93.48.12.03.1.08,1.44.34.83.16.82.19,1.67.2,1.12,0,1.11.04,2.2.31,1.89.46,3.5-.22,5.11.37,1.97.73,2,.91,3.34.57.97-.24.97-.05,1.94.18.07.02.96.37,1.73.2.82-.18.82-.22,1.67-.2.71,0,.68.18,1.39.25.99.09.97.2,1.97.24.86.03.83.21,1.69.21,5.65.03,5.92-.02,6.43-.12,2.02-.36,3.61.24,3.97.31,1.75.32,1.76.03,4.19.03,3.76,0,3.76.02,5.05-.16.23-.03.62-.09,2.8-.06.73,0,1.18.18,2.25.09,2.58-.24,3.14.05,4.18-.17,1.82-.39,2.97.12,5.34-.27,1.81-.29,2.03.11,3.37-.24.79-.2,4.1-.34,4.79-.5,1.8-.44,2.18.39,3.65.02.83-.21.84-.13,1.67-.31.45-.11.47-.03,1.66-.37.74-.21,3.14-.75,3.95-.73.19,0,.37.02.56.02.85.04.83-.05,1.67-.19.57-.09.55-.19,1.13-.25.69-.07.82-.17,1.13-.21.39-.05.59.06,1.69-.51.24-.12,1.13-.79,2.23-.95,1.93-.29,3.61-1.21,3.9-1.37.79-.43,2-1.13,2.79.36Z"/>
  <path class="st0" d="M237.7,247.68c-.86.02-.85,0-1.69.13-.16.03-.56.09-1.98-.17-.27-.05-.25-.1-.52-.17-.27-.06-.29-.06-3.39-.05-1.12,0-1.12.18-2.23.05-1.87-.23-2.32.28-3.92-.26-1.73-.59-2.33-.15-3.69-.36-2.04-.32-2.45.03-3.6-.23-.78-.17-.79-.12-1.99-.13-1.15,0-2.29-.69-3.93-.77-1.14-.05-1.13-.13-2.25-.39-.39-.09-.64-.07-2.52-.07-1.71,0-1.69-.16-3.34-.6-.47-.12-.97-.09-1.15-.1-.17,0-1.02-.2-1.65-.44-1.79-.68-2.43-.6-4.23-1.35-3.24-1.36-4.85-1.45-5.16-3.63-.33-2.31-.25-2.32-.28-2.52-.03-.18-.15-1.01.13-2.25.11-.48.19-.47.16-1.97,0-.14-.44-2.28.92-2.85.98-.41,1.75-.16,4.51.86.77.28.93.49,1.98.81,1.74.52,1.76.43,2.76.69.57.15.58.09,1.14.22.6.15.6.13,1.14.17.32.03.75.19,1.12.24.99.14.97.25,1.96.29.68.03,1.07.19,1.67.22.86.04.85.07,1.67.28,1.38.34,1.41.06,2.81.3,1.45.25,2.29-.02,3.1.17.09.02,1.08.25,1.13.26,1.52.4,1.73-.02,2.81.29.34.09.33.12,1.68.22,1.01.07,1.49-.19,2.53.03.83.19.84.09,1.69.23,2.1.33,2.13-.12,3.9.16.44.07.42.13.86.18,1.81.22,1.81.14,3.64.04,1.41-.08,1.4.19,2.81.12,1.83-.1,1.84-.22,3.66.02,1.08.14,1.81-.04,3.07.14,1.71.26,2.24-.4,4.47.08,1.62.34,2.4-.3,4.78-.46.12,0,5.49.23,6.71-.02.85-.16.86-.03,1.71-.19,1.54-.3,1.82-.09,3.09-.17,2-.12,2.18.15,3.09-.07,1.72-.44,3.01.05,4.21-.28,1.04-.29,1.07-.09,1.69-.22.69-.15.68-.15,1.38-.19.72-.04.69-.17,1.41-.23.65-.06.64-.11,1.13-.19,1.5-.25,1.54-.25,1.68-.26.72-.03.7-.12,1.41-.23.58-.08.58-.17,1.12-.26.85-.12.83-.24,1.68-.27.44-.02,1.83-.37,2.23-.44.47-.09.72.06,1.72-.15s1.04-.08,2.5-.66c.84-.34.84-.3,2.28-.71,1.72-.49,2.34-1.58,3.9-1.38.77.1,1.04.87,1.08.97.59,1.66-.11,2.5.12,3.91.15.98.09.98.3,1.95.19.95-.06,1.25-.15,1.99-.37,2.95-1.55,3.45-2.73,4.01-2.23,1.06-2.19,1.25-3.96,1.35-.76.04-2.01.59-2.54.68-1.55.26-1.55.27-1.68.28-1.06.14-1.53.55-2.51.71-1.26.2-1.26.22-2.53.22-.94,0-.93.03-1.71.19-.48.09-.7.02-2.48.49-.3.08-.74.09-.88.12q-.82.18-1.66.2c-.62,0-.76.13-1.4.23-1.2.18-1.16.5-3.09.44-2.2-.06-2.19.1-2.83.21-.41.08-.41,0-.83.1-1.33.27-1.34.17-3.08.1-.78-.04-2.56.23-3.08.21-1.27-.03-1.26.12-2.53.15-.98.03-.98-.02-1.96-.02-1.43,0-1.43.01-2.52-.19-1.09-.19-2.58.8-3.92.57-1.54-.26-1.54.1-3.1.15-1.92.05-1.98-.87-3.92-.37-.78.19-2.2.06-2.26.05-.83-.17-.83-.18-1.67-.21Z"/>
  <path class="st0" d="M255.95,219.56c.07,0,.45-.18,1.1-.2,1.17-.02,1.17.02,1.96.18.93.19,2.23-.14,2.8-.17.85-.04.82-.2,1.4-.26.72-.07.71-.06,1.42-.2,1.15-.22,2.1.11,5.33-.25,1.28-.13,1.29.08,2.54-.2.21-.05,1.84-.42,2.51-.63.26-.08,1.61-.39,1.96-.41.58-.03,2.43.07,3.11-.08.34-.07.33-.13,1.1-.17.71-.05.69-.18,1.4-.22,1.67-.11,3.25-.99,5.04-1.22.8-.1,2.8-.74,3.68-.91,2-.38,2.18-1.54,3.63-1.67.36-.04,1.16.17,1.44.71.31.62.22.65.19,3.67,0,1.1-.42,1.38-.1,2.77.02.1.36,1.99-.12,3.13-.43,1.03-1.09,1.26-1.94,1.74-1.58.91-1.68.68-4.25,1.59-.69.25-2.07.48-2.25.51-.09.02-.08.04-1.13.26-.73.15-2.48.89-3.34.94-2.5.15-2.44.49-3.35.66-.15.03-1.05.03-1.14.03-.53,0-1.08-.02-1.43.07-.68.18-.68.19-.8.21-1.01.14-.99.25-1.98.26-.96,0-2.29-.02-2.5.03-1.44.3-1.64.64-3.96.47-.89-.06-1.39.15-1.96.17-1,.03-.99.09-1.97.24-.23.03-.97.33-2.8.26-1-.04-.99.04-1.66.2-.64.14-.66-.07-1.98.21-1.1.24-2.58-.03-2.8-.07-.84-.15-.86-.02-1.68-.25-1.11-.31-2.48.14-2.52.14-.27.04-.7,0-1.43.1-2.3.32-2.3.16-5.04.18-1.28,0-2.44.24-4.19.05-1.85-.2-2.85.17-4.21-.2-.9-.23-1.83.02-1.98.06-1.06.28-2.11-.13-2.8-.14-1.5-.04-1.52.08-2.25-.17-.13-.04-1.03-.35-1.68-.37-.63,0-1.08.05-1.71-.08-1.11-.23-1.12-.13-2.23-.28-.76-.1-2.82.23-4.49,0-.18-.03-.18,0-2.22-.22-1.73-.18-1.79.24-3.94-.46-1.19-.39-2.38-.07-4.2-.57-1.61-.44-1.64-.26-2.53-.33-.35-.03-.87-.18-1.41-.2-1.13-.03-1.18.11-2.56-.49-1.46-.65-1.51-.43-2.22-.52-.81-.11-1.95-.62-3.64-.9-.92-.15-4.74-1.88-5.3-3.16-.36-.83-.33-2.95-.49-3.93-.23-1.48.17-1.61-.08-3.35-.23-1.58.17-2.09.28-2.23.21-.27,1-.69,1.91-.45,3.4.88,3.45,1.23,5.38,1.81,1.28.38,1.28.37,2.53.83.46.17,3.44.7,5.58,1.22.86.21,1.03-.04,3.94.27,1.24.13,1.25.01,1.97.21.83.24.85.07,1.69.25.83.19.85.09,1.68.29,1.75.43,2.04.23,2.79.37,2.08.4,3.19-.07,6.18.24.88.1,2.28,0,3.09.26,2.03.65,2.14.43,3.06.22.27-.06,1.71-.13,2.28,0,.89.2.89.19,2.23.19.89,0,.88.04,1.68.2.37.07,1.45.05,1.7.01.48-.08.46-.14,1.95-.31,1.03-.11,2.57.41,3.37.33.12-.01.11-.07,1.41-.24.84-.12.84-.27,1.67-.08,1.12.26,2.2-.06,3.36.06.71.07.71.03,1.42.14.8.13.79-.11,2.24-.11,1.05,0,1.98.02,2.26-.05Z"/>
  <path class="st0" d="M210.2,213.37c-.98-.02-1.69.37-3.06.11-.7-.14-.7-.09-1.39-.28-1.26-.36-1.24-.42-2.3-.62-.47-.09-.57-.19-1.1-.21-.71-.02-.7-.04-1.4-.19-.57-.12-.57-.07-1.14-.2-.13-.03-.14,0-1.68-.26-.85-.15-.84-.14-1.64-.45-.31-.13-.48-.28-1.73-.71-.22-.07-1.91-.41-1.4-1.46.2-.41,1.58-1.18,3.11-.87.17.03.18,0,2.22.38,1.8.32,1.84-.06,3.63.31.27.06.3.07,3.39.18.61.02.7-.08,1.41-.09,2.4-.03,2.59,0,2.81.03.97.13.97.11,1.95.01,1.05-.09,1.65.03,2.28-.11,2.18-.51,2.42.17,3.63-.02.99-.16.99-.09,1.97-.3,1.31-.28,2.45.35,3.88.08,2.06-.39,2.49.03,3.66-.22.84-.17.83-.16,1.68-.32.76-.14,1.73,0,2.27-.12,1.93-.42,1.95-.26,3.92-.2.85.03.83-.12,1.67-.25.73-.11,2.38-.68,3.1-.71.34,0,3.31-.13,4.19-.35.11-.03.11-.02,1.4-.34.6-.15.71-.27,1.14-.29.72-.02.93.08,1.97-.16.56-.13.57-.07,1.13-.23.81-.22.88.05,2.26-.21.47-.09.83-.11,1.09-.16.56-.13.56-.12,1.13-.19.75-.09.74-.21,1.68-.22,2.24-.01,2.63.21,4.2-.15.44-.1.89-.08,1.13-.09,1.69-.03,1.7.41,3.36.08.7-.14,3.04-.07,3.66-.19.18-.03.36-.08.54-.11.2-.04.55-.04.88-.12.7-.17.7-.12,1.4-.31.11-.03.11,0,1.4-.26.76-.15,2.68.12,4.17-.18,1.16-.24,1.43.01,2.27-.18,1.45-.33,1.45-.32,2.82-.78,1.5-.51,1.55-.24,2.81-.51.54-.12.55-.05,1.08-.19.83-.22.85-.09,1.69-.25.74-.15,1.24-.07,1.7-.22,1.26-.39,1.22-.52,3.11-1.03,1.12-.31,1.1-.36,2.2-.7.53-.17,2.11-.26,2.21,1.44.01.13.04,2.14-.07,2.78-.2,1.12-.17,1.12-.07,2.26.13,1.3-.39,2.17-1.62,3.52-.6.65-1.42.68-1.56.69-.4,0-.79-.09-1.94.32-.19.07-1.7.79-2.25.88-.21.04-.23-.02-.87.17-2.39.72-3.37.83-3.63.9-.69.19-.7.1-1.39.3-.18.05-.19.02-2.26.5-.12.03-.12-.02-1.41.24-.83.16-1.78-.11-3.33.18-.73.14-1.12.19-1.99.46-.89.27-.93-.06-2.25.27-1.18.3-1.37-.04-4.5.18-1.12.08-1.13-.15-2.23.11-.09.02-.09,0-1.13.22-1.3.3-1.88-.21-3.09,0-.84.15-.84.09-1.69.21-.83.12-1.64-.04-3.04.24-.31.06-.31.08-5.08.08-1.14,0-1.13-.03-1.97-.1-.86-.07-.86.1-2.8.1-1.54,0-1.54.08-3.08.08-1.04-.01-1.02.16-2.81.16s-1.9.02-2.27-.07c-2.05-.48-2.07-.34-3.07-.2-.3.04-3.22.05-3.62-.01-.48-.08-.52-.21-2.54-.18-.87.01-.98.21-1.97.08-.83-.11-.83-.04-1.65-.2-1-.19-1.02-.02-1.7-.17-2.12-.46-2.31.09-3.65-.04-.85-.09-.84-.1-1.69-.13-.7,0-.72-.2-1.68-.22-.99-.02-.97-.15-1.96-.27-.53-.07-.87-.22-1.12-.25-.57-.06-.57-.04-1.13-.19-1.9-.5-2.06-.5-2.25-.51Z"/>
  <path class="st0" d="M225.91,114.02c-1.2-.17-2.26.19-3.95-.19-.11-.03-.11.04-1.35-.21-.95-.2-3.85.01-4.52-.12-.18-.04-.36-.09-.54-.13-.34-.07-.99-.05-1.43-.18-1.24-.36-1.26-.29-2.51-.59-.22-.06-1.82-.44-2.81-.5-.55-.03-1.78.02-2.24-.06-.85-.13-.84-.15-1.69-.19-.1,0-.19,0-.29-.03-.56-.12-.55-.14-1.12-.22-.52-.07-.74-.2-1.1-.23-2.57-.27-4.22-1.74-5.91-1.63-1.93.11-1.85-.31-3.64-1.06-1.04-.43-1.08-.35-3.11-1.65-1.42-.91-1.11-1.19-1.71-3.39-.38-1.41-.44-1.44-.05-2.85.38-1.4.42-1.42.24-2.46-.12-.71-.04-.72-.2-1.42-.25-1.04-.27-3.15,1.73-2.51.75.24,2.84,1.56,3.09,1.66.23.1.23.07,2.84,1.05.1.04.75.28,1.38.3,1.22.05,1.21.1,3.33.73,2.85.85,3.35.91,4.8.97.58.02.79.18,1.69.22.85.04.82.22,1.68.23,1.36.02,1.38-.09,3.08.44,1.45.46,1.49.22,2.55.46,1.07.24,2.69-.03,3.6.18,2.04.49,2.71.01,3.68.17.4.07.44.14,1.12.2.4.04,1.21.27,1.67.24.65-.06,1.23-.44,2.82.11,2.56.87,2.71-.07,4.22.24,1.64.34,1.66.14,3.63.19,1.72.04,1.73-.11,2.55.06.95.21.96.15,1.93.22.38.02.38-.05,4.78-.05.98,0,.99.08,1.94-.14.99-.23,3.58-.02,4.52-.15,1.11-.14,1.11-.03,2.24-.04.55-.01,1.03-.11,1.39-.14.35-.02,1.12-.02,1.41-.02.84,0,.84-.02,1.68-.01,1.27.01,1.26.07,2.52.02.85-.04.83-.14,1.39-.24.43-.08,2.33.01,3.12-.13q.74-.14.82-.15c1.13-.08,1.12-.23,2.25-.24,2.02-.03,2.01-.12,2.54-.18.44-.06.6,0,1.37-.16.97-.19.99-.06,1.43-.15.69-.15,1.25-.36,1.95-.44.81-.09.9-.24,1.69-.27,1.54-.06,1.49-.41,2.53-.47,1.34-.09,1.44.27,3.65-.51,1.04-.36,2.74-.69,2.79-.69.59-.04.7.11,2-.4,1.34-.53,1.39-.6,3.36-1.07,1.73-.41,3.13-2,4.46-1.5,1.83.69.98,3.03,1.16,5.6.12,1.75-.04,1.74-.22,2.82-.2,1.15.63,2.47-1.53,3.57-.24.12-1.09.51-1.98,1.11-1.33.89-2.98,1.07-4.19,1.67-1.73.86-3.16.96-3.59,1.03-1.28.21-1.33,0-2.51.53-2.52,1.13-2.86.24-4.79.61-.09.02-.08.04-1.11.26-1.95.43-2.02-.08-3.36.29-1.01.28-1.72.57-2.56.59-1.03.02-1,.26-1.96.27-1.41.02-1.42-.07-2.8.2-.45.09-.54-.04-1.98.18-2.33.35-2.95-.2-4.78.28-1.47.39-1.49.21-3.91.26-.71.01-1.17.22-1.69.24-.89.04-3.3-.08-3.93.09-.69.2-.69.17-1.39.33-.71.17-1.16-.13-1.96-.15-.85-.02-.86.05-1.68-.17-.14-.04-.39-.11-1.7-.16-1.58-.06-2.85.21-4.21-.07-1.65-.35-1.66.13-3.36.14-1.31,0-1.3-.08-1.96-.21-.79-.16-1.96.19-3.35-.06-.11-.02-.89-.34-1.97-.13-.98.18-.99.09-1.98-.04Z"/>
  <path class="st0" d="M237.7,132.47c-.12-.02-1.94-.05-2.53.02-.72.09-1.97.3-2.82.12-.98-.21-.99-.1-1.97-.25-2.16-.34-2.82.19-5.57-.25-1.26-.2-1.26.1-2.54.12-2.07.02-2.06-.07-2.55-.16-.79-.15-.81,0-1.92-.21-.99-.19-1,.01-1.99-.15-.18-.03-.36-.07-.54-.1-.24-.04-1.05-.1-1.16-.13-.69-.18-.67-.24-1.37-.41-.28-.07-1.56-.22-1.7-.24-.65-.07-.67.03-2.22-.35-.97-.25-1.07-.31-1.99-.39-.46-.04-.7-.2-1.39-.22-.86-.03-.83-.22-1.68-.28-.74-.05-2.94-.67-3.66-.71-1.43-.1-1.4-.23-2.79-.61-.38-.11-1.89-.09-4.82-1.56-2.06-1.03-4.38-.9-4.37-4,0-1.64.37-1.71.18-2.81-.14-.84-.18-.83-.18-1.68,0-1.7-.36-1.7-.07-3.37.21-1.15-.34-3.04,1.38-3.22.23-.02.71-.07,2.76.83.67.29,1.48.93,2.29,1.08,3.07.56,4.68,1.13,4.76,1.15.63.15.73.25,1.13.27.72.05.71.08,1.41.22.57.11.58.01,1.15.16.11.03.11,0,1.39.29,1.38.32,1.39.21,2.8.26,1.06.04,4.63,1.21,5.61,1.23,1.2.03,1.21-.05,2.26.15.13.02.14,0,1.64.24,1.03.16,1.47-.1,2.25,0,.82.09.81.08,2,.33.55.12.54.17,1.1.23,1.15.13,1.58.51,3.93.1.13-.02.37-.07,1.69-.1.16-.01.32-.01,1.98.33,1.79.36,1.81.1,3.63.15,1.63.05,1.64.01,2.26.17.3.07,3.24.21,4.73-.04,1.68-.27,1.7.05,3.38-.25,2.23-.4,3.76.37,8.14.05,1.06-.08,1.05.1,3.09.1,1.26,0,1.25-.05,1.66-.15.44-.1.98-.11,1.16-.14,1.35-.25,1.35-.23,3.07-.08.87.07,1.51-.11,2.24-.12.99-.02.97-.1,1.95-.28,1.54-.28,1.66-.73,3.95-.69.88.02,1.38.36,2.21.14,1.55-.41,1.52-.59,3.12-.61.92-.01.9-.19,1.67-.24.57-.04.57-.06,1.12-.2.48-.12.82-.02,1.71-.17.83-.14.83-.13,1.67-.16.5-.01.47-.14,1.4-.22,2-.18,2.2-1.37,4.49-1.29,2.03.08,1.94-.38,3.89-1.05,1.71-.59,3.38-1.59,4.23-1.69.7-.08,1.67-.17,1.93.99.27,1.18-.41,1.99-.06,4.21.35,2.23-.08,2.26.28,4.49.14.85.06,2.23-.51,3.03-.5.71-1.19.81-2.44,1.76-.83.64-.98.8-1.98.87-1.04.07-2.33.73-3.93.9-.77.09-4.85,1.38-5.35,1.45-.69.1-.68.18-1.38.23-1.01.08-1.51.45-2.24.53-.86.1-.84.19-1.69.25-.59.04-.83.16-1.13.19-.55.05-.7-.03-2.5.41-.43.1-.43.07-.86.19-.82.24-1.19.02-2.26.21-.78.14-.77.19-1.95.19q-.85,0-1.68.18c-.57.13-.58.05-1.15.19-.99.26-3.73-.04-5.88.24-.95.12-.96.02-1.66.17-1.74.35-1.78-.01-2.82.2-.52.11-.51.15-1.13.19-.77.04-.85.21-1.68.2-1.68-.02-1.68.03-3.36.04-2.36.05-2.35-.21-3.36-.24-2.67-.08-2.67-.43-3.93-.16-2.06.43-3.76-.05-3.93-.07Z"/>
  <path class="st0" d="M289.91,131.76c1.57-.85,2.82-1.08,3.31-1.28.59-.24,3.3-1.76,3.34.92.02,1.25-.11,1.24-.18,1.69-.06.43-.04,1.98,0,2.24.09.98.03.98-.02,1.96-.06,1.28-.27,1.27-.15,2.54.25,2.69-1.33,3.51-2.43,4.44-1.7,1.43-2.76.87-4.14,1.5-1.39.64-1.39.67-3.39.88-1.27.14-2.83,1.16-5.06,1.17-1.15,0-1.15.05-2.21.5-2.09.87-2.56.2-4.21.58-.71.17-.72.08-1.15.18-.2.04-.39.1-.58.14-.2.04-.83,0-1.39.11l-.27.06c-1.03.2-2.2-.12-3.65.28-.84.24-1.51,0-2.54.22-.84.17-.84.08-1.69.24-1.26.23-1.29-.04-2.54.25-.41.1-.6.08-1.08.14-1.24.17-1.67-.04-3.07.32-.72.19-2.4.04-3.96.1-1.12.05-1.12-.01-2.24-.01-.99.01-.97.25-1.96.26s-.98-.01-1.97-.02c-.28.01-.28.02-.56.02-1.15.02-1.63.46-2.81.17-.83-.21-.85-.1-1.67-.33-.99-.26-8.76.04-9.85-.17q-.88-.17-2.5-.17c-2.24,0-2.24.01-3.1-.16-.62-.13-1.93.02-2.77-.14-.71-.14-.71-.09-1.43-.18-1.55-.19-1.61.1-2.78-.1-1.47-.24-1.91.04-2.83-.18-.7-.18-.71-.07-1.41-.26-.96-.25-.98-.1-1.95-.34-.7-.17-.71,0-1.43-.14-1.37-.26-2.58-.51-2.81-.56-.54-.11-.55,0-1.09-.12-1.29-.29-1.29-.24-1.4-.28q-.43-.11-.86-.16c-.53-.06-.53-.19-1.39-.26-.3-.03-.7.21-3.67-.61-1.95-.54-2.46-.56-2.77-.67-.12-.04-.22-.08-.33-.12-.2-.06-1.23-.4-2.48-.5-1.03-.09-2.86-.83-3.44-1.23-1.93-1.32-2.71-1.15-3.34-3.45-.34-1.22.26-1.38.16-3.38-.09-1.74-.01-3.35-.04-4.49-.02-.46-.64-2.57.46-3.12,1.31-.65,2.85.41,3.98.78,2.46.79,2.98,1.31,5.31,1.69.29.04,1.77.49,1.97.52,1.27.2,1.27.22,1.38.22,1.14.07,1.12.23,2.25.24.72,0,.71.04,1.42.17,1.27.22,1.27.19,2.53.5,1.24.3,1.92.31,2.23.39,1,.26,1.02.08,1.69.23,2.51.58,2.54.36,3.89.71.97.25.99.11,3.67.12,1,0,.97.23,1.96.24,1.15.02,1.13.18,2.26.28.78.06.76.23,1.67.24,3.57.03,3.56-.05,4.21-.13.43-.05.86.11,1.4.13,1.13.03,1.13-.01,2.24.19.46.07,3.4.15,4.21-.04.97-.22.98-.15,1.97-.15,1.51,0,1.51.26,2.24.13,1.05-.18,1.05-.16,1.14-.18.7-.16.73-.26,2.49.27,1.68.51,1.71.11,2.55.04.99-.08.99,0,1.96.18.13.03.88.17,1.66-.07.18-.05,1.77-.53,2.25-.59.34-.04,4.06.19,4.51.13,1.19-.17,1.19-.21,2.81-.11,1.2.08,1.92-.36,2.51-.52,1-.26,3.47.18,5.35-.15.76-.13.77-.05,1.38-.16,1.25-.24,1.26-.17,2.53-.17.76-.01,2.31-.37,2.51-.41.56-.14.58-.04,1.13-.21.56-.18.58-.08,1.14-.25.58-.17.73-.14,1.13-.23,1.65-.36,1.69.04,2.82-.23,2.86-.66,2.83-.76,3.08-.82,1.79-.4,1.8-.3,1.96-.34,2.53-.58,2.96-.6,3.94-1.12Z"/>
  <path class="st0" d="M230.11,154.74c.93.23.95-.04,3.1.2,1.32.15,1.31-.09,2.24-.11,2.1-.04,2.1.08,2.25.11,1.46.29,1.87-.24,3.09-.03,1.66.28,1.67.07,3.35.16.78.04.97.25,1.95.06,1.8-.33,1.81-.39,2.56-.2.15.04,1.07.27,1.93.18.58-.06.58.02,1.15-.1q.82-.18,2.24-.18c1.21,0,1.21,0,1.95-.2.94-.24,1.58.23,3.39-.18.82-.18.82.07,1.67.08,1.57.04,1.56-.02,3.08-.43.07-.02.07.02.87-.17.97-.24,1.78.03,2.75-.21,1.39-.33,1.99.13,3.66-.25.56-.13.57-.07,1.13-.23.4-.11.67-.08,1.14-.21,1.51-.41,2.54.07,3.93-.28.57-.15.58-.08,1.14-.25,1.85-.55,2.18-.22,3.31-.47.11-.03,1.01-.23,1.45-.33.69-.15.68-.17,1.38-.24.59-.05,1.9-.55,1.92-.56,2.12-.85,2.29-.37,4.33-1.4,3.45-1.74,3.8-1.7,4.15-1.66.16.02,1.21.15,1.33,1.52,0,.11.03,1.58-.02,1.95-.03.22-.38,1.43-.38,2.54.01,1.87-.11,1.88.11,2.82.43,1.93-.23,2.93-.37,3.14-.21.32-1.12,1.68-4.02,2.54-.7.21-1.18.09-2.58.7-.66.3-.65.35-4.72,1.25-1,.22-.99.23-1.98.51-.26.08-.27.04-.54.11-1.17.33-2.21.88-3.11.89-1.2.01-1.72-.05-2.25.09-.69.18-.69.15-1.39.32-.62.15-1.22.05-1.71.17-.54.13-.54.12-1.09.2-.71.1-.69.17-1.41.23-.55.05-.64.2-1.41.21-1.61.02-3-.05-3.63.08-.71.14-.7.13-1.42.15-.68.02-1.04.19-1.97.23-.63.03-.74.12-1.1.18-.47.07-1.45.05-1.98.05q-2.29,0-3.64.22c-1.05.18-1.07-.03-2.53.23-1.88.33-2.54-.35-3.94-.04-2.08.46-2.22-.44-3.93-.01-1.39.35-3.13,0-3.91.07-.81.07-.85.07-10.11.07-1.21,0-1.19-.15-1.95-.22-.28-.02-.45.02-1.14-.12-1.11-.22-1.11.06-2.23.08-1.13.02-1.12-.07-1.67-.2-.46-.1-2.68-.05-3.39-.18-.85-.14-.85-.08-1.69-.28-1.35-.32-2.35.22-3.1.07-1.52-.29-1.55-.8-3.06-.84-.38-.01-2.39-.3-2.54-.34-1.75-.48-2.13.16-4.19-.35-1.67-.43-1.64-.56-3.37-.67-1.94-.11-1.9-.31-3.39-.92-1.38-.56-1.61-.14-4.48-1.15-.67-.24-.69-.16-1.38-.36-.34-.09-2.38-.14-3.36-.83,0,0-1.66-1.46-1.99-2.21-.13-.29-.47-1.37-.47-2.53-.01-4.47.07-4.48-.16-5.59-.05-.27-.25-2.13.13-2.8.06-.12.34-.91,1.65-.7.76.13.95.55,3.09,1.13,1.8.49,1.87,1.03,4.19,1.23.53.05.52.11,1.13.2,1.64.25,2.41,1.4,4.2,1.44,1.56.03,1.57-.07,3.09.28,1.11.25,1.12.17,2.24.34,1.53.22,1.57-.06,3.05.39,2.12.65,2.23.32,4.52.49.46.03.84.17,1.13.19,1.58.1,2.83-.08,3.63.09,3.24.68,3.35.3,5.07.4.6.04.69.22,1.39.24,2.02.04,2.04-.19,3.64.2Z"/>
  <path class="st0" d="M240.79,184.3c-2.77-.06-3.12.02-3.39.08-.87.19-.87.18-2.79.18-1.33,0-1.34.05-1.7-.05-.16-.04-1.54-.41-1.95-.41-.85,0-1.04.41-3.07.22-2.25-.2-2.97.16-4.22-.17-2.58-.69-3.36-.76-3.65-.78-.86-.08-.84-.23-1.96-.24-1.57,0-1.57.03-2.26.07-.82.06-.81-.02-1.95-.07-.83-.03-.81-.22-1.96-.24h-.56c-.79-.01-.8-.19-1.39-.26-.86-.1-.84-.21-1.7-.27-.57-.03-.55-.15-1.12-.21-.19-.02-.37-.02-.56-.04-.31-.03-.61-.15-1.13-.18-1.29-.08-1.26-.26-2.54-.48-.7-.12-.69-.16-1.4-.27-.61-.1-2.42-.89-3.63-.93-.7-.03-.7-.01-1.38-.14-1.08-.22-1.35-.02-3.17-.88-2.37-1.12-4.24-1.13-4.85-2.6-.24-.58-.3-.65-.41-2.3-.05-.75.07-.74.07-2.25,0-1.97-.02-1.97-.18-2.78-.01-.07-.19-1.45.06-2.28.2-.7.5-1.89,2.28-1.65.96.13,1.83,1.11,3.12,1.58.74.27,3.1.99,3.32,1.02.29.05.44-.03,1.14.16.95.26,2.8.67,3.05.72.56.13.56.1,1.13.24s.59.03,1.15.18c.7.18.72.05,1.41.26.13.04.18.06,1.67.36.6.12.6.03,1.42.18,1.17.21,1.48.02,2.2.18,1.69.39,1.7.35,2,.37.53.03,1.12.19,1.68.23,1.01.06,2.06.02,2.24.01,1.89-.08,2.67.81,4.77.69,1.27-.07,1.26.04,2.53.07.87.02.96.2,1.68.22,1.86.06,2.51-.12,3.67.14,1.05.24,1.09-.07,2.75.24.22.04,1.86.23,3.14-.05,1.75-.39,2.03.38,4.21.01.37-.06.37-.12,2.23.13.84.11.83.22,1.68.22,2.46.02,2.6-.02,2.83-.07,1.09-.25,1.09-.16,2.21-.24,1.55-.1,2.47.28,3.96-.05,1.45-.32,1.46.12,3.62.12,1.54,0,2.11-.59,3.08-.62.42,0,2.06.43,2.8.35,1.04-.11,1.94-.52,3.38-.5,1.55.03,2.52-.4,3.65-.38.29,0,2.97.04,3.66-.12.9-.22,1.82-.48,1.98-.52.04-.01,1.43-.3,1.65-.32.31-.02,1.45.02,2.23-.12,1.22-.22,1.21-.26,1.97-.52.55-.19.56-.13,1.12-.28.8-.21.82.01,1.99-.18,1.52-.24,1.56.01,3.04-.45,1.14-.37,1.13-.39,2.23-.85,1.57-.66,1.65-.46,3.19-1.17.83-.38,1.25-.35,2.39-1.35,1.39-1.24,3.04-.45,3.12,1.49.08,1.9-.31,2.45-.12,3.63.32,1.95-.07,2.04-.1,3.1-.07,1.86.31,2.67-.8,3.98-.21.25-1.01,1.19-3.43,2.19-.51.21-1.44.33-2.8.84-1.37.52-1.41.37-2.26.48-.09.01-.08.04-1.09.23-1.29.23-2.4,1.17-3.95,1.17-2.29,0-2.31-.06-3.39.29-2.02.67-2.06.47-4.18.47-1.04,0-1.03.03-2.54.4-.52.12-1.18,0-1.93.15-1.81.34-1.84-.03-4.23.21-1.67.17-1.69-.22-3.35.06-2.36.4-2.85.36-3.1.34-1.61-.12-1.61-.08-3.08.16-.74.11-1.42-.42-2.81,0-1.06.3-1.79-.09-3.09.27-.53.14-.65.09-.83.12-1.11.19-1.12.29-2.23.07-.57-.12-.56-.14-1.13-.27-.04,0-1.08-.13-1.99-.04-2,.2-2.55-.27-3.35-.29Z"/>
  <path class="st0" d="M220.03,205.06c-.86-.05-.86-.1-1.71,0-1.39.16-1.39-.01-2.79-.06-2.32-.07-2.32-.09-2.52-.08-1.22.08-1.22.06-3.09.06-.99.01-.99.04-1.97.19-.42.06-.41.05-5.32.04-1.05,0-1.04-.08-1.7-.2-.24-.04-.24-.03-3.07-.02-1.3,0-1.3.31-2.51.1-1.6-.27-1.93.03-2.82-.18q-.56-.13-1.13-.19c-.37-.04-.66-.16-1.4-.15-.98.01-.98-.06-1.97-.09-.85-.02-.88-.19-1.67-.1-1.13.13-1.12-.06-2.26-.17-.98-.1-.96-.23-1.95-.23-2.56,0-2.55-.18-4.21-.17-.29,0-3.03,0-3.63-.1-.71-.12-.7-.13-1.42-.22-1.95-.27-1.96-.16-3.93-.19-.47,0-1.98-.31-2.23-.38-.58-.15-.81-.09-1.7-.07-1.49.03-2.15-.25-2.51-.3-.57-.07-.56-.09-1.12-.21-.1,0-.19-.02-.29-.03-.18-.02-.37-.01-.55-.03-.09,0-.84-.19-1.42-.21-.18,0-.37,0-.56,0-1.04-.04-1.28-.72-4.49-1.03-.39-.04-.9.1-1.4.11-1.44.02-2.03-.44-3.64-.73-.72-.13-2.06-.43-2.26-.45-.99-.09-.97-.16-2-.53-1.01-.36-1.1-.23-1.65-.35-1.54-.34-3.88-.5-4.53-1.71-.55-1.03-.33-1.91-.49-2.56-.09-.34-.2-.33-.15-1.97.02-.52.3-1.01.22-2.24-.02-.33-.54-1.91.11-2.85.92-1.31,2.97-.24,3.69.13,1.09.57,1.46.14,3.14.37s1.74-.11,3.33.46c2.21.79,2.33.14,3.67.49,1.04.27,1.06.1,3.37.16.87.02,2.69.82,3.91.62,2.12-.34,2.57-.08,3.42.24,1.2.44,1.23.31,4.17.32,1.55,0,2.61.88,3.94.72.97-.12.97-.15,1.94-.04.95.11,3.13-.02,3.95.2,1.19.31,1.46-.03,3.09.25,1.72.29,1.79-.1,2.79-.11.28-.01,2.05.34,3.09.31.56-.02.56-.03,1.12-.05,1.22-.04,1.45.39,4.48.09.8-.08,1.74.08,2.25.05.87-.03,1.1-.42,6.18.02.71.06.71.08,1.41.2.07.02,2.56.11,2.79.1,1.13-.07,1.14.01,2.26-.21.54-.11,1.58-.08,1.94,0,.38.09.37.24,3.65.13,1.64-.05,1.97.22,3.67-.13.71-.14,2.27.03,3.33-.15,1.65-.27,4.61-.04,6.46-.29.98-.13.99-.03,1.96-.25.8-.19,4.47,0,5.08-.11.56-.1.54-.27,1.95-.22,1.28-.05,1.27-.13,2.53-.42.75-.17,3.88.01,5.62-.2,1.36-.17,1.37.02,2.49-.2,1.51-.29,1.9,0,2.82-.19.57-.12.57-.11,1.14-.18.35-.04,1.16-.37,1.96-.63.75-.25,2.13-.3,2.54.53.61,1.23-.29,2.9-.13,4.8q.06.69.06,1.39c.02,1.2.67,2.85-.38,4.04-1.3,1.47-3.65,1.62-4.36,1.73-1.26.2-1.3,0-2.52.36-.76.23-.74.29-2.22.64-1,.24-1.56-.25-3.09.26-1.99.67-2.65.14-3.97.4-1.23.24-1.24.21-1.35.23-1.11.26-1.12.11-2.25.29-1.32.2-1.71,0-2.82.18-1.55.26-1.56.22-1.69.25-.78.21-.79.15-1.68.12-1.67-.06-2.57.41-3.92.47-2.84.12-2.84.18-3.08.16Z"/>
  <path d="M102.39,202.97c.05.13.4,1.03.73,1.61,1.06,1.83,1.03,2.78,1.32,3.69.06.2.59,1.89.64,2.52.04.58.04.57.16,1.14.14.64.01,1.92.12,2.5q.16.75.17,1.7c0,1.56.16,1.55.15,2.8-.01,1.78.28,5.33-.11,8.42-.11.83.04.85-.16,1.72-.12.58-.11,2.08-.45,3.32-.04.13-.32,1.15-.25,1.69.08.63.22,1.74,3.09,2.54,1.34.38,1.58.23,2.01.12,1.1-.27,1.58-.17,2.77-.96.13-.09.66-.44,1.32-1.47,2.02-3.18,1.7-4.01,1.72-4.16.07-.75.73-2.13.78-2.28.52-1.4-.04-3.54-.04-3.62-.06-.7-.05-.69-.22-1.37-.19-.74.05-.77-.21-1.98-.25-1.17.12-3.23-.17-4.52-.19-.83-.1-.84-.24-1.68-.23-1.38-.06-1.4-.23-2.2-.16-.71-.05-.72-.22-1.42-.32-1.33-.39-1.3-.74-2.27-.59-1.66-.22-1.8-1.45-3.92-.83-1.43-.56-1.6-1.68-2.82-1.04-1.13-1.22-2.33-3.43-3.27-3.05-1.3-3.89-1.05-4.46-1.04h-.84c-1.23.04-2.27,1.22-1.9,2.36.41,1.24,1.2,1.25,1.82,2.85ZM279.49,169.54c-.76.26-.75.3-1.97.52-.78.14-1.92.1-2.23.12-.22.02-1.61.31-1.65.32-.16.04-1.08.3-1.98.52-.69.16-3.37.12-3.66.12-1.13-.02-2.1.41-3.65.38-1.44-.02-2.34.39-3.38.5-.74.08-2.38-.36-2.8-.35-.97.03-1.54.62-3.08.62-2.16,0-2.17-.44-3.62-.12-1.49.33-2.41-.05-3.96.05-1.12.08-1.12-.01-2.21.24-.23.05-.37.09-2.83.07-.85,0-.84-.11-1.68-.22-1.86-.25-1.86-.19-2.23-.13-2.18.37-2.46-.4-4.21-.01-1.28.28-2.92.09-3.14.05-1.66-.31-1.7,0-2.75-.24-1.16-.26-1.81-.08-3.67-.14-.72-.02-.81-.2-1.68-.22-1.27-.03-1.26-.14-2.53-.07-2.1.12-2.88-.77-4.77-.69-.18.01-1.23.05-2.24-.01-.56-.04-1.15-.2-1.68-.23-.3-.02-.31.02-2-.37-.72-.16-1.03.03-2.2-.18-.82-.15-.82-.06-1.42-.18-1.49-.3-1.54-.32-1.67-.36-.69-.21-.71-.08-1.41-.26-.56-.15-.58-.04-1.15-.18s-.57-.11-1.13-.24c-.25-.05-2.1-.46-3.05-.72-.7-.19-.85-.11-1.14-.16-.22-.03-2.58-.75-3.32-1.02-1.29-.47-2.16-1.45-3.12-1.58-1.78-.24-2.08.95-2.28,1.65-.25.83-.07,2.21-.06,2.28.16.81.19.81.18,2.78,0,1.51-.12,1.5-.07,2.25.11,1.65.17,1.72.41,2.3.61,1.47,2.48,1.48,4.85,2.6,1.82.86,2.09.66,3.17.88.68.13.68.11,1.38.14,1.21.04,3.02.83,3.63.93.71.11.7.15,1.4.27,1.28.22,1.25.4,2.54.48.52.03.82.15,1.13.18.19.02.37.02.56.04.57.06.55.18,1.12.21.86.06.84.17,1.7.27.59.07.6.25,1.39.26h.56c1.15.02,1.13.21,1.96.24,1.14.05,1.13.13,1.95.07.69-.04.69-.07,2.26-.07,1.12.01,1.1.16,1.96.24.29.02,1.07.09,3.65.78,1.25.33,1.97-.03,4.22.17,2.03.19,2.22-.21,3.07-.22.41,0,1.79.37,1.95.41.36.1.37.05,1.7.05,1.92,0,1.92.01,2.79-.18.27-.06.62-.14,3.39-.08.8.02,1.35.49,3.35.29.91-.09,1.95.03,1.99.04.57.13.56.15,1.13.27,1.11.22,1.12.12,2.23-.07.18-.03.3.02.83-.12,1.3-.36,2.03.03,3.09-.27,1.39-.41,2.07.12,2.81,0,1.47-.24,1.47-.28,3.08-.16.25.02.74.06,3.1-.34,1.66-.28,1.68.11,3.35-.06,2.39-.24,2.42.13,4.23-.21.75-.14,1.41-.03,1.93-.15,1.51-.37,1.5-.4,2.54-.4,2.12,0,2.16.2,4.18-.47,1.08-.35,1.1-.29,3.39-.29,1.55,0,2.66-.94,3.95-1.17,1.01-.19,1-.22,1.09-.23.85-.11.89.04,2.26-.48,1.36-.51,2.29-.63,2.8-.84,2.42-1,3.22-1.94,3.43-2.19,1.11-1.31.73-2.12.8-3.98.03-1.06.42-1.15.1-3.1-.19-1.18.2-1.73.12-3.63-.08-1.94-1.73-2.73-3.12-1.49-1.14,1-1.56.97-2.39,1.35-1.54.71-1.62.51-3.19,1.17-1.1.46-1.09.48-2.23.85-1.48.46-1.52.21-3.04.45-1.17.19-1.19-.03-1.99.18-.56.15-.57.09-1.12.28ZM251.72,118.48c-4.38.32-5.91-.45-8.14-.05-1.68.3-1.7-.02-3.38.25-1.49.25-4.43.11-4.73.04-.62-.16-.63-.12-2.26-.17-1.82-.05-1.84.21-3.63-.15-1.66-.34-1.82-.34-1.98-.33-1.32.03-1.56.08-1.69.1-2.35.41-2.78.03-3.93-.1-.56-.06-.55-.11-1.1-.23-1.19-.25-1.18-.24-2-.33-.78-.1-1.22.16-2.25,0-1.5-.24-1.51-.22-1.64-.24-1.05-.2-1.06-.12-2.26-.15-.98-.02-4.55-1.19-5.61-1.23-1.41-.05-1.42.06-2.8-.26-1.28-.29-1.28-.26-1.39-.29-.57-.15-.58-.05-1.15-.16-.7-.14-.69-.17-1.41-.22-.4-.02-.5-.12-1.13-.27-.08-.02-1.69-.59-4.76-1.15-.81-.15-1.62-.79-2.29-1.08-2.05-.9-2.53-.85-2.76-.83-1.72.18-1.17,2.07-1.38,3.22-.29,1.67.07,1.67.07,3.37,0,.85.04.84.18,1.68.19,1.1-.17,1.17-.18,2.81-.01,3.1,2.31,2.97,4.37,4,2.93,1.47,4.44,1.45,4.82,1.56,1.39.38,1.36.51,2.79.61.72.04,2.92.66,3.66.71.85.06.82.25,1.68.28.69.02.93.18,1.39.22.92.08,1.02.14,1.99.39,1.55.38,1.57.28,2.22.35.14.02,1.42.17,1.7.24.7.17.68.23,1.37.41.11.03.92.09,1.16.13.18.03.36.07.54.1.99.16,1-.04,1.99.15,1.11.21,1.13.06,1.92.21.49.09.48.18,2.55.16,1.28-.02,1.28-.32,2.54-.12,2.75.44,3.41-.09,5.57.25.98.15.99.04,1.97.25.85.18,2.1-.03,2.82-.12.59-.07,2.41-.04,2.53-.02.17.02,1.87.5,3.93.07,1.26-.27,1.26.08,3.93.16,1.01.03,1,.29,3.36.24,1.68-.01,1.68-.06,3.36-.04.83.01.91-.16,1.68-.2.62-.04.61-.08,1.13-.19,1.04-.21,1.08.15,2.82-.2.7-.15.71-.05,1.66-.17,2.15-.28,4.89.02,5.88-.24.57-.14.58-.06,1.15-.19q.83-.18,1.68-.18c1.18,0,1.17-.05,1.95-.19,1.07-.19,1.44.03,2.26-.21.43-.12.43-.09.86-.19,1.8-.44,1.95-.36,2.5-.41.3-.03.54-.15,1.13-.19.85-.06.83-.15,1.69-.25.73-.08,1.23-.45,2.24-.53.7-.05.69-.13,1.38-.23.5-.07,4.58-1.36,5.35-1.45,1.6-.17,2.89-.83,3.93-.9,1-.07,1.15-.23,1.98-.87,1.25-.95,1.94-1.05,2.44-1.76.57-.8.65-2.18.51-3.03-.36-2.23.07-2.26-.28-4.49-.35-2.22.33-3.03.06-4.21-.26-1.16-1.23-1.07-1.93-.99-.85.1-2.52,1.1-4.23,1.69-1.95.67-1.86,1.13-3.89,1.05-2.29-.08-2.49,1.11-4.49,1.29-.93.08-.9.21-1.4.22-.84.03-.84.02-1.67.16-.89.15-1.23.05-1.71.17-.55.14-.55.16-1.12.2-.77.05-.75.23-1.67.24-1.6.02-1.57.2-3.12.61-.83.22-1.33-.12-2.21-.14-2.29-.04-2.41.41-3.95.69-.98.18-.96.26-1.95.28-.73,0-1.37.19-2.24.12-1.72-.15-1.72-.17-3.07.08-.18.03-.72.04-1.16.14-.41.1-.4.15-1.66.15-2.04,0-2.03-.18-3.09-.1ZM266.3,188.01c-.97.19-.98.17-4.76.17-2.32,0-4.12-.27-4.36,2.15-.14,1.4-.39,1.41-.1,2.5.16.61.11.63.22,1.14.15.69.04.69-.08,1.38-.27,1.62-.15,1.63-.1,1.97.24,1.69-.08,1.81.23,2.53.56,1.33,2.56.9,2.79.85.69-.15.72-.03,1.43-.17.18-.04.35-.08.53-.11,1.03-.18,2.21.19,3.95-.19.41-.09,1.93-.1,2.48,0q.87.17,1.73-.03c1.7-.4,1.63-.84,4.75-.86.66,0,.84-.15,1.68-.17,1.88-.05,2.85-.55,3.66-.67.7-.1.7-.12,1.4-.23.27-.04.53.03,1.11-.12.73-.18.74-.13,1.13-.16.51-.02,1.11-.21,1.68-.25.43-.03.46.11,1.93-.49.92-.38.92-.36,1.71-.53,1.73-.36,1.83.04,3.42-.71,1.38-.65,2.78-.48,3.32-1.5.97-1.85-1.14-2.76-1.36-2.88-1.94-1.12-1.99-1.01-2.56-1.12-2.15-.42-2.32-.62-3.07-.84-.43-.12-.45-.04-.88-.15-.83-.2-.83-.19-1.67-.21-1.13-.02-2.44-.43-3.08-.47-1.62-.09-1.62-.1-3.63-.58-1.07-.26-4.62.15-7.62-.39-.13-.02-1.13-.48-2.5-.07-.55.17-.82.13-1.68.13-.69,0-1.24-.02-1.7.07ZM207.14,213.48c1.37.26,2.08-.13,3.06-.11.19,0,.35,0,2.25.51.56.15.56.13,1.13.19.25.03.59.18,1.12.25.99.12.97.25,1.96.27.96.02.98.21,1.68.22.85.03.84.04,1.69.13,1.34.13,1.53-.42,3.65.04.68.15.7-.02,1.7.17.82.16.82.09,1.65.2.99.13,1.1-.07,1.97-.08,2.02-.03,2.06.1,2.54.18.4.06,3.32.05,3.62.01,1-.14,1.02-.28,3.07.2.37.09.43.07,2.27.07s1.77-.17,2.81-.16c1.54,0,1.54-.08,3.08-.08,1.94,0,1.94-.17,2.8-.1.84.07.83.1,1.97.1,4.77,0,4.77-.02,5.08-.08,1.4-.28,2.21-.12,3.04-.24.85-.12.85-.06,1.69-.21,1.21-.21,1.79.3,3.09,0,1.04-.23,1.04-.2,1.13-.22,1.1-.26,1.11-.03,2.23-.11,3.13-.22,3.32.12,4.5-.18,1.32-.33,1.36,0,2.25-.27.87-.27,1.26-.32,1.99-.46,1.55-.29,2.5-.02,3.33-.18,1.29-.26,1.29-.21,1.41-.24,2.07-.48,2.08-.45,2.26-.5.69-.2.7-.11,1.39-.3.26-.07,1.24-.18,3.63-.9.64-.19.66-.13.87-.17.55-.09,2.06-.81,2.25-.88,1.15-.41,1.54-.31,1.94-.32.14-.01.96-.04,1.56-.69,1.23-1.35,1.75-2.22,1.62-3.52-.1-1.14-.13-1.14.07-2.26.11-.64.08-2.65.07-2.78-.1-1.7-1.68-1.61-2.21-1.44-1.1.34-1.08.39-2.2.7-1.89.51-1.85.64-3.11,1.03-.46.15-.96.07-1.7.22-.84.16-.86.03-1.69.25-.53.14-.54.07-1.08.19-1.26.27-1.31,0-2.81.51-1.37.46-1.37.45-2.82.78-.84.19-1.11-.06-2.27.18-1.49.3-3.41.03-4.17.18-1.29.26-1.29.23-1.4.26-.7.19-.7.14-1.4.31-.33.08-.68.08-.88.12-.18.03-.36.08-.54.11-.62.12-2.96.05-3.66.19-1.66.33-1.67-.11-3.36-.08-.24.01-.69,0-1.13.09-1.57.36-1.96.14-4.2.15-.94,0-.93.13-1.68.22-.57.07-.57.06-1.13.19-.26.05-.62.07-1.09.16-1.38.26-1.45-.01-2.26.21-.56.16-.57.1-1.13.23-1.04.24-1.25.14-1.97.16-.43.02-.54.14-1.14.29-1.29.32-1.29.31-1.4.34-.88.22-3.85.34-4.19.35-.72.03-2.37.6-3.1.71-.84.13-.82.28-1.67.25-1.97-.06-1.99-.22-3.92.2-.54.12-1.51-.02-2.27.12-.85.16-.84.15-1.68.32-1.17.25-1.6-.17-3.66.22-1.43.27-2.57-.36-3.88-.08-.98.21-.98.14-1.97.3-1.21.19-1.45-.49-3.63.02-.63.14-1.23.02-2.28.11-.98.1-.98.12-1.95-.01-.22-.03-.41-.06-2.81-.03-.71,0-.8.11-1.41.09-3.09-.11-3.12-.12-3.39-.18-1.79-.37-1.83,0-3.63-.31-2.04-.37-2.05-.35-2.22-.38-1.53-.31-2.91.46-3.11.87-.51,1.05,1.18,1.39,1.4,1.46,1.25.43,1.42.58,1.73.71.8.31.79.3,1.64.45,1.54.27,1.55.23,1.68.26.57.13.57.08,1.14.2.7.15.69.17,1.4.19.53.02.63.12,1.1.21,1.06.2,1.04.26,2.3.62.69.19.69.14,1.39.28ZM91.81,215.01c.18.78-.05,1.2.18,2.54.18,1.12.1,1.13.37,2.23.3,1.24.21,1.25.19,2.52-.02,1.94-.11,1.95.17,3.35.02.09.05.23.09,1.14,0,.71.04.71-.13,1.41-.38,1.53.24,1.8-.51,4.78-.33,1.27-.2,1.81-.16,1.96.04.18.27,1.1,1.3,1.81.24.16,2.01,1.05,3.01.76,1.69-.49,2.79-1.78,3.2-2.18,1.33-1.31.49-1.78,1.66-4.85.58-1.52.47-1.59.35-2.55-.22-1.68.3-1.7.03-3.37-.02-.08-.16-1.27-.03-2,.17-.96.16-.97.02-1.93-.11-.71-.06-.71-.25-1.4-.07-.25-.18-1.46-.17-1.7.03-1.09.33-1.95.34-2.24.06-1.7-.13-1.71-.49-2.78-.78-2.34-.12-2.77-.31-3.65-.28-1.32-.46-1.25-1.51-3.7-.1-.24-.67-1.56-1.71-2.8-.62-.75-.72-.64-2.8-2.27-.86-.68-.92-.58-1.99-.82-.27-.06-.65-.14-3.38-.09-.57.01-.56.07-1.37.24-1.7.36-1.82,1.35-1.84,1.54-.19,1.56,1.16,1.79,2.56,4.28,1.26,2.23,1.37,2.2,2.17,5.53.61,2.51.74,2.48.82,3.1.07.57.06.57.19,1.14ZM248.65,248.06c1.34.23,2.83-.76,3.92-.57,1.09.2,1.09.18,2.52.19.98,0,.98.05,1.96.02,1.27-.03,1.26-.18,2.53-.15.52.02,2.3-.25,3.08-.21,1.74.07,1.75.17,3.08-.1.42-.09.42-.02.83-.1.64-.11.63-.27,2.83-.21,1.93.06,1.89-.26,3.09-.44.64-.1.78-.22,1.4-.23q.84-.02,1.66-.2c.14-.03.58-.04.88-.12,1.78-.47,2-.4,2.48-.49.78-.16.77-.19,1.71-.19,1.27,0,1.27-.02,2.53-.22.98-.16,1.45-.57,2.51-.71.13,0,.13-.02,1.68-.28.53-.09,1.78-.64,2.54-.68,1.77-.1,1.73-.29,3.96-1.35,1.18-.56,2.36-1.06,2.73-4.01.09-.74.34-1.04.15-1.99-.21-.97-.15-.97-.3-1.95-.23-1.41.47-2.25-.12-3.91-.04-.1-.31-.87-1.08-.97-1.56-.2-2.18.89-3.9,1.38-1.44.41-1.44.37-2.28.71-1.46.58-1.5.45-2.5.66s-1.25.06-1.72.15c-.4.07-1.79.42-2.23.44-.85.03-.83.15-1.68.27-.54.09-.54.18-1.12.26-.71.11-.69.2-1.41.23-.14.01-.18.01-1.68.26-.49.08-.48.13-1.13.19-.72.06-.69.19-1.41.23-.7.04-.69.04-1.38.19-.62.13-.65-.07-1.69.22-1.2.33-2.49-.16-4.21.28-.91.22-1.09-.05-3.09.07-1.27.08-1.55-.13-3.09.17-.85.16-.86.03-1.71.19-1.22.25-6.59,0-6.71.02-2.38.16-3.16.8-4.78.46-2.23-.48-2.76.18-4.47-.08-1.26-.18-1.99,0-3.07-.14-1.82-.24-1.83-.12-3.66-.02-1.41.07-1.4-.2-2.81-.12-1.83.1-1.83.18-3.64-.04-.44-.05-.42-.11-.86-.18-1.77-.28-1.8.17-3.9-.16-.85-.14-.86-.04-1.69-.23-1.04-.22-1.52.04-2.53-.03-1.35-.1-1.34-.13-1.68-.22-1.08-.31-1.29.11-2.81-.29-.05,0-1.04-.24-1.13-.26-.81-.19-1.65.08-3.1-.17-1.4-.24-1.43.04-2.81-.3-.82-.21-.81-.24-1.67-.28-.6-.03-.99-.19-1.67-.22-.99-.04-.97-.15-1.96-.29-.37-.05-.8-.21-1.12-.24-.54-.04-.54-.02-1.14-.17-.56-.13-.57-.07-1.14-.22-1-.26-1.02-.17-2.76-.69-1.05-.32-1.21-.53-1.98-.81-2.76-1.02-3.53-1.27-4.51-.86-1.36.57-.92,2.71-.92,2.85.03,1.5-.05,1.49-.16,1.97-.28,1.24-.16,2.07-.13,2.25.03.2-.05.21.28,2.52.31,2.18,1.92,2.27,5.16,3.63,1.8.75,2.44.67,4.23,1.35.63.24,1.48.43,1.65.44.18.01.68-.02,1.15.1,1.65.44,1.63.6,3.34.6,1.88,0,2.13-.02,2.52.07,1.12.26,1.11.34,2.25.39,1.64.08,2.78.77,3.93.77,1.2.01,1.21-.04,1.99.13,1.15.26,1.56-.09,3.6.23,1.36.21,1.96-.23,3.69.36,1.6.54,2.05.03,3.92.26,1.11.13,1.11-.04,2.23-.05,3.1,0,3.12,0,3.39.05.27.07.25.12.52.17,1.42.26,1.82.2,1.98.17.84-.14.83-.11,1.69-.13.84.03.84.04,1.67.21.06,0,1.48.14,2.26-.05,1.94-.5,2,.42,3.92.37,1.56-.05,1.56-.41,3.1-.15ZM296.55,149.36c-.12-1.37-1.17-1.5-1.33-1.52-.35-.04-.7-.08-4.15,1.66-2.04,1.03-2.21.55-4.33,1.4-.02.01-1.33.51-1.92.56-.7.07-.69.09-1.38.24-.44.1-1.34.3-1.45.33-1.13.25-1.46-.08-3.31.47-.56.17-.57.1-1.14.25-1.39.35-2.42-.13-3.93.28-.47.13-.74.1-1.14.21-.56.16-.57.1-1.13.23-1.67.38-2.27-.08-3.66.25-.97.24-1.78-.03-2.75.21-.8.19-.8.15-.87.17-1.52.41-1.51.47-3.08.43-.85-.01-.85-.26-1.67-.08-1.81.41-2.45-.06-3.39.18-.74.19-.74.2-1.95.2q-1.42,0-2.24.18c-.57.12-.57.04-1.15.1-.86.09-1.78-.14-1.93-.18-.75-.19-.76-.13-2.56.2-.98.19-1.17-.02-1.95-.06-1.68-.09-1.69.12-3.35-.16-1.22-.21-1.63.32-3.09.03-.15-.03-.15-.15-2.25-.11-.93.02-.92.26-2.24.11-2.15-.24-2.17.03-3.1-.2-1.6-.39-1.62-.16-3.64-.2-.7-.02-.79-.2-1.39-.24-1.72-.1-1.83.28-5.07-.4-.8-.17-2.05.01-3.63-.09-.29-.02-.67-.16-1.13-.19-2.29-.17-2.4.16-4.52-.49-1.48-.45-1.52-.17-3.05-.39-1.12-.17-1.13-.09-2.24-.34-1.52-.35-1.53-.25-3.09-.28-1.79-.04-2.56-1.19-4.2-1.44-.61-.09-.6-.15-1.13-.2-2.32-.2-2.39-.74-4.19-1.23-2.14-.58-2.33-1-3.09-1.13-1.31-.21-1.59.58-1.65.7-.38.67-.18,2.53-.13,2.8.23,1.11.15,1.12.16,5.59,0,1.16.34,2.24.47,2.53.33.75,1.98,2.21,1.99,2.21.98.69,3.02.74,3.36.83.69.2.71.12,1.38.36,2.87,1.01,3.1.59,4.48,1.15,1.49.61,1.45.81,3.39.92,1.73.11,1.7.24,3.37.67,2.06.51,2.44-.13,4.19.35.15.04,2.16.33,2.54.34,1.51.04,1.54.55,3.06.84.75.15,1.75-.39,3.1-.07.84.2.84.14,1.69.28.71.13,2.93.08,3.39.18.55.13.54.22,1.67.2,1.12-.02,1.12-.3,2.23-.08.69.14.86.1,1.14.12.76.07.74.22,1.95.22,9.26,0,9.3,0,10.11-.07.78-.07,2.52.28,3.91-.07,1.71-.43,1.85.47,3.93.01,1.4-.31,2.06.37,3.94.04,1.46-.26,1.48-.05,2.53-.23q1.35-.22,3.64-.22c.53,0,1.51.02,1.98-.05.36-.06.47-.15,1.1-.18.93-.04,1.29-.21,1.97-.23.72-.02.71,0,1.42-.15.63-.13,2.02-.06,3.63-.08.77-.01.86-.16,1.41-.21.72-.06.7-.13,1.41-.23.55-.08.55-.07,1.09-.2.49-.12,1.09-.02,1.71-.17.7-.17.7-.14,1.39-.32.53-.14,1.05-.08,2.25-.09.9-.01,1.94-.56,3.11-.89.27-.07.28-.03.54-.11.99-.28.98-.29,1.98-.51,4.07-.9,4.06-.95,4.72-1.25,1.4-.61,1.88-.49,2.58-.7,2.9-.86,3.81-2.22,4.02-2.54.14-.21.8-1.21.37-3.14-.22-.94-.1-.95-.11-2.82,0-1.11.35-2.32.38-2.54.05-.37.03-1.84.02-1.95ZM221.96,113.83c1.69.38,2.75.02,3.95.19.99.13,1,.22,1.98.04,1.08-.21,1.86.11,1.97.13,1.39.25,2.56-.1,3.35.06.66.13.65.21,1.96.21,1.7-.01,1.71-.49,3.36-.14,1.36.28,2.63,0,4.21.07,1.31.05,1.56.12,1.7.16.82.22.83.15,1.68.17.8.02,1.25.32,1.96.15.7-.16.7-.13,1.39-.33.63-.17,3.04-.05,3.93-.09.52-.02.98-.23,1.69-.24,2.42-.05,2.44.13,3.91-.26,1.83-.48,2.45.07,4.78-.28,1.44-.22,1.53-.09,1.98-.18,1.38-.27,1.39-.18,2.8-.2.96-.01.93-.25,1.96-.27.84-.02,1.55-.31,2.56-.59,1.34-.37,1.41.14,3.36-.29,1.03-.22,1.02-.24,1.11-.26,1.93-.37,2.27.52,4.79-.61,1.18-.53,1.23-.32,2.51-.53.43-.07,1.86-.17,3.59-1.03,1.21-.6,2.86-.78,4.19-1.67.89-.6,1.74-.99,1.98-1.11,2.16-1.1,1.33-2.42,1.53-3.57.18-1.08.34-1.07.22-2.82-.18-2.57.67-4.91-1.16-5.6-1.33-.5-2.73,1.09-4.46,1.5-1.97.47-2.02.54-3.36,1.07-1.3.51-1.41.36-2,.4-.05,0-1.75.33-2.79.69-2.21.78-2.31.42-3.65.51-1.04.06-.99.41-2.53.47-.79.03-.88.18-1.69.27-.7.08-1.26.29-1.95.44-.44.09-.46-.04-1.43.15-.77.15-.93.1-1.37.16-.53.06-.52.15-2.54.18-1.13.01-1.12.16-2.25.24q-.08.01-.82.15c-.79.14-2.69.05-3.12.13-.56.1-.54.2-1.39.24-1.26.05-1.25-.01-2.52-.02-.84-.01-.84.01-1.68.01-.29,0-1.06,0-1.41.02-.36.03-.84.13-1.39.14-1.13.01-1.13-.1-2.24.04-.94.13-3.53-.08-4.52.15-.95.22-.96.14-1.94.14-4.4,0-4.4.07-4.78.05-.97-.07-.98-.01-1.93-.22-.82-.17-.83-.02-2.55-.06-1.97-.05-1.99.15-3.63-.19-1.51-.31-1.66.63-4.22-.24-1.59-.55-2.17-.17-2.82-.11-.46.03-1.27-.2-1.67-.24-.68-.06-.72-.13-1.12-.2-.97-.16-1.64.32-3.68-.17-.91-.21-2.53.06-3.6-.18-1.06-.24-1.1,0-2.55-.46-1.7-.53-1.72-.42-3.08-.44-.86-.01-.83-.19-1.68-.23-.9-.04-1.11-.2-1.69-.22-1.45-.06-1.95-.12-4.8-.97-2.12-.63-2.11-.68-3.33-.73-.63-.02-1.28-.26-1.38-.3-2.61-.98-2.61-.95-2.84-1.05-.25-.1-2.34-1.42-3.09-1.66-2-.64-1.98,1.47-1.73,2.51.16.7.08.71.2,1.42.18,1.04.14,1.06-.24,2.46-.39,1.41-.33,1.44.05,2.85.6,2.2.29,2.48,1.71,3.39,2.03,1.3,2.07,1.22,3.11,1.65,1.79.75,1.71,1.17,3.64,1.06,1.69-.11,3.34,1.36,5.91,1.63.36.03.58.16,1.1.23.57.08.56.1,1.12.22.1.02.19.03.29.03.85.04.84.06,1.69.19.46.08,1.69.03,2.24.06.99.06,2.59.44,2.81.5,1.25.3,1.27.23,2.51.59.44.13,1.09.11,1.43.18.18.04.36.09.54.13.67.13,3.57-.08,4.52.12,1.24.25,1.24.18,1.35.21ZM296.56,217.53c.03-3.02.12-3.05-.19-3.67-.28-.54-1.08-.75-1.44-.71-1.45.13-1.63,1.29-3.63,1.67-.88.17-2.88.81-3.68.91-1.79.23-3.37,1.11-5.04,1.22-.71.04-.69.17-1.4.22-.77.04-.76.1-1.1.17-.68.15-2.53.05-3.11.08-.35.02-1.7.33-1.96.41-.67.21-2.3.58-2.51.63-1.25.28-1.26.07-2.54.2-3.23.36-4.18.03-5.33.25-.71.14-.7.13-1.42.2-.58.06-.55.22-1.4.26-.57.03-1.87.36-2.8.17-.79-.16-.79-.2-1.96-.18-.65.02-1.03.19-1.1.2-.28.07-1.21.05-2.26.05-1.45,0-1.44.24-2.24.11-.71-.11-.71-.07-1.42-.14-1.16-.12-2.24.2-3.36-.06-.83-.19-.83-.04-1.67.08-1.3.17-1.29.23-1.41.24-.8.08-2.34-.44-3.37-.33-1.49.17-1.47.23-1.95.31-.25.04-1.33.06-1.7-.01-.8-.16-.79-.2-1.68-.2-1.34,0-1.34.01-2.23-.19-.57-.13-2.01-.06-2.28,0-.92.21-1.03.43-3.06-.22-.81-.26-2.21-.16-3.09-.26-2.99-.31-4.1.16-6.18-.24-.75-.14-1.04.06-2.79-.37-.83-.2-.85-.1-1.68-.29-.84-.18-.86,0-1.69-.25-.72-.2-.73-.08-1.97-.21-2.91-.31-3.08-.06-3.94-.27-2.14-.52-5.12-1.05-5.58-1.22-1.25-.46-1.25-.45-2.53-.83-1.93-.58-1.98-.93-5.38-1.81-.91-.24-1.7.18-1.91.45-.11.14-.51.65-.28,2.23.25,1.74-.15,1.87.08,3.35.16.98.13,3.1.49,3.93.56,1.28,4.38,3.01,5.3,3.16,1.69.28,2.83.79,3.64.9.71.09.76-.13,2.22.52,1.38.6,1.43.46,2.56.49.54.02,1.06.17,1.41.2.89.07.92-.11,2.53.33,1.82.5,3.01.18,4.2.57,2.15.7,2.21.28,3.94.46,2.04.21,2.04.19,2.22.22,1.67.22,3.73-.11,4.49,0,1.11.15,1.12.05,2.23.28.63.13,1.08.07,1.71.08.65.02,1.55.33,1.68.37.73.25.75.13,2.25.17.69.01,1.74.42,2.8.14.15-.04,1.08-.29,1.98-.06,1.36.37,2.36,0,4.21.2,1.75.19,2.91-.05,4.19-.05,2.74-.02,2.74.14,5.04-.18.73-.11,1.16-.06,1.43-.1.04,0,1.41-.45,2.52-.14.82.23.84.1,1.68.25.22.04,1.7.31,2.8.07,1.32-.28,1.34-.07,1.98-.21.67-.16.66-.24,1.66-.2,1.83.07,2.57-.23,2.8-.26.98-.15.97-.21,1.97-.24.57-.02,1.07-.23,1.96-.17,2.32.17,2.52-.17,3.96-.47.21-.05,1.54-.03,2.5-.03.99,0,.97-.12,1.98-.26.12-.02.12-.03.8-.21.35-.09.9-.07,1.43-.07.09,0,.99,0,1.14-.03.91-.17.85-.51,3.35-.66.86-.05,2.61-.79,3.34-.94,1.05-.22,1.04-.24,1.13-.26.18-.03,1.56-.26,2.25-.51,2.57-.91,2.67-.68,4.25-1.59.85-.48,1.51-.71,1.94-1.74.48-1.14.14-3.03.12-3.13-.32-1.39.09-1.67.1-2.77ZM138.61,197.36c.65,1.21,2.99,1.37,4.53,1.71.55.12.64-.01,1.65.35,1.03.37,1.01.44,2,.53.2.02,1.54.32,2.26.45,1.61.29,2.2.75,3.64.73.5,0,1.01-.15,1.4-.11,3.21.31,3.45.99,4.49,1.03.19,0,.38,0,.56,0,.58.02,1.33.2,1.42.21.18.02.37.01.55.03.1,0,.19.02.29.03.56.12.55.14,1.12.21.36.05,1.02.33,2.51.3.89-.02,1.12-.08,1.7.07.25.07,1.76.38,2.23.38,1.97.03,1.98-.08,3.93.19.72.09.71.1,1.42.22.6.11,3.34.1,3.63.1,1.66-.01,1.65.16,4.21.17.99,0,.97.13,1.95.23,1.14.11,1.13.3,2.26.17.79-.09.82.08,1.67.1.99.03.99.1,1.97.09.74,0,1.03.11,1.4.15q.57.06,1.13.19c.89.21,1.22-.09,2.82.18,1.21.21,1.21-.1,2.51-.1,2.83-.01,2.83-.02,3.07.02.66.12.65.19,1.7.2,4.91.01,4.9.02,5.32-.04.98-.15.98-.18,1.97-.19,1.87,0,1.87.02,3.09-.06.2-.01.2,0,2.52.08,1.4.05,1.4.22,2.79.06.85-.09.85-.04,1.71,0,.24.02.24-.04,3.08-.16,1.35-.06,2.25-.53,3.92-.47.89.03.9.09,1.68-.12.13-.03.14.01,1.69-.25,1.11-.18,1.5.02,2.82-.18,1.13-.18,1.14-.03,2.25-.29.11-.02.12,0,1.35-.23,1.32-.26,1.98.27,3.97-.4,1.53-.51,2.09-.02,3.09-.26,1.48-.35,1.46-.41,2.22-.64,1.22-.37,1.26-.16,2.52-.36.71-.11,3.06-.26,4.36-1.73,1.05-1.19.4-2.84.38-4.04q0-.7-.06-1.39c-.16-1.9.74-3.57.13-4.8-.41-.83-1.79-.78-2.54-.53-.8.26-1.61.59-1.96.63-.57.07-.57.06-1.14.18-.92.2-1.31-.1-2.82.19-1.12.22-1.13.03-2.49.2-1.74.21-4.87.03-5.62.2-1.26.29-1.25.37-2.53.42-1.41-.05-1.39.12-1.95.22-.61.11-4.28-.08-5.08.11-.97.22-.98.12-1.96.25-1.85.25-4.81.02-6.46.29-1.06.18-2.62.01-3.33.15-1.7.35-2.03.08-3.67.13-3.28.11-3.27-.04-3.65-.13-.36-.07-1.4-.1-1.94,0-1.12.22-1.13.14-2.26.21-.23.01-2.72-.08-2.79-.1-.7-.12-.7-.14-1.41-.2-5.08-.44-5.31-.05-6.18-.02-.51.03-1.45-.13-2.25-.05-3.03.3-3.26-.13-4.48-.09-.56.02-.56.03-1.12.05-1.04.03-2.81-.32-3.09-.31-1,0-1.07.4-2.79.11-1.63-.28-1.9.06-3.09-.25-.82-.22-3-.09-3.95-.2-.97-.11-.97-.08-1.94.04-1.33.16-2.39-.71-3.94-.72-2.94-.01-2.97.12-4.17-.32-.85-.32-1.3-.58-3.42-.24-1.22.2-3.04-.6-3.91-.62-2.31-.06-2.33.11-3.37-.16-1.34-.35-1.46.3-3.67-.49-1.59-.57-1.65-.23-3.33-.46s-2.05.2-3.14-.37c-.72-.37-2.77-1.44-3.69-.13-.65.94-.13,2.52-.11,2.85.08,1.23-.2,1.72-.22,2.24-.05,1.64.06,1.63.15,1.97.16.65-.06,1.53.49,2.56ZM231.78,150.86c1.09.21,8.86-.09,9.85.17.82.23.84.12,1.67.33,1.18.29,1.66-.15,2.81-.17.28,0,.28-.01.56-.02.99.01.98.03,1.97.02s.97-.25,1.96-.26c1.12,0,1.12.06,2.24.01,1.56-.06,3.24.09,3.96-.1,1.4-.36,1.83-.15,3.07-.32.48-.06.67-.04,1.08-.14,1.25-.29,1.28-.02,2.54-.25.85-.16.85-.07,1.69-.24,1.03-.22,1.7.02,2.54-.22,1.45-.4,2.62-.08,3.65-.28l.27-.06c.56-.11,1.19-.07,1.39-.11.19-.04.38-.1.58-.14.43-.1.44,0,1.15-.18,1.65-.38,2.12.29,4.21-.58,1.06-.45,1.06-.49,2.21-.5,2.23-.01,3.79-1.03,5.06-1.17,2-.21,2-.24,3.39-.88,1.38-.63,2.44-.07,4.14-1.5,1.1-.93,2.68-1.75,2.43-4.44-.12-1.27.09-1.26.15-2.54.05-.98.11-.98.02-1.96-.03-.26-.05-1.81,0-2.24.07-.45.2-.44.18-1.69-.04-2.68-2.75-1.16-3.34-.92-.49.2-1.74.43-3.31,1.28-.98.52-1.41.54-3.94,1.12-.16.04-.17-.06-1.96.34-.25.06-.22.16-3.08.82-1.13.27-1.17-.13-2.82.23-.4.09-.55.06-1.13.23-.56.17-.58.07-1.14.25-.55.17-.57.07-1.13.21-.2.04-1.75.4-2.51.41-1.27,0-1.28-.07-2.53.17-.61.11-.62.03-1.38.16-1.88.33-4.35-.11-5.35.15-.59.16-1.31.6-2.51.52-1.62-.1-1.62-.06-2.81.11-.45.06-4.17-.17-4.51-.13-.48.06-2.07.54-2.25.59-.78.24-1.53.1-1.66.07-.97-.18-.97-.26-1.96-.18-.84.07-.87.47-2.55-.04-1.76-.53-1.79-.43-2.49-.27-.09.02-.09,0-1.14.18-.73.13-.73-.13-2.24-.13-.99,0-1-.07-1.97.15-.81.19-3.75.11-4.21.04-1.11-.2-1.11-.16-2.24-.19-.54-.02-.97-.18-1.4-.13-.65.08-.64.16-4.21.13-.91-.01-.89-.18-1.67-.24-1.13-.1-1.11-.26-2.26-.28-.99-.01-.96-.24-1.96-.24-2.68-.01-2.7.13-3.67-.12-1.35-.35-1.38-.13-3.89-.71-.67-.15-.69.03-1.69-.23-.31-.08-.99-.09-2.23-.39-1.26-.31-1.26-.28-2.53-.5-.71-.13-.7-.17-1.42-.17-1.13-.01-1.11-.17-2.25-.24-.11,0-.11-.02-1.38-.22-.2-.03-1.68-.48-1.97-.52-2.33-.38-2.85-.9-5.31-1.69-1.13-.37-2.67-1.43-3.98-.78-1.1.55-.48,2.66-.46,3.12.03,1.14-.05,2.75.04,4.49.1,2-.5,2.16-.16,3.38.63,2.3,1.41,2.13,3.34,3.45.58.4,2.41,1.14,3.44,1.23,1.25.1,2.28.44,2.48.5.11.04.21.08.33.12.31.11.82.13,2.77.67,2.97.82,3.37.58,3.67.61.86.07.86.2,1.39.26q.43.05.86.16c.11.04.11-.01,1.4.28.54.12.55.01,1.09.12.23.05,1.44.3,2.81.56.72.13.73-.03,1.43.14.97.24.99.09,1.95.34.7.19.71.08,1.41.26.92.22,1.36-.06,2.83.18,1.17.2,1.23-.09,2.78.1.72.09.72.04,1.43.18.84.16,2.15.01,2.77.14.86.17.86.16,3.1.16q1.62,0,2.5.17ZM141.19,181.92c-1.83,0-1.77,1.13-1.69,1.38.35,1.09,2.19,1.02,2.54,1.09.83.17.82.18,1.68.19,1.07.01,1.13.16,1.67.21.71.08.7.08,1.41.22.7.14,1.56-.08,2.83.14,1.73.3,3.44-.04,4.45.18,1.38.31,1.4.13,2.81.3,1.31.15,1.3.15,1.42.17,2.06.46,2.42-.04,3.65.28,1.15.3,1.18.07,1.97.24.18.04.35.1.53.13.51.11,1.57-.04,2.56.13,1.3.24,1.3.21,1.41.24.96.18.97.13,5.3.13,1.14.01,1.12.14,1.7.2.71.07.71.09,1.41.23.39.08,2.67-.04,3.35.1.97.19.97.14,1.96.07,1.32-.1,2.59.83,3.94.58,1.24-.23,1.24-.2,2.51-.19,1.47.02,1.64.52,4.2.09.92-.15,3.64.16,4.22.3,1.29.3,4.16-.13,5.36.2,1.72.49,1.73.7,3.06.41,1.02-.21,1.12.05,2.27-.19,1.4-.29,2.76.06,3.88-.17.84-.18.84-.14,1.7-.17.73-.03,1.31-.44,1.31-.9,0-1.01-2.12-1.02-2.16-1.02-.31-.02-1.9-.35-1.96-.37-1.22-.38-1.63-.39-2.81-.53-1.8-.21-1.81-.02-2.5-.14-1.29-.23-1.29-.22-1.4-.24-2.41-.59-2.79-.34-3.95-.41-.44-.03-1.76-.28-1.97-.36-1.93-.67-1.96-.54-3.94-1.04-2.14-.54-2.19-.41-4.2-1.47-1.12-.59-1.05-.72-2.2-1.22-2.08-.89-1.82-1.31-3.15-2.12-.8-.49-2.29-.65-3.05-.64-.86.01-.85-.05-1.69-.12-.14,0-1.18-.1-1.67-.07-2.11.14-2.11.08-4.22.08-.22,0-1.15-.01-1.42.03-.18.03-.47.15-.81.2-1.3.22-1.5.35-2.54.2-.98-.14-.98-.09-1.96-.1-.2,0-2.08-.1-2.26-.13-.83-.12-.83-.07-1.66.04-.57.07-.56.09-1.12.22-.13.02-.77.06-.84.07-1.56.16-1.58-.2-3.11.13-.42.09-1.23.12-2,.82-1.52,1.37-1.59,1.32-3.06,1.67-.15.04-1.74.41-1.93.45-.11.02-1.34.24-1.41.24-.58.05-.58.04-1.14.16-.73.15-3.81.06-7.28.08ZM230.95,97.77c2,.47,5.58-.54,8.98.02,1.05.18,1.06.06,1.71.13.97.1.98.34,2.22.06.92-.21,3.51.04,4.51-.19,1.66-.38,3.4.06,5.34-.24.75-.12.75-.14,2.78-.13,1.33,0,1.31.19,1.97.19.17,0,1.78-.18,2.28-.3.56-.13.93-.09,1.36-.16,2.15-.32,2.38-.01,3.64-.3,1.06-.24,1.71-.04,2.27-.17.11-.02,1.15-.25,1.4-.32,1.52-.47,1.8-.39,3.07-.39,1.45,0,1.48.1,2.85-.36,3.05-1.03,3.43-.26,5-.7.75-.21.77-.06,1.42-.23.72-.2.74-.1,1.41-.27,1.05-.27,2.63-.58,3.04-.7,2.46-.7,2.52-.54,3.62-1.13,1.51-.8,1.57-.64,3.09-1.4,1.29-.64,1.48-.33,2.33-.65,1.07-.39.93-1.58.76-2.03-.21-.6-1.27-1.37-1.35-1.43-1.07-.67-1-.83-2.57-1.27-2.57-.73-2.55-.79-2.78-.83-.71-.13-.69-.21-1.4-.29-1.89-.2-2.34-1.13-3.91-1.14-1-.02-1.01-.01-2.22-.47-.98-.37-2.1-.46-2.86-.66-1.77-.46-1.79-.35-3.61-.5-1.53-.12-1.51-.27-1.98-.31-.98-.08-.98-.07-1.95-.2-.84-.13-.86,0-1.69-.22-2.64-.69-4.7-.09-6.21-.43-.55-.12-.81-.12-1.07-.18-.97-.24-.98-.13-1.97-.29-1.52-.25-2.11.38-4.21.01-.84-.16-.85-.06-1.7-.16-3.67-.41-3.7-.1-4.5-.27-1.02-.22-1.02-.21-2.23-.2-.96,0-1.15.16-1.96.09-1.82-.16-1.82-.12-1.98-.14-1.4-.13-1.39.03-2.79.07-1.08.03-1.08-.09-3.37.02-.48.03-1.23-.02-1.68.06-2.44.44-2.45.12-3.64.15-1.41.05-1.4.02-2.81.02-1.23.01-1.29-.04-1.96.14-.6.16-.65.04-1.42.21-.96.21-.97.12-3.35.14-.99,0-.97.19-1.96.14-.18-.01-1.35-.06-2.24.13-.97.21-.98.11-1.97.24-1.26.17-1.26.16-2.53.16-1.57,0-1.53.23-2.78.49-1.05.22-1.04.25-1.14.26-1.56.19-1.55.23-1.69.24-.85.07-.84.08-1.67.28-1.25.3-1.27.09-2.53.26-.1.01-.84.11-1.14.18-1.45.36-1.43.46-2.52.5-.66.02-2.31.59-3.08.68-1.95.24-2.49.62-3.13,1.07-1.56,1.1-2.45.44-4.11,1.55-1.35.89-1.34.91-1.59,1.22-1.03,1.31.42,2.46.68,2.64,1.02.7,1.72.85,2.28,1.04,1.31.47,1.2.76,3.32,1.27q.09.02.88.1c.61.07,2.47.86,3.07.96.11.02,1.37.22,1.41.22.85.08.83.16,2.78.68.64.17,1.4-.05,2.27.18.67.18,1.53.21,3.68.73.86.21,1.5,0,2.47.19.84.16.86.07,1.69.26.68.16.68.1,1.42.14.5.02.94.24,1.68.25.42.01.41,0,.84.01.71.01.69.19,1.39.24,1,.06.98.23,1.97.25,3.1.04,3.11-.14,4.5.15.68.14.69.01,1.37.15,1.26.24,1.28.03,2.54.24.98.17,1,.02,1.96.25ZM139.78,163.9c-.8.02-.97.22-1.68.23-2.13.03-2.12-.18-2.8-.19-.68-.02-.67.1-1.69.2-.38.04-.86.2-1.39.22-1.13.02-1.13.01-2.26.12-1.61.16-1.63.05-2.78.39-2.36.72-2.72.36-3.92.61-.86.18-.87.15-1.71.42-1.34.42-2.13.42-3.58,1.5-2,1.48-2.69,1.49-4.22,2.52-1,.68-1.13.57-2.27,1.91-.64.75-.66.74-1.31,1.49-.82.93-.74,1.23-1.86,2.35-1.57,1.56-1.03,1.89-2.98,5.97-1,2.09-.57,2.6-.88,3.63-.68,2.22-.24,2.38-.39,4.2-.04.48-.2.62-.21,1.41-.03,2.24.11,2.7,3.39,3.67.48.14,1.18.02,2.22.58.28.15,2.17,1.17,3.27,2.32.11.12.76.8,1.29,1.53.59.79.73,1.5,1.51,2.39,1.2,1.39.9,2.23,2.01,4.42.41.82.48,1.5.49,1.63.06.65.5,2.3.83,3.7.15.64.28,1.23.34,1.65.11.74.22.79.23,1.39.01.19,0,.37.01.56,0,.85.1.84.27,1.67.11.52.22.76.25,1.13.09,1.81.16,3.46.39,4.52,0,.01.19,1.72.17,2.23-.01.11-.03.11-.11,1.39-.06.96-.4,1.22-.44,3.38-.02,1.25-.35,1.35-.5,2.22-.22,1.18-.87,3.35-1.35,4.19-.32.54-2.04,3.17-4.14,3.98-2.16.84-2.58,1.11-4.21,1.01-.49-.03-.79-.21-1.4-.13-1.12.15-2.04.36-3.16-.2-1.57-.78-1.69-1.24-3.03-1.08-1.27.15-3.01,1.75-4.45,2.17-.12.04-.44.32-2.83.25-2.51-.07-2.93-.99-5.03-1.33-1.84-.29-3.49,1.38-5.07,1.55-1.32.14-2-.09-3.07.09-1.9.32-2.37-.54-3.68-1.19-2.69-1.34-3.12-2.84-3.72-3.62-.81-1.06-.85-1.05-1.16-1.99-.05-.14-.08-.13-.62-1.75-.22-.64-.59-3.26-.71-3.88-.18-.87-.01-1.16-.36-2.23-.31-.97-.31-.98-.32-2.56-.02-1.51-.38-1.63-.02-3.91.09-.57.09-.56.24-1.12.06-.22.04-2.43,1.63-2.55.82-.07,2.04.58,2.49,1.98.19.62.29.71.26,2.8-.02.99-.21.97-.22,1.96-.03,2.79.09,2.79.18,3.38.18,1.22-.34,2.05.88,5.34.52,1.41.99,3.1,3.46,4.69.77.5,2.76,1.04,3.34.95,1.04-.16,3.01-1.3,3.63-2.3.74-1.17.99-1.76,1.42-3.64.19-.84-.11-2.18.2-3.66.04-.2.13-.61.09-2.51,0-.86-.2-.99-.22-1.69-.04-1.68.08-1.68-.18-3.34-.03-.2-.04-.4-.07-.59-.06-.51-.19-.73-.23-1.1-.1-1.14-.24-1.12-.28-2.26-.01-.31-.36-1.87-.39-1.98-.02-.08-.28-1.43-.45-2.2-.18-.84-.03-.86-.22-1.7-.34-1.47-.57-1.39-1-2.84-.53-1.79-.83-1.62-2.06-3.03-1.14-1.31-1.28-2.27-5-2.94-1.23-.22-2.92-1.07-4.84,0-.38.21-.38.19-.74.45-.8.58-1.86.8-3.09,1.94-.88.81-.97.71-1.32,1.18-.37.49-.38.47-.77.96-.78.97-.79,1.02-2.3,5.06-.21.57-.31.72-.6,2.59-.08.55-.14.54-.23,1.09-.06.31-.23.77-.26,1.13-.08.85-.2.83-.26,1.69-.01.11-.04.1-.25,1.39-.13.76-.41,1.32-.42,2.26,0,3.8.08,3.81-.14,5.04-.24,1.41.1,1.93-.25,3.93-.17.99.08,1.64.14,2.24.07.86.24.83.25,1.69.02,2.03-.11,2.04.16,3.38.14.65,0,1.01.17,2.21.39,2.7-.21,2.77.53,5.61.32,1.25.3,1.26.33,2.55-.05,1.42.11,1.4.21,1.95.18,1.04-.2,1.23.21,3.1.02.09.04.18.05.27.15,1.29.27,1.27.48,2.54.08.44.13.42.19.85.05.35-.03.36.16,1.1.22.87.25,2.33.26,2.53.03,1.61.59,1.51.87,3.64.08.57.13.56.19,1.14.05.52.21.86.22,1.4.02,1.14.07,1.13.27,2.26.03.2.63,2.33,1.01,3.03.61,1.11,1.69,1.28,2.73,1.48,1.02.2,1.64-.1,1.97-.13,1.41-.14,1.39-.26,2.81-.26,1.7,0,1.7-.23,3.38-.03,1.15.14,2.39-.15,3.9.16,1.22.25,2.24-.45,3.94-.29.36.04,1.52.28,3.64.1.71-.06.71.04,1.42.06,1.12.02,1.12-.03,2.22.14,1.63.26,1.62-.12,2.82-.14,3.12-.04,3.11.24,4.5.12s1.39-.11,2.8-.12c1.03-.01,1.32-.26,2.51-.1,2.2.3,2.47-.11,3.93.22,1.58.36,2.84-.13,3.38-.1.64.03.62.23,1.96.22,3.04-.02,3.05.1,3.94-.13,2.81-.7,2.94-.1,4.76-.06.62.02,1.71-.16,3.08.02,1.01.14,1.01-.2,3.09-.02.16,0,.59.04,1.95-.08.16-.02,1.04-.1,1.98.07,1.12.21,1.11.19,2.24.2.96.01,1.52.33,3.06-.02.11-.02.85-.19,1.18-.69.2-.32.27-.3,1.06-3.12.52-1.84.48-1.85,1.16-3.63.8-2.08.6-2.14,1.36-4.22.17-.47.35-1.46.8-2.55.78-1.92.45-2,.72-3.03.5-1.89,1.11-3.17,1.23-3.43.48-1.01.55-1.77.57-1.93.07-.71.14-.7.24-1.41.15-1.03.39-.96,1.3-3.89.63-2.03.61-2.03.73-2.57.49-2.1.73-2.02,1.1-3.09.42-1.26.03-1.68.96-3.6.55-1.12.66-1.36.71-2.27.05-1.16.83-2.79,1-3.63.12-.57.15-.56.24-1.13.07-.47.13-.46.2-1.13.17-1.64,1.04-2.8,1.52-5.32.54-2.83,1.38-3.1,1.63-5.34.18-1.6.78-2.57.91-2.76,1.18-1.88.9-3.42,1.05-3.97.55-2.12,1.34-2.24,1.14-3.65-.13-.96-1.36-1.89-2.83-1.72-1.43.17-1.72-.11-3.1-.45-.09-.02-.09,0-1.09-.16-1.53-.24-1.56.04-3.08-.3-.56-.13-.57-.08-1.13-.22-.69-.18-.72-.06-1.41-.27-.52-.15-1.41-.11-1.71-.03-1.51.42-1.94,2.27-2.15,2.89-1.58,4.87-2.21,4.59-2.67,5.85-.37,1.01-.22,1.54-1.1,2.5-1.22,1.33-1.05,2.16-1.97,3.37-.84,1.1-.96,1.97-2.21,3.39-1.78,2.02-1.61,2.33-3.32,2.9-2.3.76-2.34,1.46-3.98.85-.78-.29-2.17-1.04-2.76-1.51-.15-.13-.97-.92-1.3-1.46-.15-.26-1.17-2.46-1.34-2.98-.35-1.09-.93-3.28-.95-3.4-.02-.11.03-.12-.17-1.38-.13-.84-.03-.85-.24-1.68-.06-.22.01-.23-.57-2.81-.02-.09-.03-.19-.04-.28-.05-.58-.04-.57-.16-1.14-.15-.71-.04-.72-.21-1.42-.06-.22-.06-.24-.5-2.76-.2-1.19.14-2.82-.19-4.79-.2-1.17-.05-1.69-.04-3.37.01-.84.16-.99.17-1.68.04-2.28-.13-2.29.16-3.66.15-.67,0-.69.15-1.37.32-1.6.24-2.19.99-3.96.48-1.14.43-1.58,1.35-3.12.26-.44,1.16-2.46,3.69-3.37,2.68-.98,2.61-1.31,4.23-1.33,1.84-.01,1.85-.43,3.66-.06,1.31.26,3.29-.2,5.61.23,1.02.19,2.27-.14,2.8-.16.85-.03.85-.07,1.69-.21.87-.14,1.63.28,3.6-.47,1.12-.41,4.93-1.62,5.39-3,.53-1.6.15-2.58.04-3.66-.02-.15-.05-1.49-1.7-3.4-.78-.9-1.31-.97-2.24-1.71-1.1-.87-1.94-.67-3.71-1.31-.11-.03-.27-.09-1.38-.35-.8-.19-.92.09-2.26-.23-.67-.17-1.34-.07-1.66-.13-.23-.04-.54-.24-2.27-.2ZM233.48,284.34c-1.27-.21-1.28-.05-2.81-.2-.61-.05-.59-.3-2.51-.29-2.7.02-2.68-.15-5.35-.54-.95-.13-2,.39-4.21-.04-.42-.08-.97-.05-1.38-.13q-.82-.16-1.97-.16c-1.33-.01-1.33-.22-1.97-.24-.7-.03-.69-.06-1.39-.1-2.02-.12-2.15-.54-3.66-.84-.42-.09-1.7-.08-2.23-.01-2.41.3-2.43-.85-4.23-1.01-.33-.04-1.19-.3-2.26-.59-.76-.2-1.17-.1-1.64-.16-.05,0-1.29-.24-1.4-.27-1.24-.35-2.63-.52-3.34-.88-2.49-1.24-2.81-.64-4.04-1.8-1.3-1.21-1.58-1.63-2.2-3.43-.08-.23-.37-1.06-.19-3.09.11-1.26-.03-1.26-.03-2.53.02-4.65.06-4.65.06-5.05-.01-1.21-.06-1.21-.06-2.53,0-1.96-.1-1.96.01-3.92.03-.43.18-.94.13-1.4-.08-.9-.14-.89-.14-2.25,0-4.39.07-4.39.07-4.77,0-1.13-.03-1.12.05-2.25.01-.25-.09-1.9-.23-2.5-.23-.95-.12-3.28-.04-3.69.37-1.9-.03-3.51.21-5.01.13-.85.02-.85-.05-1.7-.07-.86-.2-.84-.23-1.69-.09-2.12.43-2.61.44-4.2.02-4.9.03-4.9-.06-5.31-.1-.47-.17-.46-.16-1.99,0-1.61.25-1.6.13-2.51-.15-1.12-.12-1.12-.13-2.26-.01-.79-.09-.79,0-3.64.03-.72.32-1.03-.01-1.97-.57-1.66-3.56-1.04-5.07-1.43-.97-.24-2.4-.06-3.94-.13-1.94-.09-1.95.1-2.8-.1-.85-.21-.86-.17-2.52-.17-1.15,0-1.15-.05-2.27-.34-.83-.22-3.05-1.23-4.16.22-.37.48-1.46,3.64-1.57,4.49-.14,1.07-.38,1.45-.49,2.23-.16,1.23-.68,2.48-.79,2.8-.02.07-.38,1.58-.41,1.71-.06.4-.06.39-.5,1.63-.42,1.19-.41,1.53-.53,1.98-.19.66-.13.67-.17.87-.23,1.15-.71,2.06-1.07,3.39-.69,2.49-1.06,3.21-1.29,4.16-.24.98-.17,1-1.11,3.36-.9,2.28-1.28,4.75-1.29,5.07-.06,1.94-.66,1.85-1.22,3.64-.7,2.26-.92,2.21-.96,3.38,0,.14-.01.38-.33,1.7-.61,2.48-.4,3.19-1.4,4.79-.73,1.16-.66,1.58-.82,3.06-.2,1.88-.61,2.16-1.11,3.4-.72,1.76-.68,1.77-1.19,3.61-.15.52-.83,1.73-.93,2.79-.05.58-.12.56-.19,1.13-.03.21-.19,1.45-.8,2.56-.93,1.69-2.13,5.47-2.44,6.08-1.95,3.79-3.13,2.41-5.22,2.58-.7.06-.7.02-1.39-.1-1.33-.24-1.31-.32-1.43-.33-.47-.04-2.55,0-2.81.04-.6.07-.57.24-1.67.25-2.4.03-2.4.22-3.36.1-2.01-.26-2.24-.06-4.5-.13-1.24-.03-1.24-.46-2.79-.08-1.06.25-4.48,0-5.36.14-.61.09-.59.21-1.66.19-.14,0-.37,0-1.7-.3-.26-.05-.41-.21-1.11-.21-1.16,0-1.16.04-2.24-.17-.93-.18-2.15.45-2.81.4-.55-.03-.53-.28-1.97-.21-.82.04-1.31.54-2.78.09-.88-.27-2.25-.08-2.55,0-.68.21-.69.15-1.68.15-.33,0-5.85-.01-6.46.03-.64.04-.62.3-3.92.21-.64,0-.91-.18-1.4-.14-.7.05-.68.15-1.96.15-3.11-.01-3.1,0-3.37-.01-.74,0-1.01-.26-1.68-.24-2.11.05-2.1,0-4.21,0-2.3,0-2.29-.25-3.65-.27-1.54-.02-1.54-.07-1.68-.07-1.09.05-1.58.35-2.25.34-1.14-.02-2.04-.96-2.48-1.83-.38-.75-1.12-3.59-1.36-5.04-.02-.14-.16-.95-.35-1.67-.22-.82-.17-.83-.17-2.52-.01-1.2-.1-1.2-.56-2.3-.58-1.37-.06-2.78-.83-5.6-.45-1.64-.63-2.7-.72-3.04-.18-.64-.01-1.48-.22-2.54-.19-.98-.04-.99-.2-1.98-.19-1.12-.03-1.14-.28-2.25-.1-.44-.03-.66-.19-1.35-.27-1.15,0-1.18-.2-2.55-.37-2.59-.02-3.09-.23-3.94-.23-.9-.24-.89-.41-1.65-.09-.43-.02-5.1-.05-5.62-.01-.19-.43-1.89-.35-2.52.1-.88.21-1.29.24-1.4.24-.97.06-2.37.13-3.11.05-.58.79-2,.41-3.37-.19-.68-.18-.68-.16-1.39.06-2.71-.02-2.88.1-3.38.26-1.03.25-1.03.28-1.12.48-1.59.47-2.11.66-2.77.42-1.5.35-1.55.47-1.99.23-.79.1-.82.29-1.41.94-2.83,1.55-2.64,2.19-4.78.06-.2.39-1.3,1.14-2.26.71-.9.64-.95,1.39-1.71.78-.79,1.48-1.45,2.88-2.15,1.12-.56,1.65-1.47,3.1-1.91,1.08-.32,2.71-.52,2.78-.53,2.64-.07,2.67.13,2.8.17,1.12.32,1.13.31,2.81.3,2.48-.01,2.21-1.95,6.15-2.94,2.2-.55,2.56-.47,3.41-.27.31.07,1.33.11,3.07.3.84.09,1.02.39,2.24.62.74.13,1.94-.27,2.88-1.01,1.73-1.36,1.62-3.21,1.8-4.32.2-1.21.12-1.21.13-4.75.01-1.12.33-1.45.44-2.26.08-.59.13-.58.23-1.13.27-1.48,1.53-4.42,1.68-4.8.71-1.76,1.08-1.57,1.8-3.32.59-1.45.58-1.47,1.54-2.7.63-.8,1.54-1.42,2.02-1.88,1.21-1.16,1.08-1.46,2.31-2.48,1.97-1.61,1.94-1.64,2.11-1.78.44-.36,3.39-1.87,3.6-1.96,2.88-1.18,3.02-1.22,3.29-1.31,2.74-.89,3.74-1.49,5.07-1.49,1.15-.01,1.15-.06,2.26-.35,1.86-.48,3.56-.23,4.47-.36.54-.07.53-.22,3.08-.2.98.02,1.74.42,2.82.31,1.13-.11,1.12-.13,2.24-.33.3-.05.58-.21,1.12-.22,1.1,0,1.57.03,1.97.11,1.19.23,1.21.03,1.94.17,1.28.24,1.28.23,1.39.26.14.03.63.15,1.73.35.15.03,1.14.02,1.39.07,1.65.33,2.23.75,2.84,1.11,1.96,1.16,2.7,1.17,3.93,2.55,1.46,1.63,1.48,1.6,1.6,1.75.71.84,1.87,3.81,1.84,5.31-.04,1.4-.01,1.84.63,2.36.81.65,1.48.6,2.34.56.71-.03.69-.18,1.4-.24,1.27-.11,2.62-.53,4.21-.18.84.18.84.15,1.67-.03,1.25-.27,1.25-.25,1.68-.32,1.93-.36,1.95.13,3.94,0,.99-.07.98-.05,1.97.04.36.03.83-.01,1.38.13,2.78.69,2.99.63,3.95.67,1.97.09,2.02-1.5,2.18-2.18.05-.2.18-.39.2-1.1.04-1-.12-1.55-.15-1.68-.2-.69-.12-.69-.12-1.41.01-1.38.26-1.35.27-2.52.02-1.76-.07-2.08-.11-2.25-.21-.75-.18-.76-.18-3.08.08-2.29-.07-2.3.13-3.09.22-.91.09-.92-.06-1.66-.07-.33-.04-.33-.07-5.35,0-1.12-.19-1.12-.05-2.23.18-1.43.04-2.52.05-2.82.1-3.18-.11-5.83.14-6.74.33-1.26.05-2.76.04-2.81-.19-.68-.17-.69-.18-1.39,0-1.59-.19-1.58-.15-2.53.05-.98.11-.98.11-1.96,0-2.16.25-2.14.31-3.08.1-1.59-.28-1.78-.27-2.53.04-1.78.06-1.83.09-1.98.12-.49.22-.48.18-2.51-.01-.61-.14-.75-.21-1.1-.06-.29-.05-.29-.04-3.67.01-1.42.17-1.41.12-2.24-.05-.99-.05-.98.05-1.97.1-1.03-.18-1.54-.19-2.24-.03-2.18.15-2.19-.19-4.2-.12-.68-.06-2.08-.05-2.26.03-.64.69-1.99.72-2.8.01-.25-.3-1.65-.31-1.69-.33-1.1-.2-1.61-.14-3.37.02-.81.3-.78.27-2.24-.02-.98,0-.98-.21-1.95-.06-.3-.09-1.09,0-1.43.41-1.69.83-2.06,1.69-2.86.73-.68.82-.97,1.38-1.43.58-.48,1.33-.77,1.45-.83.52-.24,1.29-.77,1.99-1.07,1.84-.78,1.75-1.05,3.66-1.38.67-.12.72.08,2.26-.52.32-.13,2.92-1.14,4.19-1.19,2.06-.08,2.81-.67,3.93-.69,1.34-.02,1.35.01,3.06-.48.16-.04,1.55-.44,1.99-.49,1.83-.19,1.82-.23,3.65-.24,1.45,0,1.43-.13,2.8-.61.92-.32,2.17.08,3.37-.26.9-.26,2.54-.08,3.37-.12.89-.04.95-.22,1.68-.24,1.54-.04,1.88.16,1.94.18.48.11,1.5.1,2.01-.03,1.92-.46,1.93-.35,3.91-.38.71-.01,1.82-.45,3.67-.1,1.45.28,2.94-.09,3.34-.11,1.13-.07,1.13-.19,2.25-.05,1.89.24,2.28-.42,3.67-.09,2.43.58,3.4.15,4.72.46,1.29.3,2.51-.03,3.67.2,1.75.36,2.29-.07,3.64.31.88.25,2.32-.02,2.52-.06.82-.16,1.44.07,2.53.01,1.03-.06,1.04-.06,3.12.48,1.08.28,1.1.08,2.2.22,1.12.14,1.12.15,2.25.05.97-.08,2.6.45,3.12.56.54.11.69-.12,1.92.18.53.14.83.09,1.16.16.96.2.97.19,1.95.12,1.95-.12,4.24.88,5.63,1.23,1.65.43,1.57.79,3.07.83,2.83.08,3.02.68,4.99,1.64,1.51.75,1.79.1,4.02,1.51,1.12.71,1.23.6,2.06,1.63,2.05,2.55,1.76,3.06,1.84,3.48.29,1.38.12,1.4.21,2.81.01.22.07,1.22-.09,2.82-.11,1.15.17,2.07-.01,3.64-.22,1.95-.12,1.95.03,3.36.04.38.02,2.66.02,2.79-.09,1.39.2,3.4-.11,5.07-.13.74-.12.74-.12,1.95s.05,1.24.21,1.99c.09.46-.08,2.92.11,3.91.18.95.1,1.06,0,1.95-.11.95-.06,8.93-.08,9.26-.09.99-.13.99-.02,1.98.05.5.02,3.24.01,3.35-.13,2.18.27,2.64.14,3.66-.11.84-.11.83-.13,1.67,0,.78-.32.76-.23,3.09.03.75.24.78.19,1.69-.1,1.77.27,2.65.18,3.37-.16,1.3-.13,1.3-.14,2.8,0,1-.15,1.18-.17,1.68-.02.4.37,2.27.08,3.67-.05.22-.22,1.04-.18,2.79.03,1.81.22,2.13.27,2.53.07.45.15.58.2.81.12.53.05,1.63-.04,2-.48,1.77-.08,1.8-.13,3.63-.01.47-.08,2.72-.02,5.89,0,.86.36,1.26.14,2.26-.41,1.87.12,2.65-.32,3.91-.5,1.41-1.35,1.74-1.86,2.11-1.85,1.33-1.98,1.08-4.04,1.8-3.54,1.24-5.83,1.22-4.75,2.82,1.1,1.62,6.31,1.11,9.33,4.13.14.14.86.85,1.32,2.05.53,1.37.42,1.54.43,3.65,0,1.4.29,1.4.07,2.79-.11.7-.07.7-.07,1.41,0,3.36.05,3.36.04,3.65-.1,2.25.04,2.25-.07,4.5-.02.54-.21.7-.22,1.39-.03,1.55-.1,1.55.15,3.08.22,1.33-.08,1.4.26,2.52.1.35.16.55.1,4.51,0,.61-.15.76-.22,1.1-.1.45,0,5.59-.08,6.48-.09.98-.04.98.04,1.96.08,1.12.29,1.11.15,2.24-.15,1.2-.07,1.2.07,2.23.09.67.07,2.48-.05,3.1-.06.34-.26,1.37-.17,4.21.02.49.17.7.23,1.1.15.86-.44,1.89-.48,2.82-.05,1.13-.06,1.13.19,2.23.35,1.57.34,1.82.34,1.98q-.02.56-.02,1.12c0,1.6-.15,1.6-.07,2.52.07.85.07.84.07,1.69,0,1.03-.05,1.02-.21,1.66-.12.5-.06,1.69,0,2.01.19.96.17.96,0,1.93-.19,1.15.04,1.87-.19,2.82-.51,2.12.59,2.86.46,4.76,0,.11-.1,1.33-.11,1.42-.15,1.43.28,1.96.29,2.79.02,1.29.05,1.31-.5,2.47-.42.89-1.59,4.05-5.19,4.93-.11.03-1.25.3-1.44.33-.55.08-.54.14-1.09.22-.88.14-.87.15-1.67.53-1.06.52-1.09.41-2.27.42-1.59.01-1.76.78-3.36,1.01-2.25.33-3.05.59-3.67.68-.3.05-.69.19-1.12.23-1.29.14-1.28.15-1.39.15-.18,0-1.26,0-2.27.16-.15.03-.38.14-.81.2-1.3.18-1.3.21-1.41.21-2.62.15-2.96-.17-4.48.29-1.71.52-2.41-.03-3.92.31-.81.18-.82.06-1.42.19-1.63.35-1.95.12-4.78.18-.58.01-.92.17-1.38.23-1.61.22-3.13-.11-5.63.04-.33.02-1.29.32-1.95.44-.76.14-2.41-.58-3.08-.68-.75-.12-1.98.46-3.1.48-3.25.06-4.13-.07-4.49-.12-1.87-.28-3.57-.15-4.2.03-.6.16-2.27.11-2.82.02ZM235.73,268.28c-.51.05-3.19-.01-3.63-.07-1.4-.2-1.41-.05-2.82-.21-.72-.08-1.53.16-3.09.09-.01,0-1.55-.28-1.69-.3-1.42-.26-1.93-.03-3.07-.34-.75-.21-1.35,0-1.68.06-.77.12-.76-.13-2.54-.25-1.18-.09-1.2.26-2.79-.09-.57-.13-.58-.03-1.16-.15-.83-.18-.83-.13-1.68-.27-1.44-.24-2.23.16-3.89-.44-2.1-.74-3.27-.67-3.39-.67-.5-.02-.78-.16-1.1-.21-2.13-.32-2.04-.7-4.21-1.11-.82-.15-1.08-.01-1.69-.22-.55-.19-.55-.18-1.11-.35-1.64-.51-1.79-.74-3.04-1.45-1.17-.67-2.26-.14-2.59.68-.39.95-.22,1.79-.19,1.94.2.97.03.99.17,1.71.08.45.2.43.16,2.53,0,.7-.16.68-.22,1.39-.08,1.01-.49,3.08,2.36,3.82,1.86.48,1.87.42,3.66,1.12,1.01.41,2.41.52,2.77.64.73.23.71.28,1.43.5,1.39.44,2.99.51,3.62.55.63.03,1.38.41,1.98.54.96.19.95.21,1.94.22,1.36.03,3.17.31,3.39.36.81.17.83-.01,1.64.17,1.09.25,1.11.04,1.99.19.18.03.36.08.54.11.93.15,1.31.05,1.71.12.62.11.61.25,2.23.21,1.41.05,1.42-.03,2.23.21,3.31,1.03,4.76.3,7.03.31,1.87,0,1.92.55,3.65.49,2.1-.08,2.1-.05,4.2-.05,4.8,0,4.9.02,5.32.12,1.11.24,1.13.03,2.25.22,1.82.31,1.82-.13,3.66-.11.86.01,1.07.36,2.78-.02.18-.04,1.75-.38,2.27-.35,1.93.12,2.51.79,3.65.49.83-.22,1.63-.46,1.71-.48.26-.07.65-.16,3.33-.08.47.02.96.18,1.39.12.66-.08.65-.12,2.24-.52.86-.22,1.9.04,5.64-.08.63-.02.62-.09,2.54-.57,1.09-.28,1.1-.18,2.22-.19.92-.02,1.97-.57,3.07-.38,1.22.21,1.29.21,2.81-.4,1.34-.54,1.9-.41,2.26-.41.79-.02,1.1-.33,2.52-.7.94-.24.95-.2,1.39-.31.14-.04,1.36-.34,1.71-.39,1.17-.19,2.71-.84,3.94-1.16,2.57-.66,2.95-1.16,3.01-5.43.02-1.71-.11-1.69-.18-2.25-.22-1.61-.07-1.79-.05-2.24.13-2.17-.3-2.84-1.7-2.65-.6.09-2.8,1.12-3.67,1.4-1.94.64-1.9.77-3.9,1.2-.45.1-.93.05-1.38.13-.7.14-.7.08-1.42.18-.03,0-1.97.45-2.51.61-.62.18-.97.08-1.43.19-1.6.38-2.21.68-3.91.67-1.27,0-1.26.06-2.53.19-.52.06-.74.2-1.12.22-.84.04-.84.01-1.67.17-1.12.21-2.17-.04-3.1.2-.97.24-.98.1-1.97.24-2.68.4-2.75-.08-4.48.32-.56.12-1.03.08-1.39.13-1.26.17-1.26.19-2.53.09-1.15-.09-2.41.21-4.78.1-.59-.03-1.42.03-1.94-.09-.11-.03-.61-.15-1.41-.29-.13-.02-.49-.08-1.68.16q-.84.18-1.7.21c-.6.03-.81.19-1.68.21-3.27.08-3.9-.04-4.23-.1-1.24-.21-1.25-.04-2.49-.22-.83-.12-1.01-.02-1.98.07ZM138.17,213.63c.99-2.07.71-2.34,1.38-3.65,1.36-2.62,1.15-2.72,2.61-5.28.89-1.55-.2-2.33-1.25-2.41-1.17-.09-1.35-.25-3.39-.98-.2-.07-1.46-.52-2.16-1.5-.2-.27-1.12-2.08-1.16-3.88,0-.05.11-4.49.13-5.06.03-.71.31-.84.25-1.96-.09-1.83-.32-1.81-.25-3.64,0-.29-.02-.28-.02-.57-.02-1.26-.69-2.09-1.25-2.26-1.11-.34-2.23.48-2.5.65s-.28.14-.55.29c-2.44,1.39-2.61,2.36-2.94,3.54-.79,2.84-.67,2.87-.74,3.12-.21.72-.1.73-.27,1.4-.29,1.11,0,1.23-.27,2.25-.14.57-.08.57-.18,1.14-.17.96-.15.96-.06,1.93.07.89-.27,2.68-.02,3.93.44,2.17-.16,2.57.31,4.76.19.91-.04,1.77.18,2.55.15.55.14.55.18,1.12.03.5.13.58.22,1.1.14.85.25.83.26,1.7.02,1.03.07,1.02.36,2,.42,1.37.2,1.42.65,2.78.22.67.34.62.8,2.26.11.36.96,2.79,2,3.15,1.99.7,3.39-1.97,4.18-2.95.85-1.06.64-1.5,1.64-2.58.67-.73,1.55-2.29,1.86-2.95ZM222,263.96c.05,0,3.74,0,3.92-.01,2.11-.1,2.56.19,3.36.13.98-.08.99-.15,1.94.1,1.76.46,1.83.38,3.41,0,.95-.23.97-.24,1.92,0,.52.13.54,0,1.43.2.72.15,2.3.08,3.08.12.67.04,1.05.36,1.96.14,2.17-.53,2.2-.41,3.37-.41,1.57.06,1.57.03,1.71.06.41.07.39.24,2.22.2,1.26-.03,1.26,0,2.53,0,1.71,0,1.73.13,3.35-.42,1.34-.45,2.29-.11,2.82-.1,2.12.05,2.12-.51,4.2-.11,1.44.28,1.44-.06,2.24-.12,1.13-.08,1.12-.14,2.25-.26.23-.02.62-.26,2.53-.19.84.02,1.59.57,3.34-.09,1.32-.49,1.59-.38,2-.46,1.85-.39,1.84-.45,3.64-.51.68-.02.87-.12,1.39-.18.6-.06.84-.18,1.13-.21,2.14-.27,2.09-.47,3.11-.69,1-.22.99-.23,1.08-.24.55-.1.56-.08.6-.09.87-.18.82-.36,3.33-.98,1.25-.31,1.43,0,2.59-.7,1.67-1.03,2.7-.99,3.36-2.02.68-1.06.74-1.76.85-2.27.24-1.2-.23-1.27-.02-2.53.14-.84.15-.83.15-1.69.01-3.92.02-3.97-.23-4.46-.79-1.49-2-.79-2.79-.36-.29.16-1.97,1.08-3.9,1.37-1.1.16-1.99.83-2.23.95-1.1.57-1.3.46-1.69.51-.31.04-.44.14-1.13.21-.58.06-.56.16-1.13.25-.84.14-.82.23-1.67.19-.19,0-.37-.02-.56-.02-.81-.02-3.21.52-3.95.73-1.19.34-1.21.26-1.66.37-.83.18-.84.1-1.67.31-1.47.37-1.85-.46-3.65-.02-.69.16-4,.3-4.79.5-1.34.35-1.56-.05-3.37.24-2.37.39-3.52-.12-5.34.27-1.04.22-1.6-.07-4.18.17-1.07.09-1.52-.08-2.25-.09-2.18-.03-2.57.03-2.8.06-1.29.18-1.29.16-5.05.16-2.43,0-2.44.29-4.19-.03-.36-.07-1.95-.67-3.97-.31-.51.1-.78.15-6.43.12-.86,0-.83-.18-1.69-.21-1-.04-.98-.15-1.97-.24-.71-.07-.68-.24-1.39-.25-.85-.02-.85.02-1.67.2-.77.17-1.66-.18-1.73-.2-.97-.23-.97-.42-1.94-.18-1.34.34-1.37.16-3.34-.57-1.61-.59-3.22.09-5.11-.37-1.09-.27-1.08-.31-2.2-.31-.85-.01-.84-.04-1.67-.2-1.34-.26-1.32-.31-1.44-.34-.98-.18-.96-.24-1.93-.48-1.55-.38-1.53-.44-3.11-.7-.06,0-.6-.17-.85-.21-.58-.11-.57-.15-1.13-.31-.8-.22-.77-.32-1.9-.76-.2-.07-1.3-.49-2.55-.8-.85-.2-2.06.39-2.07,2.29,0,1.55.12,1.56-.17,3.09-.16.82.12,1,.25,2.8,0,.24-.06.84-.07,1.12-.05,1.72-.12,2.09,2.38,3.25,2.57,1.19,2.62,1.07,3.85,1.35.96.22.92.33,2.53.79.49.14.98.03,2.26.52,1.16.43,1.18.34,2.81.35,1.03,0,3.17.66,3.61.84,1.35.54,1.39.3,2.84.33.85,0,.84.04,1.67.23.16.03.88.03,1.43.14.85.17.86.05,1.7.25.76.19,1.67.09,2.22.07,1.95-.07,4.04.7,4.22.72Z"/>
</svg>