<?xml version="1.0" encoding="UTF-8"?>
<svg id="Layer_1" xmlns="http://www.w3.org/2000/svg" version="1.1" viewBox="64 64 232 232">
  <!-- Generator: Adobe Illustrator 30.0.0, SVG Export Plug-In . SVG Version: 2.1.1 Build 123)  -->
  <defs>
    <style>
      .st0 {
        fill: #9a9694;
      }

      .st1 {
        fill: #fff;
      }
    </style>
  </defs>
  <path class="st0" d="M190.13,233c-.18.81.44,1.58.02,2.51-.38.84-1.56,1.22-3.19.43-.31-.15-.3-.15-.6-.3-1.86-.91-3.27-.76-3.28-2.63-.02-3.95.05-3.95-.1-4.79-.19-.99.02-.99.11-2.24.04-.68.3-1.03.15-1.78-.19-.87-.12-.88-.33-1.74-.23-.94.27-1.24.15-3.01-.04-.52-.2-.96-.22-1.51-.01-.64.02-.65-.13-1.27-.1-.42-.07-1.02-.62-2.48-.55-1.45-1.11-2.34-2.19-3.3-.51-.45-1.11-.68-2.36-1.64-.71-.54-3.57-1.7-4.45-1.76-.17-.01-.33,0-.5-.01-.12,0-1.15-.17-2.27-.58-.21-.08-1.14-.31-1.74-.24-.94.1-1.39.12-3.05-.45-1.61-.54-1.84-.42-1.96-.45-1.35-.32-3.5-.99-3.81-1.09-.38-.12-.38-.09-.76-.22-.98-.33-.97-.38-1.98-.6-1.51-.33-3.38-1.41-4.27-1.76-1.57-.61-1.55-.66-2.98-1.56-.42-.26-1.59-.79-4.02-2.26-1.92-1.18-2.1-.95-3.38-2.38-.36-.41-.72-1.09-1.01-1.52-1.33-1.92-1.57-1.8-2.29-4.03-.02-.05-.36-1.32-.37-2.05,0-.14-.18-2.26,1.53-4.74,1.07-1.57,1.79-2.67,3.27-3.46.9-.48.88-.49,1.75-1.02.86-.52,1.56-.63,1.7-.65.52-.09.5-.18,1.02-.23.12-.01.24-.02,1.49-.29.72-.16.72-.29,2.53-.1.86.08.87-.04,1.77.09.12.02,1.9.15,2,.14,1.28-.1,1.31-.22,2.5.24.18.07,1.15.62,1.74.81.45.14.75.18,2.55.89.64.26.96.13,3.05,1.2.64.33,2.21.96,2.89,1.46,1.71,1.26,1.76,1.18,2.54,1.72.71.5.67.56,1.75,1.27.05.03,1.12.92,1.32,1.17.75.93,3.02,2.92,3.4,3.58,1.29,2.26.91,3.29,3.09,4.54.68.39,2.77.98,2.95-2.1,0-.06.05-1.71-.02-1.99-.03-.17-.1-.34-.14-.51-.06-.25-.02-.25-.09-.49-.04-.17-.11-.34-.16-.52-.01-.04-.14-1.26-.15-1.76,0-1.01.04-1.01.1-2.02.02-.23.45-2.1.47-2.26.01-.11.02-2.3,0-2.5-.04-.29-.21-.62-.22-1.26-.01-.77.02-.77-.15-1.52-.06-.24-.23-1.7-.17-2.24.16-1.25.02-1.26.21-2.51.05-.32.21-1.36.11-4.03-.03-.54-.23-.91-.24-1.76-.05-4.3-.01-4.39.14-4.74.36-.8,1.21-1.29,2.41-.95.31.09,1.45.34,1.54.35.74.06,1.43.12,2.07,1.02.72.99.05,2.32.46,4.06.19.8.01,1.31.17,2.28.1.66.23.69.02,1.74-.1.49-.03.51-.14,1.28-.11.73-.09.74.01,1.47.05.31.05,2.23.05,2.27-.03.34-.17.99-.11,1.52.14,1.13.08,1.13.18,2.27.15,1.56.16,2.07.17,2.25.01.63,0,.63-.16,1.25-.07.26-.07.68-.17,1.03-.41,1.54.02,2.73.07,3.74.07,1.51-.01,1.88-.05,2.04-.12.55-.18.55-.17,1.99.01,1.22.65,2.01.86,2.27.51.66,1.38.66,1.51.66,1-.01,1.68-.34,2.78-2.67.04-.07,1.21-2.27,1.44-2.56.17-.22.87-.99.94-1.07.72-.8.79-.72,1.56-1.46.65-.63,1.81-1.42,2.46-2.29,1.06-1.42,1.24-1.24,3.38-2.18,1.56-.68,2.2-1.21,3.06-1.68,1.58-.85,1.58-.83,2.99-1.27.01,0,.19-.07.46-.15,1.77-.5,2.18-.61,3.01-1,1.08-.51,1.77-.43,2.32-.58,1.01-.26,1.02-.21,2.01-.52.49-.15.5-.1,1-.24.49-.14,2.1-.12,2.47-.02,1.34.35,1.33.41,2.53.4.78,0,1.18-.27,4.05,1.24,2.58,1.36,4.33,3.49,4.74,4.33,1.32,2.69,1.32,2.71,1.33,3.26.05,2.18-.08,2.77-.13,3-.33,1.59-.39,1.97-2.03,4.24-1.02,1.4-1.09,1.55-2,2.21-2.09,1.5-1.87,1.78-2.94,2.61-2.12,1.66-3.09,1.37-4.98,2.59-2.43,1.56-2.71.92-5.79,2.27-1.86.82-1.84.88-3.82,1.33-.06.02-.55.05-.74.1-.22.06-1.21.37-1.77.42-.52.05-.83.21-1.25.23-.17.02-.34.01-.51.02-.05.01-.05.03-.72.16-.18.04-.36.05-.53.08-.52.07-.5.14-1.01.24-1,.19-.97.33-1.99.47-.39.06-.66.2-1,.24-.51.05-.51.04-1.01.17-.63.17-.66-.01-1.28.17-1.22.36-2.41.45-4.47,1.87-2.81,1.95-3.11,1.75-4.75,4.75-1.78,3.28-1.05,3.65-1.23,5.26-.04.33-.16.62-.18,1.24-.07,1.81,0,4.44-.04,6.03,0,.17.2,1.67-.09,2.77-.25.99.07.99.08,2,.02,1.13-.02,1.13-.16,1.75Z"/>
  <path d="M231.55,71.72c.18,1.63.91,2.37,1.06,2.53,1.36,1.38,2.19,2.4,3.83,3.16.42.2,1.68.46,1.74.47,1.64.24,2.6,1.49,2.71,1.88.6,2.06-2.56,2.69-3.77,3.14-1.47.56-1.14,1.02-2.4,1.97-1.28.98-1.34.93-1.94,1.84-.65.96-1.35,1.62-1.46,2.58-.08.72-.18.69-.23,1.26-.05.52-.05.51-.16,1.02-.18.76.15,2.02-1.26,2.84-1.12.66-1.93-.13-2.11-.28-.54-.53-1.02-.97-1.04-2.07-.02-1.78-.65-2.23-.9-3.02-.47-1.46-.08-1.81-1.19-3.07-.22-.25-.84-1.16-.85-1.18-.88-1.52-2.21-1.56-3.21-2.11-.56-.31-1.33-.67-1.76-.97-1.09-.76-2.04-3.16,0-3.86.93-.32,2.14-.2,3.29-1.03.55-.4.57-.38.75-.51,1.47-1.09,1.62-1.46,1.99-2.06,1.19-1.91,1.51-2.03,1.66-3.55.06-.64.18-.62.21-1.26.01-.16.01-.33.02-.5.04-.65.63-1.91,2.08-2.29.64-.16,1.87.49,2.22,2.06.33,1.44.71,2.85.72,3.01ZM231.13,82.76c.54-.51,1.72-1.07,1.79-2.25.06-1.03-.88-1.36-1.95-2.59-.49-.58-1.09-1.78-2.35-1.44-.65.18-1.42,1.14-1.82,1.42-.12.08-.44.2-1.22,1.07-.45.5-.78,1.46-.62,2,.33,1.1.78,1.28,2.35,2.85.18.18.71.98,1.83.77.74-.14.91-.8,1.99-1.83Z"/>
  <path d="M178.69,101.47c-1.36.8-2.75,4.25-2.78,4.92-.05,1.33.06,1.87.09,2.03.24,1.15.08,1.55.81,2.77.39.65.88,1.63,2.38,2.63,1.24.83,1.02,1.18,2.42,1.69,1.58.58,2.45,1.4,3.23.83.99-.72.68-1.96.71-2.92.04-1.13.1-1.13.02-2.25-.12-1.49.12-1.57.17-2.52.05-.8.19-.77.24-1.25.1-1.01.07-1.01.01-2.03-.04-.63-.22-.67-.24-1.25-.03-.63-.01-.63-.14-1.24-.29-1.34.29-2.99-.45-3.54-.57-.43-.83-.33-1.01-.34-.11,0-.58-.16-1.73.64-2.16,1.48-2.39,1.03-3.73,1.83ZM190.7,141.03c1.3.93,2.67.07,3.73-.28,2.15-.7,2.04-.93,3.87-2.09,1.22-.78,1.05-.96,2.01-2.06.78-.9,1.03-1.47,1.1-1.61.31-.68.19-1.75.18-2.48-.02-.68-.15-.84-.18-.98-.05-.23-.19-1.94-1.18-3.03-.55-.6-.49-.64-1.02-1.25-.42-.49-.8-1.42-2.49-2.29-1.5-.78-1.66-1.44-4.24-2.34-.59-.2-2.32-.9-2.91.56-.44,1.09-.04,1.12,0,2.3.01.17-.01.33,0,.5q-.01.76-.17,1.5c-.37,1.76.75,3.72.6,4.55-.14.79-.91,2.32-.59,3.75.58,2.59-.67,3.86,1.29,5.25ZM193.7,144.84c-.89.04-.88.09-1.77.19-.9.12-1.65-.14-2.32,1.02-.6,1.05-.09,2.38-.19,3.05-.03.18-.13,1.01-.95,1.36-.12.05-.69.39-1.83-.33-.33-.21-.88-.87-.89-1.79-.02-1.36.15-1.95-.6-3.01-.72-1.04-2.02-1.16-4.54-2.2-1.63-.68-2.05-.59-3.21-1.37-.25-.17-1.39-.85-2.96-2.07-1.28-1-3.64-1.33-3.32-3.4.14-.89,1.75-2.72,3.47-1.25.42.35.56.68,1.78,1.22,1.42.62,2.34,1.6,4.8,2.72,2.15.98,2.99,1.72,3.97,1.05,1-.69.61-1.75.61-3.5,0-3.25-.01-3.26.11-3.78.41-1.65-.27-1.95-.08-4.25.25-3.19.18-3.71.13-4.03-.02-.16-.05-.32-.07-.49-.19-1.31.05-1.36-.46-2.51-.32-.71-1.14-1.27-1.72-1.34-.74-.1-.74-.08-1.02-.15-.66-.15-.71-.09-1.47-.37-3-1.09-3.45-1.21-4.39-2.36-.33-.4-.25-.46-1.01-1.23-.77-.78-.84-.77-1.41-1.6-.29-.44-1.69-1.83-1.82-2.75-.08-.52-.07-.51-.19-1.02-.15-.63-.01-.65-.2-1.27-.16-.49-.1-.5-.24-1.01-.17-.65-.1-1.43-.03-1.73.18-.74.12-.74.32-1.48.21-.75.21-1.1.88-2.3.1-.19.16-.16,1.4-2.32.84-1.45,1.23-1.1,2.36-2.23,1.17-1.18,1.16-1.29,3.79-1.98.03,0,2.55-.77,3.53-.91.79-.12,1.33-.35,1.47-1.6.08-.71-.26-1.82,0-3.02.19-.86.14-1.12.95-1.85,1.31-1.18,2.73-.04,2.95.83.41,1.59-.75,3.94,1.41,4.79.07.03.11.04.99.28,1.25.33,1.39-.36,4.05.69.96.38.98.3,1.99.52.66.15.69-.05,1.98.37.1.03,2.17.8,2.52.96.14.07.83.4,1.46,1.25.1.13.63,1.12.47,1.69-.33,1.22-1.72,1.87-2.88,1.44-.42-.16-.66-.35-2.78-1.2-1-.4-.97-.49-1.99-.84q-.52-.18-1.06-.29c-.96-.21-2.48-.91-3.5-.93-1.21-.02-1.34-.01-2.01.34-.52.27-.97,1.17-.78,2.51.23,1.56.07,3.83.25,4.53.21.86.14.86.17,1.75-.01,2.43-.24,2.74-.25,4.27-.01,1.26.1,1.27-.18,2.51-.32,1.45.38,2.82.5,3.04.27.54.49.69.55.73.64.44,1.3.48,1.72.59.66.18.67.13,1.31.33,1.93.6,2.32.56,2.49.6,1.04.3.97.43,2.74,1.53,1.14.71.98.91,2.06,1.69.13.09.68.49,1.49,1.28,2.44,2.36,2.66,4.48,2.75,4.79.02.07.05.15.07.22.36,1.14.37,1.14.61,2.3.14.74.47.91-.51,3.47-1.2,3.13-.96,3.31-3.24,5.76-.14.14-1.37,1.47-1.77,1.7-1.92,1.14-2.98,1.35-4.65,1.99-.81.31-1.71.4-1.81.4Z"/>
  <path class="st0" d="M143.89,117.18c.27-1.23-.15-1.41.26-3.02.12-.48.02-.49.15-.97.34-1.26.29-1.27.57-2.55.09-.43-.09-1.07.56-3.01.1-.32,1.95-5.33,2.61-6.49.53-.94.5-.95,1.09-1.85.96-1.45.63-1.79,2.13-3.19.84-.79.77-.85,1.43-1.81.38-.56.32-.61,1.12-1.41,1.05-1.04,1.16-.96,1.61-1.4.41-.41.62-.78,1.37-1.4.86-.7,1.59-.83,2.93-1.87.38-.29,2.2-1.46,2.39-1.55.97-.5,2.68-.94,3.18-.81.54.15,1.39.79-.28,2.13-.77.62-1.18.66-2.16,1.63-2.35,2.32-2.32,2.34-2.68,2.87-.62.91-.88,1.18-.97,1.27-.79.79-1.49,1.07-1.94,1.82-.26.42-.28.4-.66,1.06-.01.02-.3.63-.94,1.38-1.18,1.4-1.16,2.57-1.82,3.65-.9,1.46-.65,2.13-1.16,2.93-.54.86-.59.83-.92,1.8-.21.64-.01.69-.24,1.51-.32,1.09-.32,1.62-.96,3.29-.76,2.01-.59,2.45-.59,2.73,0,1.31.06,1.33-.4,3.04-.07.23-.05.51-.18.96-.04.15-.18.68-.12,2.03.02.6.21.74.23,1.26.03.77-.03.77.14,1.53.24,1.1-.04,2.82.19,3.71.17.63.07.65.24,1.26.04.14.02.15.43,1.79.12.5.14.49.19,1.01.03.33.2.94.21,1.01.02.16.02.33.03.5.02.19.62,2.24.68,2.47.39,1.48.59,1.4,1.26,3.26,1.06,2.98,1.71,3.97,1.92,4.29,1.08,1.67,1.2,1.58,2.33,3.22.59.86,1.63,1.72,2.57,2.67.87.9.83.94,1.84,1.67.75.54,1.07,1.33,1.12,1.46.89,2.18-.49,2.14-.61,2.17-.31-.04-.39.13-2.54-1.07-.72-.41-.67-.49-2.51-1.76-.81-.56-1.58-1.1-2.32-1.98-.34-.41-.44-.67-1.01-1.24-1.08-1.09-1.55-1.3-2.08-1.93-1.39-1.68-3.39-4.87-3.87-5.95-.8-1.83-2.74-5.24-2.78-6.53-.04-1.39.08-1.41-.34-2.73-.41-1.25-.29-1.27-.55-2.57-.06-.29-.02-.69-.19-1.47-.25-1.13.02-1.64-.18-2.53-.32-1.48-.16-1.97.02-2.77.2-.81-.14-1.96.2-3.52Z"/>
  <path d="M133.66,161.15c2.46,1.78,3.17-.12,4.35-1.14,1-.86,1.23-1.18,1.16-2.12-.08-1.08-1.23-1.51-1.76-2.26-.06-.08-.27-.39-.73-1.02-.5-.71-1.11-.62-1.27-.64-.44.05-.57-.13-1.43.73-1.25,1.25-1.62,1-2.09,2.44-.14.43-.24.78.2,1.78.25.56,1.14,1.92,1.57,2.23ZM127.89,161.12c-1.69-.99-3.26-1.08-4.15-2.67-.22-.38-.31-1.15.15-1.79,1.01-1.42,2.5-1.01,4.99-2.29.61-.31,1.03-.94,2.01-1.75.6-.5.87-1.4.92-1.54.34-1.15.28-1.17.78-2.26.33-.71.27-.73.49-1.5.23-.8-.12-1.51,1.02-2.55.55-.5,1.86-.89,2.95.88.37.59.44,1.07.46,1.17.1.66.23.73.24,1.27.01.64-.05.65.13,1.27.29.98.09,1.1,1.54,3.01.36.47.51.32,1.73,1.54.75.75.71.8,1.61,1.36.32.2,1.32.59,1.94.61.9.02.93-.07,1.73.32.37.18.51.38.54.43.44.62.34.84.36,1.01,0,.32.18.79-.82,1.58-.89.7-1.18.13-3.5,1.54-1.49.91-2.7,1.55-3.66,3.11-.52.84-.41.89-1.34,2.85-.47,1-.54,2.31-.58,2.48-.02.07-.43,2.64-2.26,2.88-.69.09-1.3-.57-1.4-.71-.82-1.22-1.05-2.6-1.06-2.68-.06-.76-.17-.74-.24-1.51-.11-1-1.04-2.29-1.31-2.77-.23-.39-.29-.35-.52-.75-.07-.13-1.27-1.68-2.75-2.54Z"/>
  <path class="st1" d="M193.45,289.33c-1.19.06-1.17-.11-2.76-.34-.41-.05-1.03.02-1.26.01-.21,0-1.7-.2-1.76-.21-1.43-.37-1.45-.15-3.52-.17-.84-.01-1.18-.36-1.99-.64-.78-.27-3.28-.29-3.8-.41-.5-.12-.49-.12-1-.17-1.14-.14-1.9-.53-4.51-1.16-.27-.07-2.47-.11-3.02-.19-.89-.13-1.49-.1-2.49-.58-.83-.41-1.4-.76-1.58-.85-1.52-.77-2.45-.79-3.72-.81-1.35-.02-4.1-1.55-5.79-1.69-.1-.01-.1-.02-1.26-.27-.98-.2-2-1.09-2.99-1.18-1.13-.11-2.32-.62-2.51-.71-1.4-.61-1.53-.4-2.8-.9-1.88-.74-2.42-.7-2.98-.87-.45-.13-1.92-.36-2.02-.37-1.19-.04-1.69-.2-3.81-1.25-.53-.26-1.74-.67-2.47-.69-.76-.02-.75-.11-1.5-.24-.55-.1-2.08-.59-2.52-.69-.37-.09-.39.02-1.27-.16-.64-.13-.65-.04-1.28-.21-1.97-.5-2.5-.35-2.96-.45-2.28-.47-2.35.11-3.83-.29-.61-.17-.62-.11-1.24-.28-.37-.1-2.29-.14-3.48.01-1.01.12-1.09-.03-2.02-.07-.65-.03-.64-.07-1.27-.21-.37-.07-2.45-.05-2.74,0-.41.08-.4.23-2.78.2-.16,0-.8-.01-1.97-.59-1.74-.86-1.68-1.51-1.74-1.71-.2-.74-.23-.74-.12-1.5.15-1.12.08-1.13,0-2.25-.09-1.58.06-1.94.08-2.26,0-.07.08-3.69.08-3.77,0-1.25.12-1.25.07-2.01-.16-2.32-.21-2.31-.22-2.52-.11-3-.05-3-.06-3.26-.04-.96.08-.95.19-1.75.21-1.38.42-1.4.09-2.76-.14-.57-.03-4.89-.08-6.05-.01-.5-.22-.86-.23-1.51-.04-2.54.13-2.56.55-3.08,1.69-2.04,2.71-1.26,4.89-2.13,1.36-.54,1.38-.5,2.67-1.18,1.19-.63,1.24-.53,2.58-.56,1.13-.02,1.9-.78,3.54-1.22,1.46-.38,1.42-.69,2.49-.71,2.74-.06,3.29-.84,5.02-.97.21-.02,1.67-.34,2.25-.51.65-.19.65-.15,1.3-.33.49-.14.94-.06,1.47-.17,1.48-.31,1.52-.03,2.26-.23.61-.17.62-.12,1.24-.3.74-.21.76-.06,1.52-.24.86-.2.89,0,1.75-.24.84-.24,1.74.02,2.78-.21.93-.2.94-.16,1.02-.19.17-.04.34-.13.52-.16.16-.04.32-.03.49-.05.12-.02.61-.12.74-.13.34-.03,1.94.24,2.02.26.18.04,1.13.28,2.26.07,2.57-.48,2.92.03,4.51.06.92.02.91.09,1.78.37.99.32.99.28,2,.52.36.09.37.02.73.1.18.04.35.12.52.16.39.1.39.08.78.19.5.15.51.09,1.01.25,1.36.43,1.34.49,2.7.91.57.18.59.06,1.27.24.82.2,1.2.08,2.31.61,1.25.61,1.26.58,2.22.86.55.16.92,0,2.55.67,1.47.6,1.49.53,2.99,1.06,1.51.52,1.47.62,3,1.06.98.29,2.56,1.12,3.79,1.39.16.03,1.29.37,1.77.47,2.1.45,3.34,1.54,4.75,1.71.63.07.62.11,1.25.22,1.15.2,1.66.83,2.78,1.16.92.27.95.21,3.55,1.44,1.73.81,2.76.87,3.96,1.4,1.9.85,2.01.61,3.83,1.62,2,1.11,2.62.6,5.02,2.03,1.57.93,2.3.52,3.8,2.01.74.72,1.03.84,1.5,1.26.99.88,1.31.95,1.75,1.79.68,1.3.67,2.33.66,2.55,0,.2-.01,1.13-.81,2.45-.6.98-.62.96-1.32,1.88-.45.59-.43.62-1.39,1.39-.12.09-.69.56-1.7.84-.08.03-.69.2-1.01.26-1.68.3-1.65.48-2.52.49-3.86.04-4.16-.02-4.51-.1-.92-.2-.93-.12-2.02-.14-.64-.01-.89-.17-1.27-.21-.64-.07-.63-.1-1.26-.25-.63-.14-.61-.21-1.25-.26-.65-.05-.97-.2-1.5-.23-.93-.04-.94-.09-2.24-.63-.89-.37-1.16-.34-1.53-.45-.5-.16-.52-.09-1.01-.24-.5-.14-.51-.11-1-.26-4.19-1.31-4.2-1.29-4.56-1.4-1.63-.53-1.61-.58-3.22-1.16-.75-.27-.75-.24-1.51-.5-.1-.03-.9-.3-1.28-.39-2.73-.62-2.54-1.18-5.24-1.92-2.06-.57-2.33-.9-3.03-.99-1.91-.24-2.7,1.17-2.47,2.05.02.08.23,1.7,2.23,2.23,2.08.55,1.94.9,3.23,1.36.08.03,1.21.33,1.29.34,1.32.22,1.57.67,2.48.94.99.31,1,.25,2.04.31.93.05,1.65,1.01,3.01,1.36.56.14.88-.11,2.75.55,1.39.49,1.36.54,2.76,1,1.61.52,1.83.36,2.27.48,1.05.27,1.06.23,2.05.67,1.21.54,1.28.36,2.22.59.87.22.9.02,1.76.26.55.15.78.1,1.03.14.54.1.53.19,1.24.22.63.03.61.14,1.24.23.64.09.62.17,1.26.24.45.05,1.16.36,2.53.28.87-.06.89.03,1.73-.19.63-.16.65-.02,1.28-.17,1.36-.32,1.47.05,2.5-.08,1.15-.14,1.36-.28,1.54-.33,2.14-.59,3.15-.71,4.17-1.7,1.22-1.17,1.31-1.07,2.51-2.26,2.33-2.3,2.24-2.38,2.45-2.58.65-.61.64-.61,1.25-1.27,1.21-1.33,1.46-1.09,2.53-2.52.89-1.19,1.48-1.28,3.54-3.21.06-.05.05-.05.64-.61.79-.74,1.43-.87,2.4-1.87.57-.6.67-.84,1-1.25,1.16-1.39,2.06-1.72,2.08-1.73,1.6-.93,1.3-1.49,2.75-2.52,2.21-1.56,2.7-2.47,4.28-3.51,1.79-1.18,2.2-1.69,3.26-2.27,1.23-.67,1.67-.53,2.04-.55.88-.04.86-.19,1.76-.24,1.03-.05,1.63-.46,2.75-.12.49.15.51.08.99.27,2.05.81,2.25.86,2.97,1.3.65.4,1.4,1.59,1.73,2.45,1.12,2.89.73,4.12.72,4.24-.07.65-.08.64-.26,1.27-.4,1.47-.8,1.59-1.69,3.71-.55,1.33-.81,1.15-1.71,2.27q-.39.49-.8.97c-.64.73-.62.75-1.33,1.42-2.55,2.4-2.17,2.72-2.87,3.41-.35.35-1.9,1.05-2.75,2.52-.96,1.67-2.62,2.58-2.69,2.63-.79.55-1.11,1.17-1.42,1.58-.54.69-.59.64-1.25,1.23-.68.59-.71.55-1.3,1.24-.5.58-.78.57-1.73,1.52-.7.69-.77.61-1.49,1.26-.6.55-.66.46-1.26,1.01-.61.57-.65.52-.98.77-.37.27-.8.54-.92.62-.86.63-.84.65-1.61,1.39-.41.4-.79.58-1.13.88-.47.42-.5.39-.99.79-.63.5-.52.64-2.03,1.5-1.17.66-1.14.7-2.1,1.64-.95.94-1.15.64-2.68,1.62q-.76.49-1.58.87c-1.05.48-1.39.91-2.28,1.49-1.31.85-1.86.82-2.72,1.08-1.24.39-1.83,1.4-3.53,1.67-.87.13-2.72,1.03-3.49,1.17-.76.14-.75.19-1.52.27-.97.1-1.76.76-3.02.63-1.01-.11-1.01-.14-2.01.03-1.13.19-1.16-.08-2.28.19-.79.18-.81.1-1.99.12-.51.01-.8.17-1.25.23-.64.08-.62.21-1.26.24Z"/>
  <path d="M143.69,120.7c-.18.8-.34,1.29-.02,2.77.2.89-.07,1.4.18,2.53.17.78.13,1.18.19,1.47.26,1.3.14,1.32.55,2.57.42,1.32.3,1.34.34,2.73.04,1.29,1.98,4.7,2.78,6.53.48,1.08,2.48,4.27,3.87,5.95.53.63,1,.84,2.08,1.93.57.57.67.83,1.01,1.24.74.88,1.51,1.42,2.32,1.98,1.84,1.27,1.79,1.35,2.51,1.76,2.15,1.2,2.23,1.03,2.54,1.07.12-.03,1.5,0,.61-2.17-.05-.13-.37-.92-1.12-1.46-1.01-.73-.97-.77-1.84-1.67-.94-.95-1.98-1.81-2.57-2.67-1.13-1.64-1.25-1.55-2.33-3.22-.21-.32-.86-1.31-1.92-4.29-.67-1.86-.87-1.78-1.26-3.26-.06-.23-.66-2.28-.68-2.47-.01-.17-.01-.34-.03-.5-.01-.07-.18-.68-.21-1.01-.05-.52-.07-.51-.19-1.01-.41-1.64-.39-1.65-.43-1.79-.17-.61-.07-.63-.24-1.26-.23-.89.05-2.61-.19-3.71-.17-.76-.11-.76-.14-1.53-.02-.52-.21-.66-.23-1.26-.06-1.35.08-1.88.12-2.03.13-.45.11-.73.18-.96.46-1.71.4-1.73.4-3.04,0-.28-.17-.72.59-2.73.64-1.67.64-2.2.96-3.29.23-.82.03-.87.24-1.51.33-.97.38-.94.92-1.8.51-.8.26-1.47,1.16-2.93.66-1.08.64-2.25,1.82-3.65.64-.75.93-1.36.94-1.38.38-.66.4-.64.66-1.06.45-.75,1.15-1.03,1.94-1.82.09-.09.35-.36.97-1.27.36-.53.33-.55,2.68-2.87.98-.97,1.39-1.01,2.16-1.63,1.67-1.34.82-1.98.28-2.13-.5-.13-2.21.31-3.18.81-.19.09-2.01,1.26-2.39,1.55-1.34,1.04-2.07,1.17-2.93,1.87-.75.62-.96.99-1.37,1.4-.45.44-.56.36-1.61,1.4-.8.8-.74.85-1.12,1.41-.66.96-.59,1.02-1.43,1.81-1.5,1.4-1.17,1.74-2.13,3.19-.59.9-.56.91-1.09,1.85-.66,1.16-2.51,6.17-2.61,6.49-.65,1.94-.47,2.58-.56,3.01-.28,1.28-.23,1.29-.57,2.55-.13.48-.03.49-.15.97-.41,1.61,0,1.79-.26,3.02-.34,1.56,0,2.71-.2,3.52ZM194.94,83.34c-1.97-.56-2.12-.9-3.74-.71-1.01.11-2.35-.02-2.79.08-.16.04-.31.09-.47.13-.82.2-2.9-.07-3.79.18,0,0-1.6.35-1.75.36t-.51.02c-.5-.01-.72-.12-2.53.57-.66.25-1.83.27-2.98,1.09-.99.72-1.06.59-2.52,1.02-.79.23-1.52,1.09-2.52,1.72-.74.47-.96.75-2.54,1.7-1.13.68-1.84,1.54-3.72,3.1-.91.75-.78.88-2.35,2.41-1.06,1.04-.94,1.13-2.76,3.8-1.46,2.14-1.4,2.77-2.48,4.04-.3.36-.46.39-1,2.27-.08.3-.02.32-.17.78-.78,2.34-.59,2.39-1.39,4.72-.07.2-.06.2-.75,2.52-.03.1-.06.19-.28,1.26-.14.66-.01.76-.15,1.28-.08.28-.07.28-.3,1.5-.16.83.13.82.14,2.27.02,3.52-.1,3.53.17,4.77.14.64-.02.79.17,2.02q.1.62.15,1.24c.02.3.37,1.38.48,2.26.11,1.02.98,2.32,1.15,3.28.11.67,0,.7.59,2.24,1.78,4.75,3.16,6.55,4.04,7.76.33.46.4.4,1.16,1.33,1.17,1.46,1.13,1.5,2.07,2.47,1.17,1.21,1.08,1.3,2.27,2.5,1.74,1.74,2.1,2.13,4,3.03,1.89.89,2.73,2.17,4.25,2.8,1.15.47,1.18.4,2.3.92.17.08,1.34.63,2.24.74.17.02.33.01.5.03.63.06,1.57.59,3.02.72.29.03.76.18,1.25.23,1.25.12,1.49.47,2.51.47,1.83.01,1.83-.05,2.76.16.93.2.93.02,2.26-.14.4-.05.7-.19,1-.23.51-.07.5-.09,1-.2.71-.16,1.82.1,2.79-.19,1.27-.38,1.21-.52,2.23-1.06,1.36-.72,1.55-.33,3.78-.75.5-.1,1.5-.8,2.54-1.45.16-.1,1.09-.68,1.96-1.33.14-.11,1.1-.72,1.73-1.28.1-.08.1-.07,1.26-1,.86-.69,1.33-.63,2.49-1.78.76-.75.71-.8,1.59-1.41.25-.18.98-.89,1.39-1.59.43-.72.39-.75.9-1.41.32-.42.3-.43.63-.85.12-.16.75-1.11.81-1.21.05-.07.08-.05.66-.89.27-.4.98-.99,1.59-2.62q.52-1.43,1.26-2.77c.66-1.19.54-1.7,1.25-3.02.72-1.35.65-1.39.67-2.73,0-1.1,1.11-3.2,1.22-4.52.07-.77.22-.75.23-2.27.02-5.55.05-5.56-.04-6.03-.27-1.5-.2-1.5-.2-3.01,0-1.82-.35-1.76-.67-3.25-.23-1.07.27-1.22-.8-3.1-1.7-2.99-1.13-3.93-2.16-5.44-1.66-2.41-1.24-2.62-1.8-3.76-.95-1.95-2.22-2.69-2.65-3.08-.95-.86-1.84-2.37-3.11-3.41-1.95-1.62-2.54-2.69-3.7-3.35-1.03-.59-1.03-.72-2.06-1.43-1.29-.9-2.41-1.22-4.29-2.2-1.45-.76-2.28-.69-3.67-1.46-.09-.05-.41-.22-1.28-.47-.62-.17-.65.02-1.52-.22-.5-.15-.65-.07-1.02-.17ZM233.14,183.52c-.41-.84-2.16-2.97-4.74-4.33-2.87-1.51-3.27-1.25-4.05-1.24-1.2.01-1.19-.05-2.53-.4-.37-.1-1.98-.12-2.47.02-.5.14-.51.09-1,.24-.99.31-1,.26-2.01.52-.55.15-1.24.07-2.32.58-.83.39-1.24.5-3.01,1-.27.08-.45.15-.46.15-1.41.44-1.41.42-2.99,1.27-.86.47-1.5,1-3.06,1.68-2.14.94-2.32.76-3.38,2.18-.65.87-1.81,1.66-2.46,2.29-.77.74-.84.66-1.56,1.46-.07.08-.77.85-.94,1.07-.23.29-1.4,2.49-1.44,2.56-1.1,2.33-1.78,2.66-2.78,2.67-.13,0-1,0-1.51-.66-.21-.26-.85-1.05-.86-2.27-.01-1.44.05-1.44.17-1.99.04-.16.12-.53.05-2.04-.05-1.01-.48-2.2-.07-3.74.1-.35.1-.77.17-1.03.15-.62.17-.62.16-1.25,0-.18-.02-.69-.17-2.25-.1-1.14-.04-1.14-.18-2.27-.06-.53.08-1.18.11-1.52,0-.04,0-1.96-.05-2.27-.1-.73-.12-.74-.01-1.47.11-.77.04-.79.14-1.28.21-1.05.08-1.08-.02-1.74-.16-.97.02-1.48-.17-2.28-.41-1.74.26-3.07-.46-4.06-.64-.9-1.33-.96-2.07-1.02-.09-.01-1.23-.26-1.54-.35-1.2-.34-2.05.15-2.41.95-.15.35-.19.44-.14,4.74.01.85.21,1.22.24,1.76.1,2.67-.06,3.71-.11,4.03-.19,1.25-.05,1.26-.21,2.51-.06.54.11,2,.17,2.24.17.75.14.75.15,1.52.01.64.18.97.22,1.26.03.2.02,2.39,0,2.5-.02.16-.45,2.03-.47,2.26-.06,1.01-.1,1.01-.1,2.02.01.5.14,1.72.15,1.76.05.18.12.35.16.52.07.24.03.24.09.49.04.17.11.34.14.51.07.28.02,1.93.02,1.99-.18,3.08-2.27,2.49-2.95,2.1-2.18-1.25-1.8-2.28-3.09-4.54-.38-.66-2.65-2.65-3.4-3.58-.2-.25-1.27-1.14-1.32-1.17-1.08-.71-1.04-.77-1.75-1.27-.78-.54-.83-.46-2.54-1.72-.68-.5-2.25-1.13-2.89-1.46-2.09-1.07-2.41-.94-3.05-1.2-1.8-.71-2.1-.75-2.55-.89-.59-.19-1.56-.74-1.74-.81-1.19-.46-1.22-.34-2.5-.24-.1.01-1.88-.12-2-.14-.9-.13-.91-.01-1.77-.09-1.81-.19-1.81-.06-2.53.1-1.25.27-1.37.28-1.49.29-.52.05-.5.14-1.02.23-.14.02-.84.13-1.7.65-.87.53-.85.54-1.75,1.02-1.48.79-2.2,1.89-3.27,3.46-1.71,2.48-1.53,4.6-1.53,4.74.01.73.35,2,.37,2.05.72,2.23.96,2.11,2.29,4.03.29.43.65,1.11,1.01,1.52,1.28,1.43,1.46,1.2,3.38,2.38,2.43,1.47,3.6,2,4.02,2.26,1.43.9,1.41.95,2.98,1.56.89.35,2.76,1.43,4.27,1.76,1.01.22,1,.27,1.98.6.38.13.38.1.76.22.31.1,2.46.77,3.81,1.09.12.03.35-.09,1.96.45,1.66.57,2.11.55,3.05.45.6-.07,1.53.16,1.74.24,1.12.41,2.15.58,2.27.58.17.01.33,0,.5.01.88.06,3.74,1.22,4.45,1.76,1.25.96,1.85,1.19,2.36,1.64,1.08.96,1.64,1.85,2.19,3.3.55,1.46.52,2.06.62,2.48.15.62.12.63.13,1.27.02.55.18.99.22,1.51.12,1.77-.38,2.07-.15,3.01.21.86.14.87.33,1.74.15.75-.11,1.1-.15,1.78-.09,1.25-.3,1.25-.11,2.24.15.84.08.84.1,4.79.01,1.87,1.42,1.72,3.28,2.63.3.15.29.15.6.3,1.63.79,2.81.41,3.19-.43.42-.93-.2-1.7-.02-2.51.14-.62.18-.62.16-1.75-.01-1.01-.33-1.01-.08-2,.29-1.1.08-2.6.09-2.77.04-1.59-.03-4.22.04-6.03.02-.62.14-.91.18-1.24.18-1.61-.55-1.98,1.23-5.26,1.64-3,1.94-2.8,4.75-4.75,2.06-1.42,3.25-1.51,4.47-1.87.62-.18.65,0,1.28-.17.5-.13.5-.12,1.01-.17.34-.04.61-.18,1-.24,1.02-.14.99-.28,1.99-.47.51-.1.49-.17,1.01-.24.17-.03.35-.04.53-.08.67-.13.67-.15.72-.16.17,0,.34,0,.51-.02.42-.02.73-.18,1.25-.23.56-.05,1.55-.36,1.77-.42.19-.05.68-.08.74-.1,1.98-.45,1.96-.51,3.82-1.33,3.08-1.35,3.36-.71,5.79-2.27,1.89-1.22,2.86-.93,4.98-2.59,1.07-.83.85-1.11,2.94-2.61.91-.66.98-.81,2-2.21,1.64-2.27,1.7-2.65,2.03-4.24.05-.23.18-.82.13-3,0-.55,0-.57-1.33-3.26ZM233.48,199.19c-.72.65-1.48.67-2.99,2.28-1.39,1.49-1.71,1.02-6.34,3.5-1.15.62-1.45.66-2.6,1.35-.9.55-1.8.66-1.96.68-1.45.18-2.82,1.33-4.03,1.46-.76.08-.74.16-1.5.24-.73.08-1.96.9-2.77.94-1.17.05-1.17.08-4,.82-.87.23-.89.05-1.76.28-1.17.3-1.28-.25-3.29.41-.34.11-.71.28-1.27.41-1.75.39-2.27,1.07-3.82,2.27-.01,0-.33.21-1.2,1.08-.07.07-.7.49-1.31,2.76,0,.04-.04.37-.15.78-.32,1.1.04,2.6-.21,3.53-.23.86-.14.87-.23,1.75-.13,1.22.24,2.93,0,4.28-.03.14-.29.75.26,2.97.13.54.04,1.97.03,2.01-.05.21-.16.28-.22,1.02-.03.53-.22.8-.23,1.52-.02,1.63-.03,1.72.56,2.52.26.35.99.86,1.49,1.07.79.34,1.76.54,2.75,1.02,1.1.53,1.75.53,2.57.87,2.08.86,2.13.76,3.29,1.49,1.68,1.05,2.19.92,3.5,1.25,1.23.31,2.3,1.21,2.47,1.35,1,.83,4.39,2.31,5.44,3.83.31.46.32.44.66.89.24.33.21.35.53.72,1.03,1.19,1.3,3.44,3.47,2.11.95-.59,1.09-1.61,2.5-2.79,1.32-1.11,1.25-1.44,2.56-2.16.82-.45.92-.4,1.69-1.88.7-1.35,1.94-1.11,3.17-2.36,1.4-1.42,1.23-1.94,3.12-3.15.87-.56,1.83-2.01,4.49-3.57,1.42-.83,1.38-.89,2.11-1.36.7-.46,1.84-.82,2.17-.91,1.05-.29,1.16-.31,1.26-.32.51-.1.49-.16,1.01-.25.68-.11.7-.24,1.26-.25,1.13-.02,1.23.04,3.02-.02,1.02-.03,3.11.85,4.01,1.17.28.1,1.6.58,3.08,1.92.73.66.8.89,1.31,1.49,1.32,1.55,1.79,4.13,1.93,4.59.23.77.15,1.85.13,2.01-.06.86.04.86-.11,1.78-.02.16-.05.33-.08.49-.09.56-.03.83-.16,1.28-.94,3.11-1.68,3.47-2.35,4.99-.44,1.02-.63,1.26-1.62,2.37-1.48,1.69-1.63,1.56-2.37,2.67-1.12,1.68-2.87,2.94-2.98,3.05-.98.92-.83,1.06-1.9,2.12q-.5.5-1,1.01c-1.19,1.19-1.15,1.24-2.45,2.32-.82.69-.84.67-1.47,1.55-.24.32-2.91,2.96-3,3.02q-.29.21-.57.42c-.99.73-1.13.56-2.17,1.62-.87.87-.78.96-1.6,1.65-2.4,2.01-2.81,1.86-4.16,3.15-.26.25-.24.25-.51.49-.32.29-.42.27-1.01.76-.07.06-.1.02-1,.76-.08.06-.09.04-1.01.75-.42.32-.45.28-.85.64-.84.79-2.37,1.54-2.98,2.04-1.23,1-2.42,1.46-3.3,1.94-4.05,2.25-4.07,2.21-4.68,2.67-.22.16-.75.56-3.05,1.46-1.59.62-1.69.35-3.23,1.07-.85.4-.86.35-1.78.52-.44.09-.88.07-1.04.1-.39.1-1.13.32-1.23.35-.09.03-.1,0-1.25.27-.28.07-.74.08-1.03.16-.62.17-.64.08-1.26.26-1.59.45-3.06-.28-5.28.49-1.88.65-2.12.21-3.01.14-.88-.08-.86-.24-1.75-.2-1.89.06-1.88-.07-2.49-.23-.64-.16-.81.13-3.03-.23-1.07-.18-3.36.08-4.28-.18-.74-.21-.76-.08-1.52-.22q-.71-.14-.73-.14c-.46-.04-.47,0-1.01-.17-.5-.15-.51-.09-1.01-.23-.63-.18-1.19-.06-1.49-.13-.17-.05-.34-.11-.51-.16-.3-.07-.31-.02-.78-.16-1.42-.45-1.43-.36-1.71-.43-.1-.03-.19-.07-.29-.1-.51-.15-.52-.07-1.02-.21-.51-.14-.79-.09-1.21-.19-.87-.21-.89-.07-1.78-.17-.52-.05-.5-.11-1.01-.22-.53-.12-1.67-.71-2.53-.92-1.61-.4-1.91-.6-2.47-.71-2.25-.4-2.34-.84-3.27-.99-.09-.01-.17-.01-.26-.02-.51-.08-.49-.18-1-.23-.79-.07-.78-.12-1.55-.3-1.26-.31-1.8-1-3.49-1.34-.42-.08-1.09-.05-1.24-.09-1.29-.34-1.25-.47-2.99-1.05-1.06-.34-1.78-.68-2.56-.83-1.34-.25-2.58-.93-4.28-1.21-1.01-.17-1.82-.77-2.99-.96-.26-.05-.79-.21-1.01-.23-.17-.01-.33-.01-.5-.02-.3-.01-.72-.18-1-.22-1.08-.16-2.47-.84-3.78-.97-.68-.08-2.51-.69-3.27-.7-.71-.02-1.1.05-1.72-.13-.09-.02-.99-.28-1.07-.3-.15-.04-.32-.05-.47-.09-.18-.05-.35-.12-.52-.16-.1-.03-.1.02-1.24-.13-.86-.12-.87.07-1.74-.07-.63-.1-.64-.06-1.26-.21-.93-.24-1.02.06-2.77-.24-.88-.15-.9,0-1.76-.22-.77-.2-.78-.09-2.78-.19-1.49-.08-1.57.1-3.25-.11-1.16-.14-1.87-.04-2.04-.02-1.24.16-1.44-.2-3.74-.06-.32.01-3.1.02-3.29-.01-.59-.08-.99-.59-1.11-.75-.52-.64-.31-1.06-.35-4.11-.01-1.51-.23-1.5-.23-3.02,0-.7-.01-.71.15-1.27.11-.36.04-.36.2-1.01.23-.92.01-.92-.12-1.99-.11-.83-.44-.88-.09-2.27.27-1.12-.18-1.79-.09-2.49.12-.97.32-1.04.06-2.51-.26-1.38.1-1.42-.25-2.75-.04-.12-.17-.63-.08-1.53.04-.44.21-.62.22-1.26.03-2.01-.12-2.02.12-3.53.15-.97-.1-.96-.12-2.5-.02-.83-.22-1.05-.23-1.51-.01-.2-.02-3.01,0-3.26.03-.37.22-.66.23-1.26.06-3.37-.21-3.95.58-4.88.94-1.09,2.23-.99,4.16-1.86,1.45-.65,1.48-.55,2.23-.65,1.09-.13,2.76-1.1,3.53-1.18,2.02-.24,2.87-.79,3.06-.87,1.17-.49,2.05-.49,3.74-1.05,1.95-.65,2-.46,3.21-.91,1.73-.64,1.76-.54,3.05-.52.17,0,.78,0,2.01-.4.06-.02,2.54-.7,2.76-.76.18-.04,1.16-.2,2.02-.46.08-.03.1.03,1.01-.24.6-.17.63.04,1.53-.2.79-.21,1.16-.05,1.96-.2,1.51-.3,1.54,0,3.05-.31.67-.14.95.02,1.97-.2,1.76-.38,1.84.48,3.56-.06,1.03-.33,2.08-1.02,3.98-.26,1.63.65,1.68.41,2.54.24,1.11-.23,1.12-.11,2.25-.02.37.03.75.19,1.01.21.65.05.65.02,1.28.18.88.22.93.04,4,1.08,2.1.72,2.13.58,2.77.69.12.02.5.17,1,.21,1.66.14,1.93.84,4.25,1.41.34.09.5-.02,1.04.15,2.02.61,1.97.73,3.96,1.41,2.54.88,5.53,2.57,6.73,1.55.51-.43.46-1.08.48-1.65.03-1.01-.19-.99-.21-2.01-.05-3.46-.07-3.46-.23-4.51-.1-.64-.05-.64-.13-1.28-.13-.87.05-.86.06-1.74.01-1.88-.02-1.88-.13-2.27-.17-.62-.03-.64-.18-1.27-.28-1.18-.08-1.23-.53-2.26-.49-1.13-1.96-2.13-2.81-2.49-1.4-.58-1.43-.5-2.8-1.18-.16-.09-.54-.28-2.21-.62-.6-.13-.61-.02-1.28-.11-1.12-.15-1.21.15-2.74-.13-.2-.03-.67-.07-.74-.08-.36-.09-.35-.11-4.52-1.23-1.4-.38-1.87-.36-2.27-.47-1.86-.51-1.85-.55-3.07-1.12-2.02-.93-2.76-.57-4.02-1.26-.75-.41-.72-.45-1.48-.83-1.02-.51-1.35-.89-2.54-1.43-1.29-.58-1.22-.69-2.41-1.46-.68-.43-1.78-.69-3.04-1.94-.95-.95-.9-1.01-1.98-1.8-.12-.09-1.69-1.46-2.1-2.16-.08-.14-.81-1.18-.82-1.19-.1-.12-.87-.99-1.19-1.58-.39-.75-.43-.73-.71-1.53-.18-.51-.1-.85-.71-2.52-.59-1.6-.32-1.64-.11-2.75.21-1.21.67-1.63.97-3.52.15-.9.66-1.68.74-1.81,1.1-1.67,1-1.74,2.4-3.16,1.79-1.84,1.83-1.8,2.22-2.04.46-.28,2.63-1.82,3.49-2.08.17-.06,1.67-.39,1.79-.43.5-.16.51-.07,1.01-.22.8-.25.83-.08,1.22-.17.18-.05.34-.11.52-.16.2-.05.39-.04.78-.14.08-.02.16-.05.23-.07.84-.23,1.26.06,1.77.15.87.15.86.24,1.75.24,2.34.01,2.35-.07,3.25.15.4.1.73.09,1.03.18,1.43.42,1.75.28,3.46,1.13,1.47.74,1.57.4,3.04.75.49.12,2.05,1.12,3.78,1.93.06.03.49.23.71.34.9.43,1.66.59,3.04,1.69.86.69,1.4.79,2.27,1.49.12.1.79.5,1.44,1.3l1,1.25c.35.53.99,1.49,2.09,1.37,1.83-.18.92-4.15.91-4.18q-.04-.76-.19-1.51c-.16-.72.03-.85-.13-2.28-.12-1,.04-1,.04-2,.01-3.94.02-3.94,0-4.28-.11-1.56,0-1.74.43-3.25.12-.43.11-1.45.03-1.78-.03-.15-.21-.71-.23-.77-.69-2.17-.25-2.51-.63-3.22-.74-1.37-1.86-.62-2.94-.88-2.18-.53-2.62-.57-3.05-.62-.07,0-1.44-.28-2.26-.5-.79-.22-1.09-.46-2.27-.7-.51-.11-.49-.16-1-.24-1.15-.17-2.35-.96-3-1.14-.17-.05-.36-.08-.53-.12-1.03-.26-4.38-1.55-5.23-2.13-.15-.1-.14-.11-1.76-1.26-.62-.44-1.39-1.29-2.78-1.99-.67-.33-1.21-.77-2.29-1.47-1.27-.83-1.95-2.03-2.83-2.95-.56-.59-.5-.64-1.01-1.28-.54-.69-.96-1.42-2.29-3.25-.87-1.2-.54-1.37-1.28-2.65-2.01-3.46-1.65-4.2-2.46-5.67-.84-1.52-.68-2.24-.86-2.83-.18-.6-.3-1.41-.54-2.25-.2-.69-.03-.71-.21-1.77-.22-1.3-.05-1.32-.14-1.73-.04-.18-.1-.35-.15-.52-.13-.51-.07-.52-.22-1.02-.1-.32-.24-1.4-.02-2.24.08-.3.28-.5.17-2.51-.03-.46-.23-.6-.23-1.51-.01-1.2.07-1.19.19-1.78.05-.23,0-.51.13-.98.29-1.14.11-1.56.15-3.78.02-.76.17-.74.24-1.51.04-.47.37-1.34.48-1.77.58-2.34,1.05-3.24,1.17-3.73.12-.55.26-1.9,1.48-4.27.87-1.67.75-1.83,1.59-2.95.72-.95,1.44-2.39,2.19-3.31.51-.64,1.37-2.34,2.28-3.24,1.27-1.28,1.33-1.22,1.72-1.53.49-.4.47-.42.99-.78.62-.42,2.31-2.33,2.82-2.68,1.74-1.18,1.75-1.16,2.23-1.56.15-.12.48-.33.92-.63.98-.66,2.6-.83,3.77-1.5.49-.28,1.03-.65,1.81-.92.32-.11.34-.02,1.01-.22.66-.19.69-.12,1.51-.51,1.91-.9,1.98-.68,2.74-.8.39-.06,2.36-.64,2.78-.68.76-.07.75-.14,1.51-.26.35-.06,1.26-.41,2-.47.53-.05.75-.2,1.51-.24.31-.01,1.88.04,2.27-.05.16-.04.31-.09.47-.12.14-.04.67-.07,1.03-.17.77-.23.79-.09,3.26-.15.49-.01.52.12,1.24.25.76.13.75.24,1.52.24,3.15.01,3.15-.01,3.77-.14,1.18-.24,1.18.14,3.02.14.77,0,.85-.12,2.47.5,1.52.58,1.84.26,3.52.77,1.7.52,2,1.12,4.07,1.58,1.59.36,1.87.93,2.49,1.33.45.28.42.37,1.31.93,2.29,1.44,3.14,1.39,4.99,3.07.77.69,1.22.63,2.61,2.18.78.86.64.99,1.57,1.7,1.59,1.2,1.86,2.12,2.6,2.91,1.06,1.12.78,1.35,1.84,2.96.94,1.43.94,1.42,1.97,2.79.47.63.59,1.4,1.39,3.08,1.8,3.75,2.02,5.7,2.65,7.73.49,1.61.52,1.85.54,2.02.06.51.07.51.19,1.01.2.78,0,3.22.2,4.03.47,1.94-.43,2.43,0,3.77.05.17.19.62.11,2.27-.04.72-.19,1.14-.22,1.74-.03.78-.19.75-.24,1.25-.06.64-.05.64-.2,1.26-.12.5-.06.51-.21,1.01-.14.49-.06.81-.22,1.52-.16.76-.09.8-.45,1.78-.49,1.31-.22,1.38-.63,2.72-.16.53-.51,1.21-.63,1.54-.22.6-.17.61-.4,1.21-.33.89-.8,1.3-1.38,2.56-.71,1.53-.78,1.49-1.47,2.31-.55.65-1.06,2.12-1.91,3.14-1.35,1.61-2.02,2.9-2.53,3.5-1.17,1.34-1.23,1.58-2.47,2.52-1.21.92-1.1,1.05-2.4,1.93-.27.19-.45.4-.83.63-.26.16-.8.78-2.99,2.05-1.08.63-2.38,1.73-4.06,2.45s-1.59.72-3.24,1.32c-1,.36-1.99.97-2.77,1-.89.05-.88.07-1.76.2-.57.08-.99,0-1.46.15-.99.32-1.75.49-2.04,1.9-.18.88.18.88.18,2.26,0,2.01-.08,2.01.17,4,.15,1.13.06,10.7.04,10.8-.05.22-.15.3-.21,1.02-.04.35-.66,2.05.29,3.54.48.77,1.81.97,2.76-.53.14-.21,1.05-1.27,1.56-1.71,1.22-1.06,1.36-.89,2.67-2.11,1.3-1.21,2.75-1.45,4.01-2.3.56-.38,1.37-1.1,3.6-1.62,1.06-.24,1.67-.62,1.8-.7.95-.59,1.36-.73,1.48-.77.96-.33,1.02-.04,1.98-.35,1.49-.47,1.46-.68,3.02-.61.77.04.77.06,1.5-.14.08-.02.09.01,1.01-.24.45-.12,1.02-.07,1.51-.1,1.01-.09,1,.02,2.01.02.22,0,1.99-.09,3.29.55.26.12,1.35.88,2.49.9,1.51.03,1.45.32,3.54,1.62,1.82,1.13,1.75,1.78,3.29,3.25.58.56,1.18,1.21,1.91,2.59.22.41.65,1.95.65,1.96.01.09.01.18.03.26.09.59.24.61.25,1.27q0,.63,0,1.26c-.04,1.82.15,1.8.22,2.5.15,1.69-.82,1.74-1.2,3.76-.03.16.04,1.15-2.82,4.62-.08.08-.39.46-1.02,1.02ZM232.12,247.04s-.92.34-2.08,1.73c-.33.41-.43.65-1,1.25-.97,1-1.61,1.13-2.4,1.87-.59.56-.58.56-.64.61-2.06,1.93-2.65,2.02-3.54,3.21-1.07,1.43-1.32,1.19-2.53,2.52-.61.66-.6.66-1.25,1.27-.21.2-.12.28-2.45,2.58-1.2,1.19-1.29,1.09-2.51,2.26-1.02.99-2.03,1.11-4.17,1.7-.18.05-.39.19-1.54.33-1.03.13-1.14-.24-2.5.08-.63.15-.65.01-1.28.17-.84.22-.86.13-1.73.19-1.37.08-2.08-.23-2.53-.28-.64-.07-.62-.15-1.26-.24-.63-.09-.61-.2-1.24-.23-.71-.03-.7-.12-1.24-.22-.25-.04-.48.01-1.03-.14-.86-.24-.89-.04-1.76-.26-.94-.23-1.01-.05-2.22-.59-.99-.44-1-.4-2.05-.67-.44-.12-.66.04-2.27-.48-1.4-.46-1.37-.51-2.76-1-1.87-.66-2.19-.41-2.75-.55-1.36-.35-2.08-1.31-3.01-1.36-1.04-.06-1.05,0-2.04-.31-.91-.27-1.16-.72-2.48-.94-.08-.01-1.21-.31-1.29-.34-1.29-.46-1.15-.81-3.23-1.36-2-.53-2.21-2.15-2.23-2.23-.23-.88.56-2.29,2.47-2.05.7.09.97.42,3.03.99,2.7.74,2.51,1.3,5.24,1.92.38.09,1.18.36,1.28.39.76.26.76.23,1.51.5,1.61.58,1.59.63,3.22,1.16.36.11.37.09,4.56,1.4.49.15.5.12,1,.26.49.15.51.08,1.01.24.37.11.64.08,1.53.45,1.3.54,1.31.59,2.24.63.53.03.85.18,1.5.23.64.05.62.12,1.25.26.63.15.62.18,1.26.25.38.04.63.2,1.27.21,1.09.02,1.1-.06,2.02.14.35.08.65.14,4.51.1.87-.01.84-.19,2.52-.49.32-.06.93-.23,1.01-.26,1.01-.28,1.58-.75,1.7-.84.96-.77.94-.8,1.39-1.39.7-.92.72-.9,1.32-1.88.8-1.32.81-2.25.81-2.45.01-.22.02-1.25-.66-2.55-.44-.84-.76-.91-1.75-1.79-.47-.42-.76-.54-1.5-1.26-1.5-1.49-2.23-1.08-3.8-2.01-2.4-1.43-3.02-.92-5.02-2.03-1.82-1.01-1.93-.77-3.83-1.62-1.2-.53-2.23-.59-3.96-1.4-2.6-1.23-2.63-1.17-3.55-1.44-1.12-.33-1.63-.96-2.78-1.16-.63-.11-.62-.15-1.25-.22-1.41-.17-2.65-1.26-4.75-1.71-.48-.1-1.61-.44-1.77-.47-1.23-.27-2.81-1.1-3.79-1.39-1.53-.44-1.49-.54-3-1.06-1.5-.53-1.52-.46-2.99-1.06-1.63-.66-2-.51-2.55-.67-.96-.28-.97-.25-2.22-.86-1.11-.53-1.49-.41-2.31-.61-.68-.18-.7-.06-1.27-.24-1.36-.42-1.34-.48-2.7-.91-.5-.16-.51-.1-1.01-.25-.39-.11-.39-.09-.78-.19-.17-.04-.34-.12-.52-.16-.36-.08-.37-.01-.73-.1-1.01-.24-1.01-.2-2-.52-.87-.28-.86-.35-1.78-.37-1.59-.03-1.94-.54-4.51-.06-1.13.21-2.08-.03-2.26-.07-.08-.02-1.68-.29-2.02-.26-.13.01-.62.11-.74.13-.17.02-.33.01-.49.05-.18.03-.35.12-.52.16-.08.03-.09-.01-1.02.19-1.04.23-1.94-.03-2.78.21-.86.24-.89.04-1.75.24-.76.18-.78.03-1.52.24-.62.18-.63.13-1.24.3-.74.2-.78-.08-2.26.23-.53.11-.98.03-1.47.17-.65.18-.65.14-1.3.33-.58.17-2.04.49-2.25.51-1.73.13-2.28.91-5.02.97-1.07.02-1.03.33-2.49.71-1.64.44-2.41,1.2-3.54,1.22-1.34.03-1.39-.07-2.58.56-1.29.68-1.31.64-2.67,1.18-2.18.87-3.2.09-4.89,2.13-.42.52-.59.54-.55,3.08.01.65.22,1.01.23,1.51.05,1.16-.06,5.48.08,6.05.33,1.36.12,1.38-.09,2.76-.11.8-.23.79-.19,1.75,0,.26-.05.26.06,3.26.01.21.06.2.22,2.52.05.76-.07.76-.07,2.01,0,.08-.08,3.7-.08,3.77-.02.32-.17.68-.08,2.26.07,1.12.14,1.13,0,2.25-.11.76-.08.76.12,1.5.06.2,0,.85,1.74,1.71,1.17.58,1.81.59,1.97.59,2.38.03,2.37-.12,2.78-.2.29-.05,2.37-.07,2.74,0,.63.14.62.18,1.27.21.93.04,1.01.19,2.02.07,1.19-.15,3.11-.11,3.48-.01.62.17.63.11,1.24.28,1.48.4,1.55-.18,3.83.29.46.1.99-.05,2.96.45.63.17.64.08,1.28.21.88.18.9.07,1.27.16.44.1,1.97.59,2.52.69.75.13.74.22,1.5.24.73.02,1.94.43,2.47.69,2.12,1.05,2.62,1.21,3.81,1.25.1.01,1.57.24,2.02.37.56.17,1.1.13,2.98.87,1.27.5,1.4.29,2.8.9.19.09,1.38.6,2.51.71.99.09,2.01.98,2.99,1.18,1.16.25,1.16.26,1.26.27,1.69.14,4.44,1.67,5.79,1.69,1.27.02,2.2.04,3.72.81.18.09.75.44,1.58.85,1,.48,1.6.45,2.49.58.55.08,2.75.12,3.02.19,2.61.63,3.37,1.02,4.51,1.16.51.05.5.05,1,.17.52.12,3.02.14,3.8.41.81.28,1.15.63,1.99.64,2.07.02,2.09-.2,3.52.17.06,0,1.55.21,1.76.21.23.01.85-.06,1.26-.01,1.59.23,1.57.4,2.76.34.64-.03.62-.16,1.26-.24.45-.06.74-.22,1.25-.23,1.18-.02,1.2.06,1.99-.12,1.12-.27,1.15,0,2.28-.19,1-.17,1-.14,2.01-.03,1.26.13,2.05-.53,3.02-.63.77-.08.76-.13,1.52-.27.77-.14,2.62-1.04,3.49-1.17,1.7-.27,2.29-1.28,3.53-1.67.86-.26,1.41-.23,2.72-1.08.89-.58,1.23-1.01,2.28-1.49q.82-.38,1.58-.87c1.53-.98,1.73-.68,2.68-1.62.96-.94.93-.98,2.1-1.64,1.51-.86,1.4-1,2.03-1.5.49-.4.52-.37.99-.79.34-.3.72-.48,1.13-.88.77-.74.75-.76,1.61-1.39.12-.08.55-.35.92-.62.33-.25.37-.2.98-.77.6-.55.66-.46,1.26-1.01.72-.65.79-.57,1.49-1.26.95-.95,1.23-.94,1.73-1.52.59-.69.62-.65,1.3-1.24.66-.59.71-.54,1.25-1.23.31-.41.63-1.03,1.42-1.58.07-.05,1.73-.96,2.69-2.63.85-1.47,2.4-2.17,2.75-2.52.7-.69.32-1.01,2.87-3.41.71-.67.69-.69,1.33-1.42q.41-.48.8-.97c.9-1.12,1.16-.94,1.71-2.27.89-2.12,1.29-2.24,1.69-3.71.18-.63.19-.62.26-1.27.01-.12.4-1.35-.72-4.24-.33-.86-1.08-2.05-1.73-2.45-.72-.44-.92-.49-2.97-1.3-.48-.19-.5-.12-.99-.27-1.12-.34-1.72.07-2.75.12-.9.05-.88.2-1.76.24-.37.02-.81-.12-2.04.55-1.06.58-1.47,1.09-3.26,2.27-1.58,1.04-2.07,1.95-4.28,3.51-1.45,1.03-1.15,1.59-2.75,2.52Z"/>
</svg>