<svg xmlns="http://www.w3.org/2000/svg" fill="none" viewBox="0 0 213 61" aria-hidden="true" width="16px" height="16px"><path fill="#1C1B1B" d="M34.213 60.509V19.142l12.44.544V0H0v19.686l12.44-.544v41.367zM90.573 60.509V41.005H71.912V0H49.774v60.509h40.8M122.507 60.509c11.068 0 18.204-4.808 21.863-8.528 6.678-6.622 7.867-14.696 7.867-20.955 0-11.159-4.3-17.963-8.233-21.863C135.131.453 122.141 0 117.018 0h-23.51v60.509zm-7.044-42.002h2.378c2.562 0 6.038.453 8.691 2.903 2.012 1.904 3.567 5.17 3.567 9.071 0 3.81-1.463 6.895-3.567 8.71-3.111 2.72-6.861 2.811-9.422 2.811h-1.647zM176.683 60.509V41.095l.366-.181c.274.998.549 1.27.823 1.905l8.782 17.69h25.522l-13.722-20.412c-.823-1.27-2.012-2.177-3.201-2.812v-.544c3.567-.726 6.586-2.54 8.416-4.808 1.738-2.087 3.384-5.443 3.384-10.796 0-7.166-2.653-11.793-5.763-14.877C195.71.726 189.032 0 182.629 0h-27.535v60.509zm0-43.908h3.842c1.829 0 3.019.817 3.75 1.633.824.907 1.19 2.268 1.19 3.629 0 1.905-.824 3.085-1.556 3.72-1.372 1.179-3.384 1.36-4.665 1.36h-2.561z"></path></svg>