<?xml version="1.0" encoding="UTF-8"?>
<svg id="Layer_1" xmlns="http://www.w3.org/2000/svg" version="1.1" viewBox="64 64 232 232">
  <!-- Generator: Adobe Illustrator 30.0.0, SVG Export Plug-In . SVG Version: 2.1.1 Build 123)  -->
  <defs>
    <style>
      .st0 {
        fill: #9a9694;
      }

      .st1 {
        fill: #fff;
      }
    </style>
  </defs>
  <path class="st1" d="M285.16,220.9c-.22-.65-.63-.98-1.2-1.77-.84-1.14-1.23-2-3.42-2.36-.46-.07-2.09.14-2.77.61-1.41.98-1.65.69-3.3,2.5-1.66,1.82-1.68,1.81-2.35,3.05-.57,1.05-1.08,1.1-1.7,2.37-.19.38-1.34,2.98-1.46,3.35-.21.67-.17.67-.37,1.34-.39,1.25-1.06,2.58-1.32,3.41-.63,2.02-1.07,2.04-1.71,4.75-.41,1.72-2.23,4.71-4.02,4.91-4.28.47-5.26.36-5.78.54-.79.27-2.42.92-3.75,1.27-2.35.63-2.91,1.26-3.48,1.63-1.15.75-1.06.86-2.2,1.61-.28.18-.65.36-1.03.65-.44.34-.88.48-1.68,1.67-.89,1.33-.86,1.35-1.87,2.58-.18.22-.51.47-1.16,1.5-.39.63-1.9,4.88-2.07,6.74-.02.27-.15,1.72-.78,3.37-.62,1.59-2.57,1.74-3.46-.28-.86-1.94-.14-2.01.12-4.12.21-1.72.25-1.71.82-3.34.11-.31.11-.3,1.7-3.71.95-2.05,2.15-3.36,2.39-3.62.82-.9.85-.87,1.61-1.82.97-1.21,2.07-1.72,2.9-2.5.89-.85,1.13-1.15,1.56-1.52.19-.17.43-.35.78-.59.58-.4.55-.44,1.18-.75,3.28-1.64,3.34-1.49,4.37-1.7.78-.16,1.7-.69,2.7-.72,1.01-.03,1.01-.02,2.01-.2.84-.15,3.84.48,4.06-2.27.05-.68-.39-2.62-.4-3.05,0-.78.02-1.65-.12-2.74-.16-1.32.24-2.89.2-3.37-.02-.22-.07-.44-.1-.66-.13-1.07.08-2.55-.1-3.78-.31-2.14.05-5.31-.19-7.77-.33-3.17.53-3.55.14-5.46-.46-2.23-.64-2.24-.37-3.36.36-1.52-.07-2.19.19-6.47.22-3.54-.45-3.66-.62-5.42-.18-1.84.59-3.19.41-4.08-.02-.11-.04-.1-.3-1.37-.16-.72-.3-4.18-.3-4.73,0-1.9.04-1.9-.16-2.7-.17-.68-.09-.7-.29-1.37-.17-.61-.34-1.8-.65-2.73-.41-1.22-.01-1.92-1.1-2.99-.95-.94-.98-.9-1.79-1.97-.85-1.14-3.54-1.2-4.57-.74-2.49,1.1-4.08,3.52-4.51,5.01-.25.85-.32.83-.44,1.7-.12.86-.2.84-.25,1.71-.11,1.71-.41,1.69-.31,3.4.06.98-.31,2.52-.01,3.75.44,1.75-.04,2.69.13,5.07.31,4.23.17,5.29.11,5.75-.28,2.05.29,2.79,0,5.77-.26,2.59.19,5.01-.17,6.47-.19.76-.15.77-.16,2.04-.03,1.36-.08,1.37.18,2.71.03.13.01.13.21,1.71.31,2.36.4,2.35.3,4.73-.05,1.2.02,1.2-.05,2.39-.06,1.11.2,2.29-.03,4.09-.19,1.51-.07,1.51-.17,3.03-.07,1.19.08,1.21-.51,3.76-.11.49-.14.48-.25.97-.29,1.41-.36,1.39-.89,2.73-.57,1.46-1.97,2.07-2.56,2.84-.56.74-.76,1.02-1.14,1.33-.23.18-.53.37-.99.67-1.1.72-2.48.67-3.46.88-.82.18-.82.09-1.65-.1-2.14-.51-2.81-1.64-5.8-.19-.95.45-2.91,2.5-7.45,1.32-.69-.17-.77,0-2.01-.43-.45-.15-1.33-.61-2.4-.17-.81.33-.86.8-2.7,1.73-.76.39-1.22.81-2.03,1.06-1.35.42-1.37.29-2.76.51-1.67.26-4.31-.53-5.23,2.74-.39,1.37-.53,1.33-.69,2.74-.07.52-.1.51-.16,1.03-.05.48.09,1.5-.35,2.72-.5,1.44-.23,1.48-.24,3.73-.01,3.1.45,3.26.79,6.12.03.25.08.23.6,3.01.17.95.28,1.31.84,2.09,1.35,1.89,3.72,1.33,4.44,1.38,1.23.1,1.23.16,1.73.07,1.32-.23,2.02-.46,3.39-.22,2.52.44,2.54-.28,5.08-.03.69.07,1.32-.06,2.38.05,2.01.2,3.14-.09,4.72.16,1.62.26,1.64-.08,2.73-.09.41-.01,4.38-.06,5.09.04,2.03.28,2.03.04,4.07-.05.47-.02,1.15-.16,1.72-.1,1.52.15,1.51.27,3.04.13.18-.02.18-.01,2.36-.17.27-.03.94-.08,3.4-.04.36.01,1.96.26,3.06.23,2.05-.05,2.06.37,4.08.04,1.14-.18,4.39-.05,4.4-.05,1.69.22,1.7.24,3.36-.16,2.3-.54,2.46-1.64,2.82-2.19.44-.64.53-.99,1.02-1.69.35-.51.33-.6.66-1.03,2.1-2.74,1.92-3.17,2.56-4.17.41-.66.35-.7,1.31-2.08.9-1.32.97-1.27,1.7-2.68.53-1.02.46-1.05,1.04-2.04.61-1.06.66-2.21,1.69-3.75.43-.64,1.92-4.07,2.25-4.61.71-1.15.97-3.02,1.73-4.4.56-1,.25-1.13,1.03-2.72.41-.84.54-.81,1.01-2.05.42-1.11.62-1.04.85-2.43.57-3.39,1.46-4.29,1.67-6.44.09-.92.53-2.25.55-2.71.07-1.69.11-1.68.33-3.38.17-1.27-.16-4.83-.25-5.06Z"/>
  <path class="st1" d="M241.32,223.23c-.01.22.07.24-.06,1.03-.19,1.14-.18,1.13-.18,3.72,0,2.04-.04,2.04.05,4.07.07,1.57-.45,2.86-.78,4.74-.09.56-.22,1.53-2.12,3.21-1.62,1.42-2.55,1.27-4.21.95-.31-.06-1.41-.02-3.42-2.07-.1-.11-.43-.44-1.21-1.47-.71-.95-.74-1.66-1.16-2.97-.08-.27-.43-1.87-.5-2.73-.08-.96.11-2.03,0-4.41-.06-1.29.17-1.28.17-3.39s-.04-2.53.41-3.71c.99-2.61.98-4.59,1.76-5.72.55-.8,2.99-2.78,3.36-3.01,1.1-.69,3-1.04,4-.83,2.37.5,2.91,1.49,3.04,1.73.25.46.79,1.44.6,6.44-.03.64-.26,1.37.13,3.05.14.62.11.84.11,1.37Z"/>
  <path class="st1" d="M226.43,240.54c0,.69-.1,1.61-1.58,1.92-1,.21-3.59-.21-5.03-.67-.56-.17-1.17-.29-2.21-1.47-1.85-2.09-2.11-2.04-2.96-5.88-.19-.82-.11-.95-.11-1.03-.04-.85-.04-.84-.04-1.7,0-.08,0-.62-.09-1.03-.3-1.46-.26-1.47-.21-6.1.01-1.04.18-1.12.34-2.05.31-1.88.76-1.72,1.52-3.71.18-.48.16-1.63,1.62-3.12,1.43-1.46,1.44-1.45,2.83-2.22,1.32-.73,3.74-.39,4.66.32.9.7.88,1.47.29,2.59-.7,1.31-.64,1.34-.91,2.77-.23,1.21-.47,1.16-.54,2.39-.03.39-.31,2.5-.34,2.72-.09.66-.11.65-.25,1.31-.08.38-.1,1.38.05,2.07.34,1.51.08,1.54.27,3.07.12.99.06.99.09,1.67.05,1.19.61,2.16.9,3.1.39,1.23.38,1.23.42,1.34.59,1.83,1.27,2.45,1.28,3.71Z"/>
  <path class="st1" d="M212.38,239.84c.55,1.88,1.67,3.24-1.04,4.51-.49.23-1.25.79-4.45.6-4.12-.26-4.99-4-5.41-5.1-.91-2.41-.51-2.67-.73-4.06-.29-1.89-.06-1.9-.15-5.43-.04-1.29.39-1.25.4-3.4,0-1.36.05-1.35.28-2.69.36-2.16,1.73-2.51,2.74-3.88.09-.11.2-.71,2.59-2.16.7-.42,3.44-.96,4.65.62.71.93-.28,2.28-.55,3.38-.61,2.51.05,3.39-.4,4.74-.28.83-.19,1.08-.21,2.37.31,5.78.9,7.22,1.57,8.81.19.45.39.57.71,1.69Z"/>
  <path d="M289.4,224.58c.04.41.28,3.22-.31,5.12-.67,2.17-.28,2.26-1.02,4.42-.52,1.53-.25,1.62-.97,3.08-.73,1.49-.98,3.13-1.17,3.66-.43,1.18-.45,1.16-.74,2.37-.05.23-.18.75-1.16,2.78-.27.56-.3,1.33-1.27,3.62-.45,1.05-.42,1.06-.84,2.12-.1.24-.81,1.14-1.22,2.41-.5,1.54-.63,1.48-1.22,2.99-.69,1.75-1.33,1.89-2.02,3.4-.67,1.46-.7,1.44-1.61,2.77-.52.77-.29.89-1.01,2.03-.84,1.31-.87,1.29-.93,1.41-.43.77-.39.79-1.08,1.68-.61.78-.59.79-1.04,1.67-.51.97-1.66,2.03-1.42,3.34.31,1.65,2.31.67,4.73,1.07,2.17.37,2.18-.2,5.1-.05,4.04.21,4.07-.55,6.45,0,1.55.35,1.83,1.49,1.8,2.06-.12,1.87-2.65,1.98-4.18,2.02-2.83.06-3.42-.04-3.71-.1-1.44-.26-1.84.11-3.06-.02-1.36-.15-4.58-.07-5.13-.01-1.36.15-1.35.11-2.71-.05-1.04-.13-1.01-.36-2.02-.33-1.11.03-1.1.02-2.38.02-.78,0-1.55-.03-2.05.1-.83.22-.84.17-1.7.24-2.19.19-2.19.15-4.39.15-1.55,0-1.54.2-2.73.09-2.18-.21-2.18-.24-2.37-.25-1.24-.12-1.47.39-4.07.22-.9-.07-1.81.25-3.07.08-1.34-.18-1.35-.07-2.69-.19-1.31-.11-1.31-.18-3.05.11-1.79.31-3.83.1-5.78-.03-1.07-.07-1.13.21-5.77-.05-1.02-.06-1.01,0-2.03.02-2.7.07-6.25.01-6.79,0-.94-.02-1.15-.32-4.41-.19-4.01.17-4.01.25-4.74.11-1.36-.26-1.34-.43-2.73-.41-1.27.02-1.89.68-3.72.41-1.71-.25-1.76-.12-3.07-.11-.24,0-2.48.02-3.07.06-2.28.17-2.27.32-4.06.15-.77-.07-6.75.11-8.12-.12-1.14-.19-3.73-.07-4.11-.03-1.42.17-1.42.18-3.04.14-1.08-.03-1.8.17-2.72.08-1.96-.18-1.97.06-3.37-.16-1.53-.23-1.53-.15-3.07.05-.78.1-3.36.02-3.72-.04-.24-.03-.47-.09-.7-.12-.81-.1-4.33.26-5.75.13-1.24-.11-1.23-.15-2.72-.14-1.27,0-1.25.13-2.04.18-2.29.14-2.29.34-4.42.06-.31-.04-2.7-.1-4.06.01-1.29.1-1.74-.11-2.72-.01-2.44.26-2.43-.26-4.08-.13-2.55.2-2.55,0-4.07.04-1.52.02-1.51.11-3.04.19-3.29.17-3.28-.08-5.1-.07-1.53.02-1.53.1-3.06-.05-.88-.08-1.59.16-2.72.04-1.06-.1-1.06-.02-2.02-.1-1.36-.1-1.35-.05-2.71-.11-2.07-.09-2.05.46-4.1.3-2.2-.17-2.2-.03-4.39-.18-1.7-.12-1.7.02-3.4.02-6.24,0-6.24.03-6.78-.06-2.03-.31-2.04-.09-4.76-.14-2.04-.04-2.03.2-4.06.07-.85-.05-1.1.12-2.05.13-1.86.03-1.86.11-3.73-.02-1.88-.13-1.88.27-3.74.1-2.13-.2-2.55,0-3.72-.12-1.02-.12-1.02-.13-2.05-.15-1.97-.05-3.12-2.02-1.67-3.17,1.06-.85,1.99-.74,2.7-.72,1.23.03,1.24.39,3.39.03,2.53-.41,2.78.17,4.42.09.39-.02.38-.15,5.76-.12,1.2,0,1.19.23,2.39.16,1.94-.1,2.43-.49,2.59-.62,1.58-1.24,1.14-3.18,1.13-3.26-.34-2.98.72-4.7-1.04-5.72-.29-.16-.45-.26-4.06-.19-1.15.02-1.36.53-2.72.18-2.29-.6-3.61.35-4.87-.92-1.15-1.16-.57-3.04-.73-9.64-.06-2.52.46-2.57.1-4.73-.28-1.69.3-1.71.03-3.4-.15-.89-.13-.89-.13-9.52,0-1.48-.03-1.48-.26-2.35-.31-1.2.73-2,.38-4.08-.19-1.19-.11-1.2-.19-2.4-.02-.33.2-3.79.05-5.77-.14-1.7.02-1.69.09-3.39.03-.81-.09-1.37-.07-2.03.09-2.86-.07-3.72.1-4.77.14-.82.07-.83.21-1.65.41-2.52-.58-3.36-.38-5.1.14-1.2.08-1.2.24-2.4.09-.74-.26-3.1,1.37-3.73,1.44-.56,1.53.22,4.09-.23.63-.11.61-.34,2.71-.26.66.03,3.24,1.07,4.09-.16,1.28-1.85.55-3.29.83-5.82.17-1.47-.03-1.46-.11-3.03-.16-2.82,2.18-3.01,2.62-2.92.65.13,1.11.69,1.18.78.45.55.4.97.37,1.47-.1,2.01.04,2.2.13,3.05,0,.05.09,2.8-.06,3.71-.03.21-.3,1.83.24,2.65.96,1.46,2.84.75,4.27.72,2.8-.07,2.77-.51,4.08-.48,1.59.05,1.88.12,2.04.15.36.09,1.76.22,2.39,1.38.82,1.5.38,2.78.32,3.07-.29,1.31.05,7.03-.08,12.55-.04,1.55.19,1.54.12,2.72-.07,1.19-.05,1.18.03,2.37.04.5.02,2.98-.03,3.4-.34,2.94.03,3.92-.17,6.09-.15,1.5.22,2.25-.06,4.45-.24,1.86.26,6.36,0,9.49-.22,2.74.22,2.85.05,4.04-.2,1.36-.15,1.36-.15,2.74,0,.59-.23,1.61-.24,2.04-.02,1.2.39,1.18.22,3.39-.13,1.72.66,2.47.4,3.75-.61,2.94-1.11,3.92-2.45,4.45-1.92.76-2,.19-3.09.11-1.7-.12-1.69-.07-3.4.03-.52.03-.89.17-.99.19-.55.11-2.15-.15-2.95.45-.33.25-.78,1.01-.84,1.18-.17.43-.15.44-.11,5.79.01,2.57,2.45,2.06,3.57,2.26.22.04.43.12.65.15.61.09,1.75-.46,3.05-.29,2.59.34,2.58-.39,4.44-.2,2.39.24,2.39-.06,3.72.02,2.03.13,2.03.12,4.06,0,.46-.03,1.14.07,1.7.07,4.97.01,5,.01,5.43-.03,1.38-.12,1.38-.03,2.74.24.5.09.49.12.98.23,1.46.32,1.48-.47,7.48-.43,1.2,0,1.18.21,2.38.18,2.04-.04,2.05.14,4.07-.15.77-.11,4.24-.1,5.77.02,1.9.15,3.44-.67,6.78-.01,1.88.37,1.88-.07,3.41-.22.75-.07,3.58.43,5.09.27,1.51-.17,1.52-.06,3.03-.22,1.52-.15,1.52.12,3.41.13,1.87,0,1.86.3,3.41.13,1.85-.19,1.85-.17,2.01-.19,1.18-.16,1.19-.18,2.72.1,1.18.21,1.18.15,2.38.14,1.03,0,1.2-.22,2.38-.18.95.03.94.28,3.07.15,2.71-.16,2.72.26,5.41-.12,1.68-.24,1.68-.23,3.73-.22,1.81,0,5.51.71,6.1-.48.67-1.36-.54-3.19-1.27-4.78-.97-2.15-.01-3.89-.47-5.38-.39-1.29-.77-1.25-.53-2.71.25-1.51-.13-2.04.27-3.41.48-1.65.07-2.17.71-4.06.17-.53.36-1.7.63-2.39.54-1.35.47-1.37,1.06-2.69,1.02-2.26-1.16-2.8-2.11-5.45-.2-.58-.22-.56-.49-1.11-1.26-2.54-.96-3.05-1.27-4.99-.19-1.14-.13-5.23-.01-6.14.32-2.5-.12-3.01.36-4.76.47-1.71.42-1.73,1.15-3.35.16-.35.34-1.1.61-1.73,1.01-2.34,2.06-3.26,2.31-3.48,1.99-1.75,2.23-2.23,4.53-2.79,1.69-.41,2.11-1.17,5.04-.75,3.23.46,3.31-.16,4.86-1.69,1.3-1.28,3.76-2.31,4.64-2.54.37-.1.64-.17,4.77-.1,2.14.04,2.88,1.67,4.82-.09.69-.63,2.03-1.34,2.94-1.87.6-.36,1.12-.22,2.41-.63,2.12-.67,2.18.36,3.74.34,2.76-.03,2.11-3.05,2.04-3.36-.26-1.17-.17-1.17-.16-2.37.01-.97.48-1.94.38-3.05-.24-2.54-.08-2.54-.13-5.1-.03-1.76.09-2.5.09-3.05,0-1.04.13-3.02.04-3.72-.17-1.36-.03-1.37-.27-2.72-.27-1.52.51-2.09.57-4.42.02-.88.17-.84.36-1.73.29-1.38.24-1.39.79-2.69.34-.82.85-1.33,1.07-1.67.85-1.37,2.09-2.34,2.42-2.67,1.92-1.91,1.5-4.03,1.37-4.83-.15-1-.03-.99.1-2.38.17-1.86-.27-3.28.03-6.11.19-1.77.02-1.89-.19-4.39-.01-.13.13-1.83.16-2.06.19-1.34.11-1.34.26-2.68.23-2.1-.12-4.99-.43-5.79-.9-2.31-2.73-1.49-3.75-1.47s-1.02-.01-2.01.21c-.86.18-1.59-.17-2.05-.2-1-.07-1-.01-2.39.08-.5.03-1.32-.22-1.59-.44-1.22-.99-1.37-2.82-1.21-3.96.33-2.18-.04-3.04.22-4.71.24-1.63-.17-1.97-.06-3.41.17-2.19-.16-2.18-.17-3.4-.02-1.57.58-1.99.2-5.11-.11-.9-.07-2.91-.02-3.36.15-1.37.14-1.37-.01-2.74-.24-2.29-.24-2.49-.23-2.71.12-2.54.68-3.16.86-3.37.88-.98,2.41-.77,4.05-.76,2.38.02,2.37.14,4.75.14,1.24,0,3.38.45,3.79-.73.45-1.28-.43-2.04-.18-4.12.28-2.39-.05-2.39-.08-3.38-.05-1.7-.02-1.7.15-3.39.14-1.51-.29-1.5-.11-5.43.09-2.1-.03-2.55-.04-3.05-.05-1.66-.35-1.66-.14-2.72.38-1.99.71-2.3,1.61-2.87,1.75-1.1,3.06.82,2.75,3.89-.14,1.36-.12,1.36.01,2.72.1.97-.16,1.74-.11,2.72.17,3.23-.28,5.14,0,8.16.09,1.01,0,1-.05,2.02-.12,2.81-.85,4.23.41,5.54,1.14,1.19,2.1.6,4.2.6.51.01.5.02,1.02.03,2.98.02,3.45-1,5.07-.37,1.16.45,2.45.63,2.64,2.69.14,1.56.36,1.56.16,2.72-.27,1.62-.19,4.46,0,5.4.34,1.75-.51,1.87-.28,5.09.16,2.22.26,2.81.29,3.06.26,1.58-.64,2.57-.22,5.13.19,1.23-.1,2.34.19,3.69.35,1.57-.09,2.84-.12,3.4,0,.23,0,.45-.02.68-.05.86-.68,2.64-2.62,2.36-.48-.07-.87-.13-6.11-.09-1.58.01-2.05-.26-3.05-.17-1.34.13-1.96,1.94-1.85,3.01.05.44.16.42.43,2.71.08.71.04,5.1.02,5.42-.13,2.35.14,2.39,0,3.73-.16,1.36-.14,1.35-.16,2.72-.02,1.63-.82,2.49-.13,5.09.41,1.56-.39,1.8.26,3.77.24.74,1.72,1.1,3.05,1.81.68.36.7.3,1.4.62,1.54.7,3.88,3.56,4.13,3.96.69,1.07,1.56,1.86,1.88,3.44.44,2.15.34,2.16.38,2.7.02.31.22.99.28,1.37.09.53.12.51.22.98.07.29.05,1.04.05,3.07,0,1.53.07,1.52.32,2.69.17.83-.02,1.92.03,3.07.19,4.51-.21,5.26.15,6.48.34,1.12.23,1.13.24,3.03.01,1.36.2,1.36.05,2.7-.15,1.28.02,3.05-.03,4.42-.04,1.21.08,1.2.1,2.38.02,1.36-.05,1.36.05,2.72.05.68-.21,2.08-.19,2.71.08,2.83.02,2.83.04,3.08.03.32.16.31.2,3.37.02,1.33-.28,1.56-.26,3.05,0,.24.04,3.21,1.52,2.6,1.56-.64,1.31-2.75,2.31-4.35.65-1.05,1.48-3.02,1.86-3.64.82-1.34,1.01-1.17,2.06-2.34,1.25-1.38,1.68-1.54,2.32-2.08,1-.84,1.22-.97,1.34-1.03,1.88-1.06,2.25-1.13,3.05-1.06.85.07.85.09,1.69,0,2.43-.26,2.51.1,3.77.63.2.09,1.63.69,2.43,1.32,1.67,1.28,1.75,2.19,2.06,2.78.63,1.2.57,1.93.93,3.1.45,1.46.26,2.63.36,3.73ZM285.41,225.96c.17-1.27-.16-4.83-.25-5.06-.22-.65-.63-.98-1.2-1.77-.84-1.14-1.23-2-3.42-2.36-.46-.07-2.09.14-2.77.61-1.41.98-1.65.69-3.3,2.5-1.66,1.82-1.68,1.81-2.35,3.05-.57,1.05-1.08,1.1-1.7,2.37-.19.38-1.34,2.98-1.46,3.35-.21.67-.17.67-.37,1.34-.39,1.25-1.06,2.58-1.32,3.41-.63,2.02-1.07,2.04-1.71,4.75-.41,1.72-2.23,4.71-4.02,4.91-4.28.47-5.26.36-5.78.54-.79.27-2.42.92-3.75,1.27-2.35.63-2.91,1.26-3.48,1.63-1.15.75-1.06.86-2.2,1.61-.28.18-.65.36-1.03.65-.44.34-.88.48-1.68,1.67-.89,1.33-.86,1.35-1.87,2.58-.18.22-.51.47-1.16,1.5-.39.63-1.9,4.88-2.07,6.74-.02.27-.15,1.72-.78,3.37-.62,1.59-2.57,1.74-3.46-.28-.86-1.94-.14-2.01.12-4.12.21-1.72.25-1.71.82-3.34.11-.31.11-.3,1.7-3.71.95-2.05,2.15-3.36,2.39-3.62.82-.9.85-.87,1.61-1.82.97-1.21,2.07-1.72,2.9-2.5.89-.85,1.13-1.15,1.56-1.52.19-.17.43-.35.78-.59.58-.4.55-.44,1.18-.75,3.28-1.64,3.34-1.49,4.37-1.7.78-.16,1.7-.69,2.7-.72,1.01-.03,1.01-.02,2.01-.2.84-.15,3.84.48,4.06-2.27.05-.68-.39-2.62-.4-3.05,0-.78.02-1.65-.12-2.74-.16-1.32.24-2.89.2-3.37-.02-.22-.07-.44-.1-.66-.13-1.07.08-2.55-.1-3.78-.31-2.14.05-5.31-.19-7.77-.33-3.17.53-3.55.14-5.46-.46-2.23-.64-2.24-.37-3.36.36-1.52-.07-2.19.19-6.47.22-3.54-.45-3.66-.62-5.42-.18-1.84.59-3.19.41-4.08-.02-.11-.04-.1-.3-1.37-.16-.72-.3-4.18-.3-4.73,0-1.9.04-1.9-.16-2.7-.17-.68-.09-.7-.29-1.37-.17-.61-.34-1.8-.65-2.73-.41-1.22-.01-1.92-1.1-2.99-.95-.94-.98-.9-1.79-1.97-.85-1.14-3.54-1.2-4.57-.74-2.49,1.1-4.08,3.52-4.51,5.01-.25.85-.32.83-.44,1.7-.12.86-.2.84-.25,1.71-.11,1.71-.41,1.69-.31,3.4.06.98-.31,2.52,0,3.75.44,1.75-.04,2.69.13,5.07.31,4.23.17,5.29.11,5.75-.28,2.05.29,2.79,0,5.77-.26,2.59.19,5.01-.17,6.47-.19.76-.15.77-.16,2.04-.03,1.36-.08,1.37.18,2.71.03.13.01.13.21,1.71.31,2.36.4,2.35.3,4.73-.05,1.2.02,1.2-.05,2.39-.06,1.11.2,2.29-.03,4.09-.19,1.51-.07,1.51-.17,3.03-.07,1.19.08,1.21-.51,3.76-.11.49-.14.48-.25.97-.29,1.41-.36,1.39-.89,2.73-.57,1.46-1.97,2.07-2.56,2.84-.56.74-.76,1.02-1.14,1.33-.23.18-.53.37-.99.67-1.1.72-2.48.67-3.46.88-.82.18-.82.09-1.65-.1-2.14-.51-2.81-1.64-5.8-.19-.95.45-2.91,2.5-7.45,1.32-.69-.17-.77,0-2.01-.43-.45-.15-1.33-.61-2.4-.17-.81.33-.86.8-2.7,1.73-.76.39-1.22.81-2.03,1.06-1.35.42-1.37.29-2.76.51-1.67.26-4.31-.53-5.23,2.74-.39,1.37-.53,1.33-.69,2.74-.07.52-.1.51-.16,1.03-.05.48.09,1.5-.35,2.72-.5,1.44-.23,1.48-.24,3.73-.01,3.1.45,3.26.79,6.12.03.25.08.23.6,3.01.17.95.28,1.31.84,2.09,1.35,1.89,3.72,1.33,4.44,1.38,1.23.1,1.23.16,1.73.07,1.32-.23,2.02-.46,3.39-.22,2.52.44,2.54-.28,5.08-.03.69.07,1.32-.06,2.38.05,2.01.2,3.14-.09,4.72.16,1.62.26,1.64-.08,2.73-.09.41-.01,4.38-.06,5.09.04,2.03.28,2.03.04,4.07-.05.47-.02,1.15-.16,1.72-.1,1.52.15,1.51.27,3.04.13.18-.02.18,0,2.36-.17.27-.03.94-.08,3.4-.04.36.01,1.96.26,3.06.23,2.05-.05,2.06.37,4.08.04,1.14-.18,4.39-.05,4.4-.05,1.69.22,1.7.24,3.36-.16,2.3-.54,2.46-1.64,2.82-2.19.44-.64.53-.99,1.02-1.69.35-.51.33-.6.66-1.03,2.1-2.74,1.92-3.17,2.56-4.17.41-.66.35-.7,1.31-2.08.9-1.32.97-1.27,1.7-2.68.53-1.02.46-1.05,1.04-2.04.61-1.06.66-2.21,1.69-3.75.43-.64,1.92-4.07,2.25-4.61.71-1.15.97-3.02,1.73-4.4.56-1,.25-1.13,1.03-2.72.41-.84.54-.81,1.01-2.05.42-1.11.62-1.04.85-2.43.57-3.39,1.46-4.29,1.67-6.44.09-.92.53-2.25.55-2.71.07-1.69.11-1.68.33-3.38ZM260.99,136.37c.15-.97-.38-1.17-.39-2.74-.02-2.31.24-2.3.16-4.4-.04-.9-.1-.89-.05-1.71.14-1.93-.06-2.33.12-4.41.1-1.15-.16-1.14-.07-4.07.03-1.32-.15-1.35-.17-2.38-.03-2.84.61-3.46-.06-4.76-.3-.57-1.37-1.21-2.07-1.12-.31.04-.29.26-2.02.3-.39,0-.61-.08-1.35-.06-1.88.07-1.89.19-3.74-.11-1.43-.23-1.44.04-3.39-.1-3.19-.24-4.07.02-4.41.12-1.73.51-2.43-.56-3.74-.03-.19.08-1.38.57-1.68,2.04-.17.81.54,1.54.33,3.73-.23,2.36-.21,2.37.1,4.73.48,3.73-.41,4.74-.35,6.12.09,2.29.36,2.29.15,4.06-.08.69-.06,1.18-.07,2.05-.05,1.54-.15,3.69,3.55,3.6,1.02-.02,1.01-.07,1.71-.13.98-.08,1.79.35,2.71.37,1.94.02,1.93-.12,2.35-.2.66-.13.87.05,2.41-.15q.84-.1,1.67,0c.16.02.16,0,2.06.17,1.18.11,1.19-.06,2.36.11,2.42.35,3.66.43,3.88-1.04ZM241.26,224.26c.13-.79.05-.81.06-1.03,0-.53.03-.75-.11-1.37-.39-1.68-.16-2.41-.13-3.05.19-5-.35-5.98-.6-6.44-.13-.24-.67-1.23-3.04-1.73-1-.21-2.9.14-4,.83-.37.23-2.81,2.21-3.36,3.01-.78,1.13-.77,3.11-1.76,5.72-.45,1.18-.41,1.58-.41,3.71s-.23,2.1-.17,3.39c.1,2.38-.09,3.45,0,4.41.07.86.42,2.46.5,2.73.42,1.31.45,2.02,1.16,2.97.78,1.03,1.11,1.36,1.21,1.47,2.01,2.05,3.11,2.01,3.42,2.07,1.66.32,2.59.47,4.21-.95,1.9-1.68,2.03-2.65,2.12-3.21.33-1.88.85-3.17.78-4.74-.09-2.03-.05-2.03-.05-4.07,0-2.59,0-2.58.18-3.72ZM224.85,242.46c1.48-.31,1.59-1.23,1.58-1.92-.01-1.26-.69-1.88-1.28-3.71-.04-.11-.03-.11-.42-1.34-.29-.94-.85-1.91-.9-3.1-.03-.68.03-.68-.09-1.67-.19-1.53.07-1.56-.27-3.07-.15-.69-.13-1.69-.05-2.07.14-.66.16-.65.25-1.31.03-.22.31-2.33.34-2.72.07-1.23.31-1.18.54-2.39.27-1.43.21-1.46.91-2.77.59-1.12.61-1.89-.29-2.59-.92-.71-3.34-1.05-4.66-.32-1.39.77-1.4.76-2.83,2.22-1.46,1.49-1.44,2.64-1.62,3.12-.76,1.99-1.21,1.83-1.52,3.71-.16.93-.33,1.01-.34,2.05-.05,4.63-.09,4.64.21,6.1.09.41.09.95.09,1.03,0,.86,0,.85.04,1.7,0,.08-.08.21.11,1.03.85,3.84,1.11,3.79,2.96,5.88,1.04,1.18,1.65,1.3,2.21,1.47,1.44.46,4.03.88,5.03.67ZM211.34,244.35c2.71-1.27,1.59-2.63,1.04-4.51-.32-1.12-.52-1.24-.71-1.69-.67-1.59-1.26-3.03-1.57-8.81.02-1.29-.07-1.54.21-2.37.45-1.35-.21-2.23.4-4.74.27-1.1,1.26-2.45.55-3.38-1.21-1.58-3.95-1.04-4.65-.62-2.39,1.45-2.5,2.05-2.59,2.16-1.01,1.37-2.38,1.72-2.74,3.88-.23,1.34-.28,1.33-.28,2.69-.01,2.15-.44,2.11-.4,3.4.09,3.53-.14,3.54.15,5.43.22,1.39-.18,1.65.73,4.06.42,1.1,1.29,4.84,5.41,5.1,3.2.19,3.96-.37,4.45-.6ZM106.96,207.62c.02-.88-.25-1.13-.12-2.03.03-.17.22-1.11,0-1.73-.17-.53-.87-1.38-2.13-1.06-.64.17-.64.2-3.04.19-1.93-.01-1.94-.51-3.4-.17-.42.1-1.19.28-5.42.17-.77-.02-.85-.27-3.06-.32-1.52-.03-1.51.05-3.05,0-.47-.01-1.8-.04-2.64.93-.16.18-.84.97-.25,2.95.07.24.19.47.26.7.09.31.01.54.18,1.74.21,1.51.16,1.52-.09,3.02-.05.28-.52,1.4-.26,2.42.05.21.14.42.19.63.13.56-.05.98.12,2.42q.09.83,0,1.66c-.05.52-.04.94-.04,2.39,0,4.55-.09,4.55-.02,5.77.2,3.57-.23,3.7.15,6.11.28,1.88-.11,1.88-.09,6.79.01,2.25-.43,2.21-.4,3.05.02.5.32.86.33,1.69.04,2.14-.12,2.74.06,3.76.46,2.61,0,2.72-.03,5.75-.04,2.49-.79,3.35.14,5.44.47,1.06,1.43.86,4.09.85,1.01,0,1.66-.24,2.37-.16,1.36.16,1.36.15,2.73.08,1.36-.08,2.67.22,4.74.19,1.05-.02,2.06.44,3.75.1,1-.19.99.04,2.01.1.9.06,2.61.37,2.63-1.85.03-3.42-.06-4.08-.11-4.43-.19-1.35.04-4.67.06-5.08.09-1.18.02-1.18.1-2.37.11-1.61-.51-1.97.02-3.74.5-1.67-.04-2.31-.07-3.38-.14-5.63.17-5.61.22-6.44.09-1.29-.22-1.28-.21-3.07.01-4.17-.07-4.7-.13-5.11-.28-1.92.75-2.83.26-4.74-.42-1.64.04-2.75-.01-3.38-.1-1.05-.13-1.04-.13-2.72,0-2.09-.02-2.09.13-3.05.12-.82.06-1.27.15-4.07Z"/>
  <path class="st0" d="M260.6,133.63c0,1.57.54,1.77.39,2.74-.22,1.47-1.46,1.39-3.88,1.04-1.17-.17-1.18,0-2.36-.11-1.9-.18-1.9-.15-2.06-.17q-.83-.11-1.67,0c-1.54.2-1.75.02-2.41.15-.42.08-.41.22-2.35.2-.92-.02-1.73-.45-2.71-.37-.7.06-.69.11-1.71.13-3.7.09-3.6-2.06-3.55-3.6.01-.87,0-1.36.07-2.05.21-1.77-.06-1.77-.15-4.06-.06-1.38.83-2.39.35-6.12-.31-2.36-.33-2.37-.1-4.73.21-2.19-.5-2.92-.33-3.73.3-1.47,1.49-1.96,1.68-2.04,1.31-.53,2.01.54,3.74.03.34-.1,1.22-.36,4.41-.12,1.95.14,1.96-.13,3.39.1,1.85.3,1.86.18,3.74.11.74-.02.96.06,1.35.06,1.73-.04,1.71-.26,2.02-.3.7-.09,1.77.55,2.07,1.12.67,1.3.03,1.92.06,4.76.02,1.03.2,1.06.17,2.38-.09,2.93.17,2.92.07,4.07-.18,2.08.02,2.48-.12,4.41-.05.82,0,.81.05,1.71.08,2.1-.18,2.09-.16,4.4Z"/>
  <path d="M227.13,180.48c.12,1.19.03,1.19-.06,2.71-.08,1.52-.03,1.52-.22,3.04-.06.47.1,1.19.12,1.36.19,1.81-.2,2.53-1.41,3.07-1.56.7-2.22.45-4.08.51-1.66-.06-1.66-.03-2.05-.1-.24-.05-1.78-.34-3.04-.08-1.56.32-3.57.63-3.05,3.05.21,1.02.11,1.03.13,1.69.08,1.82.29,2.03.32,2.37.17,1.63.22,2.64-.59,4.36-.6,1.27-2.42,1.57-3.53-.64-.1-.19-.5-.98-.16-2.71.33-1.66.2-1.67.22-3.37,0-1.2.18-1.2.02-2.39-.03-.24-.27-2.11-1.84-2.4-1.5-.27-3.44.31-3.73.4-.68.2-3.1.15-3.74,0-1.55-.32-1.59-.14-2.34-.46-2.02-.86-1.52-2.29-1.58-5.69-.02-.98-.41-1.23-.2-2.71.31-2.21-.04-2.23.28-4.43.27-1.84.13-1.85.13-3.71-.01-2.22-.2-2.2-.21-4.41,0-1.38-.31-1.35-.34-2.72-.06-3.17.32-4.15.36-4.75.12-1.7.27-1.69.07-3.38-.23-1.87.1-1.89-.25-3.74-.19-.99.05-1.38.12-2.03.16-1.42.04-5.71.03-5.79-.03-.6-.33-1.03-.22-1.7.12-.75.28-.73.23-2.71-.03-.87-.32-1.09-.15-2.03.13-.73.16-.72.15-3.39,0-1.51-.35-1.56-.15-2.72.63-3.5-.86-10.46,2.72-9.89,1.7.27,1.73-.06,3.42.22,1.32.22,2.8-.08,3.72.01.13.01,1.17.11,1.66.03,1.5-.21,2.03-1.99,1.78-3.95q-.08-.66.11-2.06c.32-2.42-.39-2.38-.35-3.7.08-2.82,3.2-3.83,4.32-.7.55,1.55,0,4.48-.07,4.77-.23.83-.17.84-.19,1.7,0,.78-.22,1.17-.25,1.69-.17,3.16,2.75,2.09,4.17,2.14,2.01.07,2.15.79,4.39.16,1.42-.39,3.36-.3,4,.2,1.59,1.25,1.22,3.29,1.11,4.63-.06.71.11.76.08,2.38,0,.84-.46,1.99-.14,3.41.38,1.71-.04,1.92,0,3.04.03.58.17.58.14,4.75-.03,3.9.08,7.69-.09,8.48-.45,2,.07,2.09.08,3.39.04,2.31-.11,2.3-.17,2.7-.3,1.97.18,2.18.17,10.2,0,3.3-.5,3.31-.12,5.1.21,1.01.09,1.02.14,2.02.05,1.2,0,1.19,0,2.38-.03,1.73.07,1.72.13,2.39ZM219.78,187.23c1.68-.42,3.68.3,3.61-4.04-.02-1.53-.81-2.79-.6-4.42.34-2.64-.03-4.06.05-5.09.03-.35.19-2.59.04-4.41-.28-3.27.56-3.31,0-5.78-.26-1.16-.2-1.17-.19-2.37.02-1.29.3-1.35.19-2.71-.12-1.53.04-1.53.04-3.06,0-1.42-.48-2.82-.11-4.42.57-2.52.1-2.53-.1-4.38-.11-.94.09-4.24.11-4.43.32-2.65-.13-4.87.28-9.85.03-.34.23-.83.1-1.35-.45-1.83-1.61-1.57-3.74-1.62-1.65-.03-1.65-.36-3.06-.12-.87.14-.87.1-1.69.13-2.44.09-2.44-.09-4.08-.08-2.25.01-2.23.25-5.09.23-1.53,0-4.32-.89-4.86,1.09-.15.54-.09,2.88.06,3.77.35,1.99-.51,2.46-.47,3.73.04,1.29.24,1.55.27,1.67.14.62.08,3.17-.01,3.77-.21,1.34-.14,1.33-.22,2.69-.06,1.17.04,1.16.24,2.02.1.42.11,2.53-.03,3.1-.2.83-.24.83-.25,1.68-.02,1.76.08,2.2.13,2.39.28,1.15-.05,1.18.11,2.35.2,1.51.1,1.52.12,7.48,0,1.7.26,1.69.04,3.37-.31,2.42.45,4.23.05,6.8-.18,1.19,0,1.21-.3,2.37-.39,1.54.2,2.27,0,3.74-.03.22-.09.67-.26,2.72-.02.25.02,1.14.36,1.66.96,1.47,2.4,1.23,2.99,1.21,2.44.09,2.44,0,3.39,0,2.21.03,2.22-.12,4.41.24.91.15,1.76-.22,2.72-.23,2.45-.03,2.82,0,3.06,0,1.36.1,1.37.47,2.7.14Z"/>
  <path class="st0" d="M223.39,183.19c.07,4.34-1.93,3.62-3.61,4.04-1.33.33-1.34-.04-2.7-.14-.24,0-.61-.04-3.06,0-.96,0-1.81.38-2.72.23-2.19-.36-2.2-.21-4.41-.24-.95,0-.95.09-3.39,0-.59.02-2.03.26-2.99-1.21-.34-.52-.38-1.41-.36-1.66.17-2.05.23-2.5.26-2.72.2-1.47-.39-2.2,0-3.74.3-1.16.12-1.18.3-2.37.4-2.57-.36-4.38-.05-6.8.22-1.68-.03-1.67-.04-3.37-.02-5.96.08-5.97-.12-7.48-.16-1.17.17-1.2-.11-2.35-.05-.19-.15-.63-.13-2.39,0-.85.05-.85.25-1.68.14-.57.13-2.68.03-3.1-.2-.86-.3-.85-.24-2.02.08-1.36,0-1.35.22-2.69.09-.6.15-3.15.01-3.77-.03-.12-.23-.38-.27-1.67-.04-1.27.82-1.74.47-3.73-.15-.89-.21-3.23-.06-3.77.54-1.98,3.33-1.09,4.86-1.09,2.86.02,2.84-.22,5.09-.23,1.64-.01,1.64.17,4.08.08.82-.03.82.01,1.69-.13,1.41-.24,1.41.09,3.06.12,2.13.05,3.29-.21,3.74,1.62.13.52-.07,1.01-.1,1.35-.41,4.98.04,7.2-.28,9.85-.02.19-.22,3.49-.11,4.43.2,1.85.67,1.86.1,4.38-.37,1.6.11,3,.11,4.42,0,1.53-.16,1.53-.04,3.06.11,1.36-.17,1.42-.19,2.71-.01,1.2-.07,1.21.19,2.37.57,2.47-.27,2.51,0,5.78.15,1.82,0,4.06-.04,4.41-.08,1.03.29,2.45-.05,5.09-.21,1.63.58,2.89.6,4.42Z"/>
  <path d="M190.22,204.22c.01.85-.24,1.38-.17,4.75,0,.71.33.9-.12,3.4-.16.92.08,1.08.11,2.03.06,1.88.09,1.87.08,2.04-.12,2.19-.08,2.19-.09,2.38-.17,2.55.24,2.57-.18,5.08-.35,2.16.34,4.83-.46,5.88-.88,1.16-1.83,1.21-1.85,1.21-2.02.32-2.51-.39-5.11-.08-2.75.32-2.77-.04-4.04.16-3.71.58-1.67,3.43-1.97,5.41-.03.24-.26,1.72-.08,3.04.41,3.14.1,3.15.19,7.13.02.75.47,1.3-.06,4.1-.22,1.16-1.1,1.82-1.82,1.84-1.68.04-2.11-1.95-2.16-2.19-.06-.26-.05-.26-.03-3.42,0-1.16.17-1.17.05-2.01-.28-1.86-.15-1.86-.06-2.74.03-.3-.01-.3.08-3.73.05-1.54.25-1.52.25-3.05.01-1.1.03-2.25-.13-2.73-.79-2.39-2.7-1.78-3.09-1.72-1.8.26-1.8.09-4.07.01-1.21-.04-1.2-.24-2.4-.09-2.02.24-3.13.46-3.8-2.24-.24-.98.34-1.31.05-2.73-.13-.61-.1-.95-.1-2.04,0-1.76-.31-1.76-.13-3.05.35-2.6-.05-4.6.2-5.79.31-1.42.25-1.43.16-3.05-.06-1.15.17-1.16-.13-2.35-.74-2.86.26-4.15.22-5.45-.02-.68-.02-.67-.02-1.35-.01-1.2.08-1.21-.22-2.36-.08-.31-.13-1.18-.13-1.39-.03-.97.05-2.18.06-2.37.08-1.25.55-1.31.1-3.04-.08-.31-.12-.31-.11-5.78,0-3.57-.12-3.62.47-5.09.72-1.8,2.5-1.52,3.07-1.54.81-.03,1.32-.36,2.37-.16q.85.16,1.71.2c.52.03,1.88.49,3.05.19,1.43-.35,2.22-.55,2.49-2.06.49-2.63-.46-3.11.23-5.45.34-1.15-.14-1.87-.19-2.39-.18-2.07-.07-3.1-.04-3.37.15-1.39-.32-2.93.24-4.41.21-.55.44-1.59,1.67-1.72,2.11-.22,2.16,2.02,2.35,3.75.06.64-.34,2.72-.35,3.39-.05,2.73.06,3.42.11,3.72.05.32.15.93.08,4.09-.02,1.14-.75,2.51.26,3.66,1.22,1.38,2.68.78,2.97.7,1.07-.29,2.29,0,3.42-.24,1.56-.34,2.18.03,3.37.07.56.03,2.33-.17,3.08,1.91.58,1.61.44,2.63.44,3.06,0,1.31-.42,2.25-.53,3.04-.1.72.1,1.88.13,2.04.18.98-.16,1.39-.07,2.05.14,1.01.18,1.01.2,2.04.03,1.34.26,1.32.27,2.7.02,1.37.18,1.36.18,2.72,0,1.7-.04,1.69,0,3.39ZM186.13,196.08c.07-4.05-.19-4.39-.26-4.76-.15-.79.05-1.05.09-1.68.11-1.91.31-4.87-2.82-4.63-3.39.26-3.42-.23-6.78.31-.88.14-1.63-.26-2.4-.32-1.54-.12-1.65.29-3.71.13-1.36-.1-1.36.03-2.73.03-1.86,0-2.96-.38-3.78-.04-.21.09-.93.39-.53,2.79.26,1.52-.24,1.54-.02,3.06.11.74.13.73.13,3.07-.01,1.69-.38,3.25-.11,4.73.24,1.31.02,2.53.14,3.43.13,1.03.1,1.03-.07,2.05-.3,1.79.01,2.07.03,3.03.03,1.28.12,1.27.19,2.37.05.86-.46,2.97-.33,4.41.12,1.36.1,1.36,0,2.73-.1,1.42.49,2.78.37,3.4-.04.22-.13.43-.17.65-.01.04-.39,3.04-.33,3.75.31,3.6,3.26,1.82,7.18,2.49.98.17,3.8.03,4.11-.01.48-.07.48-.16,4.73-.14,1.79.01,1.77.26,3.06.22,1.71-.06,3.41.23,3.91-1.59.25-.9-.02-3.4-.17-4.03-.23-1-.03-1.01.09-2.02.16-1.31.24-1.32.13-2.38-.16-1.7-.1-1.7-.12-3.41-.02-1.19-.35-1.17-.22-2.72.17-2.03-.06-2.03-.07-4.06,0-.11.02-.23.02-.34.07-1.73.63-2.23.4-3.72-.06-.4-.19-1.22-.12-5.1.01-.59.15-.96.16-1.7Z"/>
  <path class="st0" d="M185.87,191.32c.07.37.33.71.26,4.76,0,.74-.15,1.11-.16,1.7-.07,3.88.06,4.7.12,5.1.23,1.49-.33,1.99-.4,3.72,0,.11-.02.23-.02.34.01,2.03.24,2.03.07,4.06-.13,1.55.2,1.53.22,2.72.02,1.71-.04,1.71.12,3.41.11,1.06.03,1.07-.13,2.38-.12,1.01-.32,1.02-.09,2.02.15.63.42,3.13.17,4.03-.5,1.82-2.2,1.53-3.91,1.59-1.29.04-1.27-.21-3.06-.22-4.25-.02-4.25.07-4.73.14-.31.04-3.13.18-4.11.01-3.92-.67-6.87,1.11-7.18-2.49-.06-.71.32-3.71.33-3.75.04-.22.13-.43.17-.65.12-.62-.47-1.98-.37-3.4.1-1.37.12-1.37,0-2.73-.13-1.44.38-3.55.33-4.41-.07-1.1-.16-1.09-.19-2.37-.02-.96-.33-1.24-.03-3.03.17-1.02.2-1.02.07-2.05-.12-.9.1-2.12-.14-3.43-.27-1.48.1-3.04.11-4.73,0-2.34-.02-2.33-.13-3.07-.22-1.52.28-1.54.02-3.06-.4-2.4.32-2.7.53-2.79.82-.34,1.92.03,3.78.04,1.37,0,1.37-.13,2.73-.03,2.06.16,2.17-.25,3.71-.13.77.06,1.52.46,2.4.32,3.36-.54,3.39-.05,6.78-.31,3.13-.24,2.93,2.72,2.82,4.63-.04.63-.24.89-.09,1.68Z"/>
  <path d="M149.79,191.68c.14.91.17.91.16,3.38,0,1.55-.54,2.45-.49,3.74.06,1.88-.24,4.11.05,5.09.36,1.22.14,1.25.35,2.71.51,3.66-.86,3.8-.52,6.08.13.87.33,1.07.35,1.72.05,1.53.01,1.53.07,3.07.01.19.01,2.6,0,2.7-.09,2.04-.62,2.04-.23,3.4.34,1.18.32,4.21-.68,5.09-1.59,1.4-4.14.58-6.78,1.02-1.15.2-1.15-.07-2.71-.15-.86-.04-1.92-.53-2.96.89-.97,1.32.37,3.22-.1,8.42-.31,3.47-.17,3.53-.1,4.42.06.64.38,1.29.17,2.38-.34,1.66-.08,1.68-.22,3.37-.17,2.04.05,2.04.05,4.08,0,2.4.03,2.62-.91,3.74-.84,1-2.44.83-3.02-.7-.36-.97-.09-4.67-.16-7.44-.04-1.84-.03-1.84.19-2.7.02-.11.08-.34.11-1.38.03-.89-.28-1.11-.29-2.03-.03-1.62.13-1.6.22-2.37.12-.97-.22-.97-.22-2.39-.03-6.56.21-7.23-.67-8.02-.72-.63-2.49-.27-2.62-.26,0,0-6.36.01-6.78,0-1.67-.06-2.17-.49-2.31-.61-1.7-1.47-.35-3.46-.69-5.36-.52-2.95.28-4.58.02-6.45-.22-1.52-.11-1.52-.14-4.4-.02-2.59.12-2.58.17-3.39.07-1.25-.17-1.24-.17-3.06-.02-16.6.1-16.61-.13-20.03-.07-.99.22-3.19.14-6.1,0-.25,0-3.92,0-4.42.02-.68.26-1.36.17-2.72-.13-2.18.34-2.46-.02-3.75-.33-1.17-.43-1.17-.23-2.37.27-1.64-.24-3.13-.05-4.36.38-2.42-.13-2.51.26-4.77.23-1.37.02-2.21-.02-2.4-.33-1.33-.28-1.35-.16-2.71.19-2.03-.19-5.84.17-7.78.07-.34-.02-2.84,2.3-3.15,3.31-.45,4.02.25,5.1.14,1.53-.16,1.53-.25,3.06-.14,2.42.17,2.48-.94,2.68-2.64.16-1.33-.24-1.37.02-2.71.31-1.6-.04-1.6-.1-2.71-.07-1.46.22-2.42-.13-4.77-.23-1.56.38-2.89.39-3.71.06-2.6-.08-2.58-.18-3.06-.03-.15-.22-1.83-.23-2.04-.04-1.12.14-1.11.15-2.72,0-.92-.09-1.41.35-2.41.61-1.38,1.77-1.21,1.79-1.21,1.39.08,2.17,2.27,2.2,3.28.03,1.32-.05,1.65.02,4.42.02.66-.56,4.03-.16,6.1.29,1.53-.64,2.7-.4,4.09.3,1.78.39,1.79.16,3.4-.15,1.11.11,1.1.12,3.04,0,1.47-.54,4.14,3.49,3.91.12-.01,1.98-.37,3.4-.22,2.2.23,2.2-.01,4.39.18,1.45.11,1.81.9,2.13,2.22.13.58.02.59.14,1.73.18,1.61-.13,2.83-.05,3.71.1,1.02.17,1.01.06,2.02-.13,1.2-.05,3.45-.04,3.75-.07,1.88.21,1.9-.21,3.73-.32,1.37,1.01,1.71.12,4.45-.26.82-.29.82-.23,1.67.04.43.37,1.2.36,2.03-.02,1.19-.04,1.19-.06,2.38-.03,1.2.14,1.21-.2,2.36-.33,1.17.17,1.84.19,2.72.03,1.11.04,5.79.02,6.45-.06,1.43-.64,2.37-.13,4.41.29,1.13-.05,4.47.21,6.13ZM145.87,149.93c.05-2.2-.1-2.46-.2-2.65-.38-.65-1.32-1.19-1.61-1.32-.97-.43-2.68-.4-3.71-.24-.92.14-7.56.12-8.44,0-1.36-.17-1.36.14-2.72,0-.35-.04-1.36-.15-4.43-.08-1.96.04-2.14,1.49-2,2.25.26,1.52.27,1.51.22,3.06s.37,1.83.21,4.09c-.12,1.69-.06,1.68,0,3.37.05,1.86-.46,1.86-.05,6.11.24,2.51-.41,3.02-.19,5.45.02.27.2,2.24.02,3.36-.19,1.21-.16,1.21,0,2.41.18,1.26-.09,2.46-.1,2.71-.2,3.42.38,4.38.26,5.43-.24,2.12,0,2.31-.35,3.74-.29,1.16-.22,1.17.02,2.35.07.34.05,1.52.07,1.7.08,1.05.2,1.05.16,9.51-.01,1.78-.24,1.76-.16,2.71.11,1.31.35,1.54.21,3.74-.18,3.01.12,3.07.08,4.07,0,.08-.2,1.95-.21,2.01-.37,2.39.66,2.42.12,4.78-.27,1.17-.17,1.18-.08,2.38.07.85-.21,1.33-.14,3.04.09,2.11,2.07,2.01,2.95,1.73,1.11-.37,1.2-.37,2.71-.37,2.38,0,2.37.31,4.76.17,1.47-.09,1.47.13,4.4,0,1.58-.06,2.15.38,3.05.36,1.57-.05,1.57-.03,1.71-.03.66-.04,2.11-.56,2.26-.66,1.87-1.3,1.01-4.39,1.02-5.61.01-1.36-.1-1.35-.04-2.71.07-2.05-.01-2.16-.04-3.4-.02-1.03-.28-.99-.3-2.03-.05-2.65.19-2.7.19-2.7.36-1.26-.04-4.14,0-4.76.04-1.02,0-1.02-.12-2.03-.19-1.7.28-1.71.02-3.39-.28-1.78.26-2.2.24-3.07-.05-2.5-.06-2.49-.06-2.71,0-.6.06-.59.04-2.04-.01-.72-.23-1.32-.23-1.34-.08-.39.11-1.57.14-1.71.09-.54.11-2.19.11-2.38.03-2.06.42-2.06.15-3.39-.19-.95-.22-.95-.13-3.07.11-2.56-.38-2.58.04-5.1.23-1.33.2-1.34-.02-2.67-.03-.22-.07-.46-.03-2.74.01-1,.34-1.35.14-2.37-.42-2.08.06-3.2-.08-4.75-.09-1.02-.09-1.01-.09-2.04,0-1.43.06-1.44-.19-2.37-.18-.65-.12-1.66-.02-2.06.28-1.09.23-1.1.24-2.36,0-1.62.19-1.6.22-2.37Z"/>
  <path class="st0" d="M145.67,147.28c.1.19.25.45.2,2.65-.03.77-.22.75-.22,2.37,0,1.26.04,1.27-.24,2.36-.1.4-.16,1.41.02,2.06.25.93.19.94.19,2.37,0,1.03,0,1.02.09,2.04.14,1.55-.34,2.67.08,4.75.2,1.02-.13,1.37-.14,2.37-.04,2.28,0,2.52.03,2.74.22,1.33.25,1.34.02,2.67-.42,2.52.07,2.54-.04,5.1-.09,2.12-.06,2.12.13,3.07.27,1.33-.12,1.33-.15,3.39,0,.19-.02,1.84-.11,2.38-.03.14-.22,1.32-.14,1.71,0,.02.22.62.23,1.34.02,1.45-.03,1.44-.04,2.04,0,.22,0,.21.06,2.71.02.87-.52,1.29-.24,3.07.26,1.68-.21,1.69-.02,3.39.12,1.01.16,1.01.12,2.03-.03.62.37,3.5,0,4.76,0,0-.24.05-.19,2.7.02,1.04.28,1,.3,2.03.03,1.24.11,1.35.04,3.4-.06,1.36.05,1.35.04,2.71-.01,1.22.85,4.31-1.02,5.61-.15.1-1.6.62-2.26.66-.14,0-.14-.02-1.71.03-.9.02-1.47-.42-3.05-.36-2.93.13-2.93-.09-4.4,0-2.39.14-2.38-.16-4.76-.17-1.51,0-1.6,0-2.71.37-.88.28-2.86.38-2.95-1.73-.07-1.71.21-2.19.14-3.04-.09-1.2-.19-1.21.08-2.38.54-2.36-.49-2.39-.12-4.78.01-.06.21-1.93.21-2.01.04-1-.26-1.06-.08-4.07.14-2.2-.1-2.43-.21-3.74-.08-.95.15-.93.16-2.71.04-8.46-.08-8.46-.16-9.51-.02-.18,0-1.36-.07-1.7-.24-1.18-.31-1.19-.02-2.35.35-1.43.11-1.62.35-3.74.12-1.05-.46-2.01-.26-5.43.01-.25.28-1.45.1-2.71-.16-1.2-.19-1.2,0-2.41.18-1.12,0-3.09-.02-3.36-.22-2.43.43-2.94.19-5.45-.41-4.25.1-4.25.05-6.11-.05-1.69-.11-1.68,0-3.37.16-2.26-.26-2.54-.21-4.09s.04-1.54-.22-3.06c-.14-.76.04-2.21,2-2.25,3.07-.07,4.08.04,4.43.08,1.36.15,1.36-.16,2.72,0,.88.12,7.52.14,8.44,0,1.03-.16,2.74-.19,3.71.24.29.13,1.23.67,1.61,1.32Z"/>
  <path class="st0" d="M106.84,205.59c-.13.9.14,1.15.12,2.03-.09,2.8-.03,3.25-.15,4.07-.15.96-.13.96-.13,3.05,0,1.68.03,1.67.13,2.72.05.63-.41,1.74.01,3.38.49,1.91-.54,2.82-.26,4.74.06.41.14.94.13,5.11,0,1.79.3,1.78.21,3.07-.05.83-.36.81-.22,6.44.03,1.07.57,1.71.07,3.38-.53,1.77.09,2.13-.02,3.74-.08,1.19-.01,1.19-.1,2.37-.02.41-.25,3.73-.06,5.08.05.35.14,1.01.11,4.43-.02,2.22-1.73,1.91-2.63,1.85-1.02-.06-1.01-.29-2.01-.1-1.69.34-2.7-.12-3.75-.1-2.07.03-3.38-.27-4.74-.19-1.37.07-1.37.08-2.73-.08-.71-.08-1.36.16-2.37.16-2.66,0-3.62.21-4.09-.85-.93-2.09-.18-2.95-.14-5.44.04-3.03.49-3.14.03-5.75-.18-1.02-.02-1.62-.06-3.76,0-.83-.31-1.19-.33-1.69-.03-.84.41-.8.4-3.05-.02-4.91.37-4.91.09-6.79-.38-2.41.05-2.54-.15-6.11-.07-1.22.02-1.22.02-5.77,0-1.45-.01-1.87.04-2.39q.09-.83,0-1.66c-.17-1.44.01-1.86-.12-2.42-.05-.21-.14-.42-.19-.63-.26-1.02.21-2.14.26-2.42.25-1.5.3-1.51.09-3.02-.17-1.2-.09-1.43-.18-1.74-.07-.23-.19-.46-.26-.7-.59-1.98.09-2.77.25-2.95.84-.97,2.17-.94,2.64-.93,1.54.05,1.53-.03,3.05,0,2.21.05,2.29.3,3.06.32,4.23.11,5-.07,5.42-.17,1.46-.34,1.47.16,3.4.17,2.4,0,2.4-.02,3.04-.19,1.26-.32,1.96.53,2.13,1.06.21.62.02,1.56,0,1.73Z"/>
</svg>