<?xml version="1.0" encoding="UTF-8"?>
<svg id="Layer_1" data-name="Layer 1" xmlns="http://www.w3.org/2000/svg" viewBox="0 0 1798.21 296.42">
  <defs>
    <style>
      .cls-1 {
        fill: #1b1b1b;
      }
    </style>
  </defs>
  <path class="cls-1" d="M643.61,197.36V4.63l-62.83,15.42v7.32c10.02-.39,17.35,2.7,17.35,28.14v141.85c0,13.49-3.47,19.66-12.33,19.66v9.64h75.16v-9.64c-10.41,0-17.35-6.17-17.35-19.66Z"/>
  <path class="cls-1" d="M580.16,200.83c-1.16,1.16-3.08,3.85-7.71,3.85-5.01,0-7.71-4.24-7.71-15.03l.39-62.83c.39-33.53-22.36-50.11-61.67-50.11s-61.29,19.66-61.29,39.32c0,11.95,8.48,20.81,22.36,20.81,14.65,0,22.74-10.41,22.74-23.9v-6.55c0-13.49,8.09-17.73,16.19-17.73,10.02,0,16.57,4.24,16.57,17.73v23.34l-40.86,14.44c-14.65,5.01-46.64,17.35-46.64,47.8,0,24.28,18.89,38.55,41.24,38.55,19.9,0,36.12-12.08,46.91-26.56,1.87,15.57,8.38,26.56,27.1,26.56,17.73,0,32.76-14.65,37.39-24.28l-5.01-5.4ZM497.29,200.05c-11.18,0-17.35-9.25-17.35-21.97,0-9.64,6.55-23.51,24.28-29.68l15.8-5.43v47.94c-7.49,5.11-15.66,9.14-22.74,9.14Z"/>
  <path class="cls-1" d="M1102.04,67.07c18.5,0,29.68-13.49,29.68-28.91,0-12.72-9.64-28.91-29.68-28.91-16.96,0-30.07,13.49-30.07,29.29,0,16.96,13.11,28.52,30.07,28.52Z"/>
  <path class="cls-1" d="M375.96,192.35c-29.68,0-43.17-18.12-43.94-45.48-.02-1-.02-2.03-.02-3.08h91.37v-5.78c0-39.32-23.9-61.29-62.44-61.29-44.33,0-70.92,38.16-70.92,78.25s25.83,75.55,70.92,75.55c31.22,0,56.28-23.51,62.83-54.73l-4.24-2.7c-11.18,12.72-30.45,19.27-43.56,19.27ZM357.07,88.66c17.5,0,21.11,25.62,21.81,43.17h-46.37c1.7-20.52,8.02-43.17,24.56-43.17Z"/>
  <path class="cls-1" d="M340.58,29.3v-5.78h-84.03v5.78c22.74,11.56,25.05,47.8,14.65,72.08l-20.81,49.72-35.08-82.1c-8.09-18.89-3.85-37.77,11.18-39.7v-5.78h-99.83v5.78c13.49,2.7,20.43,13.88,34.31,45.87l6.25,14.52-28.22,64.49-42.01-85.18c-8.87-18.12-3.85-37.77,11.18-39.7v-5.78H7.55v5.78c13.49,2.7,21.2,13.88,34.69,45.87l72.85,151.48h7.32l52.26-119.6,51.43,119.6h8.09l42.79-102.92c25.83-61.67,37-81.33,63.6-94.44Z"/>
  <path class="cls-1" d="M1509.61,76.71c-20.45,0-34.75,13.22-45.87,29.66v-28.51l-63.21,15.03v7.71c10.02-.77,17.73,2.7,17.73,27.75v134.14c0,13.88-6.55,19.66-18.12,19.66v9.64h80.56v-9.64c-10.41,0-16.96-5.78-16.96-19.66v-34.09c6.88,1.5,13.85,2.1,21.59,2.1,47.8,0,80.94-38.55,80.94-87.5,0-37.39-23.9-66.3-56.66-66.3ZM1489.57,219.33c-16.19,0-25.83-14.26-25.83-33.15v-68.04c5.78-5.8,11.7-10.59,19.27-10.59,26.98,0,37.39,29.68,37.39,58.2,0,24.67-8.87,53.58-30.84,53.58Z"/>
  <path class="cls-1" d="M1629.56,197.36V4.63l-62.44,14.65v7.71c9.64-.39,17.35,3.08,17.35,27.37v143c0,13.49-6.17,19.66-17.73,19.66v9.64h80.56v-9.64c-10.41,0-17.73-6.17-17.73-19.66Z"/>
  <path class="cls-1" d="M1776.03,173.07c-11.18,12.72-30.84,19.27-43.17,19.27-30.07,0-43.94-18.12-44.33-45.48-.02-1-.02-2.03-.02-3.08h91.37v-5.78c0-39.32-23.9-61.29-62.06-61.29-44.71,0-71.31,38.16-71.31,78.25s25.83,75.55,71.31,75.55c31.22,0,56.28-23.51,62.83-54.73l-4.63-2.7ZM1713.59,88.66c17.18,0,20.73,25.62,21.42,43.17h-45.99c1.7-20.52,8.02-43.17,24.56-43.17Z"/>
  <path class="cls-1" d="M761.94,192.35c-5.78,5.4-12.72,9.25-21.59,9.25-14.65,0-19.27-10.79-19.27-24.67v-78.25h43.17v-16.57h-43.17v-49.34l-65.91,58.97v6.94h21.97v80.94c0,31.61,14.26,50.88,41.24,50.88,24.67,0,39.32-14.26,48.95-32.76l-5.4-5.4Z"/>
  <path class="cls-1" d="M917.19,197.36v-66.68c0-30.84-13.11-53.96-44.33-53.96-22.37,0-36,13.51-48.57,30.87V4.63l-62.83,15.42v7.32c9.64-.39,17.73,2.7,17.73,28.14v141.85c0,13.49-6.17,19.66-12.72,19.66v9.64h75.55v-9.64c-10.41,0-17.73-6.17-17.73-19.66v-78.56c6.43-6.9,13.14-11.64,23.51-11.64,14.65,0,23.9,11.18,23.9,26.6v63.6c0,13.49-6.17,19.66-17.73,19.66v9.64h80.56v-9.64c-10.41,0-17.35-6.17-17.35-19.66Z"/>
  <path class="cls-1" d="M1026.19,139.54l-27.75-13.88c-8.09-4.63-17.73-9.25-17.73-21.97,0-10.41,7.32-14.26,14.26-15.03,14.65-1.54,29.68,10.41,42.01,38.16l7.32-.77v-41.63c-10.02-3.47-23.51-7.71-40.86-7.71-37,0-63.21,19.66-62.44,49.72.39,14.65,12.33,27.75,31.22,37.77l25.83,12.72c6.55,3.47,19.27,11.56,19.27,26.6,0,9.64-7.32,15.03-15.42,15.03-20.04,0-38.55-20.43-51.27-46.25l-7.32.39,2.31,47.8c14.26,5.4,29.68,10.02,46.25,10.02,35.85,0,64.37-19.27,64.37-52.42,0-17.35-11.95-30.07-30.07-38.55Z"/>
  <path class="cls-1" d="M1325.52,217.01v9.64h80.56v-9.64c-10.41,0-16.96-5.78-16.96-19.66v-66.68c0-29.68-12.72-53.96-43.17-53.96-23.4,0-36.94,11.79-50.31,30.27-5.39-17.54-17.62-30.27-38.34-30.27-22.41,0-36.81,13.45-49.34,30.6v-29.44l-63.21,15.03v7.71c10.02-.77,18.12,2.7,18.12,27.75v69c0,13.41-8.35,19.58-19.79,19.65-10.3-.07-18.29-6.24-18.29-19.65v-119.49l-63.21,15.03v7.71c10.02-.77,18.12,2.7,18.12,27.75v69c0,13.49-6.94,19.66-18.5,19.66v9.64h163.73v-9.64c-10.41,0-16.96-6.17-16.96-19.66v-79.17c5.87-5.76,12.72-9.48,22.36-9.48,14.65,0,23.51,8.87,23.51,25.44v63.21c0,13.49-6.55,19.66-18.5,19.66v9.64h80.56v-9.64c-10.02,0-16.96-6.17-16.96-19.66v-66.68c0-3.97-.24-7.88-.73-11.67,5.88-6.1,12.6-10.3,22.32-10.3,15.42,0,23.51,10.41,23.51,25.44v63.21c0,13.49-6.94,19.66-18.5,19.66Z"/>
</svg>